<svg  viewBox="0 0 375 812" fill="none" xmlns="http://www.w3.org/2000/svg">
<g clip-path="url(#clip0_183_27887)">
<rect width="375" height="812" fill="white"/>
<g opacity="0.15" clip-path="url(#clip1_183_27887)">
<path d="M189.694 802.148H180.842H175.574H149.485V782.195V772.372V714.971L229.902 715.585" stroke="#3C3C3C" stroke-width="1.5" stroke-miterlimit="10"/>
<path d="M189.694 533.864H179.258" stroke="#3C3C3C" stroke-width="1.5" stroke-miterlimit="10"/>
<path d="M189.694 551.214H179.258V524.655" stroke="#3C3C3C" stroke-width="1.5" stroke-miterlimit="10"/>
<path d="M181.406 533.864L186.465 499.951H189.694" stroke="#3C3C3C" stroke-width="1.5" stroke-miterlimit="10"/>
<path d="M186.317 539.855V551.213" stroke="#3C3C3C" stroke-miterlimit="10"/>
<path d="M179.258 551.213L164.365 573.154H189.694" stroke="#3C3C3C" stroke-width="1.5" stroke-miterlimit="10"/>
<path d="M189.694 587.742H164.365V573.155V561.49" stroke="#3C3C3C" stroke-width="1.5" stroke-miterlimit="10"/>
<path d="M175.882 573.155V587.742" stroke="#3C3C3C" stroke-miterlimit="10"/>
<path d="M180.793 573.155V587.742" stroke="#3C3C3C" stroke-miterlimit="10"/>
<path d="M185.704 573.155V587.742" stroke="#3C3C3C" stroke-miterlimit="10"/>
<path d="M182.327 563.799V568.096" stroke="#3C3C3C" stroke-miterlimit="10"/>
<path d="M187.238 563.799V568.096" stroke="#3C3C3C" stroke-miterlimit="10"/>
<path d="M184.783 556.432V560.729" stroke="#3C3C3C" stroke-miterlimit="10"/>
<path d="M164.365 587.741H159V641.914H189.694" stroke="#3C3C3C" stroke-width="1.5" stroke-miterlimit="10"/>
<path d="M168.822 587.741V641.914" stroke="#3C3C3C" stroke-miterlimit="10"/>
<path d="M159 629.845H189.694" stroke="#3C3C3C" stroke-miterlimit="10"/>
<path d="M175.882 629.636V641.914" stroke="#3C3C3C" stroke-miterlimit="10"/>
<path d="M180.793 629.636V641.914" stroke="#3C3C3C" stroke-miterlimit="10"/>
<path d="M185.704 629.636V641.914" stroke="#3C3C3C" stroke-miterlimit="10"/>
<path d="M189.694 693.692H149.485V714.971" stroke="#3C3C3C" stroke-width="1.5" stroke-miterlimit="10"/>
<path d="M161.861 641.914V693.692" stroke="#3C3C3C" stroke-width="1.5" stroke-miterlimit="10"/>
<path d="M163.297 693.692V709.065" stroke="#3C3C3C" stroke-miterlimit="10"/>
<path d="M171.278 641.914V693.692" stroke="#3C3C3C" stroke-miterlimit="10"/>
<path d="M178.644 641.914V693.692" stroke="#3C3C3C" stroke-miterlimit="10"/>
<path d="M186.011 641.914V693.692" stroke="#3C3C3C" stroke-miterlimit="10"/>
<path d="M161.861 650.312H189.694" stroke="#3C3C3C" stroke-miterlimit="10"/>
<path d="M161.861 655.224H189.694" stroke="#3C3C3C" stroke-miterlimit="10"/>
<path d="M161.861 665.047H189.694" stroke="#3C3C3C" stroke-miterlimit="10"/>
<path d="M161.861 669.958H189.694" stroke="#3C3C3C" stroke-miterlimit="10"/>
<path d="M161.861 679.781H189.694" stroke="#3C3C3C" stroke-miterlimit="10"/>
<path d="M161.861 684.692H189.694" stroke="#3C3C3C" stroke-miterlimit="10"/>
<path d="M176.52 782.195H149.485" stroke="#3C3C3C" stroke-miterlimit="10"/>
<path d="M160.842 723.259V752.727" stroke="#3C3C3C" stroke-miterlimit="10"/>
<path d="M174.654 723.259V729.251H184.476V723.259" stroke="#3C3C3C" stroke-miterlimit="10"/>
<path d="M177.109 729.251L177.563 752.727" stroke="#3C3C3C" stroke-miterlimit="10"/>
<path d="M182.02 729.251L182.474 752.727" stroke="#3C3C3C" stroke-miterlimit="10"/>
<path d="M167.287 749.044V741.677V734.31H172.603V749.044H167.287Z" stroke="#3C3C3C" stroke-miterlimit="10"/>
<path d="M172.603 741.677H167.287" stroke="#3C3C3C" stroke-miterlimit="10"/>
<path d="M173.623 594.163H175.464" stroke="#3C3C3C" stroke-width="1.5" stroke-miterlimit="10"/>
<path d="M173.623 623.632H175.464" stroke="#3C3C3C" stroke-width="1.5" stroke-miterlimit="10"/>
<path d="M189.694 624.503C185.745 624.391 181.996 622.743 179.243 619.911C176.49 617.078 174.95 613.283 174.95 609.333C174.95 605.383 176.49 601.588 179.243 598.756C181.996 595.923 185.745 594.275 189.694 594.163" stroke="#3C3C3C" stroke-width="1.5" stroke-miterlimit="10"/>
<path d="M189.694 613.011C188.717 613.011 187.78 612.623 187.09 611.932C186.399 611.241 186.011 610.304 186.011 609.327C186.011 608.35 186.399 607.413 187.09 606.722C187.78 606.032 188.717 605.644 189.694 605.644" stroke="#3C3C3C" stroke-miterlimit="10"/>
<path d="M185.397 616.78L182.119 622.465" stroke="#3C3C3C" stroke-miterlimit="10"/>
<path d="M182.499 614.055L177.023 617.64" stroke="#3C3C3C" stroke-miterlimit="10"/>
<path d="M174.556 609.34H181.1" stroke="#3C3C3C" stroke-miterlimit="10"/>
<path d="M185.397 601.887L182.119 596.202" stroke="#3C3C3C" stroke-miterlimit="10"/>
<path d="M182.499 604.624L177.023 601.039" stroke="#3C3C3C" stroke-miterlimit="10"/>
<path d="M189.694 711.189C189.046 711.144 188.438 710.855 187.995 710.38C187.552 709.905 187.305 709.279 187.305 708.629C187.305 707.979 187.552 707.354 187.995 706.879C188.438 706.403 189.046 706.114 189.694 706.069" stroke="#3C3C3C" stroke-miterlimit="10"/>
<path d="M189.694 802.148H200.486H205.753H229.903V782.195V772.372V714.971" stroke="#3C3C3C" stroke-width="1.5" stroke-miterlimit="10"/>
<path d="M189.694 533.864H200.13" stroke="#3C3C3C" stroke-width="1.5" stroke-miterlimit="10"/>
<path d="M189.694 551.214H200.13V524.655" stroke="#3C3C3C" stroke-width="1.5" stroke-miterlimit="10"/>
<path d="M197.981 533.864L192.911 499.951H189.694V492.633" stroke="#3C3C3C" stroke-width="1.5" stroke-miterlimit="10"/>
<path d="M193.07 539.855V551.213" stroke="#3C3C3C" stroke-miterlimit="10"/>
<path d="M200.13 551.213L215.01 573.154H189.694" stroke="#3C3C3C" stroke-width="1.5" stroke-miterlimit="10"/>
<path d="M189.694 587.742H215.01V573.155V561.49" stroke="#3C3C3C" stroke-width="1.5" stroke-miterlimit="10"/>
<path d="M203.506 573.155V587.742" stroke="#3C3C3C" stroke-miterlimit="10"/>
<path d="M198.595 573.155V587.742" stroke="#3C3C3C" stroke-miterlimit="10"/>
<path d="M193.684 573.155V587.742" stroke="#3C3C3C" stroke-miterlimit="10"/>
<path d="M197.06 563.799V568.096" stroke="#3C3C3C" stroke-miterlimit="10"/>
<path d="M192.149 563.799V568.096" stroke="#3C3C3C" stroke-miterlimit="10"/>
<path d="M194.605 556.432V560.729" stroke="#3C3C3C" stroke-miterlimit="10"/>
<path d="M215.01 587.741H220.388V641.914H189.694" stroke="#3C3C3C" stroke-width="1.5" stroke-miterlimit="10"/>
<path d="M210.565 587.741V641.914" stroke="#3C3C3C" stroke-miterlimit="10"/>
<path d="M220.388 629.845H189.694" stroke="#3C3C3C" stroke-miterlimit="10"/>
<path d="M203.506 629.636V641.914" stroke="#3C3C3C" stroke-miterlimit="10"/>
<path d="M198.595 629.636V641.914" stroke="#3C3C3C" stroke-miterlimit="10"/>
<path d="M193.684 629.636V641.914" stroke="#3C3C3C" stroke-miterlimit="10"/>
<path d="M189.694 693.692H229.903V714.971" stroke="#3C3C3C" stroke-width="1.5" stroke-miterlimit="10"/>
<path d="M217.515 641.914V693.692" stroke="#3C3C3C" stroke-width="1.5" stroke-miterlimit="10"/>
<path d="M229.903 714.971L189.694 698.812L149.485 714.971H31.0075L-3.0625 700.237" stroke="#3C3C3C" stroke-width="1.5" stroke-miterlimit="10"/>
<path d="M216.09 693.692V709.065" stroke="#3C3C3C" stroke-miterlimit="10"/>
<path d="M229.903 723.259H189.694" stroke="#3C3C3C" stroke-miterlimit="10"/>
<path d="M208.11 641.914V693.692" stroke="#3C3C3C" stroke-miterlimit="10"/>
<path d="M200.744 641.914V693.692" stroke="#3C3C3C" stroke-miterlimit="10"/>
<path d="M193.377 641.914V693.692" stroke="#3C3C3C" stroke-miterlimit="10"/>
<path d="M217.515 650.312H189.694" stroke="#3C3C3C" stroke-miterlimit="10"/>
<path d="M217.515 655.224H189.694" stroke="#3C3C3C" stroke-miterlimit="10"/>
<path d="M217.515 665.047H189.694" stroke="#3C3C3C" stroke-miterlimit="10"/>
<path d="M217.515 669.958H189.694" stroke="#3C3C3C" stroke-miterlimit="10"/>
<path d="M217.515 679.781H189.694" stroke="#3C3C3C" stroke-miterlimit="10"/>
<path d="M217.515 684.692H189.694" stroke="#3C3C3C" stroke-miterlimit="10"/>
<path d="M229.903 752.728H189.694" stroke="#3C3C3C" stroke-miterlimit="10"/>
<path d="M229.903 762.55H189.694" stroke="#3C3C3C" stroke-miterlimit="10"/>
<path d="M229.902 771.145H149.485" stroke="#3C3C3C" stroke-miterlimit="10"/>
<path d="M229.903 782.195H204.808" stroke="#3C3C3C" stroke-miterlimit="10"/>
<path d="M218.546 723.259V752.727" stroke="#3C3C3C" stroke-miterlimit="10"/>
<path d="M218.546 729.251H229.903" stroke="#3C3C3C" stroke-miterlimit="10"/>
<path d="M204.734 723.259V729.251H194.912V723.259" stroke="#3C3C3C" stroke-miterlimit="10"/>
<path d="M202.278 729.251L201.812 752.727" stroke="#3C3C3C" stroke-miterlimit="10"/>
<path d="M197.367 729.251L196.9 752.727" stroke="#3C3C3C" stroke-miterlimit="10"/>
<path d="M212.1 749.044V741.677V734.31H206.771V749.044H212.1Z" stroke="#3C3C3C" stroke-miterlimit="10"/>
<path d="M206.771 741.677H212.1" stroke="#3C3C3C" stroke-miterlimit="10"/>
<path d="M205.752 594.163H203.911" stroke="#3C3C3C" stroke-width="1.5" stroke-miterlimit="10"/>
<path d="M205.752 623.632H203.911" stroke="#3C3C3C" stroke-width="1.5" stroke-miterlimit="10"/>
<path d="M189.694 624.503C193.642 624.391 197.391 622.743 200.144 619.911C202.897 617.078 204.437 613.283 204.437 609.333C204.437 605.383 202.897 601.588 200.144 598.756C197.391 595.923 193.642 594.275 189.694 594.163" stroke="#3C3C3C" stroke-width="1.5" stroke-miterlimit="10"/>
<path d="M189.694 613.011C190.671 613.011 191.608 612.623 192.298 611.932C192.989 611.241 193.377 610.304 193.377 609.327C193.377 608.35 192.989 607.413 192.298 606.722C191.608 606.032 190.671 605.644 189.694 605.644" stroke="#3C3C3C" stroke-miterlimit="10"/>
<path d="M193.979 616.78L197.257 622.465" stroke="#3C3C3C" stroke-miterlimit="10"/>
<path d="M196.876 614.055L202.352 617.64" stroke="#3C3C3C" stroke-miterlimit="10"/>
<path d="M204.832 609.34H198.288" stroke="#3C3C3C" stroke-miterlimit="10"/>
<path d="M193.979 601.887L197.257 596.202" stroke="#3C3C3C" stroke-miterlimit="10"/>
<path d="M196.876 604.624L202.352 601.039" stroke="#3C3C3C" stroke-miterlimit="10"/>
<path d="M189.694 706.069C190.342 706.114 190.949 706.403 191.393 706.879C191.836 707.354 192.082 707.979 192.082 708.629C192.082 709.279 191.836 709.905 191.393 710.38C190.949 710.855 190.342 711.144 189.694 711.189" stroke="#3C3C3C" stroke-miterlimit="10"/>
<path d="M186.931 749.044V741.677V734.31H192.247V749.044H186.931Z" stroke="#3C3C3C" stroke-miterlimit="10"/>
<path d="M192.247 741.677H186.931" stroke="#3C3C3C" stroke-miterlimit="10"/>
<path d="M155.624 752.728V762.55" stroke="#3C3C3C" stroke-miterlimit="10"/>
<path d="M160.535 752.728V762.55" stroke="#3C3C3C" stroke-miterlimit="10"/>
<path d="M165.446 752.728V762.55" stroke="#3C3C3C" stroke-miterlimit="10"/>
<path d="M170.357 752.728V762.55" stroke="#3C3C3C" stroke-miterlimit="10"/>
<path d="M175.268 752.728V762.55" stroke="#3C3C3C" stroke-miterlimit="10"/>
<path d="M180.179 752.728V762.55" stroke="#3C3C3C" stroke-miterlimit="10"/>
<path d="M185.09 752.728V762.55" stroke="#3C3C3C" stroke-miterlimit="10"/>
<path d="M190.001 752.728V762.55" stroke="#3C3C3C" stroke-miterlimit="10"/>
<path d="M194.912 752.728V762.55" stroke="#3C3C3C" stroke-miterlimit="10"/>
<path d="M199.823 752.728V762.55" stroke="#3C3C3C" stroke-miterlimit="10"/>
<path d="M204.734 752.728V762.55" stroke="#3C3C3C" stroke-miterlimit="10"/>
<path d="M209.645 752.728V762.55" stroke="#3C3C3C" stroke-miterlimit="10"/>
<path d="M214.556 752.728V762.55" stroke="#3C3C3C" stroke-miterlimit="10"/>
<path d="M219.467 752.728V762.55" stroke="#3C3C3C" stroke-miterlimit="10"/>
<path d="M224.378 752.728V762.55" stroke="#3C3C3C" stroke-miterlimit="10"/>
<path d="M222.99 802.148V786.346H217.318V802.148" stroke="#3C3C3C" stroke-miterlimit="10"/>
<path d="M162.83 802.148V786.346H157.158V802.148" stroke="#3C3C3C" stroke-miterlimit="10"/>
<path d="M205.753 787.463C205.753 783.461 204.163 779.623 201.333 776.793C198.504 773.963 194.666 772.373 190.664 772.373C186.662 772.373 182.824 773.963 179.994 776.793C177.164 779.623 175.575 783.461 175.575 787.463" stroke="#3C3C3C" stroke-miterlimit="10"/>
<path d="M200.485 787.463C200.485 784.858 199.45 782.36 197.608 780.518C195.767 778.676 193.268 777.641 190.663 777.641C188.058 777.641 185.56 778.676 183.718 780.518C181.876 782.36 180.841 784.858 180.841 787.463" stroke="#3C3C3C" stroke-miterlimit="10"/>
<path d="M180.842 802.148V787.463" stroke="#3C3C3C" stroke-miterlimit="10"/>
<path d="M175.575 802.148V787.463" stroke="#3C3C3C" stroke-miterlimit="10"/>
<path d="M200.485 802.148V787.463" stroke="#3C3C3C" stroke-miterlimit="10"/>
<path d="M205.752 802.148V787.463" stroke="#3C3C3C" stroke-miterlimit="10"/>
<path d="M-3.0625 802.148H7.72941H12.9964H31.0075V782.195V772.372V714.971L-3.0625 715.278" stroke="#3C3C3C" stroke-width="1.5" stroke-miterlimit="10"/>
<path d="M-3.0625 700.237H31.0075V716.617" stroke="#3C3C3C" stroke-width="1.5" stroke-miterlimit="10"/>
<path d="M23.334 700.237V711.656" stroke="#3C3C3C" stroke-miterlimit="10"/>
<path d="M-3.0625 723.259H31.0075H149.485H189.694" stroke="#3C3C3C" stroke-miterlimit="10"/>
<path d="M-35.5977 752.936L4.22299 752.899L142.698 752.77L189.694 752.727" stroke="#3C3C3C" stroke-miterlimit="10"/>
<path d="M-3.0625 762.55H31.0075H149.485H189.694" stroke="#3C3C3C" stroke-miterlimit="10"/>
<path d="M16.8884 771.145H0.927734" stroke="#3C3C3C" stroke-miterlimit="10"/>
<path d="M51.2647 771.145H45.126" stroke="#3C3C3C" stroke-miterlimit="10"/>
<path d="M110.197 771.145H69.6812" stroke="#3C3C3C" stroke-miterlimit="10"/>
<path d="M134.752 771.145H128.613" stroke="#3C3C3C" stroke-miterlimit="10"/>
<path d="M149.485 771.145H140.891" stroke="#3C3C3C" stroke-miterlimit="10"/>
<path d="M122.475 771.145H116.336" stroke="#3C3C3C" stroke-miterlimit="10"/>
<path d="M63.5425 771.145H57.4038" stroke="#3C3C3C" stroke-miterlimit="10"/>
<path d="M23.0273 771.145H31.0077H38.9881" stroke="#3C3C3C" stroke-miterlimit="10"/>
<path d="M-35.9048 778.512H31.0074H77.846" stroke="#3C3C3C" stroke-miterlimit="10"/>
<path d="M25.7896 723.259V752.727" stroke="#3C3C3C" stroke-miterlimit="10"/>
<path d="M25.7896 729.251H31.0075H149.485H160.842" stroke="#3C3C3C" stroke-miterlimit="10"/>
<path d="M11.9773 723.259V729.251H2.15527V723.259" stroke="#3C3C3C" stroke-miterlimit="10"/>
<path d="M9.52173 729.251L9.05518 752.727" stroke="#3C3C3C" stroke-miterlimit="10"/>
<path d="M4.61059 729.251L4.14404 752.727" stroke="#3C3C3C" stroke-miterlimit="10"/>
<path d="M19.3436 749.044V741.677V734.31H14.0151V749.044H19.3436Z" stroke="#3C3C3C" stroke-miterlimit="10"/>
<path d="M14.0151 741.677H19.3436" stroke="#3C3C3C" stroke-miterlimit="10"/>
<path d="M2.15527 752.728V762.55" stroke="#3C3C3C" stroke-miterlimit="10"/>
<path d="M7.06641 752.728V762.55" stroke="#3C3C3C" stroke-miterlimit="10"/>
<path d="M11.9775 752.728V762.55" stroke="#3C3C3C" stroke-miterlimit="10"/>
<path d="M16.8887 752.728V762.55" stroke="#3C3C3C" stroke-miterlimit="10"/>
<path d="M21.7993 752.728V762.55" stroke="#3C3C3C" stroke-miterlimit="10"/>
<path d="M26.7104 752.728V762.55" stroke="#3C3C3C" stroke-miterlimit="10"/>
<path d="M0.927798 768.075H-5.21094V774.214H0.927798V768.075Z" stroke="#3C3C3C" stroke-miterlimit="10"/>
<path d="M23.0274 772.373V768.075H16.8887V772.373" stroke="#3C3C3C" stroke-miterlimit="10"/>
<path d="M23.0274 772.373V774.215H16.8887V772.373" stroke="#3C3C3C" stroke-miterlimit="10"/>
<path d="M0.927798 784.651H-5.21094V796.93H0.927798V784.651Z" stroke="#3C3C3C" stroke-miterlimit="10"/>
<path d="M23.0274 784.651H16.8887V796.93H23.0274V784.651Z" stroke="#3C3C3C" stroke-miterlimit="10"/>
<path d="M44.6597 723.259V729.251" stroke="#3C3C3C" stroke-miterlimit="10"/>
<path d="M52.0264 723.259V729.251" stroke="#3C3C3C" stroke-miterlimit="10"/>
<path d="M61.8486 723.259V729.251" stroke="#3C3C3C" stroke-miterlimit="10"/>
<path d="M69.2148 723.259V729.251" stroke="#3C3C3C" stroke-miterlimit="10"/>
<path d="M79.0366 723.259V729.251" stroke="#3C3C3C" stroke-miterlimit="10"/>
<path d="M86.4033 723.259V729.251" stroke="#3C3C3C" stroke-miterlimit="10"/>
<path d="M96.2256 723.259V729.251" stroke="#3C3C3C" stroke-miterlimit="10"/>
<path d="M103.591 723.259V729.251" stroke="#3C3C3C" stroke-miterlimit="10"/>
<path d="M113.414 723.259V729.251" stroke="#3C3C3C" stroke-miterlimit="10"/>
<path d="M120.78 723.259V729.251" stroke="#3C3C3C" stroke-miterlimit="10"/>
<path d="M130.602 723.259V729.251" stroke="#3C3C3C" stroke-miterlimit="10"/>
<path d="M137.968 723.259V729.251" stroke="#3C3C3C" stroke-miterlimit="10"/>
<path d="M42.6712 749.044V741.677V734.31H37.3428V749.044H42.6712Z" stroke="#3C3C3C" stroke-miterlimit="10"/>
<path d="M37.3428 741.677H42.6712" stroke="#3C3C3C" stroke-miterlimit="10"/>
<path d="M36.5322 752.728V762.55" stroke="#3C3C3C" stroke-miterlimit="10"/>
<path d="M41.4434 752.728V762.55" stroke="#3C3C3C" stroke-miterlimit="10"/>
<path d="M46.3545 752.728V762.55" stroke="#3C3C3C" stroke-miterlimit="10"/>
<path d="M51.2651 752.728V762.55" stroke="#3C3C3C" stroke-miterlimit="10"/>
<path d="M56.1763 752.728V762.55" stroke="#3C3C3C" stroke-miterlimit="10"/>
<path d="M61.0869 752.728V762.55" stroke="#3C3C3C" stroke-miterlimit="10"/>
<path d="M65.998 752.728V762.55" stroke="#3C3C3C" stroke-miterlimit="10"/>
<path d="M70.9092 752.728V762.55" stroke="#3C3C3C" stroke-miterlimit="10"/>
<path d="M75.8203 752.728V762.55" stroke="#3C3C3C" stroke-miterlimit="10"/>
<path d="M80.7314 752.728V762.55" stroke="#3C3C3C" stroke-miterlimit="10"/>
<path d="M85.6421 752.728V762.55" stroke="#3C3C3C" stroke-miterlimit="10"/>
<path d="M90.5532 752.728V762.55" stroke="#3C3C3C" stroke-miterlimit="10"/>
<path d="M95.4639 752.728V762.55" stroke="#3C3C3C" stroke-miterlimit="10"/>
<path d="M100.375 752.728V762.55" stroke="#3C3C3C" stroke-miterlimit="10"/>
<path d="M105.286 752.728V762.55" stroke="#3C3C3C" stroke-miterlimit="10"/>
<path d="M110.197 752.728V762.55" stroke="#3C3C3C" stroke-miterlimit="10"/>
<path d="M115.108 752.728V762.55" stroke="#3C3C3C" stroke-miterlimit="10"/>
<path d="M120.019 752.728V762.55" stroke="#3C3C3C" stroke-miterlimit="10"/>
<path d="M124.93 752.728V762.55" stroke="#3C3C3C" stroke-miterlimit="10"/>
<path d="M129.841 752.728V762.55" stroke="#3C3C3C" stroke-miterlimit="10"/>
<path d="M134.752 752.728V762.55" stroke="#3C3C3C" stroke-miterlimit="10"/>
<path d="M139.663 752.728V762.55" stroke="#3C3C3C" stroke-miterlimit="10"/>
<path d="M144.574 752.728V762.55" stroke="#3C3C3C" stroke-miterlimit="10"/>
<path d="M49.5708 729.251V752.727" stroke="#3C3C3C" stroke-miterlimit="10"/>
<path d="M61.0872 749.044V741.677V734.31H55.7588V749.044H61.0872Z" stroke="#3C3C3C" stroke-miterlimit="10"/>
<path d="M55.7588 741.677H61.0872" stroke="#3C3C3C" stroke-miterlimit="10"/>
<path d="M67.9873 729.251V752.727" stroke="#3C3C3C" stroke-miterlimit="10"/>
<path d="M79.5032 749.044V741.677V734.31H74.1748V749.044H79.5032Z" stroke="#3C3C3C" stroke-miterlimit="10"/>
<path d="M74.1748 741.677H79.5032" stroke="#3C3C3C" stroke-miterlimit="10"/>
<path d="M86.4033 729.251V752.727" stroke="#3C3C3C" stroke-miterlimit="10"/>
<path d="M97.9197 749.044V741.677V734.31H92.5913V749.044H97.9197Z" stroke="#3C3C3C" stroke-miterlimit="10"/>
<path d="M92.5913 741.677H97.9197" stroke="#3C3C3C" stroke-miterlimit="10"/>
<path d="M104.819 729.251V752.727" stroke="#3C3C3C" stroke-miterlimit="10"/>
<path d="M116.336 749.044V741.677V734.31H111.007V749.044H116.336Z" stroke="#3C3C3C" stroke-miterlimit="10"/>
<path d="M111.007 741.677H116.336" stroke="#3C3C3C" stroke-miterlimit="10"/>
<path d="M123.235 729.251V752.727" stroke="#3C3C3C" stroke-miterlimit="10"/>
<path d="M134.752 749.044V741.677V734.31H129.424V749.044H134.752Z" stroke="#3C3C3C" stroke-miterlimit="10"/>
<path d="M129.424 741.677H134.752" stroke="#3C3C3C" stroke-miterlimit="10"/>
<path d="M141.652 729.251V752.727" stroke="#3C3C3C" stroke-miterlimit="10"/>
<path d="M382.45 715.278L376.618 715.229L367.373 715.143L363.211 715.106L357.588 715.057L352.493 715.008L348.38 714.971V716.604V723.259V729.251V742.204V751.757V752.727V756.312V756.902V757.319V762.55V763.029V771.145V772.372V782.195V802.148H366.391H371.658H382.45" stroke="#3C3C3C" stroke-width="1.5" stroke-miterlimit="10"/>
<path d="M382.45 700.237H369.951H364.513H361.161H357.588H356.053H354.519H351.167H348.38V714.738V714.971V716.604" stroke="#3C3C3C" stroke-width="1.5" stroke-miterlimit="10"/>
<path d="M382.45 700.237L371.965 704.768L365.924 707.383L362.339 708.93L357.588 710.993L356.053 711.656L352.763 713.081L348.38 714.971H348.343H341.271H315.096H290.037H288.932H283.579H281.406H277.097H229.902" stroke="#3C3C3C" stroke-width="1.5" stroke-miterlimit="10"/>
<path d="M356.054 711.656V700.237" stroke="#3C3C3C" stroke-miterlimit="10"/>
<path d="M229.902 723.259H248.773H258.595H265.961H275.783H282.057H283.15H286.244H289.006H291.412H292.972H296.029H300.338H306.808H310.16H317.527H327.349H334.715H338.091H346.87H348.38H351.29H353.598H357.588H364.39H367.41H368.81H377.232H380.203H382.45" stroke="#3C3C3C" stroke-miterlimit="10"/>
<path d="M229.902 752.728H249.546H254.457H256.139H259.368H264.279H269.19H274.101H274.555H279.012H283.923H288.834H292.972H293.745H298.656H303.567H308.478H311.388H313.389H314.629H318.3H319.356H323.211H328.122H328.527H329.804H331.425H332.665H333.033H337.944H342.425H342.855H343.776H346.649H348.38H352.677H353.598H356.704H357.588H358.398H362.499H367.41H369.031H370.295H370.32H372.321H373.254H375.231H377.232H377.306H381.861H382.143H382.45" stroke="#3C3C3C" stroke-miterlimit="10"/>
<path d="M229.902 762.55H249.546H254.457H259.368H264.279H269.19H274.101H279.012H283.923H288.834H293.745H298.656H303.567H308.478H313.389H315.28H318.3H323.211H324.316H328.122H333.033H337.944H341.247H342.855H344.549H344.942H348.38H352.677H356.385H357.588H358.693H362.499H367.41H370.627H370.749H372.321H374.445H377.232H382.143H382.45" stroke="#3C3C3C" stroke-miterlimit="10"/>
<path d="M362.499 772.373H372.677H375.452H378.46" stroke="#3C3C3C" stroke-miterlimit="10"/>
<path d="M356.36 772.373H348.38" stroke="#3C3C3C" stroke-miterlimit="10"/>
<path d="M367.336 782.195H348.38" stroke="#3C3C3C" stroke-miterlimit="10"/>
<path d="M353.598 723.259V729.251V752.187V752.727" stroke="#3C3C3C" stroke-miterlimit="10"/>
<path d="M229.902 729.251H248.773H256.139H258.595H265.961H274.555H275.783H283.15H286.465H292.039H292.972H293.88H300.338H301.222H301.517H310.16H311.388H317.527H327.349H329.804H334.715H335.783H345.863H348.38H350.393H353.598" stroke="#3C3C3C" stroke-miterlimit="10"/>
<path d="M367.41 723.259V729.251H369.817H369.866H374.777H377.232V723.259" stroke="#3C3C3C" stroke-miterlimit="10"/>
<path d="M369.865 729.251V752.727" stroke="#3C3C3C" stroke-miterlimit="10"/>
<path d="M374.776 752.727V729.251" stroke="#3C3C3C" stroke-miterlimit="10"/>
<path d="M360.043 749.044V741.677V734.31H365.36V749.044H360.043Z" stroke="#3C3C3C" stroke-miterlimit="10"/>
<path d="M365.36 741.677H360.043" stroke="#3C3C3C" stroke-miterlimit="10"/>
<path d="M372.321 752.728V756.534V760.34V762.292V762.55" stroke="#3C3C3C" stroke-miterlimit="10"/>
<path d="M367.41 752.728V755.171V757.246V757.651V762.55" stroke="#3C3C3C" stroke-miterlimit="10"/>
<path d="M362.499 752.728V754.974V757.663V759.321V762.55" stroke="#3C3C3C" stroke-miterlimit="10"/>
<path d="M357.588 752.728V757.811V762.55" stroke="#3C3C3C" stroke-miterlimit="10"/>
<path d="M352.677 752.728V754.753V757.663V759.653V762.55" stroke="#3C3C3C" stroke-miterlimit="10"/>
<path d="M366.391 787.463C366.395 783.992 367.599 780.629 369.799 777.944C371.998 775.259 375.058 773.416 378.459 772.729" stroke="#3C3C3C" stroke-miterlimit="10"/>
<path d="M391.339 787.463C391.339 784.858 390.304 782.36 388.462 780.518C386.62 778.676 384.122 777.641 381.517 777.641C378.912 777.641 376.414 778.676 374.572 780.518C372.73 782.36 371.695 784.858 371.695 787.463" stroke="#3C3C3C" stroke-miterlimit="10"/>
<path d="M371.658 787.463V802.148" stroke="#3C3C3C" stroke-miterlimit="10"/>
<path d="M366.391 787.463V802.148" stroke="#3C3C3C" stroke-miterlimit="10"/>
<path d="M362.499 772.373V768.394V768.075H362.487H356.36V772.373" stroke="#3C3C3C" stroke-miterlimit="10"/>
<path d="M362.499 772.373V774.215H356.36V772.373" stroke="#3C3C3C" stroke-miterlimit="10"/>
<path d="M356.348 795.702H362.487V785.879H356.348V795.702Z" stroke="#3C3C3C" stroke-miterlimit="10"/>
<path d="M334.715 723.259V729.251" stroke="#3C3C3C" stroke-miterlimit="10"/>
<path d="M327.349 723.259V729.251" stroke="#3C3C3C" stroke-miterlimit="10"/>
<path d="M317.526 723.259V729.251" stroke="#3C3C3C" stroke-miterlimit="10"/>
<path d="M310.16 729.251V723.259" stroke="#3C3C3C" stroke-miterlimit="10"/>
<path d="M300.338 723.259V728.06V728.6V729.251" stroke="#3C3C3C" stroke-miterlimit="10"/>
<path d="M292.972 729.251V728.219V725.8V723.259" stroke="#3C3C3C" stroke-miterlimit="10"/>
<path d="M283.149 729.251V723.259" stroke="#3C3C3C" stroke-miterlimit="10"/>
<path d="M275.783 723.259V729.251" stroke="#3C3C3C" stroke-miterlimit="10"/>
<path d="M265.961 723.259V729.251" stroke="#3C3C3C" stroke-miterlimit="10"/>
<path d="M258.595 723.259V729.251" stroke="#3C3C3C" stroke-miterlimit="10"/>
<path d="M248.773 723.259V729.251" stroke="#3C3C3C" stroke-miterlimit="10"/>
<path d="M241.406 723.259V729.251" stroke="#3C3C3C" stroke-miterlimit="10"/>
<path d="M342.032 734.31H336.716V749.044H342.032V734.31Z" stroke="#3C3C3C" stroke-miterlimit="10"/>
<path d="M342.032 741.677H336.716" stroke="#3C3C3C" stroke-miterlimit="10"/>
<path d="M342.855 752.728V756.534V759.677V762.292V762.55" stroke="#3C3C3C" stroke-miterlimit="10"/>
<path d="M337.944 752.728V755.539V760.328V761.347V762.55" stroke="#3C3C3C" stroke-miterlimit="10"/>
<path d="M333.033 752.728V754.213V754.606V760.131V762.55" stroke="#3C3C3C" stroke-miterlimit="10"/>
<path d="M328.122 752.728V753.919V758.609V762.55" stroke="#3C3C3C" stroke-miterlimit="10"/>
<path d="M323.211 762.55V757.123V756.767V755.195V752.728" stroke="#3C3C3C" stroke-miterlimit="10"/>
<path d="M318.3 752.728V754.594V755.969V762.55" stroke="#3C3C3C" stroke-miterlimit="10"/>
<path d="M313.389 752.728V762.55" stroke="#3C3C3C" stroke-miterlimit="10"/>
<path d="M308.479 752.728V762.55" stroke="#3C3C3C" stroke-miterlimit="10"/>
<path d="M303.567 752.728V762.55" stroke="#3C3C3C" stroke-miterlimit="10"/>
<path d="M298.656 752.728V762.55" stroke="#3C3C3C" stroke-miterlimit="10"/>
<path d="M293.745 752.728V762.55" stroke="#3C3C3C" stroke-miterlimit="10"/>
<path d="M288.834 752.728V762.55" stroke="#3C3C3C" stroke-miterlimit="10"/>
<path d="M283.923 752.728V762.55" stroke="#3C3C3C" stroke-miterlimit="10"/>
<path d="M279.013 752.728V762.55" stroke="#3C3C3C" stroke-miterlimit="10"/>
<path d="M274.102 752.728V762.55" stroke="#3C3C3C" stroke-miterlimit="10"/>
<path d="M269.19 752.728V762.55" stroke="#3C3C3C" stroke-miterlimit="10"/>
<path d="M264.279 752.728V762.55" stroke="#3C3C3C" stroke-miterlimit="10"/>
<path d="M259.369 752.728V762.55" stroke="#3C3C3C" stroke-miterlimit="10"/>
<path d="M254.458 752.728V762.55" stroke="#3C3C3C" stroke-miterlimit="10"/>
<path d="M249.546 752.728V762.55" stroke="#3C3C3C" stroke-miterlimit="10"/>
<path d="M244.636 752.728V762.55" stroke="#3C3C3C" stroke-miterlimit="10"/>
<path d="M239.725 752.728V762.55" stroke="#3C3C3C" stroke-miterlimit="10"/>
<path d="M234.813 752.728V762.55" stroke="#3C3C3C" stroke-miterlimit="10"/>
<path d="M329.804 729.251V747.313V750.836V752.727" stroke="#3C3C3C" stroke-miterlimit="10"/>
<path d="M323.616 734.31H318.3V749.044H323.616V734.31Z" stroke="#3C3C3C" stroke-miterlimit="10"/>
<path d="M323.616 741.677H318.3" stroke="#3C3C3C" stroke-miterlimit="10"/>
<path d="M311.388 729.251V737.563V737.834V744.231V746.06V750.898V752.727" stroke="#3C3C3C" stroke-miterlimit="10"/>
<path d="M303.592 741.677H299.884V734.31H305.2V741.677V746.355V746.907V749.044H299.884V742.855" stroke="#3C3C3C" stroke-miterlimit="10"/>
<path d="M299.884 741.677H303.592H305.2" stroke="#3C3C3C" stroke-miterlimit="10"/>
<path d="M292.972 752.727V744.01V736.593V736.557V736.385V729.251" stroke="#3C3C3C" stroke-miterlimit="10"/>
<path d="M286.784 734.31H281.468V749.044H286.784V734.31Z" stroke="#3C3C3C" stroke-miterlimit="10"/>
<path d="M286.784 741.677H281.468" stroke="#3C3C3C" stroke-miterlimit="10"/>
<path d="M274.556 752.727V729.251" stroke="#3C3C3C" stroke-miterlimit="10"/>
<path d="M263.052 749.044V741.677V734.31H268.368V749.044H263.052Z" stroke="#3C3C3C" stroke-miterlimit="10"/>
<path d="M268.368 741.677H263.052" stroke="#3C3C3C" stroke-miterlimit="10"/>
<path d="M256.139 729.251V752.727" stroke="#3C3C3C" stroke-miterlimit="10"/>
<path d="M244.636 749.044V741.677V734.31H249.952V749.044H244.636Z" stroke="#3C3C3C" stroke-miterlimit="10"/>
<path d="M249.952 741.677H244.636" stroke="#3C3C3C" stroke-miterlimit="10"/>
<path d="M237.723 729.251V752.727" stroke="#3C3C3C" stroke-miterlimit="10"/>
<path d="M9.52148 762.55V802.148" stroke="#3C3C3C" stroke-miterlimit="10"/>
<path d="M0.927734 794.474H9.52196H16.8884" stroke="#3C3C3C" stroke-miterlimit="10"/>
<path d="M31.0077 794.474H23.0273" stroke="#3C3C3C" stroke-miterlimit="10"/>
<path d="M31.0073 802.148H149.485" stroke="#3C3C3C" stroke-width="1.5" stroke-miterlimit="10"/>
<path d="M59.4546 802.308H177.932" stroke="#3C3C3C" stroke-width="1.5" stroke-miterlimit="10"/>
<path d="M75.8077 782.195C75.1785 783.88 74.8582 785.664 74.8623 787.463" stroke="#3C3C3C" stroke-miterlimit="10"/>
<path d="M104.132 782.195C103.05 779.325 101.119 776.852 98.5965 775.107C96.0741 773.363 93.0798 772.428 90.0126 772.428C86.9455 772.428 83.9512 773.363 81.4288 775.107C78.9063 776.852 76.9755 779.325 75.8936 782.195" stroke="#3C3C3C" stroke-miterlimit="10"/>
<path d="M105.077 787.463C105.081 785.664 104.761 783.88 104.132 782.195" stroke="#3C3C3C" stroke-miterlimit="10"/>
<path d="M81.6889 782.195C80.6918 783.771 80.1638 785.598 80.1665 787.463" stroke="#3C3C3C" stroke-miterlimit="10"/>
<path d="M98.2881 782.196C97.4023 780.796 96.1768 779.643 94.7257 778.844C93.2746 778.045 91.645 777.626 89.9885 777.626C88.3321 777.626 86.7025 778.045 85.2514 778.844C83.8003 779.643 82.5748 780.796 81.689 782.196" stroke="#3C3C3C" stroke-miterlimit="10"/>
<path d="M99.8105 787.463C99.8133 785.598 99.2852 783.771 98.2881 782.195" stroke="#3C3C3C" stroke-miterlimit="10"/>
<path d="M80.1665 802.148V787.463" stroke="#3C3C3C" stroke-miterlimit="10"/>
<path d="M74.8994 802.148V787.463" stroke="#3C3C3C" stroke-miterlimit="10"/>
<path d="M99.8105 802.148V787.463" stroke="#3C3C3C" stroke-miterlimit="10"/>
<path d="M105.077 802.148V787.463" stroke="#3C3C3C" stroke-miterlimit="10"/>
<path d="M9.52148 787.106H16.888" stroke="#3C3C3C" stroke-miterlimit="10"/>
<path d="M0.927734 787.106H9.52197" stroke="#3C3C3C" stroke-miterlimit="10"/>
<path d="M31.0077 787.106H23.0273" stroke="#3C3C3C" stroke-miterlimit="10"/>
<path d="M45.126 784.651H38.9873V796.93H45.126V784.651Z" stroke="#3C3C3C" stroke-miterlimit="10"/>
<path d="M38.9878 794.474H30.3936" stroke="#3C3C3C" stroke-miterlimit="10"/>
<path d="M38.9878 787.106H30.3936" stroke="#3C3C3C" stroke-miterlimit="10"/>
<path d="M57.4039 784.651H51.2651V796.93H57.4039V784.651Z" stroke="#3C3C3C" stroke-miterlimit="10"/>
<path d="M69.6812 784.651H63.5425V796.93H69.6812V784.651Z" stroke="#3C3C3C" stroke-miterlimit="10"/>
<path d="M45.126 794.474H51.2647" stroke="#3C3C3C" stroke-miterlimit="10"/>
<path d="M45.126 787.106H51.2647" stroke="#3C3C3C" stroke-miterlimit="10"/>
<path d="M57.4038 787.106H63.5425" stroke="#3C3C3C" stroke-miterlimit="10"/>
<path d="M57.4038 794.474H63.5425" stroke="#3C3C3C" stroke-miterlimit="10"/>
<path d="M134.74 796.93H140.878V784.651H134.74V796.93Z" stroke="#3C3C3C" stroke-miterlimit="10"/>
<path d="M140.891 794.474H149.485" stroke="#3C3C3C" stroke-miterlimit="10"/>
<path d="M140.891 787.106H149.485" stroke="#3C3C3C" stroke-miterlimit="10"/>
<path d="M122.462 796.93H128.601V784.651H122.462V796.93Z" stroke="#3C3C3C" stroke-miterlimit="10"/>
<path d="M110.185 796.93H116.324V784.651H110.185V796.93Z" stroke="#3C3C3C" stroke-miterlimit="10"/>
<path d="M134.752 794.474H128.613" stroke="#3C3C3C" stroke-miterlimit="10"/>
<path d="M134.752 787.106H128.613" stroke="#3C3C3C" stroke-miterlimit="10"/>
<path d="M122.475 787.106H116.336" stroke="#3C3C3C" stroke-miterlimit="10"/>
<path d="M122.475 794.474H116.336" stroke="#3C3C3C" stroke-miterlimit="10"/>
<path d="M69.6812 787.106H74.8991" stroke="#3C3C3C" stroke-miterlimit="10"/>
<path d="M69.6812 794.474H74.8991" stroke="#3C3C3C" stroke-miterlimit="10"/>
<path d="M105.077 787.106H110.197" stroke="#3C3C3C" stroke-miterlimit="10"/>
<path d="M105.077 794.474H110.197" stroke="#3C3C3C" stroke-miterlimit="10"/>
<path d="M-5.21094 790.79H0.927799" stroke="#3C3C3C" stroke-miterlimit="10"/>
<path d="M16.8887 790.79H23.0274" stroke="#3C3C3C" stroke-miterlimit="10"/>
<path d="M38.9873 790.79H45.126" stroke="#3C3C3C" stroke-miterlimit="10"/>
<path d="M51.2651 790.79H57.4039" stroke="#3C3C3C" stroke-miterlimit="10"/>
<path d="M63.5425 790.79H69.6812" stroke="#3C3C3C" stroke-miterlimit="10"/>
<path d="M110.197 790.79H116.336" stroke="#3C3C3C" stroke-miterlimit="10"/>
<path d="M122.474 790.79H128.613" stroke="#3C3C3C" stroke-miterlimit="10"/>
<path d="M134.752 790.79H140.891" stroke="#3C3C3C" stroke-miterlimit="10"/>
<path d="M45.126 768.075H38.9873V774.214H45.126V768.075Z" stroke="#3C3C3C" stroke-miterlimit="10"/>
<path d="M57.4039 768.075H51.2651V774.214H57.4039V768.075Z" stroke="#3C3C3C" stroke-miterlimit="10"/>
<path d="M69.6812 768.075H63.5425V774.214H69.6812V768.075Z" stroke="#3C3C3C" stroke-miterlimit="10"/>
<path d="M116.336 768.075H110.197V774.214H116.336V768.075Z" stroke="#3C3C3C" stroke-miterlimit="10"/>
<path d="M128.613 768.075H122.474V774.214H128.613V768.075Z" stroke="#3C3C3C" stroke-miterlimit="10"/>
<path d="M140.891 768.075H134.752V774.214H140.891V768.075Z" stroke="#3C3C3C" stroke-miterlimit="10"/>
<path d="M101.91 778.512H149.485" stroke="#3C3C3C" stroke-miterlimit="10"/>
<path d="M250.16 771.145H244.021" stroke="#3C3C3C" stroke-miterlimit="10"/>
<path d="M309.092 771.145H268.577" stroke="#3C3C3C" stroke-miterlimit="10"/>
<path d="M333.647 771.145H327.508" stroke="#3C3C3C" stroke-miterlimit="10"/>
<path d="M339.786 771.145H340.338H343.272H348.38" stroke="#3C3C3C" stroke-miterlimit="10"/>
<path d="M321.37 771.145H315.231" stroke="#3C3C3C" stroke-miterlimit="10"/>
<path d="M262.438 771.145H256.299" stroke="#3C3C3C" stroke-miterlimit="10"/>
<path d="M229.902 771.145H237.883" stroke="#3C3C3C" stroke-miterlimit="10"/>
<path d="M229.902 778.512H276.741" stroke="#3C3C3C" stroke-miterlimit="10"/>
<path d="M229.902 802.148H348.38" stroke="#3C3C3C" stroke-width="1.5" stroke-miterlimit="10"/>
<path d="M274.703 782.195C274.074 783.88 273.754 785.664 273.758 787.463" stroke="#3C3C3C" stroke-miterlimit="10"/>
<path d="M303.027 782.195C301.945 779.325 300.015 776.852 297.492 775.107C294.97 773.363 291.975 772.428 288.908 772.428C285.841 772.428 282.847 773.363 280.324 775.107C277.802 776.852 275.871 779.325 274.789 782.195" stroke="#3C3C3C" stroke-miterlimit="10"/>
<path d="M303.973 787.463C303.977 785.664 303.657 783.88 303.027 782.195" stroke="#3C3C3C" stroke-miterlimit="10"/>
<path d="M280.583 782.195C279.586 783.771 279.058 785.598 279.061 787.463" stroke="#3C3C3C" stroke-miterlimit="10"/>
<path d="M297.183 782.196C296.297 780.796 295.071 779.643 293.62 778.844C292.169 778.045 290.54 777.626 288.883 777.626C287.227 777.626 285.597 778.045 284.146 778.844C282.695 779.643 281.469 780.796 280.583 782.196" stroke="#3C3C3C" stroke-miterlimit="10"/>
<path d="M298.705 787.463C298.708 785.598 298.18 783.771 297.183 782.195" stroke="#3C3C3C" stroke-miterlimit="10"/>
<path d="M279.061 802.148V787.463" stroke="#3C3C3C" stroke-miterlimit="10"/>
<path d="M273.794 802.148V787.463" stroke="#3C3C3C" stroke-miterlimit="10"/>
<path d="M298.705 802.148V787.463" stroke="#3C3C3C" stroke-miterlimit="10"/>
<path d="M303.973 802.148V787.463" stroke="#3C3C3C" stroke-miterlimit="10"/>
<path d="M244.022 784.651H237.883V796.93H244.022V784.651Z" stroke="#3C3C3C" stroke-miterlimit="10"/>
<path d="M237.883 794.474H229.289" stroke="#3C3C3C" stroke-miterlimit="10"/>
<path d="M237.883 787.106H229.289" stroke="#3C3C3C" stroke-miterlimit="10"/>
<path d="M256.299 784.651H250.16V796.93H256.299V784.651Z" stroke="#3C3C3C" stroke-miterlimit="10"/>
<path d="M268.576 784.651H262.438V796.93H268.576V784.651Z" stroke="#3C3C3C" stroke-miterlimit="10"/>
<path d="M244.021 794.474H250.16" stroke="#3C3C3C" stroke-miterlimit="10"/>
<path d="M244.021 787.106H250.16" stroke="#3C3C3C" stroke-miterlimit="10"/>
<path d="M256.299 787.106H262.438" stroke="#3C3C3C" stroke-miterlimit="10"/>
<path d="M256.299 794.474H262.438" stroke="#3C3C3C" stroke-miterlimit="10"/>
<path d="M333.635 796.93H339.773V784.651H333.635V796.93Z" stroke="#3C3C3C" stroke-miterlimit="10"/>
<path d="M339.786 794.474H348.38" stroke="#3C3C3C" stroke-miterlimit="10"/>
<path d="M339.786 787.106H348.38" stroke="#3C3C3C" stroke-miterlimit="10"/>
<path d="M321.357 796.93H327.496V784.651H321.357V796.93Z" stroke="#3C3C3C" stroke-miterlimit="10"/>
<path d="M309.08 796.93H315.219V784.651H309.08V796.93Z" stroke="#3C3C3C" stroke-miterlimit="10"/>
<path d="M333.647 794.474H327.508" stroke="#3C3C3C" stroke-miterlimit="10"/>
<path d="M333.647 787.106H327.508" stroke="#3C3C3C" stroke-miterlimit="10"/>
<path d="M321.37 787.106H315.231" stroke="#3C3C3C" stroke-miterlimit="10"/>
<path d="M321.37 794.474H315.231" stroke="#3C3C3C" stroke-miterlimit="10"/>
<path d="M268.577 787.106H273.795" stroke="#3C3C3C" stroke-miterlimit="10"/>
<path d="M268.577 794.474H273.795" stroke="#3C3C3C" stroke-miterlimit="10"/>
<path d="M303.973 787.106H309.092" stroke="#3C3C3C" stroke-miterlimit="10"/>
<path d="M303.973 794.474H309.092" stroke="#3C3C3C" stroke-miterlimit="10"/>
<path d="M237.883 790.79H244.022" stroke="#3C3C3C" stroke-miterlimit="10"/>
<path d="M250.16 790.79H256.299" stroke="#3C3C3C" stroke-miterlimit="10"/>
<path d="M262.438 790.79H268.576" stroke="#3C3C3C" stroke-miterlimit="10"/>
<path d="M309.092 790.79H315.231" stroke="#3C3C3C" stroke-miterlimit="10"/>
<path d="M321.37 790.79H327.508" stroke="#3C3C3C" stroke-miterlimit="10"/>
<path d="M333.647 790.79H339.786" stroke="#3C3C3C" stroke-miterlimit="10"/>
<path d="M244.022 768.075H237.883V774.214H244.022V768.075Z" stroke="#3C3C3C" stroke-miterlimit="10"/>
<path d="M256.299 768.075H250.16V774.214H256.299V768.075Z" stroke="#3C3C3C" stroke-miterlimit="10"/>
<path d="M268.576 768.075H262.438V774.214H268.576V768.075Z" stroke="#3C3C3C" stroke-miterlimit="10"/>
<path d="M315.231 768.075H309.092V774.214H315.231V768.075Z" stroke="#3C3C3C" stroke-miterlimit="10"/>
<path d="M327.508 768.075H321.37V774.214H327.508V768.075Z" stroke="#3C3C3C" stroke-miterlimit="10"/>
<path d="M339.786 768.075H333.647V774.214H339.786V768.075Z" stroke="#3C3C3C" stroke-miterlimit="10"/>
<path d="M300.805 778.512H348.38" stroke="#3C3C3C" stroke-miterlimit="10"/>
<path d="M277.158 714.971C275.73 712.29 274.443 709.536 273.303 706.72L272.972 705.91C267.739 692.587 265.717 678.22 267.069 663.97C268.422 649.721 273.11 635.99 280.756 623.89C290.534 608.394 304.761 596.211 321.575 588.934C338.39 581.656 357.009 579.623 374.998 583.101C386.364 585.291 397.203 589.652 406.919 595.944L408.208 596.791C426.051 608.741 439.099 626.61 445.049 647.244C451 667.879 449.471 689.952 440.731 709.569C436.48 719.104 430.606 727.828 423.371 735.353" stroke="#3C3C3C" stroke-width="1.5" stroke-miterlimit="10"/>
<path d="M415.293 727.593C418.402 724.346 421.232 720.843 423.752 717.12C424.083 716.641 424.402 716.15 424.722 715.646C426.916 712.254 428.842 708.695 430.48 705.001C432.863 699.674 434.646 694.098 435.796 688.376C439.527 669.884 436.595 650.668 427.519 634.131C418.443 617.594 403.809 604.801 386.207 598.019H386.146C366.396 590.475 344.464 591.053 325.139 599.627C311.052 605.909 299.088 616.138 290.692 629.077C282.297 642.017 277.831 657.112 277.834 672.537C277.843 677.201 278.254 681.855 279.062 686.448C279.943 691.479 281.308 696.414 283.138 701.182C284.991 706.027 287.323 710.675 290.099 715.057" stroke="#3C3C3C" stroke-width="1.5" stroke-miterlimit="10"/>
<path d="M369.951 700.237L359.343 676.404L358.41 674.317L357.588 672.475V672.463L325.126 599.566L325.151 599.541L332.578 590.873L339.024 583.358L347.717 587.717L357.588 592.665V672.463V672.475V700.237" stroke="#3C3C3C" stroke-miterlimit="10"/>
<path d="M415.292 735.353C417.877 732.985 420.312 730.459 422.585 727.789L423.432 726.782C426.364 723.223 429.004 719.433 431.326 715.449C431.891 714.492 432.431 713.522 432.959 712.527C438.332 702.434 441.606 691.357 442.585 679.965C442.789 677.509 442.896 675.029 442.904 672.524C442.874 656.971 438.61 641.719 430.571 628.405C422.531 615.091 411.019 604.217 397.269 596.95C391.895 594.12 386.231 591.88 380.375 590.271C375.926 589.013 371.38 588.13 366.784 587.631C363.729 587.306 360.66 587.142 357.588 587.14C354.305 587.141 351.026 587.334 347.766 587.717C335.878 589.083 324.413 592.949 314.126 599.062C310.172 601.406 306.415 604.067 302.892 607.018C298.178 610.957 293.905 615.395 290.148 620.255C278.534 635.183 272.235 653.561 272.247 672.475C272.247 674.709 272.333 676.932 272.505 679.13C272.505 679.744 272.603 680.358 272.665 680.959C273.104 685.55 273.925 690.097 275.12 694.552C275.304 695.288 275.513 696.013 275.734 696.737C277.137 701.512 278.965 706.151 281.197 710.599C281.382 710.968 281.566 711.336 281.762 711.704C282.327 712.81 282.99 713.89 283.542 714.958" stroke="#3C3C3C" stroke-miterlimit="10"/>
<path d="M448.589 672.476L435.808 656.624L440.731 635.419L423.886 629.01L421.554 607.744L401.566 605.877L390.037 587.423L372.456 594.053L357.588 581.468L340.989 594.397L320.915 589.154L311.842 607.081L292.775 608.591L290.651 629.01L272.91 639.041L278.988 658.564L266.575 672.476" stroke="#3C3C3C" stroke-miterlimit="10"/>
<path d="M341.271 714.971L356.802 674.514L357.293 673.286L357.575 672.549L386.17 598.056L380.375 590.345L375.034 583.101L366.784 587.631L357.588 592.665" stroke="#3C3C3C" stroke-miterlimit="10"/>
<path d="M315.096 714.971L357.195 672.869L357.293 672.77L357.576 672.488L357.588 672.476L414.015 616.044L410.946 605.89" stroke="#3C3C3C" stroke-miterlimit="10"/>
<path d="M414.015 616.044L432.088 620.206L430.492 640.011L284.685 704.94" stroke="#3C3C3C" stroke-miterlimit="10"/>
<path d="M325.127 599.565H325.09L314.126 599.025L304.488 598.559L302.892 606.982H302.88L301.161 616.043L357.576 672.475H357.588L358.386 673.273L358.644 673.531L385.348 700.236" stroke="#3C3C3C" stroke-miterlimit="10"/>
<path d="M301.149 616.044L280.67 623.804L283.076 643.879L432.088 701.084" stroke="#3C3C3C" stroke-miterlimit="10"/>
<path d="M283.076 643.878L268.023 656.243L277.317 672.475H436.925L446.562 653.296L430.491 640.011" stroke="#3C3C3C" stroke-miterlimit="10"/>
<path d="M288.932 714.971L281.885 710.981L281.234 710.612L272.923 705.91L275.771 696.75L276.188 695.412L278.988 686.387L273.266 679.978L272.518 679.13L266.575 672.476" stroke="#3C3C3C" stroke-miterlimit="10"/>
<path d="M325.126 745.385H325.089" stroke="#3C3C3C" stroke-miterlimit="10"/>
<path d="M283.076 701.071V701.096L281.885 710.98L281.799 711.717L281.406 714.97" stroke="#3C3C3C" stroke-miterlimit="10"/>
<path d="M283.076 701.084L268.023 688.708L277.784 672.476" stroke="#3C3C3C" stroke-miterlimit="10"/>
<path d="M358.005 581.455H357.588" stroke="#3C3C3C" stroke-miterlimit="10"/>
<path d="M351.167 700.237C353.696 687.664 355.857 678.418 356.802 674.514C356.974 673.753 357.109 673.2 357.195 672.869V672.623V672.476V672.733C357.208 672.889 357.208 673.045 357.195 673.2C357.195 677.645 356.041 687.836 354.421 700.213" stroke="#3C3C3C" stroke-miterlimit="10"/>
<path d="M364.513 700.237C362.34 689.383 360.424 680.997 359.344 676.405C359.037 675.177 358.804 674.195 358.644 673.532C358.57 673.237 358.509 672.991 358.484 672.819C358.46 672.648 358.386 672.476 358.386 672.476V673.274C358.386 673.593 358.386 673.937 358.386 674.317C358.57 679.229 359.614 688.781 361.136 700.237" stroke="#3C3C3C" stroke-miterlimit="10"/>
<path d="M0.92753 802.148H-45.4199" stroke="#3C3C3C" stroke-width="1.5" stroke-miterlimit="10"/>
<path d="M12.5546 700.237C12.4809 698.739 12.4195 697.204 12.3704 695.645C12.1617 689.69 12.1494 683.366 12.309 676.846C12.5546 666.41 13.2666 655.457 14.4576 644.677C14.5681 643.535 14.7031 642.381 14.8382 641.239C14.8382 641.239 14.8382 641.239 14.8382 641.165C16.3512 627.411 18.9623 613.8 22.6466 600.462C22.9658 599.357 23.2973 598.264 23.6411 597.196C28.417 581.971 34.6908 570.773 42.5852 567.507C43.337 567.82 44.0601 568.198 44.7461 568.636C46.1885 569.54 47.5054 570.63 48.6626 571.878C52.0512 575.39 55.0837 580.473 57.7479 586.759C59.2223 590.236 60.5213 593.785 61.6399 597.393C61.9223 598.277 62.1924 599.173 62.4625 600.094C63.6902 604.379 64.918 608.959 65.9124 613.747C67.7909 622.342 69.2887 631.551 70.4305 640.969C70.5779 642.197 70.7252 643.424 70.8603 644.652C72.7548 661.506 73.4728 678.47 73.0088 695.424C72.7878 702.521 72.3213 709.09 71.5846 714.897" stroke="#3C3C3C" stroke-width="1.5" stroke-miterlimit="10"/>
<path d="M14.8379 641.227C14.8379 641.227 14.8379 641.227 14.8379 641.153C16.0058 635.866 17.5443 630.668 19.4419 625.597C21.9956 618.894 24.9812 612.365 28.3799 606.049C29.9637 603.004 31.5598 600.033 33.1313 597.062" stroke="#3C3C3C" stroke-miterlimit="10"/>
<path d="M34.7764 593.894C35.9304 591.659 37.0477 589.412 38.1158 587.104C39.8345 583.399 41.3509 579.603 42.6585 575.734C43.432 573.438 44.1318 571.068 44.7457 568.588" stroke="#3C3C3C" stroke-miterlimit="10"/>
<path d="M12.3086 676.834C12.8422 671.449 14.0211 666.148 15.82 661.044C17.9648 654.889 20.4528 648.859 23.2724 642.983C26.4768 636.144 30.0373 629.169 33.4381 622.195C36.839 615.221 40.0557 608.394 42.6708 601.617C43.3583 599.849 43.9967 598.08 44.5983 596.337" stroke="#3C3C3C" stroke-miterlimit="10"/>
<path d="M45.4702 593.574C46.1578 591.389 46.698 589.227 47.2259 587.079C48.4211 582.097 48.9088 576.971 48.6746 571.854" stroke="#3C3C3C" stroke-miterlimit="10"/>
<path d="M57.7598 586.784C58.2523 589.77 58.4292 592.799 58.2877 595.821" stroke="#3C3C3C" stroke-miterlimit="10"/>
<path d="M58.1407 598.142C57.8937 600.8 57.4837 603.441 56.9129 606.049C55.6753 611.561 53.9834 616.962 51.8546 622.195C49.1287 628.961 46.0594 635.584 42.6588 642.037C38.9755 649.195 34.9117 656.292 31.0688 663.156C27.6557 669.295 24.3776 675.238 21.5661 680.874C18.3204 687.022 15.7437 693.502 13.8804 700.2" stroke="#3C3C3C" stroke-miterlimit="10"/>
<path d="M31.0073 709.396C31.4841 707.667 32.0789 705.973 32.7876 704.325C34.8993 699.242 38.3002 692.881 42.143 685.711C45.9859 678.54 50.1356 670.78 53.9539 662.615C57.0366 656.183 59.7142 649.564 61.9711 642.798C63.8439 637.213 65.1519 631.454 65.8754 625.608C66.3296 621.676 66.3296 617.704 65.8754 613.771" stroke="#3C3C3C" stroke-miterlimit="10"/>
<path d="M70.8968 644.665C72.1246 677.645 46.0595 714.971 45.8999 714.971" stroke="#3C3C3C" stroke-miterlimit="10"/>
<path d="M73.0334 695.46C69.0555 708.34 64.1445 715.277 64.1445 715.277" stroke="#3C3C3C" stroke-miterlimit="10"/>
<path d="M62.474 600.07C54.6287 594.765 29.8037 595.281 22.6582 600.45" stroke="#3C3C3C" stroke-miterlimit="10"/>
<path d="M61.652 597.368C55.1449 592.924 32.4316 591.487 23.334 597.368" stroke="#3C3C3C" stroke-miterlimit="10"/>
<path d="M70.504 641.227C70.4908 641.143 70.4703 641.061 70.4426 640.981C69.2743 635.755 67.7483 630.614 65.8754 625.596C63.3184 618.91 60.337 612.393 56.9497 606.086C55.3291 602.98 53.6962 599.947 52.1001 596.914" stroke="#3C3C3C" stroke-miterlimit="10"/>
<path d="M50.6393 594.053C49.4116 591.757 48.3066 589.449 47.2262 587.079C45.4923 583.386 43.9675 579.598 42.6589 575.734C41.8896 573.433 41.1938 571.047 40.5718 568.575" stroke="#3C3C3C" stroke-miterlimit="10"/>
<path d="M73.0333 676.834C72.5053 671.452 71.3262 666.154 69.5219 661.056C67.3599 654.829 64.8387 648.733 61.9712 642.798C58.7914 636.021 55.2678 629.108 51.8915 622.195C48.5151 615.282 45.2862 608.406 42.6711 601.629C41.9835 599.873 41.3451 598.117 40.7681 596.386" stroke="#3C3C3C" stroke-miterlimit="10"/>
<path d="M39.8348 593.513C39.1718 591.352 38.5989 589.215 38.116 587.103C36.9112 582.115 36.4193 576.98 36.655 571.854" stroke="#3C3C3C" stroke-miterlimit="10"/>
<path d="M72.4194 705.946C72.2514 704.007 71.9228 702.085 71.4372 700.2C69.5842 693.496 67.0114 687.012 63.7638 680.861C60.8786 675.054 57.49 668.927 53.9418 662.616C50.2586 655.899 46.2929 648.987 42.6588 642.012C39.2474 635.576 36.1659 628.97 33.4261 622.22C31.3012 616.99 29.6134 611.594 28.3801 606.086C27.8155 603.551 27.4055 600.984 27.1523 598.399" stroke="#3C3C3C" stroke-miterlimit="10"/>
<path d="M27.029 595.6C26.904 592.635 27.0851 589.664 27.5692 586.735" stroke="#3C3C3C" stroke-miterlimit="10"/>
<path d="M19.4053 613.723C15.2064 648.643 53.7822 699.831 54.8013 714.971" stroke="#3C3C3C" stroke-miterlimit="10"/>
<path d="M14.421 644.665C13.1932 677.645 39.2583 714.971 39.4179 714.971" stroke="#3C3C3C" stroke-miterlimit="10"/>
<path d="M21.2001 715.281L21.0508 715.057" stroke="#3C3C3C" stroke-width="1.5" stroke-miterlimit="10"/>
<path d="M13.9168 700.236C13.4011 698.824 12.8855 697.314 12.3944 695.706C12.3944 695.706 12.3944 695.583 12.333 695.521" stroke="#3C3C3C" stroke-miterlimit="10"/>
<path d="M-6.43896 689.272V682.102H12.3087" stroke="#3C3C3C" stroke-miterlimit="10"/>
<path d="M3.99689 696.946H2.15527" stroke="#3C3C3C" stroke-width="1.5" stroke-miterlimit="10"/>
<path d="M3.99689 693.263H2.15527" stroke="#3C3C3C" stroke-width="1.5" stroke-miterlimit="10"/>
<path d="M3.99689 689.579H2.15527" stroke="#3C3C3C" stroke-width="1.5" stroke-miterlimit="10"/>
<path d="M3.99689 685.896H2.15527" stroke="#3C3C3C" stroke-width="1.5" stroke-miterlimit="10"/>
<path d="M8.90803 696.946H7.06641" stroke="#3C3C3C" stroke-width="1.5" stroke-miterlimit="10"/>
<path d="M8.90803 693.263H7.06641" stroke="#3C3C3C" stroke-width="1.5" stroke-miterlimit="10"/>
<path d="M8.90803 689.579H7.06641" stroke="#3C3C3C" stroke-width="1.5" stroke-miterlimit="10"/>
<path d="M8.90803 685.896H7.06641" stroke="#3C3C3C" stroke-width="1.5" stroke-miterlimit="10"/>
<path d="M72.4189 655.543H90.2458V714.737" stroke="#3C3C3C" stroke-miterlimit="10"/>
<path d="M90.2461 665.047H97.9195V708.635" stroke="#3C3C3C" stroke-miterlimit="10"/>
<path d="M89.9395 708.635H113.267V714.479" stroke="#3C3C3C" stroke-miterlimit="10"/>
<path d="M86.4038 662.161H72.4443" stroke="#3C3C3C" stroke-miterlimit="10"/>
<path d="M86.4034 669.528H73.0332" stroke="#3C3C3C" stroke-miterlimit="10"/>
<path d="M86.4034 676.896H73.0332" stroke="#3C3C3C" stroke-miterlimit="10"/>
<path d="M86.4034 685.49H73.0332" stroke="#3C3C3C" stroke-miterlimit="10"/>
<path d="M86.4034 694.085H73.0332" stroke="#3C3C3C" stroke-miterlimit="10"/>
<path d="M86.4034 701.452H73.0332" stroke="#3C3C3C" stroke-miterlimit="10"/>
<path d="M86.4035 708.819H72.2476" stroke="#3C3C3C" stroke-miterlimit="10"/>
<path d="M94.0767 669.479V708.771" stroke="#3C3C3C" stroke-miterlimit="10"/>
<path d="M113.266 708.635V694.085H131.682V715.278" stroke="#3C3C3C" stroke-miterlimit="10"/>
<path d="M113.266 696.946H131.682" stroke="#3C3C3C" stroke-miterlimit="10"/>
<path d="M117.563 700.237V714.48" stroke="#3C3C3C" stroke-miterlimit="10"/>
<path d="M122.474 700.237V714.48" stroke="#3C3C3C" stroke-miterlimit="10"/>
<path d="M127.385 700.237V714.48" stroke="#3C3C3C" stroke-miterlimit="10"/>
<path d="M127.385 694.085V691.765H113.266V694.085" stroke="#3C3C3C" stroke-miterlimit="10"/>
<path d="M236.323 595.269C238.975 593.596 242.092 592.813 245.219 593.034C248.347 593.254 251.322 594.467 253.713 596.495C256.104 598.523 257.786 601.261 258.514 604.311C259.242 607.361 258.977 610.564 257.76 613.453" stroke="#3C3C3C" stroke-linecap="round" stroke-linejoin="round"/>
<path d="M214.74 579.859C219.496 579.857 224.134 581.341 228.006 584.104C231.878 586.867 234.79 590.77 236.336 595.269" stroke="#3C3C3C" stroke-linecap="round" stroke-linejoin="round"/>
<path d="M250.197 618.241H260.928" stroke="#3C3C3C" stroke-linecap="round" stroke-linejoin="round"/>
<path d="M257.76 613.453C258.678 613.627 259.506 614.116 260.103 614.836C260.699 615.555 261.025 616.46 261.026 617.395C261.029 617.675 261 617.955 260.94 618.229" stroke="#3C3C3C" stroke-linecap="round" stroke-linejoin="round"/>
<path d="M243.604 618.241H236.323" stroke="#3C3C3C" stroke-linecap="round" stroke-linejoin="round"/>
<path d="M123.125 638.55H131.499C131.962 637.416 132.2 636.202 132.198 634.977C132.198 633.724 131.952 632.483 131.472 631.326C130.993 630.169 130.29 629.117 129.404 628.231C128.518 627.345 127.467 626.642 126.309 626.163C125.152 625.683 123.911 625.437 122.659 625.437C121.28 625.433 119.917 625.735 118.669 626.321C118.189 622.966 116.455 619.918 113.818 617.791C111.18 615.664 107.835 614.615 104.455 614.856C101.075 615.098 97.9125 616.611 95.604 619.091C93.2955 621.572 92.0127 624.835 92.0142 628.224C92.0142 628.334 92.0142 628.445 92.0142 628.555C91.3365 628.334 90.6277 628.222 89.9147 628.224C88.7078 628.224 87.5225 628.544 86.4792 629.151C85.4359 629.757 84.5717 630.629 83.9744 631.678C83.3771 632.727 83.0679 633.915 83.0784 635.122C83.0888 636.329 83.4185 637.512 84.0338 638.55H95.7956" stroke="#3C3C3C" stroke-miterlimit="10" stroke-linecap="round"/>
<path d="M119.982 638.55H114.187" stroke="#3C3C3C" stroke-miterlimit="10" stroke-linecap="round"/>
<path d="M361.541 581.578V579.037C361.541 576.999 359.908 576.581 357.858 576.581C355.808 576.581 354.175 576.986 354.175 579.037V581.578" stroke="#3C3C3C" stroke-miterlimit="10"/>
<path d="M325.716 587.263L324.721 584.918C323.935 583.039 322.266 583.285 320.387 584.083C318.509 584.881 317.146 585.9 317.932 587.767L318.926 590.112" stroke="#3C3C3C" stroke-miterlimit="10"/>
<path d="M296.042 605.472L294.237 603.679C292.8 602.23 291.339 603.102 289.903 604.539C288.466 605.975 287.582 607.436 289.019 608.873L290.824 610.678" stroke="#3C3C3C" stroke-miterlimit="10"/>
<path d="M274.813 634.756L272.456 633.811C270.578 633.037 269.559 634.412 268.773 636.266C267.987 638.12 267.766 639.839 269.645 640.613L272.002 641.571" stroke="#3C3C3C" stroke-miterlimit="10"/>
<path d="M266.661 670.094H264.12C262.081 670.094 261.664 671.776 261.664 673.777C261.664 675.779 262.131 677.461 264.12 677.461H266.661" stroke="#3C3C3C" stroke-miterlimit="10"/>
<path d="M272.432 704.436L270.087 705.43C268.208 706.216 268.466 707.886 269.252 709.764C270.038 711.643 271.069 713.006 272.935 712.22L275.28 711.225" stroke="#3C3C3C" stroke-miterlimit="10"/>
</g>
<g opacity="0.12">
<path d="M352.262 225.857H361.214C361.71 224.645 361.964 223.347 361.963 222.037C361.963 220.698 361.699 219.371 361.186 218.134C360.674 216.896 359.922 215.772 358.975 214.824C358.028 213.877 356.904 213.126 355.666 212.613C354.429 212.101 353.103 211.837 351.763 211.837C350.289 211.833 348.832 212.156 347.497 212.782C346.984 209.196 345.131 205.937 342.311 203.662C339.491 201.388 335.914 200.267 332.3 200.525C328.687 200.783 325.305 202.401 322.837 205.053C320.369 207.705 318.997 211.194 318.999 214.817C318.999 214.935 318.999 215.053 318.999 215.171C318.274 214.934 317.517 214.815 316.754 214.817C315.464 214.817 314.197 215.159 313.081 215.808C311.966 216.456 311.042 217.389 310.403 218.51C309.764 219.631 309.434 220.902 309.445 222.192C309.456 223.483 309.809 224.747 310.467 225.857H323.042" stroke="#3C3C3C" stroke-miterlimit="10" stroke-linecap="round"/>
<path d="M348.901 225.857H342.706" stroke="#3C3C3C" stroke-miterlimit="10" stroke-linecap="round"/>
<path d="M151.749 243.386H142.298C141.88 242.527 141.664 241.584 141.668 240.629C141.671 238.938 142.344 237.317 143.54 236.122C144.736 234.926 146.356 234.252 148.047 234.249C148.73 234.249 149.408 234.36 150.056 234.577" stroke="#3C3C3C" stroke-linecap="round" stroke-linejoin="round"/>
<path d="M150.056 234.578C150.599 232.006 152.009 229.698 154.049 228.04C156.09 226.381 158.637 225.473 161.266 225.467C161.762 225.463 162.258 225.498 162.749 225.572" stroke="#3C3C3C" stroke-linecap="round" stroke-linejoin="round"/>
<path d="M162.775 225.585C163.669 221.958 165.762 218.74 168.715 216.452C171.668 214.165 175.307 212.942 179.042 212.983C182.777 213.024 186.388 214.326 189.29 216.678C192.192 219.03 194.214 222.294 195.028 225.939" stroke="#3C3C3C" stroke-linecap="round" stroke-linejoin="round"/>
<path d="M195.027 225.939C196.72 224.883 198.654 224.278 200.646 224.179C202.638 224.081 204.623 224.493 206.411 225.377C208.199 226.26 209.732 227.586 210.864 229.229C211.996 230.871 212.69 232.775 212.88 234.761" stroke="#3C3C3C" stroke-linecap="round" stroke-linejoin="round"/>
<path d="M212.88 234.761C213.677 234.423 214.534 234.249 215.4 234.249C216.268 234.249 217.126 234.421 217.927 234.755C218.728 235.089 219.454 235.578 220.064 236.195C220.675 236.811 221.157 237.543 221.483 238.347C221.809 239.151 221.972 240.011 221.963 240.879C221.968 241.739 221.798 242.592 221.465 243.386H210.149" stroke="#3C3C3C" stroke-linecap="round" stroke-linejoin="round"/>
<path d="M142.311 243.386H158.68" stroke="#3C3C3C" stroke-linecap="round" stroke-linejoin="round"/>
<path d="M196.432 243.386H203.652" stroke="#3C3C3C" stroke-linecap="round" stroke-linejoin="round"/>
<path d="M21.0488 169.201C21.706 169.012 22.3864 168.914 23.0704 168.912C24.8119 168.909 26.4973 169.528 27.8223 170.658C28.0427 168.227 29.1888 165.973 31.0238 164.363C32.8588 162.753 35.2423 161.91 37.6814 162.008C40.1205 162.105 42.4288 163.137 44.1291 164.889C45.8293 166.64 46.7914 168.978 46.8166 171.42C46.8205 171.859 46.7853 172.299 46.7115 172.732C47.1048 172.653 47.505 172.614 47.9061 172.614C49.6468 172.614 51.3162 173.306 52.5471 174.537C53.778 175.768 54.4695 177.437 54.4695 179.178C54.472 179.768 54.3925 180.356 54.2332 180.924H28.1635" stroke="#3C3C3C" stroke-linecap="round" stroke-linejoin="round"/>
</g>
</g>
<defs>
<clipPath id="clip0_183_27887">
<rect width="375" height="812" fill="white"/>
</clipPath>
<clipPath id="clip1_183_27887">
<rect width="2000" height="311.872" fill="white" transform="translate(-841 500)"/>
</clipPath>
</defs>
</svg>
