<svg viewBox="0 0 375 812" fill="none" xmlns="http://www.w3.org/2000/svg">
<g clip-path="url(#clip0_183_30105)">
<rect width="375" height="812" fill="white"/>
<g opacity="0.15" clip-path="url(#clip1_183_30105)">
<path d="M-367.897 735.354H-362.25H-360.641H-359.414H-356.541H-350.206H-341.808H78.3886" stroke="#3C3C3C" stroke-width="1.5" stroke-miterlimit="10"/>
<path d="M78.3883 745.176H-32.6245" stroke="#3C3C3C" stroke-width="1.5" stroke-miterlimit="10"/>
<path d="M64.5762 735.354V745.176" stroke="#3C3C3C" stroke-miterlimit="10"/>
<path d="M49.8438 735.354V745.176" stroke="#3C3C3C" stroke-miterlimit="10"/>
<path d="M35.1104 735.354V745.176" stroke="#3C3C3C" stroke-miterlimit="10"/>
<path d="M20.3779 735.354V745.176" stroke="#3C3C3C" stroke-miterlimit="10"/>
<path d="M5.64453 735.354V745.176" stroke="#3C3C3C" stroke-miterlimit="10"/>
<path d="M57.8239 735.353C-11.5438 726.967 -39.9907 655.543 -39.9907 655.543C-39.9907 655.543 -7.66415 715.253 67.032 735.353" stroke="#3C3C3C" stroke-width="1.5" stroke-miterlimit="10"/>
<path d="M1.29785 702.066V735.353" stroke="#3C3C3C" stroke-miterlimit="10"/>
<path d="M18.0449 713.964V735.353" stroke="#3C3C3C" stroke-miterlimit="10"/>
<path d="M34.8398 723.309V735.354" stroke="#3C3C3C" stroke-miterlimit="10"/>
<path d="M118.904 782.834V737.539H158.597V783.203L118.904 782.834Z" stroke="#3C3C3C" stroke-miterlimit="10"/>
<path d="M158.597 737.539H162.28V717.304H115.221V737.539H118.904" stroke="#3C3C3C" stroke-miterlimit="10"/>
<path d="M111.686 720.828L115.221 717.304L138.757 693.778L162.281 717.304L166.48 721.503" stroke="#3C3C3C" stroke-miterlimit="10"/>
<path d="M146.958 702.361V717.304" stroke="#3C3C3C" stroke-linejoin="round"/>
<path d="M130.261 717.304V702.275" stroke="#3C3C3C" stroke-linejoin="round"/>
<path d="M145.731 743.494H130.924V752.396H145.731V743.494Z" stroke="#3C3C3C" stroke-miterlimit="10"/>
<path d="M135.725 743.494V752.396" stroke="#3C3C3C" stroke-miterlimit="10"/>
<path d="M140.635 743.494V752.396" stroke="#3C3C3C" stroke-miterlimit="10"/>
<path d="M145.731 759.456H130.924V768.358H145.731V759.456Z" stroke="#3C3C3C" stroke-miterlimit="10"/>
<path d="M135.725 759.456V768.358" stroke="#3C3C3C" stroke-miterlimit="10"/>
<path d="M140.635 759.456V768.358" stroke="#3C3C3C" stroke-miterlimit="10"/>
<path d="M145.731 768.357H130.924V777.259H145.731V768.357Z" stroke="#3C3C3C" stroke-miterlimit="10"/>
<path d="M135.725 768.357V777.259" stroke="#3C3C3C" stroke-miterlimit="10"/>
<path d="M140.635 768.357V777.259" stroke="#3C3C3C" stroke-miterlimit="10"/>
<path d="M124.883 737.539V782.834" stroke="#3C3C3C" stroke-miterlimit="10"/>
<path d="M151.894 737.539V782.834" stroke="#3C3C3C" stroke-miterlimit="10"/>
<path d="M158.009 722.964H152.926V731.866H158.009V722.964Z" stroke="#3C3C3C" stroke-miterlimit="10"/>
<path d="M124.858 722.964H119.775V731.866H124.858V722.964Z" stroke="#3C3C3C" stroke-miterlimit="10"/>
<path d="M141.299 722.977H136.216V731.878H141.299V722.977Z" stroke="#3C3C3C" stroke-miterlimit="10"/>
<path d="M189.1 803.867H75.418" stroke="#3C3C3C" stroke-width="1.5" stroke-miterlimit="10"/>
<path d="M78.4258 803.867V730.639H115.221" stroke="#3C3C3C" stroke-width="1.5" stroke-miterlimit="10"/>
<path d="M115.221 737.539V803.867" stroke="#3C3C3C" stroke-miterlimit="10"/>
<path d="M78.4258 788.568H115.221" stroke="#3C3C3C" stroke-miterlimit="10"/>
<path d="M78.4258 753.746H115.221" stroke="#3C3C3C" stroke-miterlimit="10"/>
<path d="M90.8623 788.568V803.302" stroke="#3C3C3C" stroke-miterlimit="10"/>
<path d="M93.3174 788.568V803.302" stroke="#3C3C3C" stroke-miterlimit="10"/>
<path d="M100.685 788.568V803.302" stroke="#3C3C3C" stroke-miterlimit="10"/>
<path d="M103.14 788.568V803.302" stroke="#3C3C3C" stroke-miterlimit="10"/>
<path d="M90.8628 796.5H78.4258" stroke="#3C3C3C" stroke-miterlimit="10"/>
<path d="M103.14 796.5H115.221" stroke="#3C3C3C" stroke-miterlimit="10"/>
<path d="M82.0107 730.639V753.747" stroke="#3C3C3C" stroke-miterlimit="10"/>
<path d="M85.6934 730.639V753.747" stroke="#3C3C3C" stroke-miterlimit="10"/>
<path d="M89.377 730.639V753.747" stroke="#3C3C3C" stroke-miterlimit="10"/>
<path d="M93.0605 730.639V753.747" stroke="#3C3C3C" stroke-miterlimit="10"/>
<path d="M96.7432 730.639V753.747" stroke="#3C3C3C" stroke-miterlimit="10"/>
<path d="M100.426 730.639V753.747" stroke="#3C3C3C" stroke-miterlimit="10"/>
<path d="M104.11 730.639V753.747" stroke="#3C3C3C" stroke-miterlimit="10"/>
<path d="M107.793 730.639V753.747" stroke="#3C3C3C" stroke-miterlimit="10"/>
<path d="M111.477 730.639V753.747" stroke="#3C3C3C" stroke-miterlimit="10"/>
<path d="M78.4258 741.799H115.221" stroke="#3C3C3C" stroke-miterlimit="10"/>
<path d="M78.426 730.638H75.418V726.304H115.222" stroke="#3C3C3C" stroke-width="1.5" stroke-miterlimit="10"/>
<path d="M78.4258 726.304L97.5295 707.187L115.111 724.769" stroke="#3C3C3C" stroke-width="1.5" stroke-miterlimit="10"/>
<path d="M97.5295 722.191C99.7129 722.191 101.483 720.42 101.483 718.237C101.483 716.053 99.7129 714.283 97.5295 714.283C95.3461 714.283 93.5762 716.053 93.5762 718.237C93.5762 720.42 95.3461 722.191 97.5295 722.191Z" stroke="#3C3C3C" stroke-miterlimit="10"/>
<path d="M78.4252 795.936H-111.839L-146.756 799.816L-181.121 795.936H-341.808" stroke="#3C3C3C" stroke-width="1.5" stroke-miterlimit="10"/>
<path d="M120.415 712.11H156.67" stroke="#3C3C3C" stroke-linejoin="round"/>
<path d="M141.299 701.243H136.216V706.326H141.299V701.243Z" stroke="#3C3C3C" stroke-miterlimit="10"/>
<path d="M99.3711 709.028V672.242H107.45V652.068H123.042V661.461H130.851V701.686" stroke="#3C3C3C" stroke-miterlimit="10"/>
<path d="M107.449 672.242V717.304" stroke="#3C3C3C" stroke-miterlimit="10"/>
<path d="M123.042 661.462V709.704" stroke="#3C3C3C" stroke-miterlimit="10"/>
<path d="M110.273 719.919V656.243H119.322V713.203" stroke="#3C3C3C" stroke-miterlimit="10"/>
<path d="M110.273 659.927H119.322" stroke="#3C3C3C" stroke-miterlimit="10"/>
<path d="M110.273 663.61H119.322" stroke="#3C3C3C" stroke-miterlimit="10"/>
<path d="M110.273 667.294H119.322" stroke="#3C3C3C" stroke-miterlimit="10"/>
<path d="M110.273 670.978H119.322" stroke="#3C3C3C" stroke-miterlimit="10"/>
<path d="M110.273 674.661H119.322" stroke="#3C3C3C" stroke-miterlimit="10"/>
<path d="M110.273 678.345H119.322" stroke="#3C3C3C" stroke-miterlimit="10"/>
<path d="M110.273 682.028H119.322" stroke="#3C3C3C" stroke-miterlimit="10"/>
<path d="M110.273 685.711H119.322" stroke="#3C3C3C" stroke-miterlimit="10"/>
<path d="M110.273 689.395H119.322" stroke="#3C3C3C" stroke-miterlimit="10"/>
<path d="M110.273 693.078H119.322" stroke="#3C3C3C" stroke-miterlimit="10"/>
<path d="M118.904 782.834V737.539H158.597V783.203L118.904 782.834Z" stroke="#3C3C3C" stroke-width="1.5" stroke-miterlimit="10"/>
<path d="M158.597 737.539H162.28V717.304H115.221V737.539H118.904" stroke="#3C3C3C" stroke-width="1.5" stroke-miterlimit="10"/>
<path d="M111.686 720.828L115.221 717.304L138.757 693.778L162.281 717.304L166.48 721.503" stroke="#3C3C3C" stroke-width="1.5" stroke-miterlimit="10"/>
<path d="M146.958 702.361V717.304" stroke="#3C3C3C" stroke-linejoin="round"/>
<path d="M130.261 717.304V702.275" stroke="#3C3C3C" stroke-linejoin="round"/>
<path d="M145.731 743.494H130.924V752.396H145.731V743.494Z" stroke="#3C3C3C" stroke-miterlimit="10"/>
<path d="M135.725 743.494V752.396" stroke="#3C3C3C" stroke-miterlimit="10"/>
<path d="M140.635 743.494V752.396" stroke="#3C3C3C" stroke-miterlimit="10"/>
<path d="M145.731 759.456H130.924V768.358H145.731V759.456Z" stroke="#3C3C3C" stroke-miterlimit="10"/>
<path d="M135.725 759.456V768.358" stroke="#3C3C3C" stroke-miterlimit="10"/>
<path d="M140.635 759.456V768.358" stroke="#3C3C3C" stroke-miterlimit="10"/>
<path d="M145.731 768.357H130.924V777.259H145.731V768.357Z" stroke="#3C3C3C" stroke-miterlimit="10"/>
<path d="M135.725 768.357V777.259" stroke="#3C3C3C" stroke-miterlimit="10"/>
<path d="M140.635 768.357V777.259" stroke="#3C3C3C" stroke-miterlimit="10"/>
<path d="M124.883 737.539V782.834" stroke="#3C3C3C" stroke-miterlimit="10"/>
<path d="M151.894 737.539V782.834" stroke="#3C3C3C" stroke-miterlimit="10"/>
<path d="M158.009 722.964H152.926V731.866H158.009V722.964Z" stroke="#3C3C3C" stroke-miterlimit="10"/>
<path d="M124.858 722.964H119.775V731.866H124.858V722.964Z" stroke="#3C3C3C" stroke-miterlimit="10"/>
<path d="M141.299 722.977H136.216V731.878H141.299V722.977Z" stroke="#3C3C3C" stroke-miterlimit="10"/>
<path d="M103.987 760.684H89.1807V769.585H103.987V760.684Z" stroke="#3C3C3C" stroke-miterlimit="10"/>
<path d="M93.9814 760.684V769.585" stroke="#3C3C3C" stroke-miterlimit="10"/>
<path d="M98.8916 760.684V769.585" stroke="#3C3C3C" stroke-miterlimit="10"/>
<path d="M103.987 769.586H89.1807V778.488H103.987V769.586Z" stroke="#3C3C3C" stroke-miterlimit="10"/>
<path d="M93.9814 769.586V778.488" stroke="#3C3C3C" stroke-miterlimit="10"/>
<path d="M98.8916 769.586V778.488" stroke="#3C3C3C" stroke-miterlimit="10"/>
<path d="M103.987 760.684H89.1807V769.585H103.987V760.684Z" stroke="#3C3C3C" stroke-miterlimit="10"/>
<path d="M93.9814 760.684V769.585" stroke="#3C3C3C" stroke-miterlimit="10"/>
<path d="M98.8916 760.684V769.585" stroke="#3C3C3C" stroke-miterlimit="10"/>
<path d="M103.987 769.586H89.1807V778.488H103.987V769.586Z" stroke="#3C3C3C" stroke-miterlimit="10"/>
<path d="M93.9814 769.586V778.488" stroke="#3C3C3C" stroke-miterlimit="10"/>
<path d="M98.8916 769.586V778.488" stroke="#3C3C3C" stroke-miterlimit="10"/>
<path d="M115.11 793.982H176.105" stroke="#3C3C3C" stroke-miterlimit="10"/>
<path d="M115.11 798.895H176.105" stroke="#3C3C3C" stroke-miterlimit="10"/>
<path d="M115.11 789.071H176.105" stroke="#3C3C3C" stroke-miterlimit="10"/>
<path d="M118.904 782.834V789.071" stroke="#3C3C3C" stroke-width="1.5" stroke-miterlimit="10"/>
<path d="M158.597 783.202V789.071" stroke="#3C3C3C" stroke-miterlimit="10"/>
<path d="M124.859 803.303V798.895" stroke="#3C3C3C" stroke-miterlimit="10"/>
<path d="M137.137 803.303V798.895" stroke="#3C3C3C" stroke-miterlimit="10"/>
<path d="M161.69 803.303V798.895" stroke="#3C3C3C" stroke-miterlimit="10"/>
<path d="M156.78 798.39V793.982" stroke="#3C3C3C" stroke-miterlimit="10"/>
<path d="M132.225 798.39V793.982" stroke="#3C3C3C" stroke-miterlimit="10"/>
<path d="M122.402 793.479V789.071" stroke="#3C3C3C" stroke-miterlimit="10"/>
<path d="M145.73 793.479V789.071" stroke="#3C3C3C" stroke-miterlimit="10"/>
<path d="M170.285 793.479V789.071" stroke="#3C3C3C" stroke-miterlimit="10"/>
<path d="M103.52 713.166V686.841V681.893V674.661" stroke="#3C3C3C" stroke-miterlimit="10"/>
<path d="M130.851 680.407H149.23V704.399" stroke="#3C3C3C" stroke-miterlimit="10"/>
<path d="M146.32 684.324H130.851" stroke="#3C3C3C" stroke-miterlimit="10"/>
<path d="M146.32 688.008H130.851" stroke="#3C3C3C" stroke-miterlimit="10"/>
<path d="M146.32 691.691H130.851" stroke="#3C3C3C" stroke-miterlimit="10"/>
<path d="M137.161 695.375H130.851" stroke="#3C3C3C" stroke-miterlimit="10"/>
<path d="M146.32 695.375H140.354" stroke="#3C3C3C" stroke-miterlimit="10"/>
<path d="M146.32 680.407V678.345H136.216V680.407" stroke="#3C3C3C" stroke-miterlimit="10"/>
<path d="M110.273 696.762H119.322" stroke="#3C3C3C" stroke-miterlimit="10"/>
<path d="M110.273 700.445H119.322" stroke="#3C3C3C" stroke-miterlimit="10"/>
<path d="M110.273 704.129H119.322" stroke="#3C3C3C" stroke-miterlimit="10"/>
<path d="M110.273 707.812H119.322" stroke="#3C3C3C" stroke-miterlimit="10"/>
<path d="M110.273 711.496H119.322" stroke="#3C3C3C" stroke-miterlimit="10"/>
<path d="M110.273 715.18H117.235" stroke="#3C3C3C" stroke-miterlimit="10"/>
<path d="M75.4175 803.867H-322.373" stroke="#3C3C3C" stroke-width="1.5" stroke-miterlimit="10"/>
<path d="M78.5484 771.145H55.4668V795.935" stroke="#3C3C3C" stroke-miterlimit="10"/>
<path d="M55.4668 771.145L78.5484 748.062" stroke="#3C3C3C" stroke-miterlimit="10"/>
<path d="M55.4667 776.289H42.7227" stroke="#3C3C3C" stroke-miterlimit="10"/>
<path d="M42.7221 795.935V768.075H20.7822V795.935" stroke="#3C3C3C" stroke-miterlimit="10"/>
<path d="M20.7826 772.704H4.20801V795.935" stroke="#3C3C3C" stroke-miterlimit="10"/>
<path d="M4.20804 777.641H-13.7539V795.936" stroke="#3C3C3C" stroke-miterlimit="10"/>
<path d="M42.7221 768.075L31.7583 757.11L20.7822 768.075" stroke="#3C3C3C" stroke-miterlimit="10"/>
<path d="M4.20801 772.704L16.9274 759.983L22.9066 765.951" stroke="#3C3C3C" stroke-miterlimit="10"/>
<path d="M6.16027 770.764L-4.82808 759.775L-13.7538 769.733L-32.4893 750.983" stroke="#3C3C3C" stroke-miterlimit="10"/>
<path d="M42.7354 772.704L49.0951 766.344L55.4548 772.704" stroke="#3C3C3C" stroke-miterlimit="10"/>
<path d="M50.6039 771.219H48.1484V773.674H50.6039V771.219Z" stroke="#3C3C3C" stroke-miterlimit="10"/>
<path d="M29.2783 795.935V786.923H37.05V795.935" stroke="#3C3C3C" stroke-miterlimit="10"/>
<path d="M16.0801 795.935V789.378H20.7824" stroke="#3C3C3C" stroke-miterlimit="10"/>
<path d="M50.6039 781.041H48.1484V783.497H50.6039V781.041Z" stroke="#3C3C3C" stroke-miterlimit="10"/>
<path d="M50.6039 787.181H48.1484V789.636H50.6039V787.181Z" stroke="#3C3C3C" stroke-miterlimit="10"/>
<path d="M57.7012 768.923H78.5483" stroke="#3C3C3C" stroke-miterlimit="10"/>
<path d="M32.974 762.623H30.5186V765.079H32.974V762.623Z" stroke="#3C3C3C" stroke-miterlimit="10"/>
<path d="M20.7822 778.181H42.7221" stroke="#3C3C3C" stroke-miterlimit="10"/>
<path d="M20.7822 781.041H42.7221" stroke="#3C3C3C" stroke-miterlimit="10"/>
<path d="M4.20804 781.041H-13.7539" stroke="#3C3C3C" stroke-miterlimit="10"/>
<path d="M4.20804 784.319H-13.7539" stroke="#3C3C3C" stroke-miterlimit="10"/>
<path d="M75.6259 775.516H64.5762V786.566H75.6259V775.516Z" stroke="#3C3C3C" stroke-miterlimit="10"/>
<path d="M75.6259 781.041H64.5762" stroke="#3C3C3C" stroke-miterlimit="10"/>
<path d="M70.1016 775.516V786.566" stroke="#3C3C3C" stroke-miterlimit="10"/>
<path d="M66.6264 759.983H61.1016V765.521" stroke="#3C3C3C" stroke-miterlimit="10"/>
<path d="M63.1396 759.983V752.85H65.9021V759.983" stroke="#3C3C3C" stroke-miterlimit="10"/>
<path d="M25.3623 763.495V759.983H28.886" stroke="#3C3C3C" stroke-miterlimit="10"/>
<path d="M1.7403 766.344V762.292H-2.0166" stroke="#3C3C3C" stroke-miterlimit="10"/>
<path d="M1.29841 795.935V791.429H-10.623V795.935" stroke="#3C3C3C" stroke-miterlimit="10"/>
<path d="M10.0893 781.041H7.63379V783.497H10.0893V781.041Z" stroke="#3C3C3C" stroke-miterlimit="10"/>
<path d="M10.0893 787.181H7.63379V789.636H10.0893V787.181Z" stroke="#3C3C3C" stroke-miterlimit="10"/>
<path d="M16.227 774.901H13.7715V777.357H16.227V774.901Z" stroke="#3C3C3C" stroke-miterlimit="10"/>
<path d="M16.227 781.041H13.7715V783.497H16.227V781.041Z" stroke="#3C3C3C" stroke-miterlimit="10"/>
<path d="M78.388 757.11L71.7705 763.728H78.388" stroke="#3C3C3C" stroke-miterlimit="10"/>
<path d="M32.974 772.446H30.5186V774.902H32.974V772.446Z" stroke="#3C3C3C" stroke-miterlimit="10"/>
<path d="M77.6279 660.59C79.9863 659.056 82.6926 658.141 85.4975 657.929C88.3025 657.716 91.1158 658.213 93.6781 659.374C96.2405 660.535 98.4694 662.322 100.16 664.571C101.85 666.82 102.947 669.458 103.349 672.242" stroke="#3C3C3C" stroke-linecap="round" stroke-linejoin="round"/>
<path d="M26.8604 669.259V669.05C26.8591 662.874 29.0488 656.897 33.0398 652.184C37.0308 647.47 42.5642 644.326 48.6558 643.309C54.7474 642.292 61.0021 643.47 66.3071 646.632C71.6122 649.794 75.6235 654.736 77.6277 660.578" stroke="#3C3C3C" stroke-linecap="round" stroke-linejoin="round"/>
<path d="M12.4955 682.409C12.4755 682.033 12.4755 681.656 12.4955 681.279C12.4955 678.023 13.789 674.9 16.0915 672.597C18.394 670.295 21.5168 669.001 24.7729 669.001C25.4936 669.001 26.2128 669.067 26.9215 669.197" stroke="#3C3C3C" stroke-linecap="round" stroke-linejoin="round"/>
<path d="M23.9141 686.841H42.6372" stroke="#3C3C3C" stroke-linecap="round" stroke-linejoin="round"/>
<path d="M7.63379 686.841H7.71967H17.0137" stroke="#3C3C3C" stroke-linecap="round" stroke-linejoin="round"/>
<path d="M12.4957 682.408C12.1344 682.294 11.7576 682.236 11.3785 682.236C10.814 682.238 10.2569 682.366 9.74828 682.611C9.23965 682.856 8.79231 683.211 8.43908 683.652C8.08585 684.092 7.83575 684.606 7.70703 685.156C7.57831 685.705 7.5743 686.277 7.69527 686.828" stroke="#3C3C3C" stroke-linecap="round" stroke-linejoin="round"/>
<path d="M88.6152 686.841H98.7441" stroke="#3C3C3C" stroke-linecap="round" stroke-linejoin="round"/>
<path d="M148.776 623.853H157.149C157.613 622.719 157.85 621.505 157.849 620.28C157.849 617.749 156.844 615.323 155.055 613.534C153.266 611.744 150.839 610.739 148.309 610.739C146.93 610.736 145.567 611.038 144.319 611.623C143.839 608.269 142.106 605.221 139.468 603.094C136.831 600.966 133.485 599.918 130.105 600.159C126.726 600.4 123.563 601.914 121.254 604.394C118.946 606.875 117.663 610.138 117.665 613.527C117.665 613.637 117.665 613.747 117.665 613.858C116.987 613.636 116.278 613.524 115.565 613.527C114.358 613.527 113.173 613.847 112.13 614.453C111.086 615.06 110.222 615.932 109.625 616.981C109.027 618.03 108.718 619.218 108.729 620.425C108.739 621.632 109.069 622.814 109.684 623.853H121.446" stroke="#3C3C3C" stroke-miterlimit="10" stroke-linecap="round"/>
<path d="M145.633 623.853H139.838" stroke="#3C3C3C" stroke-miterlimit="10" stroke-linecap="round"/>
<path d="M258.266 737.269H206.05V744.623H258.266V737.269Z" stroke="#3C3C3C" stroke-width="1.5" stroke-miterlimit="10"/>
<path d="M250.04 687.185V737.268" stroke="#3C3C3C" stroke-width="1.5" stroke-miterlimit="10"/>
<path d="M253.392 683.832L236.879 700.347L240.206 703.674L210.937 732.946V646.641L241.127 616.448C244.374 616.477 247.48 617.78 249.776 620.076C252.073 622.373 253.375 625.479 253.404 628.727V683.795L253.392 683.832Z" stroke="#3C3C3C" stroke-width="1.5" stroke-miterlimit="10"/>
<path d="M242.882 736.937V694.331" stroke="#3C3C3C" stroke-miterlimit="10"/>
<path d="M235.736 736.937V708.145" stroke="#3C3C3C" stroke-miterlimit="10"/>
<path d="M228.579 736.937V715.303" stroke="#3C3C3C" stroke-miterlimit="10"/>
<path d="M225.007 718.875V690.586" stroke="#3C3C3C" stroke-miterlimit="10"/>
<path d="M221.434 736.937V722.448" stroke="#3C3C3C" stroke-miterlimit="10"/>
<path d="M210.937 658.981L244.675 625.24C244.675 625.24 246.455 625.24 246.455 627.512V690.377" stroke="#3C3C3C" stroke-miterlimit="10"/>
<path d="M236.879 700.348V633.037" stroke="#3C3C3C" stroke-miterlimit="10"/>
<path d="M210.937 704.657L236.817 678.774" stroke="#3C3C3C" stroke-miterlimit="10"/>
<path d="M217.861 726.021V709.335" stroke="#3C3C3C" stroke-miterlimit="10"/>
<path d="M221.261 694.331V648.655" stroke="#3C3C3C" stroke-miterlimit="10"/>
<path d="M227.965 687.627V664.974" stroke="#3C3C3C" stroke-miterlimit="10"/>
<path d="M253.392 659.522L259.101 663.573L264.355 655.064" stroke="#3C3C3C" stroke-width="1.5" stroke-miterlimit="10"/>
<path d="M253.392 646.052L261.839 631.87L273.748 639.851L270.924 644.443" stroke="#3C3C3C" stroke-width="1.5" stroke-miterlimit="10"/>
<path d="M259.555 635.701L253.392 630.557" stroke="#3C3C3C" stroke-width="1.5" stroke-miterlimit="10"/>
<path d="M262.109 658.601V664.973C262.178 665.589 262.11 666.213 261.91 666.8C261.71 667.387 261.384 667.922 260.954 668.369C260.523 668.815 260 669.162 259.421 669.383C258.843 669.605 258.222 669.696 257.604 669.651C255.934 669.651 253.331 668.251 253.331 666.692" stroke="#3C3C3C" stroke-width="1.5" stroke-miterlimit="10"/>
<path d="M272.812 645.7L269.773 643.619C269.309 643.301 268.675 643.419 268.357 643.884L262.439 652.525C262.12 652.989 262.239 653.623 262.703 653.941L265.742 656.023C266.206 656.341 266.841 656.222 267.159 655.758L273.077 647.117C273.395 646.653 273.276 646.019 272.812 645.7Z" stroke="#3C3C3C" stroke-width="1.5" stroke-miterlimit="10"/>
<path d="M210.935 618.18C207.706 618.18 204.87 615.196 204.87 613.17V601.604C204.992 600.584 205.331 599.603 205.865 598.726C206.399 597.849 207.115 597.097 207.964 596.521" stroke="#3C3C3C" stroke-width="1.5" stroke-miterlimit="10"/>
<path d="M215.454 596.079C216.385 596.604 217.181 597.338 217.782 598.221C218.382 599.105 218.771 600.116 218.916 601.175V609.524C220.341 609.524 222.6 610.838 222.6 612.864C222.684 613.898 223.166 614.86 223.945 615.547C224.723 616.233 225.737 616.592 226.774 616.547C228.922 616.547 241.102 616.547 241.102 616.547" stroke="#3C3C3C" stroke-width="1.5" stroke-miterlimit="10"/>
<path d="M209.131 617.86V630.556C209.391 631.762 210.032 632.853 210.957 633.668C211.883 634.484 213.046 634.981 214.275 635.087V643.301" stroke="#3C3C3C" stroke-width="1.5" stroke-miterlimit="10"/>
<path d="M207.953 568.784V602.021C207.953 603.018 208.349 603.974 209.053 604.678C209.758 605.383 210.714 605.779 211.71 605.779C212.706 605.779 213.662 605.383 214.367 604.678C215.071 603.974 215.467 603.018 215.467 602.021V564.241C215.47 563.747 215.373 563.258 215.184 562.802C214.994 562.347 214.714 561.934 214.362 561.588C214.01 561.237 213.593 560.957 213.134 560.766C212.687 560.58 212.207 560.484 211.722 560.483C211.256 560.484 210.794 560.572 210.359 560.741" stroke="#3C3C3C" stroke-width="1.5" stroke-miterlimit="10"/>
<path d="M231.857 593.206H232.447" stroke="#3C3C3C" stroke-miterlimit="10"/>
<path d="M237.701 601.358V605.987C237.706 607.06 237.394 608.111 236.805 609.008C236.304 609.781 235.617 610.416 234.807 610.856C233.998 611.295 233.091 611.526 232.17 611.526C231.249 611.526 230.342 611.295 229.533 610.856C228.724 610.416 228.037 609.781 227.536 609.008C226.94 608.113 226.623 607.062 226.627 605.987V601.358" stroke="#3C3C3C" stroke-width="1.5" stroke-miterlimit="10"/>
<path d="M240.807 601.641H240.746C239.724 601.653 238.704 601.558 237.701 601.359C236.73 601.181 235.796 600.84 234.939 600.352C234.556 600.129 234.202 599.861 233.883 599.554C233.622 599.321 233.391 599.057 233.195 598.768C232.48 597.721 232.118 596.474 232.164 595.207V593.193H232.446C233.395 593.22 234.335 593.39 235.233 593.697C236.243 594.045 237.176 594.582 237.984 595.281C238.862 596.049 239.561 597.001 240.034 598.068C240.527 599.196 240.79 600.41 240.807 601.641Z" stroke="#3C3C3C" stroke-miterlimit="10"/>
<path d="M232.164 593.193V595.207C232.216 596.524 231.827 597.82 231.059 598.891C230.858 599.169 230.628 599.424 230.371 599.652C230.06 599.937 229.718 600.188 229.352 600.401C228.504 600.876 227.583 601.208 226.627 601.383C225.624 601.582 224.604 601.677 223.582 601.666C223.667 600.464 224.01 599.296 224.589 598.24C225.066 597.34 225.669 596.513 226.381 595.784C227.158 594.988 228.079 594.346 229.095 593.893C229.992 593.505 230.954 593.289 231.931 593.255H232.225L232.164 593.193Z" stroke="#3C3C3C" stroke-miterlimit="10"/>
<path d="M240.807 616.461V601.849C240.81 601.784 240.81 601.719 240.807 601.653C240.82 600.548 240.613 599.451 240.198 598.427C239.784 597.402 239.17 596.47 238.392 595.685C237.614 594.901 236.687 594.278 235.666 593.855C234.646 593.431 233.551 593.214 232.446 593.218H231.857C226.626 593.414 223.643 598.583 223.52 601.653C223.517 601.719 223.517 601.784 223.52 601.849V615.024" stroke="#3C3C3C" stroke-width="1.5" stroke-miterlimit="10"/>
<path d="M227.523 608.996V616.449" stroke="#3C3C3C" stroke-width="1.5" stroke-miterlimit="10"/>
<path d="M236.792 608.996V616.449" stroke="#3C3C3C" stroke-width="1.5" stroke-miterlimit="10"/>
<path d="M240.807 601.837L242.268 600.376C242.268 600.376 241.041 589.547 232.164 589.547" stroke="#3C3C3C" stroke-miterlimit="10"/>
<path d="M226.32 595.735L224.405 593.906L224.344 593.832" stroke="#3C3C3C" stroke-miterlimit="10"/>
<path d="M239.679 593.537L237.984 595.281" stroke="#3C3C3C" stroke-miterlimit="10"/>
<path d="M232.163 595.207V589.559C230.658 589.536 229.171 589.895 227.842 590.602C226.439 591.394 225.257 592.526 224.404 593.893C223.698 594.989 223.141 596.174 222.747 597.417C222.421 598.379 222.186 599.37 222.047 600.376L223.508 601.837" stroke="#3C3C3C" stroke-miterlimit="10"/>
<path d="M236.486 590.603L235.233 593.697" stroke="#3C3C3C" stroke-miterlimit="10"/>
<path d="M229.021 593.844L227.843 590.885" stroke="#3C3C3C" stroke-miterlimit="10"/>
<path d="M224.527 598.215L222.759 597.417" stroke="#3C3C3C" stroke-miterlimit="10"/>
<path d="M241.422 597.441L240.034 598.068" stroke="#3C3C3C" stroke-miterlimit="10"/>
<path d="M229.339 589.964L222.759 582.916L225.595 592.37" stroke="#3C3C3C" stroke-miterlimit="10"/>
<path d="M225.067 592.984L216.743 590.283L222.906 596.521" stroke="#3C3C3C" stroke-miterlimit="10"/>
<path d="M222.059 600.377L218.597 599.677" stroke="#3C3C3C" stroke-miterlimit="10"/>
<path d="M222.649 597.761L218.155 598.743" stroke="#3C3C3C" stroke-miterlimit="10"/>
<path d="M234.165 589.768L232.152 580.362L230.126 589.768" stroke="#3C3C3C" stroke-miterlimit="10"/>
<path d="M234.963 589.964L241.544 582.916L238.708 592.37" stroke="#3C3C3C" stroke-miterlimit="10"/>
<path d="M239.235 592.984L247.56 590.283L241.396 596.521" stroke="#3C3C3C" stroke-miterlimit="10"/>
<path d="M241.654 597.761L248.137 599.185L242.244 600.376" stroke="#3C3C3C" stroke-miterlimit="10"/>
<path d="M211.205 560.472H206.908C206.244 560.472 205.705 561.01 205.705 561.675V567.765C205.705 568.43 206.244 568.968 206.908 568.968H211.205C211.87 568.968 212.409 568.43 212.409 567.765V561.675C212.409 561.01 211.87 560.472 211.205 560.472Z" stroke="#3C3C3C" stroke-width="1.5" stroke-miterlimit="10"/>
<path d="M207.953 568.784V575.954C207.953 576.545 208.188 577.112 208.606 577.53C209.024 577.948 209.59 578.183 210.181 578.183C210.772 578.183 211.339 577.948 211.757 577.53C212.175 577.112 212.41 576.545 212.41 575.954V566.954C212.41 566.751 212.382 566.548 212.324 566.353" stroke="#3C3C3C" stroke-miterlimit="10"/>
<path d="M213.121 556.984V560.901" stroke="#3C3C3C" stroke-miterlimit="10"/>
<path d="M207.953 560.471C207.953 560.68 207.953 556.984 207.953 556.984" stroke="#3C3C3C" stroke-miterlimit="10"/>
<path d="M207.953 556.985C205.007 556.985 202.649 556.358 202.649 550.465H217.714C217.714 556.371 216.069 556.985 213.122 556.985" stroke="#3C3C3C" stroke-width="1.5" stroke-miterlimit="10"/>
<path d="M207.953 550.465V547.874H210.175H212.41V550.465" stroke="#3C3C3C" stroke-miterlimit="10"/>
<path d="M212.409 547.873C213.747 546.646 215.625 544.116 213.747 537.24C213.747 537.24 212.409 540.678 209.904 540.813C209.093 540.852 208.315 541.146 207.681 541.653C207.047 542.16 206.589 542.854 206.373 543.637C206.156 544.419 206.193 545.25 206.476 546.011C206.76 546.772 207.276 547.423 207.952 547.873" stroke="#3C3C3C" stroke-miterlimit="10"/>
<path d="M206.05 753.034V776.597H232.152" stroke="#3C3C3C" stroke-width="1.5" stroke-miterlimit="10"/>
<path d="M196.767 795.702H189.18V804.236H232.151" stroke="#3C3C3C" stroke-width="1.5" stroke-miterlimit="10"/>
<path d="M217.947 758.769H211.734V770.863H217.947V758.769Z" stroke="#3C3C3C" stroke-miterlimit="10"/>
<path d="M235.012 758.769H228.8V770.863H235.012V758.769Z" stroke="#3C3C3C" stroke-miterlimit="10"/>
<path d="M203.876 795.702V804.236" stroke="#3C3C3C" stroke-miterlimit="10"/>
<path d="M218.106 795.702V804.236" stroke="#3C3C3C" stroke-miterlimit="10"/>
<path d="M258.266 744.623H267.548V753.034H196.769V744.623H206.05" stroke="#3C3C3C" stroke-width="1.5" stroke-miterlimit="10"/>
<path d="M258.265 753.034V776.597H232.151" stroke="#3C3C3C" stroke-width="1.5" stroke-miterlimit="10"/>
<path d="M196.769 795.702L206.05 776.597" stroke="#3C3C3C" stroke-width="1.5" stroke-miterlimit="10"/>
<path d="M258.266 776.597L267.547 795.702" stroke="#3C3C3C" stroke-width="1.5" stroke-miterlimit="10"/>
<path d="M267.547 795.702H275.123V804.236H232.151" stroke="#3C3C3C" stroke-width="1.5" stroke-miterlimit="10"/>
<path d="M246.37 770.862H252.582V758.768H246.37V770.862Z" stroke="#3C3C3C" stroke-miterlimit="10"/>
<path d="M260.439 795.702V804.236" stroke="#3C3C3C" stroke-miterlimit="10"/>
<path d="M246.209 795.702V804.236" stroke="#3C3C3C" stroke-miterlimit="10"/>
<path d="M232.164 795.702V804.236" stroke="#3C3C3C" stroke-miterlimit="10"/>
<path d="M203.632 781.569H260.44" stroke="#3C3C3C" stroke-miterlimit="10"/>
<path d="M265.289 770.838V791.06H199.027" stroke="#3C3C3C" stroke-miterlimit="10"/>
<path d="M214.84 729.042V737.269" stroke="#3C3C3C" stroke-width="1.5" stroke-miterlimit="10"/>
<path d="M267.548 795.702H196.769" stroke="#3C3C3C" stroke-width="1.5" stroke-miterlimit="10"/>
<path d="M207.953 556.984H213.122" stroke="#3C3C3C" stroke-width="1.5" stroke-miterlimit="10"/>
<path d="M205.571 765.214H158.917" stroke="#3C3C3C" stroke-width="1.5" stroke-miterlimit="10"/>
<path d="M205.571 761.53H158.917" stroke="#3C3C3C" stroke-width="1.5" stroke-miterlimit="10"/>
<path d="M182.736 770.973H179.642V775.54H182.736V770.973Z" stroke="#3C3C3C" stroke-miterlimit="10"/>
<path d="M189.193 770.973H186.1V775.54H189.193V770.973Z" stroke="#3C3C3C" stroke-miterlimit="10"/>
<path d="M182.736 778.229H179.642V782.797H182.736V778.229Z" stroke="#3C3C3C" stroke-miterlimit="10"/>
<path d="M189.193 778.229H186.1V782.797H189.193V778.229Z" stroke="#3C3C3C" stroke-miterlimit="10"/>
<path d="M182.736 785.498H179.642V790.066H182.736V785.498Z" stroke="#3C3C3C" stroke-miterlimit="10"/>
<path d="M189.193 785.498H186.1V790.066H189.193V785.498Z" stroke="#3C3C3C" stroke-miterlimit="10"/>
<path d="M182.736 792.755H179.642V797.322H182.736V792.755Z" stroke="#3C3C3C" stroke-miterlimit="10"/>
<path d="M175.957 765.288L176.104 804.505" stroke="#3C3C3C" stroke-miterlimit="10"/>
<path d="M196.412 748.688H188.456V761.199" stroke="#3C3C3C" stroke-miterlimit="10"/>
<path d="M180.463 761.199V736.409L172.814 728.76V738.595V761.199" stroke="#3C3C3C" stroke-miterlimit="10"/>
<path d="M172.814 738.692H167.646V747.336V761.199" stroke="#3C3C3C" stroke-miterlimit="10"/>
<path d="M158.917 746.797L167.511 746.797" stroke="#3C3C3C" stroke-miterlimit="10"/>
<path d="M192.876 765.288V795.825" stroke="#3C3C3C" stroke-miterlimit="10"/>
<path d="M372.046 804.193H275.177" stroke="#3C3C3C" stroke-width="1.5" stroke-miterlimit="10"/>
<path d="M374.816 719.489H323.251V724.229H374.816V719.489Z" stroke="#3C3C3C" stroke-width="1.5" stroke-miterlimit="10"/>
<path d="M372.047 804.194L372.047 724.454" stroke="#3C3C3C" stroke-width="1.5" stroke-miterlimit="10"/>
<path d="M326.296 724.229V804.543" stroke="#3C3C3C" stroke-width="1.5" stroke-miterlimit="10"/>
<path d="M334.743 732.849H330.851V738.595H334.743V732.849Z" stroke="#3C3C3C" stroke-miterlimit="10"/>
<path d="M342.858 732.849H338.966V738.595H342.858V732.849Z" stroke="#3C3C3C" stroke-miterlimit="10"/>
<path d="M334.743 741.983H330.851V747.73H334.743V741.983Z" stroke="#3C3C3C" stroke-miterlimit="10"/>
<path d="M342.858 741.983H338.966V747.73H342.858V741.983Z" stroke="#3C3C3C" stroke-miterlimit="10"/>
<path d="M334.743 751.106H330.851V756.853H334.743V751.106Z" stroke="#3C3C3C" stroke-miterlimit="10"/>
<path d="M342.858 751.106H338.966V756.853H342.858V751.106Z" stroke="#3C3C3C" stroke-miterlimit="10"/>
<path d="M334.743 760.241H330.851V765.988H334.743V760.241Z" stroke="#3C3C3C" stroke-miterlimit="10"/>
<path d="M342.858 760.241H338.966V765.988H342.858V760.241Z" stroke="#3C3C3C" stroke-miterlimit="10"/>
<path d="M334.743 769.364H330.851V775.111H334.743V769.364Z" stroke="#3C3C3C" stroke-miterlimit="10"/>
<path d="M342.858 769.364H338.966V775.111H342.858V769.364Z" stroke="#3C3C3C" stroke-miterlimit="10"/>
<path d="M350.974 732.849H347.082V738.595H350.974V732.849Z" stroke="#3C3C3C" stroke-miterlimit="10"/>
<path d="M359.088 732.849H355.196V738.595H359.088V732.849Z" stroke="#3C3C3C" stroke-miterlimit="10"/>
<path d="M350.974 741.983H347.082V747.73H350.974V741.983Z" stroke="#3C3C3C" stroke-miterlimit="10"/>
<path d="M359.088 741.983H355.196V747.73H359.088V741.983Z" stroke="#3C3C3C" stroke-miterlimit="10"/>
<path d="M350.974 751.106H347.082V756.853H350.974V751.106Z" stroke="#3C3C3C" stroke-miterlimit="10"/>
<path d="M359.088 751.106H355.196V756.853H359.088V751.106Z" stroke="#3C3C3C" stroke-miterlimit="10"/>
<path d="M350.974 760.241H347.082V765.988H350.974V760.241Z" stroke="#3C3C3C" stroke-miterlimit="10"/>
<path d="M359.088 760.241H355.196V765.988H359.088V760.241Z" stroke="#3C3C3C" stroke-miterlimit="10"/>
<path d="M350.974 769.364H347.082V775.111H350.974V769.364Z" stroke="#3C3C3C" stroke-miterlimit="10"/>
<path d="M359.088 769.364H355.196V775.111H359.088V769.364Z" stroke="#3C3C3C" stroke-miterlimit="10"/>
<path d="M367.205 732.849H363.312V738.595H367.205V732.849Z" stroke="#3C3C3C" stroke-miterlimit="10"/>
<path d="M367.205 741.983H363.312V747.73H367.205V741.983Z" stroke="#3C3C3C" stroke-miterlimit="10"/>
<path d="M367.205 751.106H363.312V756.853H367.205V751.106Z" stroke="#3C3C3C" stroke-miterlimit="10"/>
<path d="M367.205 760.241H363.312V765.988H367.205V760.241Z" stroke="#3C3C3C" stroke-miterlimit="10"/>
<path d="M367.205 769.364H363.312V775.111H367.205V769.364Z" stroke="#3C3C3C" stroke-miterlimit="10"/>
<path d="M334.743 778.5H330.851V784.246H334.743V778.5Z" stroke="#3C3C3C" stroke-miterlimit="10"/>
<path d="M342.858 778.5H338.966V784.246H342.858V778.5Z" stroke="#3C3C3C" stroke-miterlimit="10"/>
<path d="M334.743 787.622H330.851V793.368H334.743V787.622Z" stroke="#3C3C3C" stroke-miterlimit="10"/>
<path d="M342.858 787.622H338.966V793.368H342.858V787.622Z" stroke="#3C3C3C" stroke-miterlimit="10"/>
<path d="M334.743 796.758H330.851V802.504H334.743V796.758Z" stroke="#3C3C3C" stroke-miterlimit="10"/>
<path d="M342.858 796.758H338.966V802.504H342.858V796.758Z" stroke="#3C3C3C" stroke-miterlimit="10"/>
<path d="M350.974 778.5H347.082V784.246H350.974V778.5Z" stroke="#3C3C3C" stroke-miterlimit="10"/>
<path d="M359.088 778.5H355.196V784.246H359.088V778.5Z" stroke="#3C3C3C" stroke-miterlimit="10"/>
<path d="M350.974 787.622H347.082V793.368H350.974V787.622Z" stroke="#3C3C3C" stroke-miterlimit="10"/>
<path d="M359.088 787.622H355.196V793.368H359.088V787.622Z" stroke="#3C3C3C" stroke-miterlimit="10"/>
<path d="M350.974 796.758H347.082V802.504H350.974V796.758Z" stroke="#3C3C3C" stroke-miterlimit="10"/>
<path d="M359.088 796.758H355.196V802.504H359.088V796.758Z" stroke="#3C3C3C" stroke-miterlimit="10"/>
<path d="M367.205 778.5H363.312V784.246H367.205V778.5Z" stroke="#3C3C3C" stroke-miterlimit="10"/>
<path d="M367.205 787.622H363.312V793.368H367.205V787.622Z" stroke="#3C3C3C" stroke-miterlimit="10"/>
<path d="M367.205 796.758H363.312V802.504H367.205V796.758Z" stroke="#3C3C3C" stroke-miterlimit="10"/>
<path d="M326.296 727.188H371.772" stroke="#3C3C3C" stroke-miterlimit="10"/>
<path d="M326.296 730.994H319.531V804.235" stroke="#3C3C3C" stroke-width="1.5" stroke-miterlimit="10"/>
<path d="M308.455 744.856V796.586H304.392V744.856" stroke="#3C3C3C" stroke-miterlimit="10"/>
<path d="M315.761 744.856V796.586H311.709V744.856" stroke="#3C3C3C" stroke-miterlimit="10"/>
<path d="M319.53 745.262H275.921" stroke="#3C3C3C" stroke-miterlimit="10"/>
<path d="M319.531 741.972H275.123V795.702" stroke="#3C3C3C" stroke-width="1.5" stroke-miterlimit="10"/>
<path d="M293.723 744.856V796.586H289.659V744.856" stroke="#3C3C3C" stroke-miterlimit="10"/>
<path d="M301.028 744.856V796.586H296.977V744.856" stroke="#3C3C3C" stroke-miterlimit="10"/>
<path d="M278.978 744.856V796.586H275.921" stroke="#3C3C3C" stroke-miterlimit="10"/>
<path d="M286.295 744.856V796.586H282.243V744.856" stroke="#3C3C3C" stroke-miterlimit="10"/>
<path d="M338.253 719.489V715.523H330.138V719.489" stroke="#3C3C3C" stroke-miterlimit="10"/>
<path d="M334.189 715.523V709.851" stroke="#3C3C3C" stroke-miterlimit="10"/>
<path d="M275.123 760.622H265.288V770.838H258.266" stroke="#3C3C3C" stroke-width="1.5" stroke-miterlimit="10"/>
<path d="M293.723 742.364C293.109 741.971 293.723 719.489 293.723 719.489L286.614 726.599V741.971" stroke="#3C3C3C" stroke-miterlimit="10"/>
<path d="M286.295 731.62H278.978V741.541" stroke="#3C3C3C" stroke-miterlimit="10"/>
<path d="M278.978 735.722H270.703V760.622" stroke="#3C3C3C" stroke-miterlimit="10"/>
<path d="M293.453 736.581H308.456V741.542" stroke="#3C3C3C" stroke-miterlimit="10"/>
<path d="M299.002 737.269V741.983" stroke="#3C3C3C" stroke-miterlimit="10"/>
</g>
<g opacity="0.12">
<path d="M328.951 262.415H354.409C355.74 260.162 356.453 257.597 356.475 254.98C356.498 252.363 355.831 249.787 354.539 247.51C353.248 245.234 351.379 243.338 349.121 242.015C346.864 240.692 344.297 239.988 341.68 239.974C340.129 239.972 338.589 240.218 337.116 240.702C337.116 240.465 337.116 240.211 337.116 239.974C337.02 232.678 334.187 225.683 329.177 220.378C324.167 215.072 317.346 211.843 310.067 211.331C302.789 210.818 295.583 213.059 289.879 217.61C284.175 222.161 280.389 228.69 279.272 235.901C276.556 234.666 273.6 234.045 270.617 234.082C265.119 234.082 259.846 236.267 255.958 240.154C252.071 244.042 249.887 249.316 249.887 254.814C249.879 257.476 250.392 260.114 251.396 262.579H269.58" stroke="#3C3C3C" stroke-miterlimit="10" stroke-linecap="round"/>
<path d="M276.417 262.415H288.982" stroke="#3C3C3C" stroke-miterlimit="10" stroke-linecap="round"/>
<path d="M172.262 185.857H181.214C181.71 184.645 181.964 183.347 181.962 182.037C181.962 180.698 181.698 179.371 181.186 178.134C180.673 176.896 179.922 175.772 178.975 174.824C178.028 173.877 176.903 173.126 175.666 172.613C174.428 172.101 173.102 171.837 171.763 171.837C170.288 171.833 168.831 172.156 167.497 172.782C166.983 169.196 165.13 165.937 162.31 163.662C159.49 161.388 155.913 160.267 152.3 160.525C148.686 160.783 145.305 162.401 142.837 165.053C140.368 167.705 138.997 171.194 138.998 174.817C138.998 174.935 138.998 175.053 138.998 175.171C138.274 174.934 137.516 174.815 136.754 174.817C135.463 174.817 134.196 175.159 133.081 175.808C131.965 176.456 131.041 177.389 130.403 178.51C129.764 179.631 129.433 180.902 129.445 182.192C129.456 183.483 129.808 184.747 130.466 185.857H143.042" stroke="#3C3C3C" stroke-miterlimit="10" stroke-linecap="round"/>
<path d="M168.901 185.857H162.705" stroke="#3C3C3C" stroke-miterlimit="10" stroke-linecap="round"/>
<path d="M-27.2246 225.585C-26.3308 221.958 -24.2376 218.74 -21.2848 216.452C-18.332 214.165 -14.6929 212.942 -10.958 212.983C-7.22319 213.024 -3.61182 214.326 -0.710005 216.678C2.19181 219.03 4.2137 222.294 5.02764 225.939" stroke="#3C3C3C" stroke-linecap="round" stroke-linejoin="round"/>
<path d="M5.02734 225.939C6.71978 224.883 8.65382 224.278 10.646 224.179C12.6382 224.081 14.6225 224.493 16.4107 225.377C18.199 226.26 19.7319 227.586 20.864 229.229C21.9961 230.871 22.69 232.775 22.8797 234.761" stroke="#3C3C3C" stroke-linecap="round" stroke-linejoin="round"/>
<path d="M22.8798 234.761C23.677 234.423 24.5341 234.249 25.4001 234.249C26.2676 234.249 27.1264 234.421 27.9271 234.755C28.7277 235.089 29.4541 235.578 30.0645 236.195C30.6748 236.811 31.1569 237.543 31.4828 238.347C31.8088 239.151 31.9721 240.011 31.9635 240.879C31.968 241.739 31.7984 242.592 31.4646 243.386H20.1494" stroke="#3C3C3C" stroke-linecap="round" stroke-linejoin="round"/>
<path d="M6.43164 243.386H13.6513" stroke="#3C3C3C" stroke-linecap="round" stroke-linejoin="round"/>
</g>
</g>
<defs>
<clipPath id="clip0_183_30105">
<rect width="375" height="812" fill="white"/>
</clipPath>
<clipPath id="clip1_183_30105">
<rect width="2000" height="311.872" fill="white" transform="translate(-1625 500)"/>
</clipPath>
</defs>
</svg>
