<svg  viewBox="0 0 375 812" fill="none" xmlns="http://www.w3.org/2000/svg">
<g clip-path="url(#clip0_183_34477)">
<rect width="375" height="812" fill="white"/>
<g opacity="0.06" clip-path="url(#clip1_183_34477)">
<g clip-path="url(#clip2_183_34477)">
<path d="M301.915 461.089V465.538H311.315" stroke="#3C3C3C" stroke-width="1.5" stroke-miterlimit="10"/>
<path d="M311.315 650.338H278.255V660.089H311.315" stroke="#3C3C3C" stroke-width="1.5" stroke-miterlimit="10"/>
<path d="M278.255 660.089L282.734 664.568H311.315" stroke="#3C3C3C" stroke-width="1.5" stroke-miterlimit="10"/>
<path d="M311.315 712.273H290.108H267.301H263.203H258.19V703.101H270.835H293.155H311.315" stroke="#3C3C3C" stroke-width="1.5" stroke-miterlimit="10"/>
<path d="M263.203 712.272V722.085H286.65H311.315" stroke="#3C3C3C" stroke-width="1.5" stroke-miterlimit="10"/>
<path d="M257.459 734.563H311.315" stroke="#3C3C3C" stroke-miterlimit="10"/>
<path d="M307.872 727.113V742.349" stroke="#3C3C3C" stroke-miterlimit="10"/>
<path d="M301.001 727.113V742.349" stroke="#3C3C3C" stroke-miterlimit="10"/>
<path d="M294.115 727.113V742.349" stroke="#3C3C3C" stroke-miterlimit="10"/>
<path d="M287.229 727.113V742.349" stroke="#3C3C3C" stroke-miterlimit="10"/>
<path d="M280.357 727.113V742.349" stroke="#3C3C3C" stroke-miterlimit="10"/>
<path d="M273.472 727.113V742.349" stroke="#3C3C3C" stroke-miterlimit="10"/>
<path d="M266.585 727.113V742.349" stroke="#3C3C3C" stroke-miterlimit="10"/>
<path d="M259.714 729.825V742.349" stroke="#3C3C3C" stroke-miterlimit="10"/>
<path d="M267.332 768.326C276.595 747.712 301.016 742.425 311.315 742.425H253.544" stroke="#3C3C3C" stroke-miterlimit="10"/>
<path d="M284.76 727.128C283.836 729.627 282.891 732.105 281.926 734.563C281.408 735.904 280.875 737.245 280.403 738.57C279.931 739.896 279.413 741.1 278.879 742.349C275.421 750.835 271.856 758.941 268.322 766.376C268.203 766.581 268.101 766.795 268.017 767.016C265.671 771.938 263.34 776.585 261.009 780.866C257.962 786.595 254.915 791.684 252.005 796.011" stroke="#3C3C3C" stroke-width="1.5" stroke-miterlimit="10"/>
<path d="M290.093 712.273C291.108 709.226 292.124 706.179 293.14 703.131C303.804 670.526 311.3 637.296 311.3 614.091" stroke="#3C3C3C" stroke-width="1.5" stroke-miterlimit="10"/>
<path d="M300.727 752.42L298.716 744.132" stroke="#3C3C3C" stroke-miterlimit="10"/>
<path d="M289.88 756.016L286.132 748.992" stroke="#3C3C3C" stroke-miterlimit="10"/>
<path d="M272.694 767.535L269.099 764.884" stroke="#3C3C3C" stroke-miterlimit="10"/>
<path d="M279.611 761.958L275.086 757.098" stroke="#3C3C3C" stroke-miterlimit="10"/>
<path d="M300.985 703.101V712.273" stroke="#3C3C3C" stroke-miterlimit="10"/>
<path d="M307.872 650.338V660.089" stroke="#3C3C3C" stroke-miterlimit="10"/>
<path d="M301.001 650.338V660.089" stroke="#3C3C3C" stroke-miterlimit="10"/>
<path d="M294.115 650.338V660.089" stroke="#3C3C3C" stroke-miterlimit="10"/>
<path d="M287.229 650.338V660.089" stroke="#3C3C3C" stroke-miterlimit="10"/>
<path d="M282.079 650.338V660.089" stroke="#3C3C3C" stroke-miterlimit="10"/>
<path d="M299.874 680.841H311.316" stroke="#3C3C3C" stroke-miterlimit="10"/>
<path d="M260.948 780.867C264.378 776.022 268.31 771.553 272.679 767.535C274.864 765.531 277.174 763.669 279.596 761.959C282.814 759.639 286.254 757.644 289.864 756.001C293.341 754.405 296.984 753.199 300.727 752.405C304.2 751.643 307.745 751.26 311.3 751.263" stroke="#3C3C3C" stroke-width="1.5" stroke-miterlimit="10"/>
<path d="M219.905 796.011L260.964 780.866L238.736 768.326L273.472 755.01L253.559 742.349" stroke="#3C3C3C" stroke-linejoin="round"/>
<path d="M260.964 727.128H266.586H273.472H280.343H284.776H287.229H294.115H300.986H311.316" stroke="#3C3C3C" stroke-miterlimit="10"/>
<path d="M279.778 675.812H311.315" stroke="#3C3C3C" stroke-miterlimit="10"/>
<path d="M282.734 664.568L301.245 675.813L275.589 689.449L293.155 703.101L280.342 712.273" stroke="#3C3C3C" stroke-linejoin="round"/>
<path d="M304.079 664.568L279.779 675.813L297.802 688.063L270.836 703.101L280.343 712.273" stroke="#3C3C3C" stroke-linejoin="round"/>
<path d="M280.343 712.273V703.101" stroke="#3C3C3C" stroke-miterlimit="10"/>
<path d="M251.96 796.012L229.93 781.827L267.332 768.327L246.383 755.544L278.103 744.147" stroke="#3C3C3C" stroke-linejoin="round"/>
<path d="M301.915 465.537L311.315 476.72L302.022 486.609L311.315 495.933L302.022 504.679L311.315 513.425L301.336 522.018L311.331 534.207L300.346 543.562L311.315 555.324L298.807 565.532L311.315 575.695C311.315 575.695 296.781 586.467 296.827 586.04C296.873 585.614 311.27 595.913 311.27 595.913L294.115 606.091L311.27 616.985L290.641 628.885L309.243 638.362L286.284 650.383" stroke="#3C3C3C" stroke-linejoin="round"/>
<path d="M267.301 712.273C268.509 709.276 269.683 706.229 270.82 703.131" stroke="#3C3C3C" stroke-linejoin="round"/>
<path d="M307.156 650.353L289.239 637.585L310.568 627.727L292.576 617.473L311.3 606.914L295.607 596.158L311.3 585.98L297.771 576.838L311.3 565.822L299.63 554.563L311.3 544.37L300.864 533.049L311.3 523.161C311.3 523.161 301.595 512.983 301.58 513.41C301.564 513.836 311.3 505.091 311.3 505.091L301.93 495.629L311.3 485.741L301.991 476.599L311.3 465.553" stroke="#3C3C3C" stroke-linejoin="round"/>
<path d="M320.73 451.337V445.608H301.915V451.337" stroke="#3C3C3C" stroke-width="1.5" stroke-miterlimit="10"/>
<path d="M324.311 451.337H298.335V461.088H324.311V451.337Z" stroke="#3C3C3C" stroke-width="1.5" stroke-miterlimit="10"/>
<path d="M320.731 461.089V465.538H311.315" stroke="#3C3C3C" stroke-width="1.5" stroke-miterlimit="10"/>
<path d="M251.959 796.011H219.966C226.441 787.143 232.748 778.017 238.781 768.326C241.386 764.182 243.946 759.931 246.399 755.543C248.851 751.155 251.228 746.874 253.574 742.349C254.9 739.804 256.195 737.199 257.474 734.548C258.221 733.024 258.998 731.409 259.714 729.84L260.963 727.143C261.71 725.497 262.487 723.806 263.203 722.1" stroke="#3C3C3C" stroke-width="1.5" stroke-miterlimit="10"/>
<path d="M311.315 650.338H344.375V660.089H311.315" stroke="#3C3C3C" stroke-width="1.5" stroke-miterlimit="10"/>
<path d="M344.375 660.089L339.911 664.568H311.315" stroke="#3C3C3C" stroke-width="1.5" stroke-miterlimit="10"/>
<path d="M311.33 703.101H329.49H351.809H364.455V712.273H359.442H355.329H332.537H311.33" stroke="#3C3C3C" stroke-width="1.5" stroke-miterlimit="10"/>
<path d="M311.33 722.085H335.995H359.442V712.272" stroke="#3C3C3C" stroke-width="1.5" stroke-miterlimit="10"/>
<path d="M365.186 734.563H311.315" stroke="#3C3C3C" stroke-miterlimit="10"/>
<path d="M314.758 727.113V742.349" stroke="#3C3C3C" stroke-miterlimit="10"/>
<path d="M321.645 727.113V742.349" stroke="#3C3C3C" stroke-miterlimit="10"/>
<path d="M328.516 727.113V742.349" stroke="#3C3C3C" stroke-miterlimit="10"/>
<path d="M335.401 727.113V742.349" stroke="#3C3C3C" stroke-miterlimit="10"/>
<path d="M342.288 727.113V742.349" stroke="#3C3C3C" stroke-miterlimit="10"/>
<path d="M349.174 727.113V742.349" stroke="#3C3C3C" stroke-miterlimit="10"/>
<path d="M356.045 727.113V742.349" stroke="#3C3C3C" stroke-miterlimit="10"/>
<path d="M362.932 729.825V742.349" stroke="#3C3C3C" stroke-miterlimit="10"/>
<path d="M369.087 742.364H311.315C321.63 742.364 346.036 747.727 355.299 768.266" stroke="#3C3C3C" stroke-miterlimit="10"/>
<path d="M370.67 796.011C367.776 791.699 364.759 786.595 361.666 780.866C359.351 776.585 357.005 771.938 354.658 767.016C354.574 766.795 354.472 766.581 354.354 766.376C350.804 758.926 347.254 750.82 343.796 742.349C343.278 741.1 342.775 739.835 342.272 738.57C341.769 737.306 341.206 735.904 340.749 734.563C339.784 732.105 338.839 729.627 337.915 727.128" stroke="#3C3C3C" stroke-width="1.5" stroke-miterlimit="10"/>
<path d="M311.33 465.537V614.06C311.33 637.249 318.948 670.434 329.49 703.1C330.506 706.147 331.522 709.195 332.537 712.242" stroke="#3C3C3C" stroke-width="1.5" stroke-miterlimit="10"/>
<path d="M311.33 445.608V437" stroke="#3C3C3C" stroke-miterlimit="10"/>
<path d="M359.442 722.085C360.189 723.791 360.966 725.467 361.682 727.128L362.931 729.825C363.678 731.349 364.455 732.994 365.171 734.533C366.466 737.184 367.745 739.774 369.071 742.334C371.407 746.854 373.799 751.252 376.247 755.529C378.745 759.917 381.305 764.168 383.864 768.312C386.769 772.923 389.709 777.423 392.685 781.811C395.976 786.646 399.312 791.369 402.695 795.981H370.701" stroke="#3C3C3C" stroke-width="1.5" stroke-miterlimit="10"/>
<path d="M323.914 744.132L321.903 752.42" stroke="#3C3C3C" stroke-miterlimit="10"/>
<path d="M336.513 748.992L332.766 756.016" stroke="#3C3C3C" stroke-miterlimit="10"/>
<path d="M353.547 764.884L349.951 767.535" stroke="#3C3C3C" stroke-miterlimit="10"/>
<path d="M347.559 757.098L343.034 761.958" stroke="#3C3C3C" stroke-miterlimit="10"/>
<path d="M321.645 703.101V712.273" stroke="#3C3C3C" stroke-miterlimit="10"/>
<path d="M314.758 650.338V660.089" stroke="#3C3C3C" stroke-miterlimit="10"/>
<path d="M321.645 650.338V660.089" stroke="#3C3C3C" stroke-miterlimit="10"/>
<path d="M328.516 650.338V660.089" stroke="#3C3C3C" stroke-miterlimit="10"/>
<path d="M335.401 650.338V660.089" stroke="#3C3C3C" stroke-miterlimit="10"/>
<path d="M340.566 650.338V660.089" stroke="#3C3C3C" stroke-miterlimit="10"/>
<path d="M322.756 680.841H311.33" stroke="#3C3C3C" stroke-miterlimit="10"/>
<path d="M361.682 780.867C358.252 776.022 354.32 771.553 349.951 767.535C347.766 765.531 345.456 763.669 343.034 761.959C339.816 759.639 336.376 757.644 332.766 756.001C329.289 754.405 325.646 753.199 321.903 752.405C318.431 751.643 314.885 751.26 311.33 751.263" stroke="#3C3C3C" stroke-width="1.5" stroke-miterlimit="10"/>
<path d="M369.086 742.349L349.174 755.01L383.894 768.326L361.682 780.866L402.725 796.011" stroke="#3C3C3C" stroke-linejoin="round"/>
<path d="M311.33 727.128H321.644H328.53H335.417H337.869H342.288H349.174H356.06H361.682" stroke="#3C3C3C" stroke-miterlimit="10"/>
<path d="M342.867 675.812H311.315" stroke="#3C3C3C" stroke-miterlimit="10"/>
<path d="M339.911 664.568L321.4 675.813L347.056 689.449L329.49 703.101L342.288 712.273" stroke="#3C3C3C" stroke-linejoin="round"/>
<path d="M318.567 664.568L342.867 675.813L324.829 688.063L351.81 703.101L342.288 712.273" stroke="#3C3C3C" stroke-linejoin="round"/>
<path d="M342.288 712.273V703.101" stroke="#3C3C3C" stroke-miterlimit="10"/>
<path d="M344.543 744.147L376.247 755.544L355.314 768.327L392.716 781.827L370.671 796.012" stroke="#3C3C3C" stroke-linejoin="round"/>
<path d="M320.715 465.537L311.315 476.72L320.609 486.609L311.315 495.933L320.609 504.679L311.315 513.425L321.294 522.018L311.315 534.207L322.285 543.562L311.315 555.324L323.823 565.532L311.315 575.695C311.315 575.695 325.85 586.467 325.804 586.04C325.758 585.614 311.361 595.913 311.361 595.913L328.516 606.091L311.361 616.985L331.989 628.885L313.387 638.362L336.347 650.383" stroke="#3C3C3C" stroke-linejoin="round"/>
<path d="M355.329 712.273C354.12 709.276 352.947 706.229 351.81 703.131" stroke="#3C3C3C" stroke-linejoin="round"/>
<path d="M315.474 650.352L333.329 637.6L312.092 627.696L330.084 617.442L311.36 606.884L327.052 596.127L311.36 585.949L324.889 576.807L311.36 565.791L323.03 554.623L311.36 544.43L321.796 533.11L311.36 523.221C311.36 523.221 321.065 513.044 321.08 513.47C321.096 513.897 311.36 505.151 311.36 505.151L320.73 495.69L311.36 485.801L320.669 476.66L311.36 465.613" stroke="#3C3C3C" stroke-linejoin="round"/>
<path d="M311.316 757.098C308.22 757.098 305.132 757.409 302.098 758.027C298.83 758.701 295.643 759.723 292.592 761.074C289.385 762.454 286.323 764.148 283.451 766.133C281.287 767.601 279.226 769.215 277.281 770.963C269.467 777.962 263.168 786.486 258.77 796.011H251.884" stroke="#3C3C3C" stroke-miterlimit="10"/>
<path d="M370.686 796.011H363.8C359.421 786.474 353.137 777.934 345.335 770.917C343.39 769.169 341.328 767.555 339.165 766.087C336.293 764.102 333.23 762.408 330.024 761.028C326.972 759.677 323.785 758.655 320.517 757.981C317.483 757.363 314.396 757.052 311.3 757.052" stroke="#3C3C3C" stroke-miterlimit="10"/>
<path d="M270.836 703.1C290.779 649.164 303.271 576.548 301.915 465.537" stroke="#3C3C3C" stroke-width="1.5" stroke-linejoin="round"/>
<path d="M351.795 703.1C331.852 649.164 319.36 576.548 320.716 465.537" stroke="#3C3C3C" stroke-width="1.5" stroke-linejoin="round"/>
<path d="M472.075 806.737V796.011H147.051V806.737" stroke="#3C3C3C" stroke-width="1.5" stroke-miterlimit="10"/>
<path d="M599.013 806.494L101.041 805.717" stroke="#3C3C3C" stroke-width="1.5" stroke-miterlimit="10"/>
<path d="M101.849 806.493V723.867" stroke="#3C3C3C" stroke-width="1.5" stroke-miterlimit="10"/>
<path d="M170.224 719.784H99V723.867H170.224V719.784Z" stroke="#3C3C3C" stroke-width="1.5" stroke-miterlimit="10"/>
<path d="M166.796 723.867V796.011" stroke="#3C3C3C" stroke-width="1.5" stroke-miterlimit="10"/>
<path d="M101.849 750.577H166.796" stroke="#3C3C3C" stroke-miterlimit="10"/>
<path d="M116.52 746.159H106.998V728.881H111.751H116.52V746.159Z" stroke="#3C3C3C" stroke-miterlimit="10"/>
<path d="M106.998 740.825H116.52" stroke="#3C3C3C" stroke-miterlimit="10"/>
<path d="M106.998 734.563H116.52" stroke="#3C3C3C" stroke-miterlimit="10"/>
<path d="M111.752 728.881V746.159" stroke="#3C3C3C" stroke-miterlimit="10"/>
<path d="M131.755 746.159H122.233V728.881H126.987H131.755V746.159Z" stroke="#3C3C3C" stroke-miterlimit="10"/>
<path d="M122.233 740.825H131.755" stroke="#3C3C3C" stroke-miterlimit="10"/>
<path d="M122.233 734.563H131.755" stroke="#3C3C3C" stroke-miterlimit="10"/>
<path d="M126.986 728.881V746.159" stroke="#3C3C3C" stroke-miterlimit="10"/>
<path d="M146.991 746.159H137.469V728.881H142.222H146.991V746.159Z" stroke="#3C3C3C" stroke-miterlimit="10"/>
<path d="M137.469 740.825H146.991" stroke="#3C3C3C" stroke-miterlimit="10"/>
<path d="M137.469 734.563H146.991" stroke="#3C3C3C" stroke-miterlimit="10"/>
<path d="M142.222 728.881V746.159" stroke="#3C3C3C" stroke-miterlimit="10"/>
<path d="M162.225 746.159H152.703V728.881H157.456H162.225V746.159Z" stroke="#3C3C3C" stroke-miterlimit="10"/>
<path d="M152.703 740.825H162.225" stroke="#3C3C3C" stroke-miterlimit="10"/>
<path d="M152.703 734.563H162.225" stroke="#3C3C3C" stroke-miterlimit="10"/>
<path d="M157.457 728.881V746.159" stroke="#3C3C3C" stroke-miterlimit="10"/>
<path d="M116.52 773.584H106.998V756.306H111.751H116.52V773.584Z" stroke="#3C3C3C" stroke-miterlimit="10"/>
<path d="M106.998 768.25H116.52" stroke="#3C3C3C" stroke-miterlimit="10"/>
<path d="M106.998 761.988H116.52" stroke="#3C3C3C" stroke-miterlimit="10"/>
<path d="M111.752 756.306V773.584" stroke="#3C3C3C" stroke-miterlimit="10"/>
<path d="M131.755 773.584H122.233V756.306H126.987H131.755V773.584Z" stroke="#3C3C3C" stroke-miterlimit="10"/>
<path d="M122.233 768.25H131.755" stroke="#3C3C3C" stroke-miterlimit="10"/>
<path d="M122.233 761.988H131.755" stroke="#3C3C3C" stroke-miterlimit="10"/>
<path d="M126.986 756.306V773.584" stroke="#3C3C3C" stroke-miterlimit="10"/>
<path d="M146.991 773.584H137.469V756.306H142.222H146.991V773.584Z" stroke="#3C3C3C" stroke-miterlimit="10"/>
<path d="M137.469 768.25H146.991" stroke="#3C3C3C" stroke-miterlimit="10"/>
<path d="M137.469 761.988H146.991" stroke="#3C3C3C" stroke-miterlimit="10"/>
<path d="M142.222 756.306V773.584" stroke="#3C3C3C" stroke-miterlimit="10"/>
<path d="M162.225 773.584H152.703V756.306H157.456H162.225V773.584Z" stroke="#3C3C3C" stroke-miterlimit="10"/>
<path d="M152.703 768.25H162.225" stroke="#3C3C3C" stroke-miterlimit="10"/>
<path d="M152.703 761.988H162.225" stroke="#3C3C3C" stroke-miterlimit="10"/>
<path d="M157.457 756.306V773.584" stroke="#3C3C3C" stroke-miterlimit="10"/>
<path d="M106.998 776.555H162.225" stroke="#3C3C3C" stroke-miterlimit="10"/>
<path d="M142.221 806.493V788.24H126.986V806.493" stroke="#3C3C3C" stroke-miterlimit="10"/>
<path d="M126.986 799.546H101.849" stroke="#3C3C3C" stroke-miterlimit="10"/>
<path d="M142.222 799.409H146.99" stroke="#3C3C3C" stroke-miterlimit="10"/>
<path d="M160.504 796.011V783.228H151.18V796.011" stroke="#3C3C3C" stroke-miterlimit="10"/>
<path d="M155.842 783.228V796.178" stroke="#3C3C3C" stroke-miterlimit="10"/>
<path d="M151.18 789.703H160.504" stroke="#3C3C3C" stroke-miterlimit="10"/>
<path d="M166.796 719.784C166.796 715.701 164.008 700.511 154.227 700.511H114.418C104.637 700.511 101.849 715.747 101.849 719.784" stroke="#3C3C3C" stroke-width="1.5" stroke-miterlimit="10"/>
<path d="M154.227 700.511V696.641H145.527V700.541" stroke="#3C3C3C" stroke-miterlimit="10"/>
<path d="M140.577 700.541V696.641H132.197V700.541" stroke="#3C3C3C" stroke-miterlimit="10"/>
<path d="M109.223 713.964C109.223 712.227 111.097 710.811 113.412 710.811C115.728 710.811 117.602 712.227 117.602 713.964" stroke="#3C3C3C" stroke-miterlimit="10"/>
<path d="M117.602 713.964V719.86" stroke="#3C3C3C" stroke-miterlimit="10"/>
<path d="M109.223 713.964V719.86" stroke="#3C3C3C" stroke-miterlimit="10"/>
<path d="M113.412 710.795V719.86" stroke="#3C3C3C" stroke-miterlimit="10"/>
<path d="M109.223 716.204H117.602" stroke="#3C3C3C" stroke-miterlimit="10"/>
<path d="M122.935 713.964C122.935 712.227 124.808 710.811 127.124 710.811C129.44 710.811 131.314 712.227 131.314 713.964" stroke="#3C3C3C" stroke-miterlimit="10"/>
<path d="M131.313 713.964V719.86" stroke="#3C3C3C" stroke-miterlimit="10"/>
<path d="M122.935 713.964V719.86" stroke="#3C3C3C" stroke-miterlimit="10"/>
<path d="M127.124 710.795V719.86" stroke="#3C3C3C" stroke-miterlimit="10"/>
<path d="M138.169 713.964C138.169 712.227 140.043 710.811 142.359 710.811C144.674 710.811 146.548 712.227 146.548 713.964" stroke="#3C3C3C" stroke-miterlimit="10"/>
<path d="M146.549 713.964V719.86" stroke="#3C3C3C" stroke-miterlimit="10"/>
<path d="M138.169 713.964V719.86" stroke="#3C3C3C" stroke-miterlimit="10"/>
<path d="M142.358 710.795V719.86" stroke="#3C3C3C" stroke-miterlimit="10"/>
<path d="M138.169 716.204H146.548" stroke="#3C3C3C" stroke-miterlimit="10"/>
<path d="M151.881 713.964C151.881 712.227 153.755 710.811 156.07 710.811C158.386 710.811 160.26 712.227 160.26 713.964" stroke="#3C3C3C" stroke-miterlimit="10"/>
<path d="M160.26 713.964V719.86" stroke="#3C3C3C" stroke-miterlimit="10"/>
<path d="M151.881 713.964V719.86" stroke="#3C3C3C" stroke-miterlimit="10"/>
<path d="M156.07 710.795V719.86" stroke="#3C3C3C" stroke-miterlimit="10"/>
<path d="M113.412 704.518H156.07" stroke="#3C3C3C" stroke-miterlimit="10"/>
<path d="M166.796 757.098H193.64V776.097V796.179" stroke="#3C3C3C" stroke-width="1.5" stroke-miterlimit="10"/>
<path d="M210.779 796.179V778.094H193.64" stroke="#3C3C3C" stroke-miterlimit="10"/>
<path d="M188.125 757.098V753.776H181.452V757.098" stroke="#3C3C3C" stroke-miterlimit="10"/>
<path d="M193.64 766.727H166.796" stroke="#3C3C3C" stroke-miterlimit="10"/>
<path d="M210.779 783.228H193.64" stroke="#3C3C3C" stroke-miterlimit="10"/>
<path d="M189.542 770.826H181.452V778.917H189.542V770.826Z" stroke="#3C3C3C" stroke-miterlimit="10"/>
<path d="M185.504 770.826V778.917" stroke="#3C3C3C" stroke-miterlimit="10"/>
<path d="M181.452 774.878H189.542" stroke="#3C3C3C" stroke-miterlimit="10"/>
<path d="M166.796 770.826H174.886V778.917H166.796" stroke="#3C3C3C" stroke-miterlimit="10"/>
<path d="M170.833 770.826V778.917" stroke="#3C3C3C" stroke-miterlimit="10"/>
<path d="M166.796 774.878H174.886" stroke="#3C3C3C" stroke-miterlimit="10"/>
<path d="M181.452 796.011V788.24H174.886V796.011" stroke="#3C3C3C" stroke-miterlimit="10"/>
<path d="M171.809 759.947V764.945" stroke="#3C3C3C" stroke-miterlimit="10"/>
<path d="M187.043 759.947V764.945" stroke="#3C3C3C" stroke-miterlimit="10"/>
<path d="M183.996 759.947V764.945" stroke="#3C3C3C" stroke-miterlimit="10"/>
<path d="M207.244 787.144H204.167V790.221H207.244V787.144Z" stroke="#3C3C3C" stroke-miterlimit="10"/>
<path d="M199.627 787.144H196.55V790.221H199.627V787.144Z" stroke="#3C3C3C" stroke-miterlimit="10"/>
<path d="M210.779 781.201H229.93" stroke="#3C3C3C" stroke-miterlimit="10"/>
<path d="M210.779 785.772H227.218" stroke="#3C3C3C" stroke-miterlimit="10"/>
<path d="M215.167 796.011V792.126H222.724" stroke="#3C3C3C" stroke-miterlimit="10"/>
<path d="M383.895 768.327V700.968H373.794V750.303" stroke="#3C3C3C" stroke-miterlimit="10"/>
<path d="M188.125 753.289V728.88L197.555 728.865V703.832H216.919V715.488H226.593L227.218 781.202" stroke="#3C3C3C" stroke-miterlimit="10"/>
<path d="M216.919 715.487L217.65 781.201" stroke="#3C3C3C" stroke-miterlimit="10"/>
<path d="M197.556 728.865L198.089 778.093" stroke="#3C3C3C" stroke-miterlimit="10"/>
<path d="M220.667 720.606H222.952" stroke="#3C3C3C" stroke-width="1.5" stroke-miterlimit="10"/>
<path d="M220.667 725.178H222.952" stroke="#3C3C3C" stroke-width="1.5" stroke-miterlimit="10"/>
<path d="M220.667 729.748H222.952" stroke="#3C3C3C" stroke-width="1.5" stroke-miterlimit="10"/>
<path d="M213.338 781.399L212.79 708.113" stroke="#3C3C3C" stroke-miterlimit="10"/>
<path d="M207.991 777.971V707.793" stroke="#3C3C3C" stroke-miterlimit="10"/>
<path d="M203.421 778.093L202.872 707.915" stroke="#3C3C3C" stroke-miterlimit="10"/>
<path d="M220.667 734.319H222.952" stroke="#3C3C3C" stroke-width="1.5" stroke-miterlimit="10"/>
<path d="M220.667 738.891H222.952" stroke="#3C3C3C" stroke-width="1.5" stroke-miterlimit="10"/>
<path d="M220.667 743.461H222.952" stroke="#3C3C3C" stroke-width="1.5" stroke-miterlimit="10"/>
<path d="M220.667 748.032H222.952" stroke="#3C3C3C" stroke-width="1.5" stroke-miterlimit="10"/>
<path d="M193.655 757.189V733.329" stroke="#3C3C3C" stroke-miterlimit="10"/>
<path d="M213.781 703.832V701.059H208.692V703.832" stroke="#3C3C3C" stroke-miterlimit="10"/>
<path d="M220.667 752.603H222.952" stroke="#3C3C3C" stroke-width="1.5" stroke-miterlimit="10"/>
<path d="M220.667 757.174H222.952" stroke="#3C3C3C" stroke-width="1.5" stroke-miterlimit="10"/>
<path d="M220.667 761.744H222.952" stroke="#3C3C3C" stroke-width="1.5" stroke-miterlimit="10"/>
<path d="M220.667 766.315H222.952" stroke="#3C3C3C" stroke-width="1.5" stroke-miterlimit="10"/>
<path d="M220.667 770.887H222.952" stroke="#3C3C3C" stroke-width="1.5" stroke-miterlimit="10"/>
<path d="M220.667 775.457H222.952" stroke="#3C3C3C" stroke-width="1.5" stroke-miterlimit="10"/>
<path d="M312.854 796.011V791.227H261.816" stroke="#3C3C3C" stroke-width="1.5" stroke-miterlimit="10"/>
<path d="M312.854 791.227H361.392" stroke="#3C3C3C" stroke-width="1.5" stroke-miterlimit="10"/>
<path d="M351.81 785.62H273.472" stroke="#3C3C3C" stroke-width="1.5" stroke-miterlimit="10"/>
<path d="M328.516 780.303H290.108" stroke="#3C3C3C" stroke-width="1.5" stroke-miterlimit="10"/>
<path d="M247.708 565.914C248.46 565.662 249.247 565.533 250.039 565.533C252.002 565.537 253.883 566.319 255.271 567.706C256.658 569.094 257.44 570.975 257.444 572.938C257.448 574.046 257.197 575.141 256.712 576.138H245.743" stroke="#3C3C3C" stroke-linecap="round" stroke-linejoin="round"/>
<path d="M232.87 555.477C233.44 555.39 234.015 555.35 234.592 555.355C237.646 555.354 240.608 556.403 242.982 558.325C245.356 560.247 246.998 562.926 247.633 565.914" stroke="#3C3C3C" stroke-linecap="round" stroke-linejoin="round"/>
<path d="M195.514 555.888C196.458 551.657 198.805 547.87 202.173 545.14C205.541 542.411 209.732 540.899 214.067 540.852C218.402 540.804 222.625 542.223 226.052 544.878C229.479 547.533 231.909 551.268 232.946 555.477" stroke="#3C3C3C" stroke-linecap="round" stroke-linejoin="round"/>
<path d="M174.794 566.127C175.014 563.822 175.819 561.612 177.133 559.706C178.447 557.8 180.226 556.261 182.302 555.235C184.377 554.21 186.68 553.731 188.992 553.846C191.305 553.96 193.549 554.663 195.514 555.888" stroke="#3C3C3C" stroke-linecap="round" stroke-linejoin="round"/>
<path d="M177.902 576.137H164.769C164.382 575.216 164.185 574.226 164.191 573.227C164.191 571.206 164.993 569.268 166.422 567.84C167.85 566.411 169.788 565.608 171.808 565.608C172.813 565.608 173.808 565.81 174.733 566.203" stroke="#3C3C3C" stroke-linecap="round" stroke-linejoin="round"/>
<path d="M237.699 576.138H256.712" stroke="#3C3C3C" stroke-linecap="round" stroke-linejoin="round"/>
<path d="M185.52 576.138H193.899" stroke="#3C3C3C" stroke-linecap="round" stroke-linejoin="round"/>
</g>
</g>
<line opacity="0.04" x1="32.5" y1="2.18557e-08" x2="32.5" y2="812" stroke="#3C3C3C"/>
<line opacity="0.04" x1="187.5" y1="2.18557e-08" x2="187.5" y2="812" stroke="#3C3C3C"/>
<line opacity="0.04" x1="343.5" y1="2.18557e-08" x2="343.5" y2="812" stroke="#3C3C3C"/>
<line opacity="0.04" y1="777.5" x2="375" y2="777.5" stroke="#3C3C3C"/>
<line opacity="0.04" y1="657.5" x2="375" y2="657.5" stroke="#3C3C3C"/>
<line opacity="0.04" y1="513.5" x2="375" y2="513.5" stroke="#3C3C3C"/>
<line opacity="0.04" y1="375.5" x2="375" y2="375.5" stroke="#3C3C3C"/>
<line opacity="0.04" y1="241.5" x2="375" y2="241.5" stroke="#3C3C3C"/>
<line opacity="0.04" y1="107.5" x2="375" y2="107.5" stroke="#3C3C3C"/>
<path opacity="0.85" d="M342.729 167.596C337.054 159.368 336 158.524 336 155.5C336 151.358 339.358 148 343.5 148C347.642 148 351 151.358 351 155.5C351 158.524 349.946 159.368 344.271 167.596C343.898 168.135 343.102 168.134 342.729 167.596ZM343.5 158.625C345.226 158.625 346.625 157.226 346.625 155.5C346.625 153.774 345.226 152.375 343.5 152.375C341.774 152.375 340.375 153.774 340.375 155.5C340.375 157.226 341.774 158.625 343.5 158.625Z" fill="#F8D03B"/>
<path d="M343 168C143.317 226.299 54.5582 551.876 186.426 690" stroke="#E6E6E6" stroke-dasharray="6 6"/>
<path d="M317.112 177.702C317.663 178.738 317.272 180.017 316.239 180.555L309.406 184.19L308.477 197.429L305.996 198.76L303.834 187.165L296.983 190.81L296.451 194.282L294.576 195.268L293.517 190.265L289.954 186.571L291.824 185.554L295.035 187.08L301.833 183.463L293.447 175.146L295.937 173.833L307.427 180.465L314.26 176.83C315.252 176.28 316.597 176.691 317.112 177.702Z" fill="#C8C8C8"/>
<path d="M186.729 702.596C181.054 694.368 180 693.524 180 690.5C180 686.358 183.358 683 187.5 683C191.642 683 195 686.358 195 690.5C195 693.524 193.946 694.368 188.271 702.596C187.898 703.135 187.102 703.134 186.729 702.596ZM187.5 693.625C189.226 693.625 190.625 692.226 190.625 690.5C190.625 688.774 189.226 687.375 187.5 687.375C185.774 687.375 184.375 688.774 184.375 690.5C184.375 692.226 185.774 693.625 187.5 693.625Z" fill="#D2D2D2"/>
</g>
<defs>
<clipPath id="clip0_183_34477">
<rect width="375" height="812" fill="white"/>
</clipPath>
<clipPath id="clip1_183_34477">
<rect width="2404.83" height="375" fill="white" transform="translate(99 437)"/>
</clipPath>
<clipPath id="clip2_183_34477">
<rect width="2481.78" height="387" fill="white" transform="translate(99 437)"/>
</clipPath>
</defs>
</svg>
