<svg xmlns="http://www.w3.org/2000/svg" width="326" height="87" viewBox="0 0 326 87" fill="none">
<g clip-path="url(#clip0_835_37829)">
<rect width="326" height="86.5487" fill="#FAFAFA"/>



<g opacity="0.08">
<path d="M208.812 101.688C208.813 108.828 210.926 115.808 214.885 121.744C218.844 127.68 224.47 132.306 231.051 135.038C237.633 137.769 244.875 138.483 251.862 137.089C258.848 135.695 265.265 132.255 270.302 127.206C275.338 122.156 278.768 115.723 280.156 108.72C281.545 101.717 280.83 94.4581 278.103 87.8619C275.376 81.2658 270.759 75.6283 264.835 71.6624C258.911 67.6965 251.947 65.5803 244.824 65.5815C240.094 65.5815 235.41 66.5155 231.04 68.3301C226.67 70.1448 222.7 72.8046 219.355 76.1576C216.011 79.5105 213.359 83.491 211.55 87.8716C209.741 92.2522 208.81 96.9471 208.812 101.688Z" fill="#F8D03B"/>
<path d="M280.254 41.213L281.432 42.3965C281.054 41.9963 280.654 41.6018 280.254 41.213Z" fill="#393939"/>
<path d="M281.374 64.9068L280.305 66.0046C280.682 65.6586 281.038 65.2921 281.374 64.9068Z" fill="#393939"/>
<path d="M325.039 86.1248L295.816 56.8164L278.132 74.5409L293.705 90.1329L305.228 101.694C305.228 101.694 249.661 157.389 248.64 158.424C244.961 162.1 244.881 168.744 244.881 168.744C244.881 168.744 244.812 162.1 241.19 158.453L184.54 101.688L211.556 74.6324L193.872 56.9078L162.367 88.4862C159.312 92.2685 157.666 96.9988 157.712 101.865C157.758 106.731 159.492 111.429 162.618 115.153L244.869 197.613L324.811 117.486C324.811 117.486 331.799 111.414 331.953 101.74C332.096 92.5 325.039 86.1248 325.039 86.1248Z" fill="#393939"/>
<path d="M214.733 71.442L217.146 73.872C216.672 73.1397 216.405 72.2917 216.376 71.4191C216.372 70.8809 216.491 70.3489 216.724 69.864C216.944 69.39 217.234 68.9523 217.585 68.5661L218.355 67.7885L244.869 41.2073L271.817 68.2173C272.662 69.0654 273.167 70.1943 273.237 71.3906C273.244 72.3486 272.913 73.2782 272.302 74.0149L280.288 66.0103L281.355 64.9125C284.177 61.842 285.739 57.8177 285.73 53.6431C285.731 49.489 284.192 45.4827 281.412 42.4023L280.237 41.2187L244.869 5.76953L207.796 42.9569C205.07 45.6899 203.803 49.8523 203.803 53.6888C203.793 57.5272 205.11 61.2506 207.528 64.2264L214.733 71.442Z" fill="#393939"/>
</g>
</g>
<defs>
<clipPath id="clip0_835_37829">
<rect width="326" height="86.5487" fill="white"/>
</clipPath>
</defs>
</svg>