<svg width="375" height="812" viewBox="0 0 375 812" fill="none" xmlns="http://www.w3.org/2000/svg">
<g clip-path="url(#clip0_307_55545)">
<rect width="375" height="812" fill="white"/>
<g opacity="0.06" clip-path="url(#clip1_307_55545)">
<path d="M157.299 530.673V534.122H164.585" stroke="#3F3D36" stroke-width="1.5" stroke-miterlimit="10"/>
<path d="M164.585 677.378H138.958V684.937H164.585" stroke="#3F3D36" stroke-width="1.5" stroke-miterlimit="10"/>
<path d="M138.958 684.937L142.43 688.409H164.585" stroke="#3F3D36" stroke-width="1.5" stroke-miterlimit="10"/>
<path d="M164.585 725.39H148.146H130.466H127.289H123.404V718.279H133.206H150.508H164.585" stroke="#3F3D36" stroke-width="1.5" stroke-miterlimit="10"/>
<path d="M127.289 725.39V732.996H145.465H164.585" stroke="#3F3D36" stroke-width="1.5" stroke-miterlimit="10"/>
<path d="M122.837 742.669H164.585" stroke="#3F3D36" stroke-miterlimit="10"/>
<path d="M161.916 736.894V748.705" stroke="#3F3D36" stroke-miterlimit="10"/>
<path d="M156.59 736.894V748.705" stroke="#3F3D36" stroke-miterlimit="10"/>
<path d="M151.252 736.894V748.705" stroke="#3F3D36" stroke-miterlimit="10"/>
<path d="M145.914 736.894V748.705" stroke="#3F3D36" stroke-miterlimit="10"/>
<path d="M140.587 736.894V748.705" stroke="#3F3D36" stroke-miterlimit="10"/>
<path d="M135.249 736.894V748.705" stroke="#3F3D36" stroke-miterlimit="10"/>
<path d="M129.911 736.894V748.705" stroke="#3F3D36" stroke-miterlimit="10"/>
<path d="M124.585 738.996V748.705" stroke="#3F3D36" stroke-miterlimit="10"/>
<path d="M130.49 768.842C137.67 752.862 156.602 748.764 164.585 748.764H119.802" stroke="#3F3D36" stroke-miterlimit="10"/>
<path d="M144 736.905C143.284 738.842 142.552 740.764 141.804 742.669C141.402 743.709 140.989 744.748 140.623 745.775C140.257 746.803 139.855 747.736 139.442 748.705C136.761 755.283 133.997 761.567 131.257 767.331C131.165 767.489 131.086 767.655 131.021 767.827C129.202 771.642 127.395 775.244 125.588 778.563C123.226 783.004 120.864 786.949 118.609 790.303" stroke="#3F3D36" stroke-width="1.5" stroke-miterlimit="10"/>
<path d="M148.134 725.39C148.921 723.028 149.709 720.665 150.496 718.303C158.763 693.028 164.574 667.268 164.574 649.28" stroke="#3F3D36" stroke-width="1.5" stroke-miterlimit="10"/>
<path d="M156.377 756.512L154.818 750.087" stroke="#3F3D36" stroke-miterlimit="10"/>
<path d="M147.969 759.299L145.063 753.854" stroke="#3F3D36" stroke-miterlimit="10"/>
<path d="M134.647 768.228L131.86 766.173" stroke="#3F3D36" stroke-miterlimit="10"/>
<path d="M140.009 763.906L136.501 760.138" stroke="#3F3D36" stroke-miterlimit="10"/>
<path d="M156.578 718.279V725.39" stroke="#3F3D36" stroke-miterlimit="10"/>
<path d="M161.916 677.378V684.937" stroke="#3F3D36" stroke-miterlimit="10"/>
<path d="M156.59 677.378V684.937" stroke="#3F3D36" stroke-miterlimit="10"/>
<path d="M151.252 677.378V684.937" stroke="#3F3D36" stroke-miterlimit="10"/>
<path d="M145.914 677.378V684.937" stroke="#3F3D36" stroke-miterlimit="10"/>
<path d="M141.922 677.378V684.937" stroke="#3F3D36" stroke-miterlimit="10"/>
<path d="M155.716 701.024H164.585" stroke="#3F3D36" stroke-miterlimit="10"/>
<path d="M125.541 778.563C128.2 774.807 131.248 771.343 134.635 768.228C136.329 766.675 138.12 765.231 139.997 763.906C142.492 762.108 145.158 760.561 147.957 759.287C150.652 758.05 153.476 757.115 156.377 756.5C159.069 755.909 161.818 755.612 164.574 755.614" stroke="#3F3D36" stroke-width="1.5" stroke-miterlimit="10"/>
<path d="M93.7249 790.303L125.553 778.563L108.322 768.843L135.249 758.52L119.813 748.705" stroke="#3F3D36" stroke-linejoin="round"/>
<path d="M125.553 736.905H129.911H135.249H140.575H144.012H145.914H151.252H156.578H164.585" stroke="#3F3D36" stroke-miterlimit="10"/>
<path d="M140.138 697.126H164.585" stroke="#3F3D36" stroke-miterlimit="10"/>
<path d="M142.43 688.41L156.779 697.126L136.891 707.697L150.508 718.28L140.575 725.39" stroke="#3F3D36" stroke-linejoin="round"/>
<path d="M158.976 688.41L140.139 697.126L154.11 706.622L133.206 718.28L140.576 725.39" stroke="#3F3D36" stroke-linejoin="round"/>
<path d="M140.575 725.39V718.279" stroke="#3F3D36" stroke-miterlimit="10"/>
<path d="M118.573 790.303L101.496 779.307L130.49 768.843L114.251 758.933L138.839 750.099" stroke="#3F3D36" stroke-linejoin="round"/>
<path d="M157.299 534.122L164.585 542.791L157.381 550.457L164.585 557.685L157.381 564.465L164.585 571.244L156.85 577.906L164.597 587.354L156.082 594.606L164.585 603.724L154.889 611.638L164.585 619.516C164.585 619.516 153.319 627.866 153.354 627.535C153.389 627.205 164.55 635.189 164.55 635.189L151.252 643.079L164.55 651.524L148.559 660.748L162.979 668.095L145.181 677.413" stroke="#3F3D36" stroke-linejoin="round"/>
<path d="M130.466 725.39C131.403 723.067 132.312 720.705 133.194 718.303" stroke="#3F3D36" stroke-linejoin="round"/>
<path d="M161.361 677.39L147.473 667.492L164.007 659.85L150.059 651.901L164.574 643.716L152.409 635.378L164.574 627.488L154.086 620.401L164.574 611.862L155.527 603.134L164.574 595.232L156.484 586.457L164.574 578.791C164.574 578.791 157.051 570.901 157.039 571.232C157.027 571.563 164.574 564.783 164.574 564.783L157.31 557.449L164.574 549.783L157.358 542.697L164.574 534.134" stroke="#3F3D36" stroke-linejoin="round"/>
<path d="M171.884 523.114V518.673H157.299V523.114" stroke="#3F3D36" stroke-width="1.5" stroke-miterlimit="10"/>
<path d="M174.659 523.114H154.523V530.673H174.659V523.114Z" stroke="#3F3D36" stroke-width="1.5" stroke-miterlimit="10"/>
<path d="M171.884 530.673V534.122H164.585" stroke="#3F3D36" stroke-width="1.5" stroke-miterlimit="10"/>
<path d="M118.573 790.303H93.772C98.7913 783.429 103.681 776.354 108.357 768.842C110.377 765.63 112.361 762.335 114.262 758.933C116.164 755.531 118.006 752.212 119.825 748.705C120.853 746.732 121.856 744.712 122.848 742.657C123.427 741.476 124.029 740.224 124.585 739.008L125.553 736.917C126.132 735.642 126.734 734.331 127.289 733.008" stroke="#3F3D36" stroke-width="1.5" stroke-miterlimit="10"/>
<path d="M164.585 677.378H190.213V684.937H164.585" stroke="#3F3D36" stroke-width="1.5" stroke-miterlimit="10"/>
<path d="M190.213 684.937L186.753 688.409H164.585" stroke="#3F3D36" stroke-width="1.5" stroke-miterlimit="10"/>
<path d="M164.597 718.279H178.675H195.977H205.779V725.39H201.893H198.705H181.037H164.597" stroke="#3F3D36" stroke-width="1.5" stroke-miterlimit="10"/>
<path d="M164.597 732.996H183.718H201.893V725.39" stroke="#3F3D36" stroke-width="1.5" stroke-miterlimit="10"/>
<path d="M206.346 742.669H164.585" stroke="#3F3D36" stroke-miterlimit="10"/>
<path d="M167.254 736.894V748.705" stroke="#3F3D36" stroke-miterlimit="10"/>
<path d="M172.593 736.894V748.705" stroke="#3F3D36" stroke-miterlimit="10"/>
<path d="M177.919 736.894V748.705" stroke="#3F3D36" stroke-miterlimit="10"/>
<path d="M183.257 736.894V748.705" stroke="#3F3D36" stroke-miterlimit="10"/>
<path d="M188.595 736.894V748.705" stroke="#3F3D36" stroke-miterlimit="10"/>
<path d="M193.933 736.894V748.705" stroke="#3F3D36" stroke-miterlimit="10"/>
<path d="M199.26 736.894V748.705" stroke="#3F3D36" stroke-miterlimit="10"/>
<path d="M204.598 738.996V748.705" stroke="#3F3D36" stroke-miterlimit="10"/>
<path d="M209.369 748.716H164.585C172.581 748.716 191.501 752.874 198.681 768.795" stroke="#3F3D36" stroke-miterlimit="10"/>
<path d="M210.598 790.303C208.354 786.96 206.015 783.004 203.618 778.563C201.823 775.244 200.004 771.642 198.185 767.827C198.12 767.655 198.041 767.489 197.949 767.331C195.197 761.555 192.445 755.272 189.764 748.705C189.363 747.736 188.973 746.756 188.583 745.775C188.194 744.795 187.757 743.709 187.402 742.669C186.654 740.764 185.922 738.842 185.206 736.905" stroke="#3F3D36" stroke-width="1.5" stroke-miterlimit="10"/>
<path d="M164.597 534.122V649.256C164.597 667.232 170.502 692.957 178.675 718.28C179.462 720.642 180.249 723.004 181.037 725.366" stroke="#3F3D36" stroke-width="1.5" stroke-miterlimit="10"/>
<path d="M164.597 518.673V512" stroke="#3F3D36" stroke-miterlimit="10"/>
<path d="M201.894 732.996C202.472 734.319 203.075 735.618 203.63 736.905L204.598 738.996C205.177 740.177 205.779 741.453 206.334 742.646C207.338 744.701 208.33 746.708 209.358 748.693C211.168 752.197 213.023 755.606 214.92 758.921C216.857 762.323 218.841 765.618 220.825 768.831C223.077 772.405 225.356 775.894 227.663 779.295C230.214 783.043 232.801 786.704 235.422 790.279H210.621" stroke="#3F3D36" stroke-width="1.5" stroke-miterlimit="10"/>
<path d="M174.352 750.087L172.793 756.512" stroke="#3F3D36" stroke-miterlimit="10"/>
<path d="M184.119 753.854L181.214 759.299" stroke="#3F3D36" stroke-miterlimit="10"/>
<path d="M197.323 766.173L194.536 768.228" stroke="#3F3D36" stroke-miterlimit="10"/>
<path d="M192.682 760.138L189.174 763.906" stroke="#3F3D36" stroke-miterlimit="10"/>
<path d="M172.593 718.279V725.39" stroke="#3F3D36" stroke-miterlimit="10"/>
<path d="M167.254 677.378V684.937" stroke="#3F3D36" stroke-miterlimit="10"/>
<path d="M172.593 677.378V684.937" stroke="#3F3D36" stroke-miterlimit="10"/>
<path d="M177.919 677.378V684.937" stroke="#3F3D36" stroke-miterlimit="10"/>
<path d="M183.257 677.378V684.937" stroke="#3F3D36" stroke-miterlimit="10"/>
<path d="M187.261 677.378V684.937" stroke="#3F3D36" stroke-miterlimit="10"/>
<path d="M173.455 701.024H164.597" stroke="#3F3D36" stroke-miterlimit="10"/>
<path d="M203.63 778.563C200.971 774.807 197.923 771.343 194.536 768.228C192.842 766.675 191.051 765.231 189.174 763.906C186.679 762.108 184.013 760.561 181.214 759.287C178.519 758.05 175.695 757.115 172.793 756.5C170.101 755.909 167.353 755.612 164.597 755.614" stroke="#3F3D36" stroke-width="1.5" stroke-miterlimit="10"/>
<path d="M209.369 748.705L193.933 758.52L220.849 768.843L203.629 778.563L235.446 790.303" stroke="#3F3D36" stroke-linejoin="round"/>
<path d="M164.597 736.905H172.593H177.931H183.269H185.17H188.595H193.933H199.272H203.63" stroke="#3F3D36" stroke-miterlimit="10"/>
<path d="M189.044 697.126H164.585" stroke="#3F3D36" stroke-miterlimit="10"/>
<path d="M186.753 688.41L172.404 697.126L192.292 707.697L178.675 718.28L188.595 725.39" stroke="#3F3D36" stroke-linejoin="round"/>
<path d="M170.207 688.41L189.044 697.126L175.061 706.622L195.977 718.28L188.595 725.39" stroke="#3F3D36" stroke-linejoin="round"/>
<path d="M188.595 725.39V718.279" stroke="#3F3D36" stroke-miterlimit="10"/>
<path d="M190.343 750.099L214.92 758.933L198.693 768.843L227.687 779.307L210.598 790.303" stroke="#3F3D36" stroke-linejoin="round"/>
<path d="M171.872 534.122L164.585 542.791L171.79 550.457L164.585 557.685L171.79 564.465L164.585 571.244L172.321 577.906L164.585 587.354L173.089 594.606L164.585 603.724L174.282 611.638L164.585 619.516C164.585 619.516 175.852 627.866 175.817 627.535C175.781 627.205 164.621 635.189 164.621 635.189L177.919 643.079L164.621 651.524L180.612 660.748L166.192 668.095L183.989 677.413" stroke="#3F3D36" stroke-linejoin="round"/>
<path d="M198.705 725.39C197.768 723.067 196.858 720.705 195.977 718.303" stroke="#3F3D36" stroke-linejoin="round"/>
<path d="M167.81 677.39L181.651 667.504L165.188 659.827L179.135 651.878L164.621 643.693L176.785 635.354L164.621 627.465L175.108 620.378L164.621 611.839L173.667 603.181L164.621 595.28L172.711 586.504L164.621 578.839C164.621 578.839 172.144 570.949 172.156 571.28C172.168 571.61 164.621 564.831 164.621 564.831L171.884 557.496L164.621 549.831L171.837 542.744L164.621 534.181" stroke="#3F3D36" stroke-linejoin="round"/>
<path d="M164.585 760.138C162.185 760.138 159.792 760.379 157.44 760.858C154.907 761.381 152.436 762.173 150.071 763.221C147.585 764.29 145.211 765.603 142.985 767.142C141.308 768.28 139.71 769.531 138.202 770.886C132.145 776.312 127.261 782.92 123.852 790.303H118.514" stroke="#3F3D36" stroke-miterlimit="10"/>
<path d="M210.609 790.303H205.271C201.876 782.91 197.005 776.291 190.957 770.851C189.449 769.496 187.851 768.245 186.174 767.106C183.948 765.568 181.574 764.255 179.088 763.185C176.723 762.137 174.252 761.345 171.719 760.823C169.367 760.344 166.973 760.103 164.573 760.103" stroke="#3F3D36" stroke-miterlimit="10"/>
<path d="M133.206 718.28C148.665 676.468 158.35 620.177 157.299 534.122" stroke="#3F3D36" stroke-width="1.5" stroke-linejoin="round"/>
<path d="M195.965 718.28C180.505 676.468 170.821 620.177 171.872 534.122" stroke="#3F3D36" stroke-width="1.5" stroke-linejoin="round"/>
<path d="M397.988 756.973L397.516 756.5L391.611 750.595L385.706 744.689L379.801 738.784L373.884 732.878L367.979 726.973L362.074 721.067L356.169 715.161L350.264 709.256L344.359 703.35L338.56 697.551L332.643 703.469L326.738 709.374L320.833 715.28L314.928 721.185L309.023 727.079L303.118 732.984L297.213 738.89L291.308 744.795L285.403 750.701L279.498 756.606L273.593 762.512L267.688 768.417L261.782 774.323L258.346 777.76H265.207H269.967H277.017H281.777H288.828H293.587H300.638H305.397H312.448H317.207H323.797H333.245H343.874H353.322H359.688H364.448H371.498H376.258H383.308H388.068H395.118H397.988H399.878H406.928H411.688H414.392" stroke="#3F3D36" stroke-width="1.5" stroke-miterlimit="10"/>
<path d="M344.37 703.35L338.465 709.268L332.56 715.173L326.655 721.079L320.75 726.984L314.845 732.89L308.94 738.795L303.035 744.701L297.13 750.606L291.225 756.512L285.32 762.417L279.415 768.323L273.51 774.228L269.967 777.76" stroke="#3F3D36" stroke-miterlimit="10"/>
<path d="M350.275 709.256L344.37 715.173L338.465 721.079L332.56 726.984L326.655 732.89L320.75 738.795L314.845 744.701L308.94 750.606L303.035 756.512L297.13 762.417L291.225 768.323L285.32 774.228L281.777 777.76" stroke="#3F3D36" stroke-miterlimit="10"/>
<path d="M356.18 715.161L350.275 721.079L344.37 726.984L338.465 732.89L332.56 738.795L326.655 744.701L320.75 750.606L314.845 756.512L308.94 762.417L303.035 768.323L297.13 774.228L293.587 777.76" stroke="#3F3D36" stroke-miterlimit="10"/>
<path d="M362.085 721.067L356.18 726.984L350.275 732.89L344.37 738.795L338.465 744.701L332.56 750.606L326.655 756.512L320.75 762.417L314.845 768.323L308.94 774.228L305.397 777.76" stroke="#3F3D36" stroke-miterlimit="10"/>
<path d="M367.991 726.972L362.086 732.89L356.18 738.795L350.275 744.701L344.37 750.606L338.465 756.512L332.56 762.417L326.655 768.323" stroke="#3F3D36" stroke-miterlimit="10"/>
<path d="M373.896 732.878L367.991 738.795L362.086 744.701L356.18 750.606L350.275 756.512L344.37 762.417L338.465 768.323" stroke="#3F3D36" stroke-miterlimit="10"/>
<path d="M379.801 738.783L373.896 744.701L367.991 750.606L362.085 756.512L356.18 762.417L350.275 768.323" stroke="#3F3D36" stroke-miterlimit="10"/>
<path d="M356.18 774.228L362.085 768.323L367.991 762.417L373.896 756.512L379.801 750.606L385.706 744.689" stroke="#3F3D36" stroke-miterlimit="10"/>
<path d="M391.611 750.594L385.706 756.512L379.801 762.417L373.896 768.323L367.991 774.228L364.448 777.76" stroke="#3F3D36" stroke-miterlimit="10"/>
<path d="M396.063 766.882L391.599 762.417L385.694 756.512L379.789 750.606L373.884 744.701L367.979 738.795L362.074 732.89L356.169 726.984L350.264 721.079L344.359 715.173L338.454 709.268L332.643 703.469" stroke="#3F3D36" stroke-miterlimit="10"/>
<path d="M326.75 709.374L332.56 715.173L338.465 721.079L344.37 726.984L350.275 732.89L356.18 738.795L362.086 744.701L367.991 750.606L373.896 756.512L379.801 762.417L385.706 768.323L391.611 774.228L395.13 777.76" stroke="#3F3D36" stroke-miterlimit="10"/>
<path d="M320.845 715.28L326.655 721.079L332.56 726.984L338.465 732.89L344.37 738.795L350.275 744.701L356.18 750.606L362.086 756.512L367.991 762.417L373.896 768.323L379.801 774.228L383.32 777.76" stroke="#3F3D36" stroke-miterlimit="10"/>
<path d="M314.939 721.185L320.75 726.984L326.655 732.89L332.56 738.795L338.465 744.701L344.37 750.606L350.275 756.512L356.18 762.417L362.085 768.323L367.99 774.228L371.51 777.76" stroke="#3F3D36" stroke-miterlimit="10"/>
<path d="M309.035 727.079L314.845 732.89L320.75 738.795L326.655 744.701L332.56 750.606L338.465 756.512L344.37 762.417L350.275 768.323" stroke="#3F3D36" stroke-miterlimit="10"/>
<path d="M303.129 732.984L308.94 738.795L314.845 744.701L320.75 750.606L326.655 756.512L332.56 762.417L338.465 768.323" stroke="#3F3D36" stroke-miterlimit="10"/>
<path d="M297.224 738.89L303.035 744.701L308.94 750.606L314.845 756.512L320.75 762.417L326.655 768.323" stroke="#3F3D36" stroke-miterlimit="10"/>
<path d="M320.75 774.228L314.845 768.323L308.94 762.417L303.035 756.512L297.13 750.606L291.319 744.795" stroke="#3F3D36" stroke-miterlimit="10"/>
<path d="M285.414 750.701L291.225 756.512L297.13 762.417L303.035 768.323L308.94 774.228L312.459 777.76" stroke="#3F3D36" stroke-miterlimit="10"/>
<path d="M279.509 756.606L285.32 762.417L291.225 768.323L297.13 774.228L300.649 777.76" stroke="#3F3D36" stroke-miterlimit="10"/>
<path d="M273.604 762.512L279.415 768.323L285.32 774.228L288.839 777.76" stroke="#3F3D36" stroke-miterlimit="10"/>
<path d="M267.699 768.417L273.51 774.228L277.029 777.76" stroke="#3F3D36" stroke-miterlimit="10"/>
<path d="M265.207 777.76L261.782 774.323" stroke="#3F3D36" stroke-miterlimit="10"/>
<path d="M323.797 771.169V777.76" stroke="#3F3D36" stroke-miterlimit="10"/>
<path d="M333.245 768.417V777.76" stroke="#3F3D36" stroke-miterlimit="10"/>
<path d="M343.875 768.417V777.76" stroke="#3F3D36" stroke-miterlimit="10"/>
<path d="M353.323 771.382V777.76" stroke="#3F3D36" stroke-miterlimit="10"/>
<path d="M359.7 777.76L350.276 768.323H326.655L317.207 777.76" stroke="#3F3D36" stroke-width="1.5" stroke-miterlimit="10"/>
<path d="M289.205 798.618V790.303H37.249V798.618" stroke="#3F3D36" stroke-width="1.5" stroke-miterlimit="10"/>
<path d="M387.607 798.429L1.58252 797.827" stroke="#3F3D36" stroke-width="1.5" stroke-miterlimit="10"/>
<path d="M258.346 777.76H226.647" stroke="#3F3D36" stroke-width="1.5" stroke-miterlimit="10"/>
<path d="M2.2085 798.429V734.378" stroke="#3F3D36" stroke-width="1.5" stroke-miterlimit="10"/>
<path d="M55.2122 731.213H0V734.378H55.2122V731.213Z" stroke="#3F3D36" stroke-width="1.5" stroke-miterlimit="10"/>
<path d="M52.5549 734.378V790.303" stroke="#3F3D36" stroke-width="1.5" stroke-miterlimit="10"/>
<path d="M2.2085 755.083H52.5549" stroke="#3F3D36" stroke-miterlimit="10"/>
<path d="M13.5815 751.658H6.2002V738.264H9.88494H13.5815V751.658Z" stroke="#3F3D36" stroke-miterlimit="10"/>
<path d="M6.2002 747.524H13.5815" stroke="#3F3D36" stroke-miterlimit="10"/>
<path d="M6.2002 742.669H13.5815" stroke="#3F3D36" stroke-miterlimit="10"/>
<path d="M9.88501 738.264V751.658" stroke="#3F3D36" stroke-miterlimit="10"/>
<path d="M25.3918 751.658H18.0105V738.264H21.6952H25.3918V751.658Z" stroke="#3F3D36" stroke-miterlimit="10"/>
<path d="M18.0105 747.524H25.3918" stroke="#3F3D36" stroke-miterlimit="10"/>
<path d="M18.0105 742.669H25.3918" stroke="#3F3D36" stroke-miterlimit="10"/>
<path d="M21.6951 738.264V751.658" stroke="#3F3D36" stroke-miterlimit="10"/>
<path d="M37.2019 751.658H29.8206V738.264H33.5053H37.2019V751.658Z" stroke="#3F3D36" stroke-miterlimit="10"/>
<path d="M29.8206 747.524H37.2019" stroke="#3F3D36" stroke-miterlimit="10"/>
<path d="M29.8206 742.669H37.2019" stroke="#3F3D36" stroke-miterlimit="10"/>
<path d="M33.5051 738.264V751.658" stroke="#3F3D36" stroke-miterlimit="10"/>
<path d="M49.0119 751.658H41.6306V738.264H45.3154H49.0119V751.658Z" stroke="#3F3D36" stroke-miterlimit="10"/>
<path d="M41.6306 747.524H49.0119" stroke="#3F3D36" stroke-miterlimit="10"/>
<path d="M41.6306 742.669H49.0119" stroke="#3F3D36" stroke-miterlimit="10"/>
<path d="M45.3154 738.264V751.658" stroke="#3F3D36" stroke-miterlimit="10"/>
<path d="M13.5815 772.917H6.2002V759.524H9.88494H13.5815V772.917Z" stroke="#3F3D36" stroke-miterlimit="10"/>
<path d="M6.2002 768.783H13.5815" stroke="#3F3D36" stroke-miterlimit="10"/>
<path d="M6.2002 763.929H13.5815" stroke="#3F3D36" stroke-miterlimit="10"/>
<path d="M9.88501 759.524V772.917" stroke="#3F3D36" stroke-miterlimit="10"/>
<path d="M25.3918 772.917H18.0105V759.524H21.6952H25.3918V772.917Z" stroke="#3F3D36" stroke-miterlimit="10"/>
<path d="M18.0105 768.783H25.3918" stroke="#3F3D36" stroke-miterlimit="10"/>
<path d="M18.0105 763.929H25.3918" stroke="#3F3D36" stroke-miterlimit="10"/>
<path d="M21.6951 759.524V772.917" stroke="#3F3D36" stroke-miterlimit="10"/>
<path d="M37.2019 772.917H29.8206V759.524H33.5053H37.2019V772.917Z" stroke="#3F3D36" stroke-miterlimit="10"/>
<path d="M29.8206 768.783H37.2019" stroke="#3F3D36" stroke-miterlimit="10"/>
<path d="M29.8206 763.929H37.2019" stroke="#3F3D36" stroke-miterlimit="10"/>
<path d="M33.5051 759.524V772.917" stroke="#3F3D36" stroke-miterlimit="10"/>
<path d="M49.0119 772.917H41.6306V759.524H45.3154H49.0119V772.917Z" stroke="#3F3D36" stroke-miterlimit="10"/>
<path d="M41.6306 768.783H49.0119" stroke="#3F3D36" stroke-miterlimit="10"/>
<path d="M41.6306 763.929H49.0119" stroke="#3F3D36" stroke-miterlimit="10"/>
<path d="M45.3154 759.524V772.917" stroke="#3F3D36" stroke-miterlimit="10"/>
<path d="M6.2002 775.221H49.0118" stroke="#3F3D36" stroke-miterlimit="10"/>
<path d="M33.5052 798.429V784.28H21.6951V798.429" stroke="#3F3D36" stroke-miterlimit="10"/>
<path d="M21.6951 793.043H2.2085" stroke="#3F3D36" stroke-miterlimit="10"/>
<path d="M33.5051 792.937H37.2017" stroke="#3F3D36" stroke-miterlimit="10"/>
<path d="M47.6772 790.303V780.394H40.4495V790.303" stroke="#3F3D36" stroke-miterlimit="10"/>
<path d="M44.0635 780.394V790.433" stroke="#3F3D36" stroke-miterlimit="10"/>
<path d="M40.4495 785.413H47.6772" stroke="#3F3D36" stroke-miterlimit="10"/>
<path d="M52.5549 731.212C52.5549 728.047 50.3937 716.272 42.8116 716.272H11.9518C4.36974 716.272 2.2085 728.083 2.2085 731.212" stroke="#3F3D36" stroke-width="1.5" stroke-miterlimit="10"/>
<path d="M42.8114 716.272V713.272H36.0679V716.295" stroke="#3F3D36" stroke-miterlimit="10"/>
<path d="M32.2297 716.295V713.272H25.7341V716.295" stroke="#3F3D36" stroke-miterlimit="10"/>
<path d="M7.92456 726.701C7.92456 725.354 9.3772 724.256 11.1723 724.256C12.9675 724.256 14.4201 725.354 14.4201 726.701" stroke="#3F3D36" stroke-miterlimit="10"/>
<path d="M14.4202 726.701V731.272" stroke="#3F3D36" stroke-miterlimit="10"/>
<path d="M7.92456 726.701V731.272" stroke="#3F3D36" stroke-miterlimit="10"/>
<path d="M11.1724 724.244V731.272" stroke="#3F3D36" stroke-miterlimit="10"/>
<path d="M7.92456 728.437H14.4201" stroke="#3F3D36" stroke-miterlimit="10"/>
<path d="M18.5537 726.701C18.5537 725.354 20.0064 724.256 21.8015 724.256C23.5966 724.256 25.0493 725.354 25.0493 726.701" stroke="#3F3D36" stroke-miterlimit="10"/>
<path d="M25.0491 726.701V731.272" stroke="#3F3D36" stroke-miterlimit="10"/>
<path d="M18.5537 726.701V731.272" stroke="#3F3D36" stroke-miterlimit="10"/>
<path d="M21.8013 724.244V731.272" stroke="#3F3D36" stroke-miterlimit="10"/>
<path d="M30.3638 726.701C30.3638 725.354 31.8164 724.256 33.6115 724.256C35.4067 724.256 36.8593 725.354 36.8593 726.701" stroke="#3F3D36" stroke-miterlimit="10"/>
<path d="M36.8591 726.701V731.272" stroke="#3F3D36" stroke-miterlimit="10"/>
<path d="M30.3638 726.701V731.272" stroke="#3F3D36" stroke-miterlimit="10"/>
<path d="M33.6116 724.244V731.272" stroke="#3F3D36" stroke-miterlimit="10"/>
<path d="M30.3638 728.437H36.8593" stroke="#3F3D36" stroke-miterlimit="10"/>
<path d="M40.9927 726.701C40.9927 725.354 42.4453 724.256 44.2405 724.256C46.0356 724.256 47.4882 725.354 47.4882 726.701" stroke="#3F3D36" stroke-miterlimit="10"/>
<path d="M47.4883 726.701V731.272" stroke="#3F3D36" stroke-miterlimit="10"/>
<path d="M40.9927 726.701V731.272" stroke="#3F3D36" stroke-miterlimit="10"/>
<path d="M44.2405 724.244V731.272" stroke="#3F3D36" stroke-miterlimit="10"/>
<path d="M11.1724 719.378H44.2406" stroke="#3F3D36" stroke-miterlimit="10"/>
<path d="M52.5549 760.138H73.3643V774.866V790.433" stroke="#3F3D36" stroke-width="1.5" stroke-miterlimit="10"/>
<path d="M86.6506 790.433V776.414H73.3643" stroke="#3F3D36" stroke-miterlimit="10"/>
<path d="M69.0891 760.138V757.563H63.9163V760.138" stroke="#3F3D36" stroke-miterlimit="10"/>
<path d="M73.3643 767.602H52.5549" stroke="#3F3D36" stroke-miterlimit="10"/>
<path d="M86.6506 780.394H73.3643" stroke="#3F3D36" stroke-miterlimit="10"/>
<path d="M70.1874 770.78H63.9163V777.051H70.1874V770.78Z" stroke="#3F3D36" stroke-miterlimit="10"/>
<path d="M67.0576 770.78V777.051" stroke="#3F3D36" stroke-miterlimit="10"/>
<path d="M63.9163 773.921H70.1874" stroke="#3F3D36" stroke-miterlimit="10"/>
<path d="M52.5549 770.78H58.8261V777.051H52.5549" stroke="#3F3D36" stroke-miterlimit="10"/>
<path d="M55.6846 770.78V777.051" stroke="#3F3D36" stroke-miterlimit="10"/>
<path d="M52.5549 773.921H58.8261" stroke="#3F3D36" stroke-miterlimit="10"/>
<path d="M63.9161 790.303V784.28H58.8259V790.303" stroke="#3F3D36" stroke-miterlimit="10"/>
<path d="M56.4404 762.346V766.22" stroke="#3F3D36" stroke-miterlimit="10"/>
<path d="M68.2505 762.346V766.22" stroke="#3F3D36" stroke-miterlimit="10"/>
<path d="M65.8884 762.346V766.22" stroke="#3F3D36" stroke-miterlimit="10"/>
<path d="M83.9105 783.429H81.5249V785.815H83.9105V783.429Z" stroke="#3F3D36" stroke-miterlimit="10"/>
<path d="M78.0055 783.429H75.6199V785.815H78.0055V783.429Z" stroke="#3F3D36" stroke-miterlimit="10"/>
<path d="M86.6506 778.823H101.496" stroke="#3F3D36" stroke-miterlimit="10"/>
<path d="M86.6506 782.366H99.3937" stroke="#3F3D36" stroke-miterlimit="10"/>
<path d="M90.052 790.303V787.292H95.9098" stroke="#3F3D36" stroke-miterlimit="10"/>
<path d="M246.654 771.382V724.197H254.413V704.791H269.424V713.827H276.923V759.453" stroke="#3F3D36" stroke-miterlimit="10"/>
<path d="M254.413 724.197V771.311" stroke="#3F3D36" stroke-miterlimit="10"/>
<path d="M269.424 713.827V766.492" stroke="#3F3D36" stroke-miterlimit="10"/>
<path d="M257.129 708.807H265.845" stroke="#3F3D36" stroke-miterlimit="10"/>
<path d="M257.129 712.35H265.845" stroke="#3F3D36" stroke-miterlimit="10"/>
<path d="M257.129 715.894H265.845" stroke="#3F3D36" stroke-miterlimit="10"/>
<path d="M257.129 719.437H265.845" stroke="#3F3D36" stroke-miterlimit="10"/>
<path d="M257.129 722.98H265.845" stroke="#3F3D36" stroke-miterlimit="10"/>
<path d="M257.129 726.523H265.845" stroke="#3F3D36" stroke-miterlimit="10"/>
<path d="M257.129 730.067H265.845" stroke="#3F3D36" stroke-miterlimit="10"/>
<path d="M257.129 733.61H265.845" stroke="#3F3D36" stroke-miterlimit="10"/>
<path d="M257.129 737.153H265.845" stroke="#3F3D36" stroke-miterlimit="10"/>
<path d="M257.129 740.697H265.845" stroke="#3F3D36" stroke-miterlimit="10"/>
<path d="M257.129 744.24H265.845" stroke="#3F3D36" stroke-miterlimit="10"/>
<path d="M273.368 716.614L273.593 762.512" stroke="#3F3D36" stroke-miterlimit="10"/>
<path d="M250.646 771.169V726.618" stroke="#3F3D36" stroke-miterlimit="10"/>
<path d="M246.654 755.626H230.143" stroke="#3F3D36" stroke-miterlimit="10"/>
<path d="M230.143 777.937V730.067H220.849" stroke="#3F3D36" stroke-miterlimit="10"/>
<path d="M220.849 768.843V716.626H213.019V754.87" stroke="#3F3D36" stroke-miterlimit="10"/>
<path d="M239.591 777.937V771.311H264.723" stroke="#3F3D36" stroke-miterlimit="10"/>
<path d="M216.939 719.083V721.15" stroke="#3F3D36" stroke-width="1.5" stroke-miterlimit="10"/>
<path d="M216.939 723.807V725.874" stroke="#3F3D36" stroke-width="1.5" stroke-miterlimit="10"/>
<path d="M216.939 728.532V730.599" stroke="#3F3D36" stroke-width="1.5" stroke-miterlimit="10"/>
<path d="M216.939 733.256V735.323" stroke="#3F3D36" stroke-width="1.5" stroke-miterlimit="10"/>
<path d="M216.939 737.98V740.047" stroke="#3F3D36" stroke-width="1.5" stroke-miterlimit="10"/>
<path d="M216.939 742.705V744.772" stroke="#3F3D36" stroke-width="1.5" stroke-miterlimit="10"/>
<path d="M216.939 747.429V749.496" stroke="#3F3D36" stroke-width="1.5" stroke-miterlimit="10"/>
<path d="M216.939 752.154V754.221" stroke="#3F3D36" stroke-width="1.5" stroke-miterlimit="10"/>
<path d="M216.939 756.878V758.945" stroke="#3F3D36" stroke-width="1.5" stroke-miterlimit="10"/>
<path d="M220.849 732.996H227.687V777.76" stroke="#3F3D36" stroke-miterlimit="10"/>
<path d="M225.502 737.65H220.86" stroke="#3F3D36" stroke-miterlimit="10"/>
<path d="M225.502 749.461H220.86" stroke="#3F3D36" stroke-miterlimit="10"/>
<path d="M225.502 761.272H220.86" stroke="#3F3D36" stroke-miterlimit="10"/>
<path d="M225.502 755.366H220.86" stroke="#3F3D36" stroke-miterlimit="10"/>
<path d="M225.502 743.555H220.86" stroke="#3F3D36" stroke-miterlimit="10"/>
<path d="M225.502 767.177H220.86" stroke="#3F3D36" stroke-miterlimit="10"/>
<path d="M257.129 747.783H265.845" stroke="#3F3D36" stroke-miterlimit="10"/>
<path d="M257.129 751.327H265.845" stroke="#3F3D36" stroke-miterlimit="10"/>
<path d="M257.129 754.87H265.845" stroke="#3F3D36" stroke-miterlimit="10"/>
<path d="M257.129 758.413H265.845" stroke="#3F3D36" stroke-miterlimit="10"/>
<path d="M257.129 761.957H265.845" stroke="#3F3D36" stroke-miterlimit="10"/>
<path d="M257.129 765.5H265.845" stroke="#3F3D36" stroke-miterlimit="10"/>
<path d="M257.129 767.862H265.845" stroke="#3F3D36" stroke-miterlimit="10"/>
<path d="M232.505 758.945V778.339" stroke="#3F3D36" stroke-miterlimit="10"/>
<path d="M237.229 758.921V777.902" stroke="#3F3D36" stroke-miterlimit="10"/>
<path d="M241.953 758.827V777.807" stroke="#3F3D36" stroke-miterlimit="10"/>
<path d="M238.398 755.626V753.606H246.654" stroke="#3F3D36" stroke-miterlimit="10"/>
<path d="M276.923 743.508H292.595" stroke="#3F3D36" stroke-miterlimit="10"/>
<path d="M277.017 745.752H290.068" stroke="#3F3D36" stroke-miterlimit="10"/>
<path d="M276.923 748.894H287.647" stroke="#3F3D36" stroke-miterlimit="10"/>
<path d="M69.0891 757.185V738.264L76.3996 738.252V718.846H91.4102V727.882H98.9096L99.3938 778.823" stroke="#3F3D36" stroke-miterlimit="10"/>
<path d="M91.4102 727.882L91.9771 778.823" stroke="#3F3D36" stroke-miterlimit="10"/>
<path d="M76.3994 738.252L76.8128 776.413" stroke="#3F3D36" stroke-miterlimit="10"/>
<path d="M94.3154 731.85H96.0869" stroke="#3F3D36" stroke-width="1.5" stroke-miterlimit="10"/>
<path d="M94.3154 735.394H96.0869" stroke="#3F3D36" stroke-width="1.5" stroke-miterlimit="10"/>
<path d="M94.3154 738.937H96.0869" stroke="#3F3D36" stroke-width="1.5" stroke-miterlimit="10"/>
<path d="M88.6346 778.976L88.2095 722.165" stroke="#3F3D36" stroke-miterlimit="10"/>
<path d="M84.4893 776.319V721.917" stroke="#3F3D36" stroke-miterlimit="10"/>
<path d="M80.9462 776.413L80.521 722.012" stroke="#3F3D36" stroke-miterlimit="10"/>
<path d="M94.3154 742.48H96.0869" stroke="#3F3D36" stroke-width="1.5" stroke-miterlimit="10"/>
<path d="M94.3154 746.023H96.0869" stroke="#3F3D36" stroke-width="1.5" stroke-miterlimit="10"/>
<path d="M94.3154 749.567H96.0869" stroke="#3F3D36" stroke-width="1.5" stroke-miterlimit="10"/>
<path d="M94.3154 753.11H96.0869" stroke="#3F3D36" stroke-width="1.5" stroke-miterlimit="10"/>
<path d="M73.376 760.209V741.713" stroke="#3F3D36" stroke-miterlimit="10"/>
<path d="M88.9773 718.847V716.697H85.0327V718.847" stroke="#3F3D36" stroke-miterlimit="10"/>
<path d="M94.3154 756.653H96.0869" stroke="#3F3D36" stroke-width="1.5" stroke-miterlimit="10"/>
<path d="M94.3154 760.197H96.0869" stroke="#3F3D36" stroke-width="1.5" stroke-miterlimit="10"/>
<path d="M94.3154 763.74H96.0869" stroke="#3F3D36" stroke-width="1.5" stroke-miterlimit="10"/>
<path d="M94.3154 767.283H96.0869" stroke="#3F3D36" stroke-width="1.5" stroke-miterlimit="10"/>
<path d="M94.3154 770.827H96.0869" stroke="#3F3D36" stroke-width="1.5" stroke-miterlimit="10"/>
<path d="M94.3154 774.37H96.0869" stroke="#3F3D36" stroke-width="1.5" stroke-miterlimit="10"/>
<path d="M165.778 790.303V786.594H126.214" stroke="#3F3D36" stroke-width="1.5" stroke-miterlimit="10"/>
<path d="M165.778 786.594H203.405" stroke="#3F3D36" stroke-width="1.5" stroke-miterlimit="10"/>
<path d="M195.976 782.248H135.249" stroke="#3F3D36" stroke-width="1.5" stroke-miterlimit="10"/>
<path d="M177.919 778.126H148.146" stroke="#3F3D36" stroke-width="1.5" stroke-miterlimit="10"/>
<path d="M289.205 794.472H389.379" stroke="#3F3D36" stroke-width="1.5" stroke-miterlimit="10"/>
<path d="M311.928 794.46V790.303H365.038V794.46" stroke="#3F3D36" stroke-width="1.5" stroke-miterlimit="10"/>
<path d="M229.789 782.366H397.988" stroke="#3F3D36" stroke-width="1.5" stroke-miterlimit="10"/>
<path d="M351.941 802.551H766.475" stroke="#3F3D36" stroke-width="1.5" stroke-miterlimit="10"/>
<path d="M266.754 676.799H259.964" stroke="#3F3D36" stroke-linecap="round" stroke-linejoin="round"/>
<path d="M316.947 676.799H311.042" stroke="#3F3D36" stroke-linecap="round" stroke-linejoin="round"/>
<path d="M335.844 676.799H321.967" stroke="#3F3D36" stroke-linecap="round" stroke-linejoin="round"/>
<path d="M253.456 676.799H227.12C226.449 675.945 226.033 674.919 225.919 673.839C225.805 672.759 225.997 671.669 226.474 670.694C226.951 669.718 227.694 668.897 228.617 668.325C229.539 667.752 230.604 667.451 231.69 667.456C232.246 667.456 232.799 667.536 233.332 667.693C233.639 666.09 234.393 664.607 235.507 663.415C236.621 662.223 238.049 661.369 239.626 660.953C241.204 660.537 242.867 660.575 244.424 661.064C245.98 661.552 247.368 662.47 248.425 663.712C249.692 663.241 251.058 663.103 252.394 663.309C253.729 663.516 254.989 664.062 256.054 664.894C256.649 661.764 258.316 658.94 260.77 656.909C263.224 654.878 266.309 653.767 269.494 653.768C272.104 653.762 274.66 654.513 276.852 655.929C277.486 650.817 279.86 646.079 283.574 642.51C287.288 638.941 292.117 636.759 297.25 636.33C302.383 635.9 307.507 637.25 311.762 640.152C316.018 643.054 319.146 647.332 320.62 652.268C322.852 650.629 325.532 649.712 328.3 649.64C331.067 649.568 333.791 650.344 336.105 651.865C338.419 653.386 340.212 655.578 341.244 658.148C342.276 660.717 342.497 663.541 341.878 666.24C342.47 666.07 343.082 665.982 343.697 665.98C345.264 665.977 346.78 666.534 347.972 667.551C348.171 665.364 349.202 663.336 350.853 661.887C352.504 660.439 354.648 659.68 356.843 659.768C359.037 659.856 361.114 660.784 362.644 662.36C364.173 663.936 365.039 666.04 365.062 668.236C365.065 668.632 365.033 669.027 364.967 669.417C365.321 669.346 365.681 669.311 366.042 669.311C367.608 669.311 369.11 669.933 370.217 671.041C371.325 672.148 371.947 673.65 371.947 675.216C371.949 675.747 371.878 676.276 371.734 676.787H342.339" stroke="#3F3D36" stroke-linecap="round" stroke-linejoin="round"/>
<path d="M115.278 611.933C115.861 611.738 116.471 611.638 117.085 611.638C118.606 611.641 120.064 612.247 121.14 613.323C122.216 614.398 122.822 615.857 122.825 617.378C122.828 618.237 122.634 619.086 122.258 619.858H113.755" stroke="#3F3D36" stroke-linecap="round" stroke-linejoin="round"/>
<path d="M103.775 603.842C104.217 603.775 104.663 603.744 105.11 603.748C107.477 603.748 109.773 604.56 111.614 606.05C113.454 607.54 114.727 609.617 115.219 611.933" stroke="#3F3D36" stroke-linecap="round" stroke-linejoin="round"/>
<path d="M74.8169 604.161C75.5492 600.882 77.3683 597.945 79.9791 595.829C82.5898 593.713 85.839 592.542 89.1992 592.505C92.5595 592.468 95.8336 593.568 98.4902 595.626C101.147 597.684 103.03 600.579 103.834 603.843" stroke="#3F3D36" stroke-linecap="round" stroke-linejoin="round"/>
<path d="M58.7551 612.099C58.9259 610.312 59.5501 608.599 60.5687 607.121C61.5872 605.643 62.9664 604.451 64.5752 603.656C66.1841 602.861 67.9694 602.49 69.7617 602.578C71.5541 602.667 73.2942 603.212 74.8169 604.162" stroke="#3F3D36" stroke-linecap="round" stroke-linejoin="round"/>
<path d="M61.1646 619.858H50.9843C50.684 619.144 50.5314 618.377 50.5355 617.602C50.5355 616.036 51.1576 614.534 52.265 613.426C53.3724 612.319 54.8744 611.697 56.4405 611.697C57.2196 611.696 57.9908 611.853 58.7081 612.157" stroke="#3F3D36" stroke-linecap="round" stroke-linejoin="round"/>
<path d="M107.519 619.858H122.258" stroke="#3F3D36" stroke-linecap="round" stroke-linejoin="round"/>
<path d="M67.0696 619.858H73.5651" stroke="#3F3D36" stroke-linecap="round" stroke-linejoin="round"/>
</g>
<line opacity="0.04" x1="32.5" y1="2.18557e-08" x2="32.5" y2="812" stroke="#3F3D36"/>
<line opacity="0.04" x1="187.5" y1="2.18557e-08" x2="187.5" y2="812" stroke="#3F3D36"/>
<line opacity="0.04" x1="343.5" y1="2.18557e-08" x2="343.5" y2="812" stroke="#3F3D36"/>
<line opacity="0.04" y1="777.5" x2="375" y2="777.5" stroke="#3F3D36"/>
<line opacity="0.04" y1="657.5" x2="375" y2="657.5" stroke="#3F3D36"/>
<line opacity="0.04" y1="513.5" x2="375" y2="513.5" stroke="#3F3D36"/>
<line opacity="0.04" y1="375.5" x2="375" y2="375.5" stroke="#3F3D36"/>
<line opacity="0.04" y1="241.5" x2="375" y2="241.5" stroke="#3F3D36"/>
<line opacity="0.04" y1="107.5" x2="375" y2="107.5" stroke="#3F3D36"/>
<path opacity="0.5" d="M342.729 167.596C337.054 159.368 336 158.524 336 155.5C336 151.358 339.358 148 343.5 148C347.642 148 351 151.358 351 155.5C351 158.524 349.946 159.368 344.271 167.596C343.898 168.135 343.102 168.134 342.729 167.596ZM343.5 158.625C345.226 158.625 346.625 157.226 346.625 155.5C346.625 153.774 345.226 152.375 343.5 152.375C341.774 152.375 340.375 153.774 340.375 155.5C340.375 157.226 341.774 158.625 343.5 158.625Z" fill="#F8D03B"/>
<path d="M343 168C143.317 226.299 54.5582 551.876 186.426 690" stroke="#E6E6E6" stroke-dasharray="6 6"/>
<path d="M317.111 177.702C317.662 178.739 317.271 180.017 316.239 180.555L309.406 184.19L308.477 197.429L305.996 198.76L303.834 187.166L296.983 190.81L296.451 194.282L294.576 195.269L293.517 190.266L289.954 186.572L291.824 185.554L295.035 187.08L301.833 183.464L293.447 175.147L295.937 173.833L307.427 180.465L314.26 176.83C315.252 176.28 316.597 176.691 317.111 177.702Z" fill="#DCDCDC"/>
<path d="M186.729 702.596C181.054 694.368 180 693.524 180 690.5C180 686.358 183.358 683 187.5 683C191.642 683 195 686.358 195 690.5C195 693.524 193.946 694.368 188.271 702.596C187.898 703.135 187.102 703.134 186.729 702.596ZM187.5 693.625C189.226 693.625 190.625 692.226 190.625 690.5C190.625 688.774 189.226 687.375 187.5 687.375C185.774 687.375 184.375 688.774 184.375 690.5C184.375 692.226 185.774 693.625 187.5 693.625Z" fill="#D2D2D2"/>
</g>
<defs>
<clipPath id="clip0_307_55545">
<rect width="375" height="812" fill="white"/>
</clipPath>
<clipPath id="clip1_307_55545">
<rect width="1923.86" height="300" fill="white" transform="translate(0 512)"/>
</clipPath>
</defs>
</svg>
