<svg width="140" height="140" viewBox="0 0 140 140" fill="none" xmlns="http://www.w3.org/2000/svg">
<circle cx="70.0001" cy="69.9999" r="59.195" fill="white"/>
<circle cx="70.0001" cy="69.9999" r="59.195" fill="#F54D3F" fill-opacity="0.08"/>
<circle cx="70.0001" cy="69.9999" r="59.195" stroke="#F54D3F" stroke-width="4"/>
<path d="M75.8521 68.7979C75.1882 69.4618 75.1882 70.5382 75.8521 71.2021L88.7979 84.1479C88.9151 84.265 88.9151 84.455 88.7979 84.5721L84.5721 88.7979C84.455 88.9151 84.265 88.9151 84.1479 88.7979L71.2021 75.8521C70.5382 75.1882 69.4618 75.1882 68.7979 75.8521L55.8521 88.7979L56.3471 89.2929L55.8521 88.7979C55.735 88.9151 55.545 88.9151 55.4279 88.7979L54.9329 89.2929L55.4279 88.7979L51.2021 84.5721C51.0849 84.455 51.0849 84.265 51.2021 84.1479L64.1479 71.2021C64.8118 70.5382 64.8118 69.4618 64.1479 68.7979L51.2021 55.8521L50.7221 56.3321L51.2021 55.8521C51.0849 55.735 51.0849 55.545 51.2021 55.4279L55.4279 51.2021L54.9329 50.7071L55.4279 51.2021C55.545 51.0849 55.735 51.0849 55.8521 51.2021L68.7979 64.1479C69.4618 64.8118 70.5382 64.8118 71.2021 64.1479L84.1479 51.2021C84.265 51.0849 84.455 51.0849 84.5721 51.2021L88.7979 55.4279L89.2929 54.9329L88.7979 55.4279C88.9151 55.545 88.9151 55.735 88.7979 55.8521L89.2929 56.3471L88.7979 55.8521L75.8521 68.7979Z" fill="#F54D3F" stroke="white" stroke-width="1.4"/>
</svg>
