<svg width="199" height="471" viewBox="0 0 199 471" fill="none" xmlns="http://www.w3.org/2000/svg">
<path d="M190.729 19.5965C185.054 11.3684 184 10.5239 184 7.5C184 3.35785 187.358 0 191.5 0C195.642 0 199 3.35785 199 7.5C199 10.5239 197.946 11.3684 192.271 19.5965C191.898 20.1345 191.102 20.1345 190.729 19.5965ZM191.5 10.625C193.226 10.625 194.625 9.22589 194.625 7.5C194.625 5.7741 193.226 4.375 191.5 4.375C189.774 4.375 188.375 5.7741 188.375 7.5C188.375 9.22589 189.774 10.625 191.5 10.625Z" fill="#FFEA92"/>
<path d="M189.793 20C17.6523 70.2577 -58.8636 350.928 54.8155 470" stroke="#E9EAEB" stroke-dasharray="6 6"/>
<path d="M165.112 28.7016C165.663 29.7382 165.272 31.0166 164.239 31.5545L157.406 35.1896L156.477 48.4287L153.996 49.7597L151.834 38.1654L144.983 41.8098L144.451 45.2818L142.576 46.2682L141.517 41.265L137.954 37.5712L139.824 36.5538L143.035 38.0798L149.833 34.4634L141.447 26.146L143.937 24.8325L155.427 31.4648L162.26 27.8297C163.252 27.2795 164.597 27.6908 165.112 28.7016Z" fill="#E9EAEB"/>
<path d="M54.7292 469.596C49.0535 461.368 48 460.524 48 457.5C48 453.358 51.3579 450 55.5 450C59.6421 450 63 453.358 63 457.5C63 460.524 61.9465 461.368 56.2708 469.596C55.8983 470.135 55.1016 470.134 54.7292 469.596ZM55.5 460.625C57.2259 460.625 58.625 459.226 58.625 457.5C58.625 455.774 57.2259 454.375 55.5 454.375C53.7741 454.375 52.375 455.774 52.375 457.5C52.375 459.226 53.7741 460.625 55.5 460.625Z" fill="#E9EAEB"/>
</svg>
