<svg xmlns="http://www.w3.org/2000/svg" viewBox="0 0 375 812" fill="none">
<g clip-path="url(#clip0_1_16376)">
<rect width="375" height="812" fill="white"/>
<g opacity="0.06" clip-path="url(#clip1_1_16376)">
<g clip-path="url(#clip2_1_16376)">
<path d="M301.915 461.089V465.538H311.315" stroke="#3C3C3C" stroke-width="1.5" stroke-miterlimit="10"/>
<path d="M311.315 650.338H278.255V660.089H311.315" stroke="#3C3C3C" stroke-width="1.5" stroke-miterlimit="10"/>
<path d="M278.255 660.089L282.734 664.568H311.315" stroke="#3C3C3C" stroke-width="1.5" stroke-miterlimit="10"/>
<path d="M311.315 712.273H290.108H267.301H263.203H258.191V703.1H270.836H293.155H311.315" stroke="#3C3C3C" stroke-width="1.5" stroke-miterlimit="10"/>
<path d="M263.203 712.273V722.085H286.65H311.315" stroke="#3C3C3C" stroke-width="1.5" stroke-miterlimit="10"/>
<path d="M257.459 734.564H311.315" stroke="#3C3C3C" stroke-miterlimit="10"/>
<path d="M307.872 727.113V742.349" stroke="#3C3C3C" stroke-miterlimit="10"/>
<path d="M301.001 727.113V742.349" stroke="#3C3C3C" stroke-miterlimit="10"/>
<path d="M294.115 727.113V742.349" stroke="#3C3C3C" stroke-miterlimit="10"/>
<path d="M287.229 727.113V742.349" stroke="#3C3C3C" stroke-miterlimit="10"/>
<path d="M280.358 727.113V742.349" stroke="#3C3C3C" stroke-miterlimit="10"/>
<path d="M273.471 727.113V742.349" stroke="#3C3C3C" stroke-miterlimit="10"/>
<path d="M266.585 727.113V742.349" stroke="#3C3C3C" stroke-miterlimit="10"/>
<path d="M259.714 729.825V742.349" stroke="#3C3C3C" stroke-miterlimit="10"/>
<path d="M267.332 768.327C276.595 747.712 301.016 742.425 311.315 742.425H253.544" stroke="#3C3C3C" stroke-miterlimit="10"/>
<path d="M284.761 727.128C283.836 729.627 282.892 732.105 281.927 734.563C281.409 735.904 280.876 737.245 280.403 738.57C279.931 739.896 279.413 741.099 278.88 742.349C275.421 750.835 271.856 758.941 268.322 766.376C268.203 766.581 268.101 766.795 268.017 767.016C265.671 771.938 263.34 776.585 261.009 780.866C257.962 786.595 254.915 791.684 252.005 796.011" stroke="#3C3C3C" stroke-width="1.5" stroke-miterlimit="10"/>
<path d="M290.093 712.273C291.108 709.226 292.124 706.178 293.14 703.131C303.804 670.526 311.3 637.295 311.3 614.091" stroke="#3C3C3C" stroke-width="1.5" stroke-miterlimit="10"/>
<path d="M300.727 752.42L298.716 744.132" stroke="#3C3C3C" stroke-miterlimit="10"/>
<path d="M289.88 756.016L286.132 748.992" stroke="#3C3C3C" stroke-miterlimit="10"/>
<path d="M272.694 767.535L269.099 764.883" stroke="#3C3C3C" stroke-miterlimit="10"/>
<path d="M279.611 761.958L275.086 757.098" stroke="#3C3C3C" stroke-miterlimit="10"/>
<path d="M300.986 703.1V712.273" stroke="#3C3C3C" stroke-miterlimit="10"/>
<path d="M307.872 650.338V660.089" stroke="#3C3C3C" stroke-miterlimit="10"/>
<path d="M301.001 650.338V660.089" stroke="#3C3C3C" stroke-miterlimit="10"/>
<path d="M294.115 650.338V660.089" stroke="#3C3C3C" stroke-miterlimit="10"/>
<path d="M287.229 650.338V660.089" stroke="#3C3C3C" stroke-miterlimit="10"/>
<path d="M282.079 650.338V660.089" stroke="#3C3C3C" stroke-miterlimit="10"/>
<path d="M299.874 680.841H311.315" stroke="#3C3C3C" stroke-miterlimit="10"/>
<path d="M260.948 780.866C264.378 776.022 268.31 771.553 272.679 767.535C274.864 765.531 277.174 763.668 279.596 761.958C282.814 759.639 286.254 757.643 289.864 756.001C293.341 754.405 296.984 753.199 300.727 752.405C304.2 751.643 307.745 751.259 311.3 751.262" stroke="#3C3C3C" stroke-width="1.5" stroke-miterlimit="10"/>
<path d="M219.905 796.011L260.963 780.866L238.736 768.327L273.471 755.01L253.559 742.349" stroke="#3C3C3C" stroke-linejoin="round"/>
<path d="M260.963 727.128H266.585H273.471H280.342H284.776H287.229H294.115H300.986H311.315" stroke="#3C3C3C" stroke-miterlimit="10"/>
<path d="M279.779 675.813H311.315" stroke="#3C3C3C" stroke-miterlimit="10"/>
<path d="M282.734 664.568L301.245 675.813L275.589 689.449L293.155 703.101L280.342 712.273" stroke="#3C3C3C" stroke-linejoin="round"/>
<path d="M304.079 664.568L279.779 675.813L297.802 688.063L270.836 703.101L280.342 712.273" stroke="#3C3C3C" stroke-linejoin="round"/>
<path d="M280.342 712.273V703.1" stroke="#3C3C3C" stroke-miterlimit="10"/>
<path d="M251.96 796.011L229.93 781.826L267.332 768.327L246.383 755.544L278.103 744.147" stroke="#3C3C3C" stroke-linejoin="round"/>
<path d="M301.915 465.537L311.315 476.721L302.022 486.609L311.315 495.934L302.022 504.679L311.315 513.425L301.336 522.018L311.33 534.207L300.346 543.562L311.315 555.324L298.807 565.533L311.315 575.695C311.315 575.695 296.781 586.467 296.827 586.041C296.872 585.614 311.269 595.914 311.269 595.914L294.115 606.092L311.269 616.985L290.641 628.885L309.243 638.362L286.284 650.383" stroke="#3C3C3C" stroke-linejoin="round"/>
<path d="M267.301 712.273C268.51 709.276 269.683 706.229 270.82 703.131" stroke="#3C3C3C" stroke-linejoin="round"/>
<path d="M307.156 650.353L289.24 637.585L310.569 627.727L292.576 617.473L311.3 606.914L295.608 596.157L311.3 585.98L297.771 576.838L311.3 565.822L299.63 554.563L311.3 544.37L300.864 533.049L311.3 523.161C311.3 523.161 301.595 512.983 301.58 513.41C301.565 513.836 311.3 505.091 311.3 505.091L301.93 495.629L311.3 485.741L301.991 476.599L311.3 465.553" stroke="#3C3C3C" stroke-linejoin="round"/>
<path d="M320.73 451.337V445.608H301.915V451.337" stroke="#3C3C3C" stroke-width="1.5" stroke-miterlimit="10"/>
<path d="M324.311 451.337H298.335V461.088H324.311V451.337Z" stroke="#3C3C3C" stroke-width="1.5" stroke-miterlimit="10"/>
<path d="M320.73 461.089V465.538H311.315" stroke="#3C3C3C" stroke-width="1.5" stroke-miterlimit="10"/>
<path d="M251.959 796.011H219.966C226.441 787.143 232.748 778.017 238.781 768.327C241.386 764.183 243.946 759.932 246.399 755.544C248.852 751.156 251.228 746.874 253.574 742.349C254.9 739.805 256.195 737.199 257.475 734.548C258.221 733.024 258.998 731.409 259.714 729.84L260.963 727.143C261.71 725.498 262.487 723.806 263.203 722.1" stroke="#3C3C3C" stroke-width="1.5" stroke-miterlimit="10"/>
<path d="M311.315 650.338H344.375V660.089H311.315" stroke="#3C3C3C" stroke-width="1.5" stroke-miterlimit="10"/>
<path d="M344.375 660.089L339.911 664.568H311.315" stroke="#3C3C3C" stroke-width="1.5" stroke-miterlimit="10"/>
<path d="M311.33 703.1H329.49H351.81H364.455V712.273H359.442H355.329H332.537H311.33" stroke="#3C3C3C" stroke-width="1.5" stroke-miterlimit="10"/>
<path d="M311.33 722.085H335.996H359.442V712.273" stroke="#3C3C3C" stroke-width="1.5" stroke-miterlimit="10"/>
<path d="M365.186 734.564H311.315" stroke="#3C3C3C" stroke-miterlimit="10"/>
<path d="M314.758 727.113V742.349" stroke="#3C3C3C" stroke-miterlimit="10"/>
<path d="M321.645 727.113V742.349" stroke="#3C3C3C" stroke-miterlimit="10"/>
<path d="M328.515 727.113V742.349" stroke="#3C3C3C" stroke-miterlimit="10"/>
<path d="M335.402 727.113V742.349" stroke="#3C3C3C" stroke-miterlimit="10"/>
<path d="M342.288 727.113V742.349" stroke="#3C3C3C" stroke-miterlimit="10"/>
<path d="M349.174 727.113V742.349" stroke="#3C3C3C" stroke-miterlimit="10"/>
<path d="M356.045 727.113V742.349" stroke="#3C3C3C" stroke-miterlimit="10"/>
<path d="M362.931 729.825V742.349" stroke="#3C3C3C" stroke-miterlimit="10"/>
<path d="M369.086 742.364H311.315C321.629 742.364 346.036 747.727 355.299 768.266" stroke="#3C3C3C" stroke-miterlimit="10"/>
<path d="M370.671 796.011C367.776 791.699 364.76 786.595 361.667 780.866C359.351 776.585 357.005 771.938 354.659 767.016C354.575 766.795 354.473 766.581 354.354 766.376C350.804 758.926 347.255 750.82 343.796 742.349C343.278 741.099 342.775 739.835 342.273 738.57C341.77 737.306 341.206 735.904 340.749 734.563C339.784 732.105 338.84 729.627 337.916 727.128" stroke="#3C3C3C" stroke-width="1.5" stroke-miterlimit="10"/>
<path d="M311.33 465.537V614.06C311.33 637.25 318.948 670.434 329.49 703.101C330.506 706.148 331.522 709.195 332.537 712.242" stroke="#3C3C3C" stroke-width="1.5" stroke-miterlimit="10"/>
<path d="M311.33 445.608V437" stroke="#3C3C3C" stroke-miterlimit="10"/>
<path d="M359.443 722.085C360.189 723.791 360.966 725.467 361.682 727.128L362.931 729.825C363.678 731.348 364.455 732.994 365.171 734.533C366.466 737.184 367.746 739.774 369.071 742.334C371.407 746.854 373.799 751.252 376.247 755.528C378.745 759.916 381.305 764.167 383.864 768.312C386.769 772.923 389.709 777.423 392.685 781.811C395.976 786.646 399.313 791.369 402.695 795.98H370.701" stroke="#3C3C3C" stroke-width="1.5" stroke-miterlimit="10"/>
<path d="M323.914 744.132L321.903 752.42" stroke="#3C3C3C" stroke-miterlimit="10"/>
<path d="M336.514 748.992L332.766 756.016" stroke="#3C3C3C" stroke-miterlimit="10"/>
<path d="M353.546 764.883L349.951 767.535" stroke="#3C3C3C" stroke-miterlimit="10"/>
<path d="M347.559 757.098L343.035 761.958" stroke="#3C3C3C" stroke-miterlimit="10"/>
<path d="M321.645 703.1V712.273" stroke="#3C3C3C" stroke-miterlimit="10"/>
<path d="M314.758 650.338V660.089" stroke="#3C3C3C" stroke-miterlimit="10"/>
<path d="M321.645 650.338V660.089" stroke="#3C3C3C" stroke-miterlimit="10"/>
<path d="M328.515 650.338V660.089" stroke="#3C3C3C" stroke-miterlimit="10"/>
<path d="M335.402 650.338V660.089" stroke="#3C3C3C" stroke-miterlimit="10"/>
<path d="M340.566 650.338V660.089" stroke="#3C3C3C" stroke-miterlimit="10"/>
<path d="M322.757 680.841H311.33" stroke="#3C3C3C" stroke-miterlimit="10"/>
<path d="M361.682 780.866C358.252 776.022 354.32 771.553 349.951 767.535C347.766 765.531 345.456 763.668 343.034 761.958C339.816 759.639 336.377 757.643 332.766 756.001C329.289 754.405 325.646 753.199 321.903 752.405C318.431 751.643 314.886 751.259 311.33 751.262" stroke="#3C3C3C" stroke-width="1.5" stroke-miterlimit="10"/>
<path d="M369.086 742.349L349.174 755.01L383.895 768.327L361.682 780.866L402.725 796.011" stroke="#3C3C3C" stroke-linejoin="round"/>
<path d="M311.33 727.128H321.644H328.531H335.417H337.87H342.288H349.174H356.06H361.682" stroke="#3C3C3C" stroke-miterlimit="10"/>
<path d="M342.867 675.813H311.315" stroke="#3C3C3C" stroke-miterlimit="10"/>
<path d="M339.911 664.568L321.401 675.813L347.056 689.449L329.491 703.101L342.288 712.273" stroke="#3C3C3C" stroke-linejoin="round"/>
<path d="M318.567 664.568L342.867 675.813L324.829 688.063L351.81 703.101L342.288 712.273" stroke="#3C3C3C" stroke-linejoin="round"/>
<path d="M342.288 712.273V703.1" stroke="#3C3C3C" stroke-miterlimit="10"/>
<path d="M344.543 744.147L376.247 755.544L355.314 768.327L392.716 781.826L370.671 796.011" stroke="#3C3C3C" stroke-linejoin="round"/>
<path d="M320.715 465.537L311.315 476.721L320.609 486.609L311.315 495.934L320.609 504.679L311.315 513.425L321.294 522.018L311.315 534.207L322.284 543.562L311.315 555.324L323.823 565.533L311.315 575.695C311.315 575.695 325.849 586.467 325.804 586.041C325.758 585.614 311.361 595.914 311.361 595.914L328.516 606.092L311.361 616.985L331.989 628.885L313.387 638.362L336.346 650.383" stroke="#3C3C3C" stroke-linejoin="round"/>
<path d="M355.329 712.273C354.12 709.276 352.947 706.229 351.81 703.131" stroke="#3C3C3C" stroke-linejoin="round"/>
<path d="M315.474 650.353L333.33 637.6L312.092 627.697L330.085 617.443L311.361 606.884L327.053 596.127L311.361 585.949L324.89 576.808L311.361 565.792L323.031 554.624L311.361 544.431L321.797 533.11L311.361 523.222C311.361 523.222 321.066 513.044 321.081 513.471C321.096 513.897 311.361 505.152 311.361 505.152L320.73 495.69L311.361 485.802L320.669 476.66L311.361 465.614" stroke="#3C3C3C" stroke-linejoin="round"/>
<path d="M311.315 757.098C308.219 757.098 305.131 757.409 302.098 758.027C298.829 758.701 295.643 759.723 292.591 761.075C289.384 762.454 286.322 764.148 283.45 766.133C281.287 767.602 279.225 769.215 277.28 770.963C269.467 777.963 263.167 786.487 258.77 796.011H251.883" stroke="#3C3C3C" stroke-miterlimit="10"/>
<path d="M370.686 796.011H363.8C359.421 786.474 353.137 777.935 345.335 770.917C343.39 769.17 341.328 767.556 339.165 766.087C336.293 764.103 333.231 762.408 330.024 761.029C326.973 759.677 323.786 758.656 320.517 757.982C317.484 757.364 314.396 757.052 311.3 757.052" stroke="#3C3C3C" stroke-miterlimit="10"/>
<path d="M270.836 703.101C290.778 649.164 303.271 576.549 301.915 465.537" stroke="#3C3C3C" stroke-width="1.5" stroke-linejoin="round"/>
<path d="M351.794 703.101C331.852 649.164 319.359 576.549 320.715 465.537" stroke="#3C3C3C" stroke-width="1.5" stroke-linejoin="round"/>
<path d="M472.075 806.737V796.011H147.051V806.737" stroke="#3C3C3C" stroke-width="1.5" stroke-miterlimit="10"/>
<path d="M599.013 806.494L101.041 805.717" stroke="#3C3C3C" stroke-width="1.5" stroke-miterlimit="10"/>
<path d="M101.849 806.494V723.868" stroke="#3C3C3C" stroke-width="1.5" stroke-miterlimit="10"/>
<path d="M170.224 719.784H99V723.868H170.224V719.784Z" stroke="#3C3C3C" stroke-width="1.5" stroke-miterlimit="10"/>
<path d="M166.796 723.868V796.011" stroke="#3C3C3C" stroke-width="1.5" stroke-miterlimit="10"/>
<path d="M101.849 750.577H166.796" stroke="#3C3C3C" stroke-miterlimit="10"/>
<path d="M116.52 746.158H106.998V728.88H111.752H116.52V746.158Z" stroke="#3C3C3C" stroke-miterlimit="10"/>
<path d="M106.998 740.825H116.52" stroke="#3C3C3C" stroke-miterlimit="10"/>
<path d="M106.998 734.564H116.52" stroke="#3C3C3C" stroke-miterlimit="10"/>
<path d="M111.752 728.88V746.158" stroke="#3C3C3C" stroke-miterlimit="10"/>
<path d="M131.755 746.158H122.233V728.88H126.987H131.755V746.158Z" stroke="#3C3C3C" stroke-miterlimit="10"/>
<path d="M122.233 740.825H131.755" stroke="#3C3C3C" stroke-miterlimit="10"/>
<path d="M122.233 734.564H131.755" stroke="#3C3C3C" stroke-miterlimit="10"/>
<path d="M126.987 728.88V746.158" stroke="#3C3C3C" stroke-miterlimit="10"/>
<path d="M146.99 746.158H137.468V728.88H142.222H146.99V746.158Z" stroke="#3C3C3C" stroke-miterlimit="10"/>
<path d="M137.468 740.825H146.99" stroke="#3C3C3C" stroke-miterlimit="10"/>
<path d="M137.468 734.564H146.99" stroke="#3C3C3C" stroke-miterlimit="10"/>
<path d="M142.222 728.88V746.158" stroke="#3C3C3C" stroke-miterlimit="10"/>
<path d="M162.225 746.158H152.703V728.88H157.457H162.225V746.158Z" stroke="#3C3C3C" stroke-miterlimit="10"/>
<path d="M152.703 740.825H162.225" stroke="#3C3C3C" stroke-miterlimit="10"/>
<path d="M152.703 734.564H162.225" stroke="#3C3C3C" stroke-miterlimit="10"/>
<path d="M157.457 728.88V746.158" stroke="#3C3C3C" stroke-miterlimit="10"/>
<path d="M116.52 773.583H106.998V756.306H111.752H116.52V773.583Z" stroke="#3C3C3C" stroke-miterlimit="10"/>
<path d="M106.998 768.25H116.52" stroke="#3C3C3C" stroke-miterlimit="10"/>
<path d="M106.998 761.989H116.52" stroke="#3C3C3C" stroke-miterlimit="10"/>
<path d="M111.752 756.306V773.583" stroke="#3C3C3C" stroke-miterlimit="10"/>
<path d="M131.755 773.583H122.233V756.306H126.987H131.755V773.583Z" stroke="#3C3C3C" stroke-miterlimit="10"/>
<path d="M122.233 768.25H131.755" stroke="#3C3C3C" stroke-miterlimit="10"/>
<path d="M122.233 761.989H131.755" stroke="#3C3C3C" stroke-miterlimit="10"/>
<path d="M126.987 756.306V773.583" stroke="#3C3C3C" stroke-miterlimit="10"/>
<path d="M146.99 773.583H137.468V756.306H142.222H146.99V773.583Z" stroke="#3C3C3C" stroke-miterlimit="10"/>
<path d="M137.468 768.25H146.99" stroke="#3C3C3C" stroke-miterlimit="10"/>
<path d="M137.468 761.989H146.99" stroke="#3C3C3C" stroke-miterlimit="10"/>
<path d="M142.222 756.306V773.583" stroke="#3C3C3C" stroke-miterlimit="10"/>
<path d="M162.225 773.583H152.703V756.306H157.457H162.225V773.583Z" stroke="#3C3C3C" stroke-miterlimit="10"/>
<path d="M152.703 768.25H162.225" stroke="#3C3C3C" stroke-miterlimit="10"/>
<path d="M152.703 761.989H162.225" stroke="#3C3C3C" stroke-miterlimit="10"/>
<path d="M157.457 756.306V773.583" stroke="#3C3C3C" stroke-miterlimit="10"/>
<path d="M106.998 776.555H162.225" stroke="#3C3C3C" stroke-miterlimit="10"/>
<path d="M142.222 806.494V788.241H126.987V806.494" stroke="#3C3C3C" stroke-miterlimit="10"/>
<path d="M126.987 799.546H101.849" stroke="#3C3C3C" stroke-miterlimit="10"/>
<path d="M142.222 799.409H146.99" stroke="#3C3C3C" stroke-miterlimit="10"/>
<path d="M160.504 796.011V783.228H151.18V796.011" stroke="#3C3C3C" stroke-miterlimit="10"/>
<path d="M155.842 783.228V796.179" stroke="#3C3C3C" stroke-miterlimit="10"/>
<path d="M151.18 789.703H160.504" stroke="#3C3C3C" stroke-miterlimit="10"/>
<path d="M166.796 719.784C166.796 715.701 164.008 700.51 154.227 700.51H114.418C104.637 700.51 101.849 715.746 101.849 719.784" stroke="#3C3C3C" stroke-width="1.5" stroke-miterlimit="10"/>
<path d="M154.227 700.51V696.64H145.528V700.541" stroke="#3C3C3C" stroke-miterlimit="10"/>
<path d="M140.576 700.541V696.64H132.197V700.541" stroke="#3C3C3C" stroke-miterlimit="10"/>
<path d="M109.223 713.964C109.223 712.227 111.097 710.81 113.412 710.81C115.728 710.81 117.602 712.227 117.602 713.964" stroke="#3C3C3C" stroke-miterlimit="10"/>
<path d="M117.602 713.964V719.86" stroke="#3C3C3C" stroke-miterlimit="10"/>
<path d="M109.223 713.964V719.86" stroke="#3C3C3C" stroke-miterlimit="10"/>
<path d="M113.412 710.795V719.86" stroke="#3C3C3C" stroke-miterlimit="10"/>
<path d="M109.223 716.204H117.602" stroke="#3C3C3C" stroke-miterlimit="10"/>
<path d="M122.934 713.964C122.934 712.227 124.808 710.81 127.124 710.81C129.44 710.81 131.313 712.227 131.313 713.964" stroke="#3C3C3C" stroke-miterlimit="10"/>
<path d="M131.313 713.964V719.86" stroke="#3C3C3C" stroke-miterlimit="10"/>
<path d="M122.934 713.964V719.86" stroke="#3C3C3C" stroke-miterlimit="10"/>
<path d="M127.124 710.795V719.86" stroke="#3C3C3C" stroke-miterlimit="10"/>
<path d="M138.169 713.964C138.169 712.227 140.043 710.81 142.359 710.81C144.675 710.81 146.548 712.227 146.548 713.964" stroke="#3C3C3C" stroke-miterlimit="10"/>
<path d="M146.548 713.964V719.86" stroke="#3C3C3C" stroke-miterlimit="10"/>
<path d="M138.169 713.964V719.86" stroke="#3C3C3C" stroke-miterlimit="10"/>
<path d="M142.359 710.795V719.86" stroke="#3C3C3C" stroke-miterlimit="10"/>
<path d="M138.169 716.204H146.548" stroke="#3C3C3C" stroke-miterlimit="10"/>
<path d="M151.881 713.964C151.881 712.227 153.755 710.81 156.07 710.81C158.386 710.81 160.26 712.227 160.26 713.964" stroke="#3C3C3C" stroke-miterlimit="10"/>
<path d="M160.26 713.964V719.86" stroke="#3C3C3C" stroke-miterlimit="10"/>
<path d="M151.881 713.964V719.86" stroke="#3C3C3C" stroke-miterlimit="10"/>
<path d="M156.07 710.795V719.86" stroke="#3C3C3C" stroke-miterlimit="10"/>
<path d="M113.412 704.518H156.07" stroke="#3C3C3C" stroke-miterlimit="10"/>
<path d="M166.796 757.098H193.64V776.098V796.179" stroke="#3C3C3C" stroke-width="1.5" stroke-miterlimit="10"/>
<path d="M210.779 796.179V778.093H193.64" stroke="#3C3C3C" stroke-miterlimit="10"/>
<path d="M188.125 757.098V753.776H181.452V757.098" stroke="#3C3C3C" stroke-miterlimit="10"/>
<path d="M193.64 766.727H166.796" stroke="#3C3C3C" stroke-miterlimit="10"/>
<path d="M210.779 783.228H193.64" stroke="#3C3C3C" stroke-miterlimit="10"/>
<path d="M189.542 770.826H181.452V778.916H189.542V770.826Z" stroke="#3C3C3C" stroke-miterlimit="10"/>
<path d="M185.504 770.826V778.916" stroke="#3C3C3C" stroke-miterlimit="10"/>
<path d="M181.452 774.878H189.542" stroke="#3C3C3C" stroke-miterlimit="10"/>
<path d="M166.796 770.826H174.886V778.916H166.796" stroke="#3C3C3C" stroke-miterlimit="10"/>
<path d="M170.833 770.826V778.916" stroke="#3C3C3C" stroke-miterlimit="10"/>
<path d="M166.796 774.878H174.886" stroke="#3C3C3C" stroke-miterlimit="10"/>
<path d="M181.452 796.011V788.241H174.885V796.011" stroke="#3C3C3C" stroke-miterlimit="10"/>
<path d="M171.808 759.947V764.944" stroke="#3C3C3C" stroke-miterlimit="10"/>
<path d="M187.043 759.947V764.944" stroke="#3C3C3C" stroke-miterlimit="10"/>
<path d="M183.996 759.947V764.944" stroke="#3C3C3C" stroke-miterlimit="10"/>
<path d="M207.245 787.144H204.167V790.221H207.245V787.144Z" stroke="#3C3C3C" stroke-miterlimit="10"/>
<path d="M199.627 787.144H196.55V790.221H199.627V787.144Z" stroke="#3C3C3C" stroke-miterlimit="10"/>
<path d="M210.779 781.201H229.93" stroke="#3C3C3C" stroke-miterlimit="10"/>
<path d="M210.779 785.772H227.218" stroke="#3C3C3C" stroke-miterlimit="10"/>
<path d="M215.167 796.011V792.126H222.724" stroke="#3C3C3C" stroke-miterlimit="10"/>
<path d="M383.895 768.327V700.967H373.794V750.302" stroke="#3C3C3C" stroke-miterlimit="10"/>
<path d="M188.125 753.289V728.88L197.555 728.865V703.832H216.919V715.488H226.593L227.218 781.201" stroke="#3C3C3C" stroke-miterlimit="10"/>
<path d="M216.919 715.488L217.65 781.202" stroke="#3C3C3C" stroke-miterlimit="10"/>
<path d="M197.555 728.865L198.088 778.093" stroke="#3C3C3C" stroke-miterlimit="10"/>
<path d="M220.667 720.607H222.952" stroke="#3C3C3C" stroke-width="1.5" stroke-miterlimit="10"/>
<path d="M220.667 725.178H222.952" stroke="#3C3C3C" stroke-width="1.5" stroke-miterlimit="10"/>
<path d="M220.667 729.748H222.952" stroke="#3C3C3C" stroke-width="1.5" stroke-miterlimit="10"/>
<path d="M213.339 781.399L212.79 708.113" stroke="#3C3C3C" stroke-miterlimit="10"/>
<path d="M207.991 777.971V707.793" stroke="#3C3C3C" stroke-miterlimit="10"/>
<path d="M203.421 778.093L202.872 707.915" stroke="#3C3C3C" stroke-miterlimit="10"/>
<path d="M220.667 734.319H222.952" stroke="#3C3C3C" stroke-width="1.5" stroke-miterlimit="10"/>
<path d="M220.667 738.89H222.952" stroke="#3C3C3C" stroke-width="1.5" stroke-miterlimit="10"/>
<path d="M220.667 743.461H222.952" stroke="#3C3C3C" stroke-width="1.5" stroke-miterlimit="10"/>
<path d="M220.667 748.032H222.952" stroke="#3C3C3C" stroke-width="1.5" stroke-miterlimit="10"/>
<path d="M193.655 757.189V733.329" stroke="#3C3C3C" stroke-miterlimit="10"/>
<path d="M213.781 703.832V701.059H208.692V703.832" stroke="#3C3C3C" stroke-miterlimit="10"/>
<path d="M220.667 752.603H222.952" stroke="#3C3C3C" stroke-width="1.5" stroke-miterlimit="10"/>
<path d="M220.667 757.174H222.952" stroke="#3C3C3C" stroke-width="1.5" stroke-miterlimit="10"/>
<path d="M220.667 761.745H222.952" stroke="#3C3C3C" stroke-width="1.5" stroke-miterlimit="10"/>
<path d="M220.667 766.315H222.952" stroke="#3C3C3C" stroke-width="1.5" stroke-miterlimit="10"/>
<path d="M220.667 770.886H222.952" stroke="#3C3C3C" stroke-width="1.5" stroke-miterlimit="10"/>
<path d="M220.667 775.457H222.952" stroke="#3C3C3C" stroke-width="1.5" stroke-miterlimit="10"/>
<path d="M312.854 796.011V791.227H261.817" stroke="#3C3C3C" stroke-width="1.5" stroke-miterlimit="10"/>
<path d="M312.854 791.227H361.393" stroke="#3C3C3C" stroke-width="1.5" stroke-miterlimit="10"/>
<path d="M351.81 785.62H273.471" stroke="#3C3C3C" stroke-width="1.5" stroke-miterlimit="10"/>
<path d="M328.515 780.303H290.108" stroke="#3C3C3C" stroke-width="1.5" stroke-miterlimit="10"/>
<path d="M247.709 565.914C248.46 565.662 249.247 565.533 250.04 565.533C252.002 565.537 253.883 566.318 255.271 567.706C256.659 569.094 257.44 570.975 257.444 572.938C257.448 574.046 257.198 575.141 256.713 576.137H245.744" stroke="#3C3C3C" stroke-linecap="round" stroke-linejoin="round"/>
<path d="M232.87 555.477C233.44 555.39 234.015 555.35 234.592 555.355C237.646 555.354 240.608 556.403 242.982 558.325C245.356 560.247 246.998 562.926 247.633 565.914" stroke="#3C3C3C" stroke-linecap="round" stroke-linejoin="round"/>
<path d="M195.514 555.888C196.458 551.657 198.805 547.869 202.173 545.14C205.541 542.41 209.732 540.899 214.067 540.851C218.402 540.804 222.625 542.223 226.052 544.877C229.479 547.532 231.909 551.267 232.946 555.477" stroke="#3C3C3C" stroke-linecap="round" stroke-linejoin="round"/>
<path d="M174.794 566.127C175.014 563.822 175.82 561.612 177.134 559.706C178.448 557.8 180.227 556.261 182.302 555.236C184.378 554.21 186.681 553.732 188.993 553.846C191.305 553.96 193.55 554.663 195.514 555.888" stroke="#3C3C3C" stroke-linecap="round" stroke-linejoin="round"/>
<path d="M177.902 576.137H164.77C164.382 575.216 164.185 574.226 164.191 573.227C164.191 571.206 164.993 569.269 166.422 567.84C167.85 566.411 169.788 565.609 171.808 565.609C172.813 565.608 173.808 565.81 174.733 566.203" stroke="#3C3C3C" stroke-linecap="round" stroke-linejoin="round"/>
<path d="M237.7 576.137H256.713" stroke="#3C3C3C" stroke-linecap="round" stroke-linejoin="round"/>
<path d="M185.52 576.137H193.899" stroke="#3C3C3C" stroke-linecap="round" stroke-linejoin="round"/>
</g>
</g>
<line opacity="0.04" x1="32.5" y1="2.18557e-08" x2="32.5" y2="812" stroke="#3C3C3C"/>
<line opacity="0.04" x1="187.5" y1="2.18557e-08" x2="187.5" y2="812" stroke="#3C3C3C"/>
<line opacity="0.04" x1="343.5" y1="2.18557e-08" x2="343.5" y2="812" stroke="#3C3C3C"/>
<line opacity="0.04" y1="777.5" x2="375" y2="777.5" stroke="#3C3C3C"/>
<line opacity="0.04" y1="657.5" x2="375" y2="657.5" stroke="#3C3C3C"/>
<line opacity="0.04" y1="513.5" x2="375" y2="513.5" stroke="#3C3C3C"/>
<line opacity="0.04" y1="375.5" x2="375" y2="375.5" stroke="#3C3C3C"/>
<line opacity="0.04" y1="241.5" x2="375" y2="241.5" stroke="#3C3C3C"/>
<line opacity="0.04" y1="107.5" x2="375" y2="107.5" stroke="#3C3C3C"/>
<path opacity="0.85" d="M342.729 167.596C337.054 159.368 336 158.524 336 155.5C336 151.358 339.358 148 343.5 148C347.642 148 351 151.358 351 155.5C351 158.524 349.946 159.368 344.271 167.596C343.898 168.135 343.102 168.134 342.729 167.596ZM343.5 158.625C345.226 158.625 346.625 157.226 346.625 155.5C346.625 153.774 345.226 152.375 343.5 152.375C341.774 152.375 340.375 153.774 340.375 155.5C340.375 157.226 341.774 158.625 343.5 158.625Z" fill="#F8D03B"/>
<path d="M343 168C143.317 226.299 54.5582 551.876 186.426 690" stroke="#E6E6E6" stroke-dasharray="6 6"/>
<path d="M317.111 177.702C317.662 178.739 317.271 180.017 316.239 180.555L309.406 184.19L308.477 197.429L305.996 198.76L303.834 187.166L296.983 190.81L296.451 194.282L294.576 195.269L293.517 190.266L289.954 186.572L291.824 185.554L295.035 187.08L301.833 183.464L293.447 175.147L295.937 173.833L307.427 180.465L314.26 176.83C315.252 176.28 316.597 176.691 317.111 177.702Z" fill="#C8C8C8"/>
<path d="M186.729 702.596C181.054 694.368 180 693.524 180 690.5C180 686.358 183.358 683 187.5 683C191.642 683 195 686.358 195 690.5C195 693.524 193.946 694.368 188.271 702.596C187.898 703.135 187.102 703.134 186.729 702.596ZM187.5 693.625C189.226 693.625 190.625 692.226 190.625 690.5C190.625 688.774 189.226 687.375 187.5 687.375C185.774 687.375 184.375 688.774 184.375 690.5C184.375 692.226 185.774 693.625 187.5 693.625Z" fill="#D2D2D2"/>
<path d="M32 640.4C32 626.959 32 620.238 34.6158 615.104C36.9168 610.588 40.5883 606.917 45.1042 604.616C50.2381 602 56.9587 602 70.4 602H343V619.6C343 633.041 343 639.762 340.384 644.896C338.083 649.412 334.412 653.083 329.896 655.384C324.762 658 318.041 658 304.6 658H32V640.4Z" fill="#1E1E1C"/>
<path d="M165.486 635V622.93H167.39V633.317H173.867V635H165.486ZM178.662 635.17C177.959 635.17 177.33 635.051 176.775 634.813C176.219 634.564 175.738 634.224 175.33 633.793C174.933 633.362 174.627 632.875 174.412 632.331C174.196 631.776 174.089 631.186 174.089 630.563C174.089 629.94 174.196 629.35 174.412 628.795C174.627 628.24 174.933 627.752 175.33 627.333C175.738 626.902 176.219 626.568 176.775 626.33C177.341 626.081 177.97 625.956 178.662 625.956C179.353 625.956 179.976 626.081 180.532 626.33C181.098 626.568 181.58 626.902 181.977 627.333C182.385 627.752 182.696 628.24 182.912 628.795C183.127 629.35 183.235 629.94 183.235 630.563C183.235 631.186 183.127 631.776 182.912 632.331C182.696 632.875 182.385 633.362 181.977 633.793C181.58 634.224 181.098 634.564 180.532 634.813C179.976 635.051 179.353 635.17 178.662 635.17ZM176.01 630.58C176.01 631.147 176.129 631.657 176.367 632.11C176.605 632.563 176.922 632.92 177.319 633.181C177.715 633.442 178.163 633.572 178.662 633.572C179.149 633.572 179.591 633.442 179.988 633.181C180.396 632.909 180.719 632.546 180.957 632.093C181.195 631.628 181.314 631.118 181.314 630.563C181.314 629.996 181.195 629.486 180.957 629.033C180.719 628.58 180.396 628.223 179.988 627.962C179.591 627.69 179.149 627.554 178.662 627.554C178.163 627.554 177.715 627.69 177.319 627.962C176.922 628.234 176.605 628.597 176.367 629.05C176.129 629.492 176.01 630.002 176.01 630.58ZM188.002 635.085C187.402 635.085 186.852 634.966 186.353 634.728C185.855 634.479 185.424 634.144 185.061 633.725C184.71 633.306 184.432 632.824 184.228 632.28C184.036 631.736 183.939 631.164 183.939 630.563C183.939 629.928 184.041 629.333 184.245 628.778C184.449 628.223 184.733 627.735 185.095 627.316C185.469 626.885 185.906 626.551 186.404 626.313C186.903 626.075 187.458 625.956 188.07 625.956C188.784 625.956 189.408 626.126 189.94 626.466C190.484 626.806 190.932 627.248 191.283 627.792V626.109H192.932V634.745C192.932 635.606 192.723 636.337 192.303 636.938C191.895 637.539 191.334 637.998 190.62 638.315C189.906 638.632 189.102 638.791 188.206 638.791C187.22 638.791 186.404 638.621 185.758 638.281C185.112 637.941 184.563 637.476 184.109 636.887L185.163 635.901C185.503 636.377 185.94 636.74 186.472 636.989C187.016 637.238 187.594 637.363 188.206 637.363C188.716 637.363 189.187 637.267 189.617 637.074C190.059 636.893 190.411 636.604 190.671 636.207C190.932 635.822 191.062 635.334 191.062 634.745V633.385C190.745 633.918 190.309 634.337 189.753 634.643C189.198 634.938 188.614 635.085 188.002 635.085ZM188.614 633.572C188.898 633.572 189.17 633.527 189.43 633.436C189.691 633.334 189.929 633.204 190.144 633.045C190.371 632.875 190.564 632.688 190.722 632.484C190.881 632.269 190.994 632.042 191.062 631.804V629.475C190.915 629.09 190.705 628.755 190.433 628.472C190.161 628.177 189.855 627.951 189.515 627.792C189.175 627.633 188.83 627.554 188.478 627.554C188.07 627.554 187.702 627.645 187.373 627.826C187.056 627.996 186.784 628.228 186.557 628.523C186.331 628.806 186.155 629.129 186.03 629.492C185.906 629.855 185.843 630.229 185.843 630.614C185.843 631.022 185.911 631.402 186.047 631.753C186.195 632.104 186.393 632.422 186.642 632.705C186.892 632.977 187.186 633.192 187.526 633.351C187.866 633.498 188.229 633.572 188.614 633.572ZM198.555 635V626.109H200.425V635H198.555ZM198.555 624.647V622.59H200.425V624.647H198.555ZM210.235 635H208.365V630.019C208.365 629.192 208.229 628.585 207.957 628.2C207.696 627.815 207.305 627.622 206.784 627.622C206.421 627.622 206.059 627.713 205.696 627.894C205.345 628.075 205.027 628.325 204.744 628.642C204.461 628.948 204.257 629.305 204.132 629.713V635H202.262V626.109H203.962V627.894C204.189 627.497 204.483 627.157 204.846 626.874C205.22 626.579 205.639 626.353 206.104 626.194C206.569 626.035 207.062 625.956 207.583 625.956C208.116 625.956 208.552 626.052 208.892 626.245C209.243 626.438 209.515 626.704 209.708 627.044C209.912 627.373 210.048 627.758 210.116 628.2C210.195 628.631 210.235 629.09 210.235 629.577V635Z" fill="white"/>
<path d="M156 542.8C156 532.719 156 527.679 157.962 523.828C159.688 520.441 162.441 517.688 165.828 515.962C169.679 514 174.719 514 184.8 514H220V541.2C220 551.281 220 556.321 218.038 560.172C216.312 563.559 213.559 566.312 210.172 568.038C206.321 570 201.281 570 191.2 570H156V542.8Z" fill="white"/>
<g opacity="0.5">
<path d="M173.247 538.139C173.922 538.139 174.495 537.566 174.495 536.891L174.495 531.058C174.495 529.642 175.642 528.495 177.058 528.495H182.857C183.532 528.495 184.105 527.922 184.105 527.248C184.105 526.573 183.532 526 182.857 526L177.058 526C174.259 526 172 528.259 172 531.058V536.857C172 537.565 172.573 538.139 173.247 538.139Z" fill="#3C3C3C"/>
<path d="M202.785 545.895C202.11 545.895 201.537 546.468 201.537 547.142V552.942C201.537 554.358 200.391 555.505 198.975 555.505L193.141 555.505C192.467 555.505 191.894 556.078 191.894 556.752C191.894 557.427 192.467 558 193.141 558H198.941C201.739 558 203.999 555.741 203.999 552.942V547.143C204.032 546.468 203.459 545.895 202.785 545.895Z" fill="#3C3C3C"/>
<path d="M198.975 526H193.141C192.467 526 191.894 526.573 191.894 527.248C191.894 527.922 192.467 528.495 193.141 528.495H198.941C200.357 528.495 201.503 529.641 201.503 531.058V536.857C201.503 537.532 202.077 538.105 202.751 538.105C203.425 538.105 203.999 537.532 203.999 536.857L203.999 531.058C204.032 528.259 201.773 526 198.975 526Z" fill="#3C3C3C"/>
<path d="M182.891 555.538H177.058C175.641 555.538 174.495 554.392 174.495 552.976V547.142C174.495 546.468 173.922 545.895 173.248 545.895C172.573 545.895 172 546.468 172 547.142V552.942C172 555.741 174.259 558 177.058 558H182.857C183.532 558 184.105 557.427 184.105 556.752C184.105 556.078 183.565 555.538 182.891 555.538Z" fill="#3C3C3C"/>
<path d="M192.568 547.007C192.096 546.501 191.287 546.501 190.815 546.973C190.41 547.344 189.399 547.748 188.05 547.748C186.701 547.748 185.656 547.344 185.285 546.973C184.779 546.501 184.003 546.501 183.531 547.007C183.059 547.512 183.059 548.288 183.565 548.76C184.509 549.671 186.195 550.21 188.049 550.21C189.904 550.21 191.59 549.67 192.534 548.76C193.006 548.288 193.04 547.479 192.568 547.007Z" fill="#3C3C3C"/>
<path d="M179.891 535.576V537.532C179.891 538.206 180.464 538.779 181.138 538.779C181.813 538.779 182.386 538.206 182.386 537.532V535.576C182.386 534.902 181.813 534.329 181.138 534.329C180.464 534.329 179.891 534.868 179.891 535.576Z" fill="#3C3C3C"/>
<path d="M196.142 537.532V535.576C196.142 534.902 195.569 534.329 194.894 534.329C194.22 534.329 193.647 534.902 193.647 535.576V537.532C193.647 538.206 194.22 538.78 194.894 538.78C195.569 538.78 196.142 538.206 196.142 537.532Z" fill="#3C3C3C"/>
<path d="M187.207 544.141C187.308 544.141 187.409 544.141 187.51 544.107L189.128 543.703C189.668 543.568 190.073 543.062 190.073 542.489L190.073 538.274C190.073 537.6 189.5 537.026 188.825 537.026C188.151 537.026 187.578 537.6 187.578 538.274V541.511L186.903 541.68C186.229 541.848 185.824 542.523 185.993 543.197C186.161 543.77 186.667 544.141 187.207 544.141Z" fill="#3C3C3C"/>
</g>
<path d="M156 542.8C156 532.719 156 527.679 157.962 523.828C159.688 520.441 162.441 517.688 165.828 515.962C169.679 514 174.719 514 184.8 514H220V541.2C220 551.281 220 556.321 218.038 560.172C216.312 563.559 213.559 566.312 210.172 568.038C206.321 570 201.281 570 191.2 570H156V542.8Z" stroke="#3C3C3C" stroke-opacity="0.2"/>
<g opacity="0.75">
<path fill-rule="evenodd" clip-rule="evenodd" d="M33 448C33 443.029 37.0294 439 42 439C46.9706 439 51 443.029 51 448C51 452.971 46.9706 457 42 457C37.0294 457 33 452.971 33 448Z" fill="white"/>
<path d="M40.9152 449.682L45.7537 444.843C46.0446 444.552 46.5161 444.552 46.807 444.843C47.0978 445.134 47.0978 445.606 46.807 445.896L40.9152 451.788L37.4932 448.366C37.2024 448.075 37.2024 447.604 37.4932 447.313C37.7841 447.022 38.2556 447.022 38.5465 447.313L40.9152 449.682Z" fill="#1E1E1C"/>
<rect x="32.5" y="438.5" width="19" height="19" rx="3.5" stroke="#1E1E1C"/>
<path d="M64.71 449.16C63.855 449.16 63.375 449.115 62.97 449.07V453H61.395V443.595C61.395 443.01 61.71 442.71 62.34 442.71H64.98C67.365 442.71 68.565 444.165 68.565 445.92C68.565 447.12 67.92 448.26 66.675 448.8C67.59 449.835 68.805 451.905 69.36 453H67.485C67.17 452.28 66.045 450.285 65.055 449.145C64.92 449.16 64.83 449.16 64.71 449.16ZM66.9 445.92C66.9 444.84 66.225 444.015 64.68 444.015H62.97V447.735C63.075 447.78 63.555 447.84 64.35 447.84C66.21 447.84 66.9 447.015 66.9 445.92ZM77.2947 448.11C77.2947 449.265 76.7247 449.97 75.1797 449.97H71.6697C71.8497 451.23 72.7347 451.935 74.2197 451.935C75.3597 451.935 76.1097 451.635 76.3647 451.47L76.8447 452.595C76.6347 452.715 75.5697 453.24 74.0247 453.24C71.7897 453.24 70.0347 451.965 70.0347 449.355C70.0347 446.91 71.6697 445.23 73.9797 445.23C76.1397 445.23 77.2947 446.445 77.2947 448.11ZM75.8097 447.96C75.8097 447.195 75.2997 446.37 73.9647 446.37C72.4347 446.37 71.6697 447.735 71.6247 448.875H74.7897C75.5097 448.875 75.8097 448.665 75.8097 447.96ZM82.1267 445.23C83.4017 445.23 84.4517 445.665 85.0517 446.625C85.5767 445.785 86.5067 445.23 87.7667 445.23C89.5067 445.23 90.8717 446.175 90.8717 448.08V453H89.3117V448.605C89.3117 447.165 88.6667 446.535 87.5267 446.535C86.4017 446.535 85.6367 447.24 85.6367 448.8V453H84.0917V448.74C84.0917 447.195 83.3567 446.535 82.0967 446.535C81.1217 446.535 80.5817 446.79 80.4467 446.865V453H78.9017V445.89C79.0667 445.815 80.2517 445.23 82.1267 445.23ZM99.7857 448.11C99.7857 449.265 99.2157 449.97 97.6707 449.97H94.1607C94.3407 451.23 95.2257 451.935 96.7107 451.935C97.8507 451.935 98.6007 451.635 98.8557 451.47L99.3357 452.595C99.1257 452.715 98.0607 453.24 96.5157 453.24C94.2807 453.24 92.5257 451.965 92.5257 449.355C92.5257 446.91 94.1607 445.23 96.4707 445.23C98.6307 445.23 99.7857 446.445 99.7857 448.11ZM98.3007 447.96C98.3007 447.195 97.7907 446.37 96.4557 446.37C94.9257 446.37 94.1607 447.735 94.1157 448.875H97.2807C98.0007 448.875 98.3007 448.665 98.3007 447.96ZM104.618 445.23C105.893 445.23 106.943 445.665 107.543 446.625C108.068 445.785 108.998 445.23 110.258 445.23C111.998 445.23 113.363 446.175 113.363 448.08V453H111.803V448.605C111.803 447.165 111.158 446.535 110.018 446.535C108.893 446.535 108.128 447.24 108.128 448.8V453H106.583V448.74C106.583 447.195 105.848 446.535 104.588 446.535C103.613 446.535 103.073 446.79 102.938 446.865V453H101.393V445.89C101.558 445.815 102.743 445.23 104.618 445.23ZM121.332 449.19C121.332 447.555 120.552 446.55 119.112 446.55C117.672 446.55 116.952 447.63 116.952 449.025V451.83C117.117 451.89 117.582 451.995 118.437 451.995C120.477 451.995 121.332 450.84 121.332 449.19ZM115.407 453V442.65C115.407 442.185 115.677 441.945 116.232 441.945C116.547 441.945 116.847 442.05 116.952 442.095V446.445C117.117 446.205 117.807 445.26 119.442 445.26C121.422 445.26 122.952 446.655 122.952 449.07C122.952 451.59 121.407 453.21 118.242 453.21C116.682 453.21 115.542 453.03 115.407 453ZM131.486 448.11C131.486 449.265 130.916 449.97 129.371 449.97H125.861C126.041 451.23 126.926 451.935 128.411 451.935C129.551 451.935 130.301 451.635 130.556 451.47L131.036 452.595C130.826 452.715 129.761 453.24 128.216 453.24C125.981 453.24 124.226 451.965 124.226 449.355C124.226 446.91 125.861 445.23 128.171 445.23C130.331 445.23 131.486 446.445 131.486 448.11ZM130.001 447.96C130.001 447.195 129.491 446.37 128.156 446.37C126.626 446.37 125.861 447.735 125.816 448.875H128.981C129.701 448.875 130.001 448.665 130.001 447.96ZM136.273 446.535C135.268 446.535 134.758 446.865 134.638 446.94V453H133.093V446.145C133.198 446.04 134.383 445.245 136.153 445.245C136.948 445.245 137.443 445.35 137.743 445.515C138.028 445.65 138.163 445.86 138.163 446.13C138.163 446.505 137.953 446.775 137.833 446.88C137.638 446.745 136.993 446.535 136.273 446.535ZM145.494 445.23C146.769 445.23 147.819 445.665 148.419 446.625C148.944 445.785 149.874 445.23 151.134 445.23C152.874 445.23 154.239 446.175 154.239 448.08V453H152.679V448.605C152.679 447.165 152.034 446.535 150.894 446.535C149.769 446.535 149.004 447.24 149.004 448.8V453H147.459V448.74C147.459 447.195 146.724 446.535 145.464 446.535C144.489 446.535 143.949 446.79 143.814 446.865V453H142.269V445.89C142.434 445.815 143.619 445.23 145.494 445.23ZM163.153 448.11C163.153 449.265 162.583 449.97 161.038 449.97H157.528C157.708 451.23 158.593 451.935 160.078 451.935C161.218 451.935 161.968 451.635 162.223 451.47L162.703 452.595C162.493 452.715 161.428 453.24 159.883 453.24C157.648 453.24 155.893 451.965 155.893 449.355C155.893 446.91 157.528 445.23 159.838 445.23C161.998 445.23 163.153 446.445 163.153 448.11ZM161.668 447.96C161.668 447.195 161.158 446.37 159.823 446.37C158.293 446.37 157.528 447.735 157.483 448.875H160.648C161.368 448.875 161.668 448.665 161.668 447.96Z" fill="#3C3C3C"/>
<path d="M225.799 452H224.179V442.595C224.179 442.01 224.479 441.695 225.124 441.695H229.804C230.314 441.695 230.569 441.935 230.569 442.4C230.569 442.745 230.434 443.015 230.374 443.12H225.799V446.18H229.369C229.864 446.18 230.119 446.42 230.119 446.885C230.119 447.23 229.984 447.5 229.924 447.605H225.799V452ZM239.306 448.235C239.306 450.515 237.671 452.24 235.316 452.24C232.946 452.24 231.311 450.515 231.311 448.235C231.311 445.955 232.946 444.23 235.316 444.23C237.671 444.23 239.306 445.955 239.306 448.235ZM237.701 448.235C237.701 446.63 236.801 445.49 235.316 445.49C233.816 445.49 232.916 446.63 232.916 448.235C232.916 449.84 233.816 450.98 235.316 450.98C236.801 450.98 237.701 449.84 237.701 448.235ZM244.148 445.535C243.143 445.535 242.633 445.865 242.513 445.94V452H240.968V445.145C241.073 445.04 242.258 444.245 244.028 444.245C244.823 444.245 245.318 444.35 245.618 444.515C245.903 444.65 246.038 444.86 246.038 445.13C246.038 445.505 245.828 445.775 245.708 445.88C245.513 445.745 244.868 445.535 244.148 445.535ZM253.799 447.905C253.799 449.045 253.334 449.9 252.569 450.545C253.649 451.145 253.829 452.015 253.829 452.51C253.829 454.13 252.344 455.15 250.214 455.15C247.934 455.15 246.749 454.34 246.629 454.22L247.274 453.065C247.469 453.23 248.444 453.89 250.049 453.89C251.249 453.89 252.179 453.47 252.179 452.435C252.179 452.06 251.969 451.535 251.324 451.235C251.009 451.355 250.454 451.445 250.079 451.445C247.919 451.445 246.359 449.93 246.359 447.83C246.359 445.715 247.964 444.23 250.079 444.23C250.559 444.23 251.024 444.305 251.444 444.47H253.784C254.309 444.47 254.489 444.71 254.489 445.115C254.489 445.4 254.354 445.64 254.294 445.715H252.944C253.589 446.3 253.799 447.185 253.799 447.905ZM252.239 447.83C252.239 446.39 251.384 445.445 250.079 445.445C248.759 445.445 247.904 446.405 247.904 447.83C247.904 449.27 248.759 450.23 250.079 450.23C251.384 450.23 252.239 449.27 252.239 447.83ZM263.447 448.235C263.447 450.515 261.812 452.24 259.457 452.24C257.087 452.24 255.452 450.515 255.452 448.235C255.452 445.955 257.087 444.23 259.457 444.23C261.812 444.23 263.447 445.955 263.447 448.235ZM261.842 448.235C261.842 446.63 260.942 445.49 259.457 445.49C257.957 445.49 257.057 446.63 257.057 448.235C257.057 449.84 257.957 450.98 259.457 450.98C260.942 450.98 261.842 449.84 261.842 448.235ZM269.565 445.76H267.105V449.63C267.105 450.635 267.57 450.935 268.335 450.935C268.98 450.935 269.475 450.59 269.58 450.515L270.18 451.475C270.015 451.61 269.31 452.21 268.005 452.21C266.28 452.21 265.545 451.19 265.545 449.825V445.76H264.855C264.375 445.76 264.135 445.55 264.135 445.115C264.135 444.8 264.27 444.545 264.315 444.47H265.545V442.835C265.545 442.355 265.845 442.13 266.37 442.13C266.715 442.13 267 442.235 267.105 442.28V444.47H269.025C269.49 444.47 269.73 444.68 269.73 445.115C269.73 445.43 269.61 445.685 269.565 445.76ZM279.914 445.04C279.914 443.915 279.359 443.015 277.739 443.015H275.879V446.915C276.059 446.975 276.614 447.08 277.289 447.08C279.254 447.08 279.914 446.15 279.914 445.04ZM275.249 441.695H278.099C280.439 441.695 281.579 443.24 281.579 445.04C281.579 446.765 280.409 448.4 277.589 448.4C276.629 448.4 276.044 448.28 275.879 448.235V452H274.289V442.595C274.289 442.01 274.604 441.695 275.249 441.695ZM287.889 450.965V448.475C287.784 448.445 286.824 448.355 286.119 448.355C284.619 448.355 284.019 448.805 284.019 449.765C284.019 450.575 284.454 451.13 286.104 451.13C287.124 451.13 287.694 451.025 287.889 450.965ZM285.624 445.43C284.454 445.43 283.869 445.88 283.584 446.075C283.359 445.94 283.179 445.67 283.179 445.325C283.179 444.98 283.389 444.77 283.704 444.605C284.049 444.44 284.634 444.26 285.534 444.26C287.934 444.26 289.419 445.1 289.419 447.47V451.955C289.059 452.03 287.889 452.21 286.044 452.21C283.044 452.21 282.474 451.04 282.474 449.795C282.474 448.235 283.359 447.305 285.954 447.305C286.854 447.305 287.664 447.35 287.904 447.395V447.32C287.904 447.155 287.889 447.005 287.859 446.87C287.694 445.925 287.019 445.43 285.624 445.43ZM294.384 445.43C293.079 445.43 292.599 445.805 292.599 446.465C292.599 447.005 293.064 447.26 293.979 447.395L295.269 447.575C297.189 447.86 297.924 448.58 297.924 449.765C297.924 451.205 296.814 452.21 294.519 452.21C292.374 452.21 291.129 451.415 290.964 451.28L291.579 450.2C291.744 450.32 292.839 450.995 294.504 450.995C295.644 450.995 296.289 450.71 296.289 449.99C296.289 449.405 295.914 449.135 294.729 448.97L293.694 448.82C292.014 448.58 291.054 447.935 291.054 446.6C291.054 445.37 291.864 444.26 294.309 444.26C295.689 444.26 296.469 444.545 296.874 444.74C297.279 444.95 297.489 445.205 297.489 445.505C297.489 445.91 297.219 446.15 296.994 446.285C296.904 446.195 296.124 445.43 294.384 445.43ZM302.393 445.43C301.088 445.43 300.608 445.805 300.608 446.465C300.608 447.005 301.073 447.26 301.988 447.395L303.278 447.575C305.198 447.86 305.933 448.58 305.933 449.765C305.933 451.205 304.823 452.21 302.528 452.21C300.383 452.21 299.138 451.415 298.973 451.28L299.588 450.2C299.753 450.32 300.848 450.995 302.513 450.995C303.653 450.995 304.298 450.71 304.298 449.99C304.298 449.405 303.923 449.135 302.738 448.97L301.703 448.82C300.023 448.58 299.063 447.935 299.063 446.6C299.063 445.37 299.873 444.26 302.318 444.26C303.698 444.26 304.478 444.545 304.883 444.74C305.288 444.95 305.498 445.205 305.498 445.505C305.498 445.91 305.228 446.15 305.003 446.285C304.913 446.195 304.133 445.43 302.393 445.43ZM306.797 446.105C306.692 445.82 306.572 445.49 306.572 445.205C306.572 444.8 306.782 444.47 307.382 444.47C307.787 444.47 308.012 444.59 308.057 444.605C308.612 446.72 309.452 449.24 309.887 450.47C310.292 449.27 310.787 447.65 311.462 445.25C311.627 444.665 311.897 444.47 312.452 444.47C312.872 444.47 313.127 444.59 313.202 444.65C313.802 446.78 314.552 449.225 314.957 450.47C315.437 449.195 316.307 446.405 316.667 445.145C316.802 444.71 317.012 444.47 317.567 444.47C318.032 444.47 318.332 444.71 318.377 444.755C318.047 446.09 316.712 449.72 315.752 452H314.087C313.757 451.1 312.722 447.935 312.362 446.585C312.002 448.01 311.012 451.145 310.682 452H309.032C308.072 449.66 306.917 446.495 306.797 446.105ZM327 448.235C327 450.515 325.365 452.24 323.01 452.24C320.64 452.24 319.005 450.515 319.005 448.235C319.005 445.955 320.64 444.23 323.01 444.23C325.365 444.23 327 445.955 327 448.235ZM325.395 448.235C325.395 446.63 324.495 445.49 323.01 445.49C321.51 445.49 320.61 446.63 320.61 448.235C320.61 449.84 321.51 450.98 323.01 450.98C324.495 450.98 325.395 449.84 325.395 448.235ZM331.843 445.535C330.838 445.535 330.328 445.865 330.208 445.94V452H328.663V445.145C328.768 445.04 329.953 444.245 331.723 444.245C332.518 444.245 333.013 444.35 333.313 444.515C333.598 444.65 333.733 444.86 333.733 445.13C333.733 445.505 333.523 445.775 333.403 445.88C333.208 445.745 332.563 445.535 331.843 445.535ZM335.851 448.19C335.851 449.84 336.721 450.995 338.731 450.995C339.616 450.995 340.051 450.89 340.216 450.83V448.025C340.216 446.63 339.496 445.55 338.071 445.55C336.616 445.55 335.851 446.555 335.851 448.19ZM341.776 441.095V452C341.626 452.045 340.501 452.21 338.941 452.21C335.746 452.21 334.231 450.59 334.231 448.07C334.231 445.655 335.746 444.26 337.726 444.26C339.361 444.26 340.051 445.205 340.216 445.445V441.65C340.216 441.185 340.486 440.945 341.041 440.945C341.386 440.945 341.671 441.05 341.776 441.095Z" fill="#3C3C3C"/>
</g>
<path d="M89.42 728.04C90.035 728.835 92.855 732.99 94.43 735.54V728.46C94.43 727.935 94.745 727.695 95.27 727.695C95.63 727.695 95.93 727.815 96.035 727.875V738H94.34C92.84 735.705 90.155 731.505 88.97 729.9V738H87.38V728.55C87.38 728.13 87.725 727.695 88.4 727.695C88.925 727.695 89.24 727.92 89.42 728.04ZM105.511 733.11C105.511 734.265 104.941 734.97 103.396 734.97H99.8861C100.066 736.23 100.951 736.935 102.436 736.935C103.576 736.935 104.326 736.635 104.581 736.47L105.061 737.595C104.851 737.715 103.786 738.24 102.241 738.24C100.006 738.24 98.2511 736.965 98.2511 734.355C98.2511 731.91 99.8861 730.23 102.196 730.23C104.356 730.23 105.511 731.445 105.511 733.11ZM104.026 732.96C104.026 732.195 103.516 731.37 102.181 731.37C100.651 731.37 99.8861 732.735 99.8411 733.875H103.006C103.726 733.875 104.026 733.665 104.026 732.96ZM106.693 732.105C106.588 731.82 106.468 731.49 106.468 731.205C106.468 730.8 106.678 730.47 107.278 730.47C107.683 730.47 107.908 730.59 107.953 730.605C108.508 732.72 109.348 735.24 109.783 736.47C110.188 735.27 110.683 733.65 111.358 731.25C111.523 730.665 111.793 730.47 112.348 730.47C112.768 730.47 113.023 730.59 113.098 730.65C113.698 732.78 114.448 735.225 114.853 736.47C115.333 735.195 116.203 732.405 116.563 731.145C116.698 730.71 116.908 730.47 117.463 730.47C117.928 730.47 118.228 730.71 118.273 730.755C117.943 732.09 116.608 735.72 115.648 738H113.983C113.653 737.1 112.618 733.935 112.258 732.585C111.898 734.01 110.908 737.145 110.578 738H108.928C107.968 735.66 106.813 732.495 106.693 732.105ZM127.764 731.76H125.304V735.63C125.304 736.635 125.769 736.935 126.534 736.935C127.179 736.935 127.674 736.59 127.779 736.515L128.379 737.475C128.214 737.61 127.509 738.21 126.204 738.21C124.479 738.21 123.744 737.19 123.744 735.825V731.76H123.054C122.574 731.76 122.334 731.55 122.334 731.115C122.334 730.8 122.469 730.545 122.514 730.47H123.744V728.835C123.744 728.355 124.044 728.13 124.569 728.13C124.914 728.13 125.199 728.235 125.304 728.28V730.47H127.224C127.689 730.47 127.929 730.68 127.929 731.115C127.929 731.43 127.809 731.685 127.764 731.76ZM137.125 734.235C137.125 736.515 135.49 738.24 133.135 738.24C130.765 738.24 129.13 736.515 129.13 734.235C129.13 731.955 130.765 730.23 133.135 730.23C135.49 730.23 137.125 731.955 137.125 734.235ZM135.52 734.235C135.52 732.63 134.62 731.49 133.135 731.49C131.635 731.49 130.735 732.63 130.735 734.235C130.735 735.84 131.635 736.98 133.135 736.98C134.62 736.98 135.52 735.84 135.52 734.235ZM149.121 729.87C148.761 729.435 147.891 728.715 146.256 728.715C144.636 728.715 144.081 729.465 144.081 730.305C144.081 731.19 144.666 731.595 145.926 731.91L147.186 732.225C149.136 732.705 150.276 733.455 150.276 735.135C150.276 736.965 149.121 738.255 146.361 738.255C143.916 738.255 142.566 737.265 142.281 737.025L143.031 735.87C143.361 736.11 144.456 736.98 146.331 736.98C147.966 736.98 148.611 736.35 148.611 735.345C148.611 734.325 147.786 733.965 146.706 733.68L145.371 733.335C143.871 732.945 142.476 732.195 142.476 730.455C142.476 728.91 143.466 727.44 146.226 727.44C148.101 727.44 148.986 727.95 149.301 728.175C149.646 728.415 149.781 728.7 149.781 728.94C149.781 729.42 149.316 729.75 149.121 729.87ZM153.163 738H151.543C152.788 734.64 154.498 730.545 155.383 728.655C155.788 727.77 156.163 727.5 156.823 727.5C157.438 727.5 157.723 727.755 157.888 727.92C158.968 729.78 161.488 736.38 162.088 738H160.348C160.153 737.55 159.703 736.29 159.343 735.33H154.168C153.703 736.47 153.358 737.46 153.163 738ZM156.778 729.03C156.343 729.945 155.473 731.985 154.708 733.95H158.803C158.083 732.045 157.138 729.705 156.778 729.03ZM163.728 738V728.46C163.728 727.935 164.043 727.695 164.583 727.695C164.928 727.695 165.243 727.815 165.348 727.875V738H163.728ZM168.108 738V728.595C168.108 728.01 168.408 727.695 169.053 727.695H171.933C174.288 727.695 175.293 728.925 175.293 730.365C175.293 731.73 174.288 732.465 173.883 732.63C174.918 732.915 175.788 733.815 175.788 735.15C175.788 736.35 175.068 738 172.323 738H168.108ZM173.658 730.485C173.658 729.585 173.073 729.015 171.768 729.015H169.698V732.06H171.828C173.103 732.06 173.658 731.37 173.658 730.485ZM174.123 735.045C174.123 734.145 173.538 733.38 172.218 733.38H169.698V736.68H172.203C173.523 736.68 174.123 736.005 174.123 735.045ZM180.643 728.67C178.993 728.67 178.408 729.84 178.333 730.08C177.748 730.005 177.463 729.72 177.463 729.255C177.463 728.955 177.613 727.44 180.778 727.44C183.358 727.44 184.348 728.85 184.348 730.29C184.348 731.715 183.598 732.405 182.848 733.005C181.768 733.845 181.258 733.98 181.258 734.895H179.713C179.713 733.53 180.178 733.065 181.123 732.51C182.158 731.91 182.743 731.34 182.743 730.395C182.743 729.48 182.158 728.67 180.643 728.67ZM181.573 737.16C181.573 737.76 181.093 738.225 180.493 738.225C179.893 738.225 179.398 737.76 179.398 737.16C179.398 736.545 179.893 736.065 180.493 736.065C181.093 736.065 181.573 736.545 181.573 737.16Z" fill="#1E1E1E" fill-opacity="0.5"/>
<path d="M193.63 734.16C192.775 734.16 192.295 734.115 191.89 734.07V738H190.315V728.595C190.315 728.01 190.63 727.71 191.26 727.71H193.9C196.285 727.71 197.485 729.165 197.485 730.92C197.485 732.12 196.84 733.26 195.595 733.8C196.51 734.835 197.725 736.905 198.28 738H196.405C196.09 737.28 194.965 735.285 193.975 734.145C193.84 734.16 193.75 734.16 193.63 734.16ZM195.82 730.92C195.82 729.84 195.145 729.015 193.6 729.015H191.89V732.735C191.995 732.78 192.475 732.84 193.27 732.84C195.13 732.84 195.82 732.015 195.82 730.92ZM206.615 733.11C206.615 734.265 206.045 734.97 204.5 734.97H200.99C201.17 736.23 202.055 736.935 203.54 736.935C204.68 736.935 205.43 736.635 205.685 736.47L206.165 737.595C205.955 737.715 204.89 738.24 203.345 738.24C201.11 738.24 199.355 736.965 199.355 734.355C199.355 731.91 200.99 730.23 203.3 730.23C205.46 730.23 206.615 731.445 206.615 733.11ZM205.13 732.96C205.13 732.195 204.62 731.37 203.285 731.37C201.755 731.37 200.99 732.735 200.945 733.875H204.11C204.83 733.875 205.13 733.665 205.13 732.96ZM215.642 733.905C215.642 735.045 215.177 735.9 214.412 736.545C215.492 737.145 215.672 738.015 215.672 738.51C215.672 740.13 214.187 741.15 212.057 741.15C209.777 741.15 208.592 740.34 208.472 740.22L209.117 739.065C209.312 739.23 210.287 739.89 211.892 739.89C213.092 739.89 214.022 739.47 214.022 738.435C214.022 738.06 213.812 737.535 213.167 737.235C212.852 737.355 212.297 737.445 211.922 737.445C209.762 737.445 208.202 735.93 208.202 733.83C208.202 731.715 209.807 730.23 211.922 730.23C212.402 730.23 212.867 730.305 213.287 730.47H215.627C216.152 730.47 216.332 730.71 216.332 731.115C216.332 731.4 216.197 731.64 216.137 731.715H214.787C215.432 732.3 215.642 733.185 215.642 733.905ZM214.082 733.83C214.082 732.39 213.227 731.445 211.922 731.445C210.602 731.445 209.747 732.405 209.747 733.83C209.747 735.27 210.602 736.23 211.922 736.23C213.227 736.23 214.082 735.27 214.082 733.83ZM219.929 727.89C219.929 728.415 219.494 728.835 218.954 728.835C218.429 728.835 217.994 728.415 217.994 727.89C217.994 727.365 218.429 726.945 218.954 726.945C219.494 726.945 219.929 727.365 219.929 727.89ZM218.189 738V731.175C218.189 730.68 218.489 730.47 219.014 730.47C219.359 730.47 219.644 730.56 219.749 730.605V738H218.189ZM225.243 731.43C223.938 731.43 223.458 731.805 223.458 732.465C223.458 733.005 223.923 733.26 224.838 733.395L226.128 733.575C228.048 733.86 228.783 734.58 228.783 735.765C228.783 737.205 227.673 738.21 225.378 738.21C223.233 738.21 221.988 737.415 221.823 737.28L222.438 736.2C222.603 736.32 223.698 736.995 225.363 736.995C226.503 736.995 227.148 736.71 227.148 735.99C227.148 735.405 226.773 735.135 225.588 734.97L224.553 734.82C222.873 734.58 221.913 733.935 221.913 732.6C221.913 731.37 222.723 730.26 225.168 730.26C226.548 730.26 227.328 730.545 227.733 730.74C228.138 730.95 228.348 731.205 228.348 731.505C228.348 731.91 228.078 732.15 227.853 732.285C227.763 732.195 226.983 731.43 225.243 731.43ZM235.108 731.76H232.648V735.63C232.648 736.635 233.113 736.935 233.878 736.935C234.523 736.935 235.018 736.59 235.123 736.515L235.723 737.475C235.558 737.61 234.853 738.21 233.548 738.21C231.823 738.21 231.088 737.19 231.088 735.825V731.76H230.398C229.918 731.76 229.678 731.55 229.678 731.115C229.678 730.8 229.813 730.545 229.858 730.47H231.088V728.835C231.088 728.355 231.388 728.13 231.913 728.13C232.258 728.13 232.543 728.235 232.648 728.28V730.47H234.568C235.033 730.47 235.273 730.68 235.273 731.115C235.273 731.43 235.153 731.685 235.108 731.76ZM243.734 733.11C243.734 734.265 243.164 734.97 241.619 734.97H238.109C238.289 736.23 239.174 736.935 240.659 736.935C241.799 736.935 242.549 736.635 242.804 736.47L243.284 737.595C243.074 737.715 242.009 738.24 240.464 738.24C238.229 738.24 236.474 736.965 236.474 734.355C236.474 731.91 238.109 730.23 240.419 730.23C242.579 730.23 243.734 731.445 243.734 733.11ZM242.249 732.96C242.249 732.195 241.739 731.37 240.404 731.37C238.874 731.37 238.109 732.735 238.064 733.875H241.229C241.949 733.875 242.249 733.665 242.249 732.96ZM248.921 731.535C247.916 731.535 247.406 731.865 247.286 731.94V738H245.741V731.145C245.846 731.04 247.031 730.245 248.801 730.245C249.596 730.245 250.091 730.35 250.391 730.515C250.676 730.65 250.811 730.86 250.811 731.13C250.811 731.505 250.601 731.775 250.481 731.88C250.286 731.745 249.641 731.535 248.921 731.535ZM262.856 731.955V728.46C262.856 727.95 263.141 727.695 263.696 727.695C264.056 727.695 264.356 727.83 264.461 727.875V738H262.856V733.35H257.486V738H255.866V728.46C255.866 727.935 256.181 727.695 256.721 727.695C257.066 727.695 257.381 727.815 257.486 727.875V731.955H262.856ZM273.954 733.11C273.954 734.265 273.384 734.97 271.839 734.97H268.329C268.509 736.23 269.394 736.935 270.879 736.935C272.019 736.935 272.769 736.635 273.024 736.47L273.504 737.595C273.294 737.715 272.229 738.24 270.684 738.24C268.449 738.24 266.694 736.965 266.694 734.355C266.694 731.91 268.329 730.23 270.639 730.23C272.799 730.23 273.954 731.445 273.954 733.11ZM272.469 732.96C272.469 732.195 271.959 731.37 270.624 731.37C269.094 731.37 268.329 732.735 268.284 733.875H271.449C272.169 733.875 272.469 733.665 272.469 732.96ZM279.14 731.535C278.135 731.535 277.625 731.865 277.505 731.94V738H275.96V731.145C276.065 731.04 277.25 730.245 279.02 730.245C279.815 730.245 280.31 730.35 280.61 730.515C280.895 730.65 281.03 730.86 281.03 731.13C281.03 731.505 280.82 731.775 280.7 731.88C280.505 731.745 279.86 731.535 279.14 731.535ZM289.041 733.11C289.041 734.265 288.471 734.97 286.926 734.97H283.416C283.596 736.23 284.481 736.935 285.966 736.935C287.106 736.935 287.856 736.635 288.111 736.47L288.591 737.595C288.381 737.715 287.316 738.24 285.771 738.24C283.536 738.24 281.781 736.965 281.781 734.355C281.781 731.91 283.416 730.23 285.726 730.23C287.886 730.23 289.041 731.445 289.041 733.11ZM287.556 732.96C287.556 732.195 287.046 731.37 285.711 731.37C284.181 731.37 283.416 732.735 283.371 733.875H286.536C287.256 733.875 287.556 733.665 287.556 732.96Z" fill="#3C3C3C"/>
<path d="M34.38 194V176.556C34.38 175.24 35.192 174.764 36.508 174.764C37.432 174.764 38.244 175.072 38.44 175.156V190.444H47.624V194H34.38ZM64.8362 186.86C64.8362 191.088 61.7842 194.476 57.0802 194.476C52.3762 194.476 49.3242 191.088 49.3242 186.86C49.3242 182.632 52.3762 179.244 57.0802 179.244C61.7842 179.244 64.8362 182.632 64.8362 186.86ZM60.8602 186.86C60.8602 184.312 59.5442 182.352 57.0802 182.352C54.6162 182.352 53.3002 184.312 53.3002 186.86C53.3002 189.408 54.6162 191.368 57.0802 191.368C59.5442 191.368 60.8602 189.408 60.8602 186.86ZM81.8045 186.356C81.8045 188.484 80.9365 189.94 79.3965 191.172C81.4965 192.292 81.8045 194.028 81.8045 194.896C81.8045 197.92 78.8645 199.88 74.7205 199.88C70.1005 199.88 67.9725 198.368 67.7205 198.172L69.2045 195.372C69.5125 195.596 71.2485 196.828 74.1885 196.828C76.3165 196.828 77.5765 196.072 77.5765 194.616C77.5765 193.944 77.1565 193.216 76.2325 192.796C75.9245 192.88 74.8325 192.964 74.4685 192.964C70.1845 192.964 67.2165 190.136 67.2165 186.104C67.2165 182.072 70.3245 179.244 74.4685 179.244C75.4485 179.244 76.3445 179.412 77.2125 179.72H81.6925C83.0365 179.72 83.4005 180.28 83.4005 181.176C83.4005 181.876 83.0925 182.688 82.9805 182.884L80.3485 182.632C81.4685 183.668 81.8045 185.404 81.8045 186.356ZM77.8845 186.104C77.8845 183.752 76.5685 182.24 74.4685 182.24C72.3685 182.24 71.0525 183.78 71.0525 186.104C71.0525 188.428 72.3685 189.968 74.4685 189.968C76.5685 189.968 77.8845 188.428 77.8845 186.104ZM96.2026 175.492C96.2026 176.696 95.2226 177.648 93.9906 177.648C92.7866 177.648 91.8066 176.696 91.8066 175.492C91.8066 174.288 92.7866 173.364 93.9906 173.364C95.2226 173.364 96.2026 174.288 96.2026 175.492ZM92.0586 194V181.4C92.0586 180.14 92.8706 179.72 94.1026 179.72C94.9706 179.72 95.7826 179.972 95.9786 180.056V194H92.0586ZM113.772 194H109.852V185.964C109.852 183.64 108.788 182.492 106.632 182.492C105.064 182.492 104.252 182.828 103.888 183.024V194H99.9678V180.588C100.304 180.42 102.992 179.244 106.744 179.244C110.944 179.244 113.772 181.372 113.772 185.18V194Z" fill="#1E1E1C"/>
<rect x="32" y="230" width="311" height="70" rx="12" fill="#FCFCFC"/>
<path d="M52.8809 255.164C50.4336 255.164 48.957 253.688 48.957 251.541V245.136H50.1875V251.459C50.1875 252.977 51.1719 254.029 52.8809 254.029C54.5898 254.029 55.5605 252.977 55.5605 251.459V245.136H56.791V251.541C56.791 253.688 55.3281 255.164 52.8809 255.164ZM60.9062 255.137C59.2314 255.137 58.2197 254.282 58.0762 253.011L58.0693 252.949H59.2588L59.2725 253.018C59.416 253.729 59.9424 254.146 60.9131 254.146C61.877 254.146 62.4512 253.742 62.4512 253.1V253.093C62.4512 252.58 62.1846 252.293 61.3779 252.095L60.25 251.821C58.9102 251.5 58.2607 250.878 58.2607 249.853V249.846C58.2607 248.622 59.334 247.754 60.8721 247.754C62.4307 247.754 63.4219 248.663 63.5107 249.853L63.5176 249.941H62.3828L62.376 249.894C62.2803 249.203 61.7539 248.745 60.8721 248.745C60.0107 248.745 59.4775 249.162 59.4775 249.791V249.798C59.4775 250.283 59.7988 250.618 60.585 250.81L61.7129 251.083C63.1484 251.432 63.668 251.999 63.668 253.011V253.018C63.668 254.262 62.4922 255.137 60.9062 255.137ZM67.8311 255.137C65.7871 255.137 64.5566 253.708 64.5566 251.473V251.466C64.5566 249.265 65.8145 247.754 67.7559 247.754C69.6973 247.754 70.8799 249.196 70.8799 251.329V251.767H65.7598C65.7871 253.229 66.5938 254.084 67.8584 254.084C68.7607 254.084 69.3965 253.633 69.6016 253.024L69.6221 252.963H70.791L70.7773 253.031C70.5449 254.207 69.3828 255.137 67.8311 255.137ZM67.749 248.807C66.7168 248.807 65.9102 249.511 65.7803 250.837H69.6699C69.5537 249.456 68.7881 248.807 67.749 248.807ZM72.083 255V247.891H73.2725V249.094H73.2998C73.5391 248.273 74.1543 247.754 74.9541 247.754C75.1592 247.754 75.3369 247.788 75.4326 247.802V248.957C75.3369 248.923 75.084 248.889 74.7969 248.889C73.874 248.889 73.2725 249.531 73.2725 250.611V255H72.083ZM79.459 255V245.136H80.6553L86.083 252.922H86.1172V245.136H87.334V255H86.1377L80.71 247.214H80.6758V255H79.459ZM90.9365 255.137C89.5215 255.137 88.5713 254.282 88.5713 252.99V252.977C88.5713 251.767 89.5146 251.008 91.1484 250.912L93.1855 250.796V250.201C93.1855 249.333 92.6182 248.807 91.627 248.807C90.7109 248.807 90.1367 249.244 90 249.88L89.9863 249.941H88.8379L88.8447 249.866C88.9473 248.697 89.9658 247.754 91.6406 247.754C93.3223 247.754 94.375 248.663 94.375 250.085V255H93.1855V253.845H93.1582C92.7412 254.624 91.8867 255.137 90.9365 255.137ZM89.7881 252.99C89.7881 253.674 90.3486 254.104 91.2031 254.104C92.3242 254.104 93.1855 253.332 93.1855 252.3V251.719L91.2852 251.835C90.335 251.89 89.7881 252.313 89.7881 252.977V252.99ZM95.8857 255V247.891H97.0752V248.93H97.1025C97.4238 248.226 98.1348 247.754 99.0508 247.754C100.021 247.754 100.739 248.253 101.047 249.121H101.074C101.471 248.267 102.305 247.754 103.303 247.754C104.711 247.754 105.62 248.677 105.62 250.092V255H104.431V250.365C104.431 249.388 103.891 248.807 102.954 248.807C102.011 248.807 101.348 249.511 101.348 250.481V255H100.158V250.235C100.158 249.374 99.584 248.807 98.7021 248.807C97.7588 248.807 97.0752 249.552 97.0752 250.543V255H95.8857ZM110.063 255.137C108.02 255.137 106.789 253.708 106.789 251.473V251.466C106.789 249.265 108.047 247.754 109.988 247.754C111.93 247.754 113.112 249.196 113.112 251.329V251.767H107.992C108.02 253.229 108.826 254.084 110.091 254.084C110.993 254.084 111.629 253.633 111.834 253.024L111.854 252.963H113.023L113.01 253.031C112.777 254.207 111.615 255.137 110.063 255.137ZM109.981 248.807C108.949 248.807 108.143 249.511 108.013 250.837H111.902C111.786 249.456 111.021 248.807 109.981 248.807Z" fill="#9A9A9A"/>

<rect x="32.25" y="230.25" width="310.5" height="69.5" rx="11.75" stroke="#3C3C3C" stroke-opacity="0.4" stroke-width="0.5"/>
<rect x="32.5" y="334.5" width="310" height="69" rx="11.5" fill="#FCFCFC"/>
<path d="M48.957 359V349.136H52.4707C54.3232 349.136 55.6357 350.414 55.6357 352.287V352.301C55.6357 354.174 54.3232 355.479 52.4707 355.479H50.1875V359H48.957ZM52.1562 350.229H50.1875V354.386H52.1562C53.5645 354.386 54.3779 353.613 54.3779 352.314V352.301C54.3779 351.002 53.5645 350.229 52.1562 350.229ZM58.3291 359.137C56.9141 359.137 55.9639 358.282 55.9639 356.99V356.977C55.9639 355.767 56.9072 355.008 58.541 354.912L60.5781 354.796V354.201C60.5781 353.333 60.0107 352.807 59.0195 352.807C58.1035 352.807 57.5293 353.244 57.3926 353.88L57.3789 353.941H56.2305L56.2373 353.866C56.3398 352.697 57.3584 351.754 59.0332 351.754C60.7148 351.754 61.7676 352.663 61.7676 354.085V359H60.5781V357.845H60.5508C60.1338 358.624 59.2793 359.137 58.3291 359.137ZM57.1807 356.99C57.1807 357.674 57.7412 358.104 58.5957 358.104C59.7168 358.104 60.5781 357.332 60.5781 356.3V355.719L58.6777 355.835C57.7275 355.89 57.1807 356.313 57.1807 356.977V356.99ZM65.8008 359.137C64.126 359.137 63.1143 358.282 62.9707 357.011L62.9639 356.949H64.1533L64.167 357.018C64.3105 357.729 64.8369 358.146 65.8076 358.146C66.7715 358.146 67.3457 357.742 67.3457 357.1V357.093C67.3457 356.58 67.0791 356.293 66.2725 356.095L65.1445 355.821C63.8047 355.5 63.1553 354.878 63.1553 353.853V353.846C63.1553 352.622 64.2285 351.754 65.7666 351.754C67.3252 351.754 68.3164 352.663 68.4053 353.853L68.4121 353.941H67.2773L67.2705 353.894C67.1748 353.203 66.6484 352.745 65.7666 352.745C64.9053 352.745 64.3721 353.162 64.3721 353.791V353.798C64.3721 354.283 64.6934 354.618 65.4795 354.81L66.6074 355.083C68.043 355.432 68.5625 355.999 68.5625 357.011V357.018C68.5625 358.262 67.3867 359.137 65.8008 359.137ZM72.3223 359.137C70.6475 359.137 69.6357 358.282 69.4922 357.011L69.4854 356.949H70.6748L70.6885 357.018C70.832 357.729 71.3584 358.146 72.3291 358.146C73.293 358.146 73.8672 357.742 73.8672 357.1V357.093C73.8672 356.58 73.6006 356.293 72.7939 356.095L71.666 355.821C70.3262 355.5 69.6768 354.878 69.6768 353.853V353.846C69.6768 352.622 70.75 351.754 72.2881 351.754C73.8467 351.754 74.8379 352.663 74.9268 353.853L74.9336 353.941H73.7988L73.792 353.894C73.6963 353.203 73.1699 352.745 72.2881 352.745C71.4268 352.745 70.8936 353.162 70.8936 353.791V353.798C70.8936 354.283 71.2148 354.618 72.001 354.81L73.1289 355.083C74.5645 355.432 75.084 355.999 75.084 357.011V357.018C75.084 358.262 73.9082 359.137 72.3223 359.137ZM77.7295 359L75.7402 351.891H76.9229L78.3447 357.674H78.3721L79.9785 351.891H81.127L82.7402 357.674H82.7676L84.1895 351.891H85.3652L83.3828 359H82.1729L80.5664 353.497H80.5391L78.9395 359H77.7295ZM89.2891 359.137C87.3135 359.137 85.9941 357.708 85.9941 355.445V355.432C85.9941 353.169 87.3203 351.754 89.2822 351.754C91.2441 351.754 92.5771 353.162 92.5771 355.432V355.445C92.5771 357.715 91.251 359.137 89.2891 359.137ZM89.2959 358.084C90.5469 358.084 91.3604 357.113 91.3604 355.445V355.432C91.3604 353.764 90.54 352.807 89.2822 352.807C88.0449 352.807 87.2109 353.771 87.2109 355.432V355.445C87.2109 357.12 88.0381 358.084 89.2959 358.084ZM93.7803 359V351.891H94.9697V353.094H94.9971C95.2363 352.273 95.8516 351.754 96.6514 351.754C96.8564 351.754 97.0342 351.788 97.1299 351.802V352.957C97.0342 352.923 96.7812 352.889 96.4941 352.889C95.5713 352.889 94.9697 353.531 94.9697 354.611V359H93.7803ZM100.432 359.137C98.6133 359.137 97.4102 357.688 97.4102 355.445V355.438C97.4102 353.196 98.627 351.754 100.411 351.754C101.416 351.754 102.243 352.26 102.688 353.08H102.715V349.136H103.904V359H102.715V357.797H102.688C102.243 358.624 101.45 359.137 100.432 359.137ZM100.664 358.084C101.867 358.084 102.722 357.038 102.722 355.445V355.438C102.722 353.853 101.86 352.807 100.664 352.807C99.4062 352.807 98.627 353.818 98.627 355.438V355.445C98.627 357.079 99.4062 358.084 100.664 358.084Z" fill="#9A9A9A"/>

<path fill-rule="evenodd" clip-rule="evenodd" d="M315 376C313.939 376 312.922 376.421 312.172 377.172C311.421 377.922 311 378.939 311 380C311 381.061 311.421 382.078 312.172 382.828C312.922 383.579 313.939 384 315 384C316.061 384 317.078 383.579 317.828 382.828C318.579 382.078 319 381.061 319 380C319 378.939 318.579 377.922 317.828 377.172C317.078 376.421 316.061 376 315 376ZM313.586 378.586C313.961 378.211 314.47 378 315 378C315.53 378 316.039 378.211 316.414 378.586C316.789 378.961 317 379.47 317 380C317 380.53 316.789 381.039 316.414 381.414C316.039 381.789 315.53 382 315 382C314.47 382 313.961 381.789 313.586 381.414C313.211 381.039 313 380.53 313 380C313 379.47 313.211 378.961 313.586 378.586Z" fill="#1E1E1E" fill-opacity="0.3"/>
<path fill-rule="evenodd" clip-rule="evenodd" d="M315 372C310.289 372 306.355 375.279 305.041 379.716C304.986 379.901 304.986 380.099 305.041 380.284C306.355 384.721 310.289 388 315 388C319.712 388 323.645 384.721 324.959 380.284C325.014 380.099 325.014 379.901 324.959 379.716C323.645 375.279 319.712 372 315 372ZM315 386C311.362 386 308.215 383.527 307.048 380C308.215 376.473 311.362 374 315 374C318.639 374 321.785 376.473 322.952 380C321.785 383.527 318.639 386 315 386Z" fill="#1E1E1E" fill-opacity="0.3"/>
<rect x="32.5" y="334.5" width="310" height="69" rx="11.5" stroke="#3C3C3C"/>
<path d="M48.9897 107.997C48.9901 110.379 49.6928 112.708 51.0089 114.688C52.3251 116.668 54.1956 118.212 56.3839 119.123C58.5722 120.034 60.98 120.272 63.3029 119.807C65.6258 119.342 67.7593 118.195 69.4338 116.51C71.1083 114.825 72.2485 112.679 72.7102 110.343C73.1719 108.007 72.9344 105.585 72.0276 103.385C71.1209 101.184 69.5857 99.3034 67.6162 97.9804C65.6467 96.6573 63.3314 95.9513 60.9629 95.9517C59.3902 95.9517 57.833 96.2633 56.3801 96.8687C54.9272 97.4741 53.6071 98.3614 52.4952 99.48C51.3834 100.599 50.5015 101.926 49.9 103.388C49.2985 104.849 48.9892 106.416 48.9897 107.997Z" fill="#F8D03B"/>
<path d="M72.7427 87.8223L73.1343 88.2171C73.0088 88.0836 72.8757 87.952 72.7427 87.8223Z" fill="#1E1E1C"/>
<path d="M73.1152 95.7266L72.7598 96.0928C72.8849 95.9774 73.0036 95.8552 73.1152 95.7266Z" fill="#1E1E1C"/>
<path d="M87.6329 102.805L77.9166 93.0276L72.0372 98.9407L77.2149 104.142L81.046 107.999C81.046 107.999 62.5713 126.579 62.2318 126.925C61.0085 128.151 60.9819 130.367 60.9819 130.367C60.9819 130.367 60.9592 128.151 59.7548 126.934L40.9197 107.997L49.902 98.9712L44.0226 93.0582L33.5476 103.593C32.532 104.855 31.9848 106.433 32.0001 108.056C32.0153 109.679 32.592 111.247 33.6311 112.489L60.9781 139.998L87.5571 113.267C87.5571 113.267 89.8804 111.242 89.9316 108.014C89.979 104.932 87.6329 102.805 87.6329 102.805Z" fill="#1E1E1C"/>
<path d="M49.3785 96.3199L50.9584 97.9069L51.7606 98.7175C51.6029 98.4732 51.5144 98.1903 51.5046 97.8992C51.5032 97.7197 51.5428 97.5422 51.6203 97.3804C51.6933 97.2223 51.7899 97.0763 51.9067 96.9474L52.1627 96.688L60.9781 87.8204L69.9376 96.8311C70.2184 97.114 70.3865 97.4906 70.4099 97.8897C70.4122 98.2093 70.302 98.5194 70.0988 98.7652L72.7541 96.0948L73.1087 95.7286C74.0469 94.7042 74.5664 93.3617 74.5634 91.969C74.5639 90.5832 74.0522 89.2467 73.1277 88.219L72.737 87.8242L60.9781 75.9981L49.498 87.5514L48.6521 88.404C47.7455 89.3158 47.3245 90.7044 47.3245 91.9843C47.3212 93.2648 47.7588 94.5069 48.563 95.4997L49.3785 96.3199Z" fill="#1E1E1C"/>

<g opacity="0.75" clip-path="url(#clip3_1_16376)">
<path d="M331 90C329.022 90 327.089 90.5865 325.444 91.6853C323.8 92.7841 322.518 94.3459 321.761 96.1732C321.004 98.0004 320.806 100.011 321.192 101.951C321.578 103.891 322.53 105.673 323.929 107.071C325.327 108.47 327.109 109.422 329.049 109.808C330.989 110.194 333 109.996 334.827 109.239C336.654 108.482 338.216 107.2 339.315 105.556C340.414 103.911 341 101.978 341 100C341 99.4889 340.956 98.9778 340.889 98.4889C340.334 99.2674 339.6 99.9016 338.75 100.338C337.899 100.775 336.956 101.002 336 101C334.728 101 333.489 100.596 332.461 99.8463C331.434 99.0965 330.671 98.0398 330.283 96.8285C329.895 95.6171 329.901 94.3138 330.302 93.1065C330.702 91.8992 331.476 90.8503 332.511 90.1111C332.022 90.0444 331.511 90 331 90Z" fill="#3C3C3C"/>
</g>
<rect x="120" y="799" width="135" height="5" rx="2.5" fill="black"/>
<g clip-path="url(#clip4_1_16376)">

</g>




</g>
<defs>
<clipPath id="clip0_1_16376">
<rect width="375" height="812" fill="white"/>
</clipPath>
<clipPath id="clip1_1_16376">
<rect width="2404.83" height="375" fill="white" transform="translate(99 437)"/>
</clipPath>
<clipPath id="clip2_1_16376">
<rect width="2481.78" height="387" fill="white" transform="translate(99 437)"/>
</clipPath>
<clipPath id="clip3_1_16376">
<rect width="24" height="24" fill="white" transform="translate(319 88)"/>
</clipPath>
<clipPath id="clip4_1_16376">
<rect width="53.7135" height="18" fill="white" transform="translate(19.8939 14)"/>
</clipPath>
</defs>
</svg>