<svg width="140" height="140" viewBox="0 0 140 140" fill="none" xmlns="http://www.w3.org/2000/svg">
<circle cx="70.0001" cy="69.9999" r="59.195" fill="white"/>
<circle cx="70.0001" cy="69.9999" r="59.195" fill="#F54D3F" fill-opacity="0.08"/>
<circle cx="70.0001" cy="69.9999" r="59.195" stroke="#F54D3F" stroke-width="4"/>
<path d="M84.3796 79.4571C83.9891 79.0666 83.9891 78.4334 84.3796 78.0429L91.0429 71.3796C91.4334 70.9891 91.4334 70.3559 91.0429 69.9654L89.2846 68.2071C88.8941 67.8166 88.2609 67.8166 87.8704 68.2071L81.2071 74.8704C80.8166 75.2609 80.1834 75.2609 79.7929 74.8704L73.1296 68.2071C72.7391 67.8166 72.1059 67.8166 71.7154 68.2071L69.9571 69.9654C69.5666 70.3559 69.5666 70.9891 69.9571 71.3796L76.6204 78.0429C77.0109 78.4334 77.0109 79.0666 76.6204 79.4571L69.9571 86.1204C69.5666 86.5109 69.5666 87.1441 69.9571 87.5346L71.7154 89.2929C72.1059 89.6834 72.7391 89.6834 73.1296 89.2929L79.7929 82.6296C80.1834 82.2391 80.8166 82.2391 81.2071 82.6296L87.8704 89.2929C88.2609 89.6834 88.8941 89.6834 89.2846 89.2929L91.0429 87.5346C91.4334 87.1441 91.4334 86.5109 91.0429 86.1204L84.3796 79.4571Z" fill="#F54D3F"/>
<path d="M66.1833 49.5L66.1804 49.5C61.7122 49.513 57.4308 51.2937 54.2713 54.4532C51.1119 57.6126 49.3312 61.894 49.3182 66.3622V66.3636V73.6111L45.2626 69.5555L44.9091 69.202L44.5555 69.5555L42.6464 71.4646L42.2929 71.8182L42.6464 72.1717L50.8283 80.3536L51.1818 80.7071L51.5354 80.3536L59.7172 72.1717L60.0707 71.8182L59.7172 71.4646L57.8081 69.5555L57.4545 69.202L57.101 69.5555L53.0455 73.6111V66.3636C53.0455 62.8797 54.4295 59.5384 56.893 57.0748C59.3566 54.6113 62.6978 53.2273 66.1818 53.2273C69.6658 53.2273 73.0071 54.6113 75.4706 57.0748C77.9342 59.5384 79.3182 62.8797 79.3182 66.3636V70.4545V70.9545H79.8182H82.5455H83.0455V70.4545L83.0455 66.3636L83.0454 66.3622C83.0325 61.894 81.2518 57.6126 78.0923 54.4532C74.9328 51.2937 70.6514 49.513 66.1833 49.5Z" fill="#F54D3F" stroke="#F54D3F"/>
</svg>
