<svg width="46" height="46" viewBox="0 0 46 46" fill="none" xmlns="http://www.w3.org/2000/svg">
<rect x="2" y="2" width="42" height="42" rx="21" fill="#FFDD45"/>
<path fill-rule="evenodd" clip-rule="evenodd" d="M23.0001 15.4648C23.4624 15.4648 23.8373 15.8397 23.8373 16.3021V29.6974C23.8373 30.1598 23.4624 30.5346 23.0001 30.5346C22.5377 30.5346 22.1628 30.1598 22.1628 29.6974V16.3021C22.1628 15.8397 22.5377 15.4648 23.0001 15.4648Z" fill="#343D45"/>
<path fill-rule="evenodd" clip-rule="evenodd" d="M15.4653 22.9997C15.4653 22.5373 15.8402 22.1625 16.3025 22.1625H29.6979C30.1603 22.1625 30.5351 22.5373 30.5351 22.9997C30.5351 23.4621 30.1603 23.8369 29.6979 23.8369H16.3025C15.8402 23.8369 15.4653 23.4621 15.4653 22.9997Z" fill="#343D45"/>
<rect x="10" y="18" width="4" height="2.5" fill="#FFDD45"/>
<rect x="2" y="2" width="42" height="42" rx="21" stroke="#FFF8DD" stroke-width="4"/>
</svg>
