<svg width="52" height="52" viewBox="0 0 52 52" fill="none" xmlns="http://www.w3.org/2000/svg">
<rect x="2" y="2" width="48" height="48" rx="24" fill="#FFDD45"/>
<path fill-rule="evenodd" clip-rule="evenodd" d="M26 15.6744C27.0807 15.6744 28.121 15.8402 29.098 16.147C29.5391 16.2855 30.009 16.0402 30.1476 15.5991C30.2861 15.158 30.0408 14.6881 29.5997 14.5495C28.4623 14.1923 27.2528 14 26 14C19.3726 14 14 19.3726 14 26C14 32.6274 19.3726 38 26 38C32.6274 38 38 32.6274 38 26C38 22.6433 36.6207 19.6073 34.4 17.4303C34.0699 17.1066 33.5398 17.1119 33.2161 17.4421C32.8924 17.7723 32.8977 18.3023 33.2279 18.626C35.1405 20.501 36.3256 23.1114 36.3256 26C36.3256 31.7027 31.7027 36.3256 26 36.3256C20.2973 36.3256 15.6744 31.7027 15.6744 26C15.6744 20.2973 20.2973 15.6744 26 15.6744Z" fill="#343D45"/>
<path fill-rule="evenodd" clip-rule="evenodd" d="M26.0001 18.4648C26.4624 18.4648 26.8373 18.8397 26.8373 19.3021V32.6974C26.8373 33.1598 26.4624 33.5346 26.0001 33.5346C25.5377 33.5346 25.1628 33.1598 25.1628 32.6974V19.3021C25.1628 18.8397 25.5377 18.4648 26.0001 18.4648Z" fill="#343D45"/>
<path fill-rule="evenodd" clip-rule="evenodd" d="M18.4651 25.9997C18.4651 25.5373 18.8399 25.1625 19.3023 25.1625H32.6976C33.16 25.1625 33.5349 25.5373 33.5349 25.9997C33.5349 26.4621 33.16 26.8369 32.6976 26.8369H19.3023C18.8399 26.8369 18.4651 26.4621 18.4651 25.9997Z" fill="#343D45"/>
<rect x="2" y="2" width="48" height="48" rx="24" stroke="#F0F0F0" stroke-width="4"/>
</svg>
