<svg width="25" height="24" viewBox="0 0 25 24" fill="none" xmlns="http://www.w3.org/2000/svg">
<path fill-rule="evenodd" clip-rule="evenodd" d="M20.0865 7.4135C20.6378 7.96482 20.6378 8.8587 20.0865 9.41003L13.4983 15.9983C12.9469 16.5496 12.0531 16.5496 11.5017 15.9983L8.20761 12.7042C7.65629 12.1528 7.65629 11.2589 8.20761 10.7076C8.75894 10.1563 9.65282 10.1563 10.2042 10.7076L12.5 13.0035L18.09 7.4135C18.6413 6.86217 19.5352 6.86217 20.0865 7.4135ZM7.73356 10.2336C7.18223 10.7849 6.28835 10.7849 5.73703 10.2336L4.9135 9.41003C4.36217 8.8587 4.36217 7.96482 4.9135 7.4135C5.46483 6.86217 6.3587 6.86217 6.91003 7.4135L7.73356 8.23703C8.28489 8.78835 8.28489 9.68223 7.73356 10.2336Z" fill="#93989D"/>
</svg>
