<svg width="24" height="24" viewBox="0 0 24 24" fill="none" xmlns="http://www.w3.org/2000/svg">
<path fill-rule="evenodd" clip-rule="evenodd" d="M15.5865 19.5865C15.0352 20.1378 14.1413 20.1378 13.59 19.5865L7.00173 12.9983C6.4504 12.4469 6.4504 11.5531 7.00173 11.0017L10.2958 7.70761C10.8472 7.15629 11.7411 7.15629 12.2924 7.70761C12.8437 8.25894 12.8437 9.15282 12.2924 9.70415L9.99654 12L15.5865 17.59C16.1378 18.1413 16.1378 19.0352 15.5865 19.5865ZM12.7664 7.23356C12.2151 6.68223 12.2151 5.78835 12.7664 5.23703L13.59 4.4135C14.1413 3.86217 15.0352 3.86217 15.5865 4.4135C16.1378 4.96483 16.1378 5.8587 15.5865 6.41003L14.763 7.23356C14.2116 7.78489 13.3178 7.78489 12.7664 7.23356Z" fill="#0E1215"/>
</svg>
