<svg width="42" height="42" viewBox="0 0 42 42" fill="none" xmlns="http://www.w3.org/2000/svg">
<rect x="1.5" y="1.5" width="39" height="39" rx="19.5" fill="#FDEFBA"/>
<path fill-rule="evenodd" clip-rule="evenodd" d="M15.3101 16.6899C14.8966 16.2764 14.8966 15.606 15.3101 15.1925L20.2513 10.2513C20.6648 9.8378 21.3352 9.8378 21.7487 10.2513L24.2193 12.7219C24.6328 13.1354 24.6328 13.8058 24.2193 14.2193C23.8058 14.6328 23.1354 14.6328 22.7219 14.2193L21 12.4974L16.8075 16.6899C16.394 17.1034 15.7236 17.1034 15.3101 16.6899ZM24.5748 14.5748C24.9883 14.1613 25.6587 14.1613 26.0722 14.5748L26.6899 15.1925C27.1034 15.606 27.1034 16.2764 26.6899 16.6899C26.2764 17.1034 25.606 17.1034 25.1925 16.6899L24.5748 16.0722C24.1613 15.6587 24.1613 14.9883 24.5748 14.5748Z" fill="#6B7278"/>
<path opacity="0.75" fill-rule="evenodd" clip-rule="evenodd" d="M16.2584 22.7416C15.9139 22.397 15.9139 21.8383 16.2584 21.4937L20.3761 17.3761C20.7207 17.0315 21.2793 17.0315 21.6239 17.3761L23.6827 19.4349C24.0273 19.7795 24.0273 20.3382 23.6827 20.6827C23.3382 21.0273 22.7795 21.0273 22.4349 20.6827L21 19.2478L17.5063 22.7416C17.1617 23.0861 16.603 23.0861 16.2584 22.7416ZM23.979 20.979C24.3236 20.6344 24.8823 20.6344 25.2269 20.979L25.7416 21.4937C26.0861 21.8383 26.0861 22.397 25.7416 22.7416C25.397 23.0861 24.8383 23.0861 24.4937 22.7416L23.979 22.2269C23.6344 21.8823 23.6344 21.3236 23.979 20.979Z" fill="#A8ACB0"/>
<path opacity="0.3" fill-rule="evenodd" clip-rule="evenodd" d="M16.2584 29.7416C15.9139 29.397 15.9139 28.8383 16.2584 28.4937L20.3761 24.3761C20.7207 24.0315 21.2793 24.0315 21.6239 24.3761L23.6827 26.4349C24.0273 26.7795 24.0273 27.3382 23.6827 27.6827C23.3382 28.0273 22.7795 28.0273 22.4349 27.6827L21 26.2478L17.5063 29.7416C17.1617 30.0861 16.603 30.0861 16.2584 29.7416ZM23.979 27.979C24.3236 27.6344 24.8823 27.6344 25.2269 27.979L25.7416 28.4937C26.0861 28.8383 26.0861 29.397 25.7416 29.7416C25.397 30.0861 24.8383 30.0861 24.4937 29.7416L23.979 29.2269C23.6344 28.8823 23.6344 28.3236 23.979 27.979Z" fill="#A8ACB0"/>
<rect x="1.5" y="1.5" width="39" height="39" rx="19.5" stroke="white" stroke-width="3"/>
</svg>
