<svg width="16" height="16" viewBox="0 0 16 16" fill="none" xmlns="http://www.w3.org/2000/svg">
<path fill-rule="evenodd" clip-rule="evenodd" d="M15.9507 14.821C15.9631 14.5082 15.8394 14.2075 15.6166 13.9789L10.6549 9.14284L9.49175 8.02405L15.6166 2.06917C15.7404 1.94887 15.8394 1.81654 15.9012 1.67218C15.9631 1.52782 16.0002 1.37143 16.0002 1.21504C16.0002 1.04661 15.9755 0.890224 15.9012 0.745863C15.8394 0.601503 15.7527 0.457142 15.6414 0.348872C15.5176 0.240601 15.3815 0.144361 15.2331 0.0842104C15.0846 0.0240601 14.9113 0 14.7505 0C14.5896 0 14.4288 0.0360902 14.2679 0.0962404C14.1194 0.156391 13.9833 0.252631 13.872 0.360902L8.01865 6.05175L2.12824 0.324839C1.89315 0.108298 1.58381 2.76726e-05 1.2621 2.76442e-05C0.940388 2.76157e-05 0.63105 0.132358 0.408327 0.348899C0.173231 0.57747 0.0494952 0.866192 0.0494952 1.17897C0.0371217 1.49175 0.160857 1.79251 0.38358 2.02108L5.34535 6.85716L6.50846 7.97595L0.383579 13.9308C0.259844 14.0511 0.160856 14.1835 0.0989885 14.3278C0.037121 14.4722 0 14.6286 0 14.785C0 14.9534 0.0247474 15.1098 0.0989884 15.2541C0.160856 15.3985 0.24747 15.5429 0.358832 15.6511C0.482567 15.7594 0.618675 15.8556 0.767157 15.9158C0.915639 15.9759 1.08887 16 1.24972 16C1.41058 16 1.57144 15.9639 1.73229 15.9038C1.88077 15.8436 2.01688 15.7474 2.12824 15.6391L7.98156 9.94825L13.872 15.6752C14.1071 15.8917 14.4164 16 14.7381 16C15.0598 16 15.3692 15.8676 15.5919 15.6511C15.827 15.4225 15.9507 15.1338 15.9507 14.821Z" fill="#4F4F4F"/>
</svg>
