<svg width="30" height="30" viewBox="0 0 30 30" fill="none" xmlns="http://www.w3.org/2000/svg">
<rect x="1.5" y="1.5" width="27" height="27" rx="13.5" fill="#FFDD45"/>
<path fill-rule="evenodd" clip-rule="evenodd" d="M19.7416 13.2584C20.0861 13.603 20.0861 14.1617 19.7416 14.5063L15.6239 18.6239C15.2793 18.9685 14.7207 18.9685 14.3761 18.6239L12.3173 16.5651C11.9727 16.2205 11.9727 15.6618 12.3173 15.3173C12.6618 14.9727 13.2205 14.9727 13.5651 15.3173L15 16.7522L18.4937 13.2584C18.8383 12.9139 19.397 12.9139 19.7416 13.2584ZM12.021 15.021C11.6764 15.3656 11.1177 15.3656 10.7731 15.021L10.2584 14.5063C9.91385 14.1617 9.91385 13.603 10.2584 13.2584C10.603 12.9139 11.1617 12.9139 11.5063 13.2584L12.021 13.7731C12.3656 14.1177 12.3656 14.6764 12.021 15.021Z" fill="#393939"/>
<rect x="1.5" y="1.5" width="27" height="27" rx="13.5" stroke="white" stroke-width="3"/>
</svg>
