<svg width="25" height="24" viewBox="0 0 25 24" fill="none" xmlns="http://www.w3.org/2000/svg">
<path fill-rule="evenodd" clip-rule="evenodd" d="M24.4963 2.19796C24.4946 2.03629 24.432 1.88679 24.3181 1.77467L23.714 1.17667C23.4741 0.93938 23.0839 0.941987 22.8466 1.17927C22.6762 1.34877 22.525 1.50174 22.4198 1.60778L23.8887 3.06106C23.9939 2.95415 24.1451 2.80117 24.3146 2.63168C24.432 2.51521 24.4963 2.3605 24.4963 2.19796ZM5.5 5.26212V17.7245C5.5 18.9787 6.51695 20 7.76597 20H20.184C21.433 20 22.4491 18.9787 22.4491 17.7245V7.34295L21.2279 8.55894V17.7245C21.2279 18.3034 20.7594 18.7736 20.184 18.7736H7.76597C7.1897 18.7736 6.7212 18.3034 6.7212 17.7245V5.26212C6.7212 4.68411 7.1897 4.21388 7.76597 4.21388H17.0915L18.324 2.98659H7.76597C6.51695 2.98659 5.5 4.00788 5.5 5.26212ZM13.0715 10.9203L12.5431 12.889L14.5413 12.3701L23.4583 3.48443L21.992 2.03028L13.0715 10.9203Z" fill="#3F3D36"/>
</svg>
