<svg width="32" height="32" viewBox="0 0 32 32" fill="none" xmlns="http://www.w3.org/2000/svg">
<g opacity="0.85" clip-path="url(#clip0_1168_66591)">
<path d="M16 32C24.8366 32 32 24.8366 32 16C32 7.16344 24.8366 0 16 0C7.16344 0 0 7.16344 0 16C0 24.8366 7.16344 32 16 32Z" fill="#0052B4"/>
<path d="M15.9981 6.26172L16.5161 7.85603H18.1924L16.8362 8.84134L17.3543 10.4357L15.9981 9.45028L14.6418 10.4357L15.1599 8.84134L13.8037 7.85603H15.48L15.9981 6.26172Z" fill="#FFDA44"/>
<path d="M9.11169 9.1137L10.6054 9.8747L11.7908 8.68945L11.5284 10.3451L13.0221 11.1061L11.3664 11.3684L11.1042 13.0241L10.3431 11.5305L8.6875 11.7928L9.87281 10.6075L9.11169 9.1137Z" fill="#FFDA44"/>
<path d="M6.25977 16.001L7.85408 15.483V13.8066L8.83933 15.1629L10.4337 14.6448L9.44826 16.001L10.4337 17.3572L8.83933 16.8392L7.85408 18.1954V16.5191L6.25977 16.001Z" fill="#FFDA44"/>
<path d="M9.11169 22.8869L9.87275 21.3932L8.6875 20.2079L10.3432 20.4703L11.1041 18.9766L11.3664 20.6322L13.0221 20.8945L11.5286 21.6556L11.7908 23.3112L10.6054 22.1259L9.11169 22.8869Z" fill="#FFDA44"/>
<path d="M15.9981 25.7402L15.48 24.1459H13.8037L15.16 23.1606L14.6418 21.5664L15.9981 22.5517L17.3543 21.5664L16.8362 23.1606L18.1924 24.1459H16.5161L15.9981 25.7402Z" fill="#FFDA44"/>
<path d="M22.8859 22.8869L21.3922 22.1259L20.2068 23.3113L20.4691 21.6555L18.9756 20.8945L20.6312 20.6322L20.8935 18.9766L21.6545 20.4703L23.3101 20.2079L22.1248 21.3933L22.8859 22.8869Z" fill="#FFDA44"/>
<path d="M25.7383 16.001L24.144 16.5191V18.1954L23.1586 16.8391L21.5645 17.3572L22.5498 16.001L21.5645 14.6448L23.1587 15.1629L24.144 13.8066V15.483L25.7383 16.001Z" fill="#FFDA44"/>
<path d="M22.8859 9.11364L22.1248 10.6074L23.3101 11.7927L21.6544 11.5303L20.8935 13.024L20.6312 11.3683L18.9756 11.106L20.4691 10.345L20.2068 8.68945L21.3923 9.8747L22.8859 9.11364Z" fill="#FFDA44"/>
</g>
<defs>
<clipPath id="clip0_1168_66591">
<rect width="32" height="32" fill="white"/>
</clipPath>
</defs>
</svg>
