<svg width="24" height="24" viewBox="0 0 24 24" fill="none" xmlns="http://www.w3.org/2000/svg">
<path fill-rule="evenodd" clip-rule="evenodd" d="M12 8C10.9391 8 9.92172 8.42143 9.17157 9.17157C8.42143 9.92172 8 10.9391 8 12C8 13.0609 8.42143 14.0783 9.17157 14.8284C9.92172 15.5786 10.9391 16 12 16C13.0609 16 14.0783 15.5786 14.8284 14.8284C15.5786 14.0783 16 13.0609 16 12C16 10.9391 15.5786 9.92172 14.8284 9.17157C14.0783 8.42143 13.0609 8 12 8ZM10.5858 10.5858C10.9609 10.2107 11.4696 10 12 10C12.5304 10 13.0391 10.2107 13.4142 10.5858C13.7893 10.9609 14 11.4696 14 12C14 12.5304 13.7893 13.0391 13.4142 13.4142C13.0391 13.7893 12.5304 14 12 14C11.4696 14 10.9609 13.7893 10.5858 13.4142C10.2107 13.0391 10 12.5304 10 12C10 11.4696 10.2107 10.9609 10.5858 10.5858Z" fill="#1E1E1E" fill-opacity="0.3"/>
<path fill-rule="evenodd" clip-rule="evenodd" d="M12 4C7.28933 4 3.35531 7.27918 2.04117 11.716C1.98628 11.9014 1.98628 12.0986 2.04117 12.284C3.35531 16.7208 7.28933 20 12 20C16.7117 20 20.6447 16.7208 21.9588 12.284C22.0137 12.0986 22.0137 11.9014 21.9588 11.716C20.6447 7.27924 16.7117 4 12 4ZM12 18C8.36216 18 5.21524 15.5267 4.04786 12C5.21524 8.47332 8.36216 6 12 6C15.6387 6 18.7848 8.47327 19.9521 12C18.7848 15.5267 15.6387 18 12 18Z" fill="#1E1E1E" fill-opacity="0.3"/>
</svg>
