<svg width="20" height="16" viewBox="0 0 20 16" fill="none" xmlns="http://www.w3.org/2000/svg">
<path d="M1.21265 0.209764C0.88766 -0.0448388 0.415793 0.0141546 0.159548 0.337066C-0.0966977 0.659977 -0.0373237 1.12882 0.287671 1.38342L18.7873 15.7902C19.1123 16.0448 19.5842 15.9858 19.8405 15.6629C20.0967 15.34 20.0373 14.8712 19.7123 14.6166L16.4249 12.0581C17.6624 10.7975 18.4999 9.38478 18.9217 8.3819C19.0248 8.13661 19.0248 7.86338 18.9217 7.61809C18.4561 6.50963 17.478 4.89508 16.0155 3.54755C14.5468 2.18759 12.525 1.04499 10 1.04499C7.86879 1.04499 6.09382 1.86158 4.70947 2.93277L1.21265 0.209764ZM5.93132 3.88288C7.06255 3.08491 8.4219 2.53534 10 2.53534C12.0375 2.53534 13.7124 3.4544 14.9968 4.63737C16.1999 5.74893 17.0311 7.06852 17.4561 7.99999C17.0624 8.86937 16.3124 10.0741 15.2405 11.1328L13.5593 9.82258C13.8437 9.27611 14.0031 8.65823 14.0031 7.99999C14.0031 5.80482 12.2125 4.0257 10.0031 4.0257C8.99689 4.0257 8.07503 4.39519 7.37192 5.00375L5.93132 3.88288ZM12.3406 8.87558L9.79375 6.89154C9.925 6.62762 10 6.32644 10 6.01285C10 5.84208 9.97813 5.67441 9.9375 5.51606C9.95938 5.51606 9.97813 5.51606 10 5.51606C11.3812 5.51606 12.5 6.62762 12.5 7.99999C12.5 8.30738 12.4437 8.60235 12.3406 8.87558ZM12.6343 12.9213C11.8375 13.2597 10.9594 13.4646 10 13.4646C7.96254 13.4646 6.28757 12.5456 5.00321 11.3626C3.80011 10.2511 2.96887 8.93147 2.54388 7.99999C2.80325 7.42869 3.21574 6.71145 3.77511 5.98801L2.59701 5.06585C1.88452 5.98801 1.37515 6.90706 1.07828 7.61809C0.975159 7.86338 0.975159 8.13661 1.07828 8.3819C1.5439 9.49035 2.52201 11.1049 3.98448 12.4524C5.45321 13.8124 7.47504 14.955 10 14.955C11.4937 14.955 12.8093 14.5545 13.9437 13.9459L12.6343 12.9213ZM6.00007 7.99999C6.00007 10.1952 7.79066 11.9743 10 11.9743C10.4156 11.9743 10.8156 11.9122 11.1937 11.7942L9.43751 10.4218C8.70315 10.2542 8.09066 9.76358 7.75941 9.10845L6.00632 7.73607C6.00007 7.82301 5.99695 7.90995 5.99695 7.99999H6.00007Z" fill="black"/>
</svg>
