<svg width="66" height="58" viewBox="0 0 66 58" fill="none" xmlns="http://www.w3.org/2000/svg">
<path d="M1 29.8C1 19.7191 1 14.6786 2.96188 10.8282C4.6876 7.44125 7.44125 4.6876 10.8282 2.96188C14.6786 1 19.7191 1 29.8 1H65V28.2C65 38.2809 65 43.3214 63.0381 47.1718C61.3124 50.5587 58.5587 53.3124 55.1718 55.0381C51.3214 57 46.2809 57 36.2 57H1V29.8Z" fill="white"/>
<g opacity="0.5">
<path d="M18.2475 25.139C18.9218 25.139 19.495 24.5658 19.495 23.8914L19.4952 18.0579C19.4952 16.6417 20.6416 15.4953 22.0578 15.4953H27.8573C28.5316 15.4953 29.1049 14.9221 29.1049 14.2478C29.1049 13.5735 28.5317 13.0002 27.8573 13.0002L22.0578 13C19.2591 13 17 15.2592 17 18.0578V23.8575C17 24.5654 17.5731 25.139 18.2475 25.139Z" fill="#3F3D36"/>
<path d="M47.7848 32.8949C47.1105 32.8949 46.5373 33.4681 46.5373 34.1425V39.9421C46.5373 41.3583 45.3909 42.5047 43.9748 42.5047L38.1413 42.5049C37.467 42.5049 36.8938 43.0781 36.8938 43.7525C36.8938 44.4268 37.467 45 38.1413 45H43.9409C46.7395 45 48.9986 42.7408 48.9986 39.9422V34.1428C49.0322 33.4684 48.4591 32.8949 47.7848 32.8949Z" fill="#3F3D36"/>
<path d="M43.9746 13H38.1414C37.4671 13 36.8938 13.5732 36.8938 14.2475C36.8938 14.9219 37.467 15.4951 38.1414 15.4951H43.9409C45.3571 15.4951 46.5035 16.6414 46.5035 18.0576V23.8573C46.5035 24.5316 47.0767 25.1048 47.751 25.1048C48.4253 25.1048 48.9985 24.5316 48.9985 23.8573L48.9987 18.0579C49.0324 15.2592 46.7732 13 43.9746 13Z" fill="#3F3D36"/>
<path d="M27.8908 42.5383H22.0576C20.6414 42.5383 19.495 41.392 19.495 39.9758V34.1425C19.495 33.4682 18.9219 32.8949 18.2475 32.8949C17.5732 32.8949 17 33.4681 17 34.1425V39.9421C17 42.7408 19.2591 44.9999 22.0578 44.9999H27.8573C28.5316 44.9999 29.1049 44.4268 29.1049 43.7524C29.1046 43.0779 28.5651 42.5383 27.8908 42.5383Z" fill="#3F3D36"/>
<path d="M37.5681 34.0066C37.0961 33.5009 36.2868 33.5009 35.8147 33.973C35.4102 34.3439 34.3985 34.7485 33.0497 34.7485C31.7011 34.7485 30.6556 34.3439 30.2847 33.973C29.779 33.5009 29.0033 33.5009 28.5312 34.0066C28.0592 34.5123 28.0592 35.288 28.5649 35.7601C29.509 36.6706 31.1949 37.2099 33.0494 37.2099C34.904 37.2099 36.5899 36.6703 37.534 35.7601C38.0063 35.288 38.0402 34.4787 37.5681 34.0066Z" fill="#3F3D36"/>
<path d="M24.8907 22.5762V24.5319C24.8907 25.2063 25.4639 25.7795 26.1382 25.7795C26.8125 25.7795 27.3857 25.2063 27.3857 24.5319V22.5762C27.3857 21.9019 26.8125 21.3287 26.1382 21.3287C25.4639 21.3287 24.8907 21.8683 24.8907 22.5762Z" fill="#3F3D36"/>
<path d="M41.142 24.532V22.5763C41.142 21.902 40.5688 21.3287 39.8945 21.3287C39.2202 21.3287 38.647 21.9019 38.647 22.5763V24.532C38.647 25.2063 39.2202 25.7795 39.8945 25.7795C40.5688 25.7795 41.142 25.2064 41.142 24.532Z" fill="#3F3D36"/>
<path d="M32.2066 31.141C32.3077 31.141 32.4089 31.141 32.51 31.1074L34.1284 30.7028C34.6679 30.5681 35.0725 30.0621 35.0725 29.489L35.0728 25.2739C35.0728 24.5996 34.4996 24.0264 33.8252 24.0264C33.1509 24.0264 32.5777 24.5995 32.5777 25.2739V28.511L31.9034 28.6796C31.2291 28.8483 30.8243 29.5226 30.993 30.1969C31.1614 30.7701 31.6673 31.141 32.2066 31.141Z" fill="#3F3D36"/>
</g>
<path d="M1 29.8C1 19.7191 1 14.6786 2.96188 10.8282C4.6876 7.44125 7.44125 4.6876 10.8282 2.96188C14.6786 1 19.7191 1 29.8 1H65V28.2C65 38.2809 65 43.3214 63.0381 47.1718C61.3124 50.5587 58.5587 53.3124 55.1718 55.0381C51.3214 57 46.2809 57 36.2 57H1V29.8Z" stroke="#3C3C3C" stroke-opacity="0.2"/>
</svg>
