<svg width="21" height="20" viewBox="0 0 21 20" fill="none" xmlns="http://www.w3.org/2000/svg">
<path fill-rule="evenodd" clip-rule="evenodd" d="M11.3135 2.01284C10.8454 1.6116 10.1546 1.6116 9.68651 2.01284L4.68651 6.29856C4.40945 6.53604 4.25 6.88272 4.25 7.24763V16.3278C4.25 17.0181 4.80964 17.5778 5.5 17.5778H10.5C10.9142 17.5778 11.25 17.9135 11.25 18.3278C11.25 18.742 10.9142 19.0778 10.5 19.0778H5.5C3.98122 19.0778 2.75 17.8465 2.75 16.3278V7.24763C2.75 6.44483 3.1008 5.68212 3.71032 5.15967L8.71032 0.873958C9.74017 -0.00876749 11.2598 -0.00876731 12.2897 0.873958L17.2897 5.15967C17.8992 5.68212 18.25 6.44483 18.25 7.24763V16.3278C18.25 17.8465 17.0188 19.0778 15.5 19.0778H14.5C14.0858 19.0778 13.75 18.742 13.75 18.3278C13.75 17.9135 14.0858 17.5778 14.5 17.5778H15.5C16.1904 17.5778 16.75 17.0181 16.75 16.3278V7.24763C16.75 6.88272 16.5905 6.53604 16.3135 6.29856L11.3135 2.01284Z" fill="#393939"/>
<path fill-rule="evenodd" clip-rule="evenodd" d="M11.3052 1.79386C10.8399 1.40205 10.1601 1.40205 9.69485 1.79386L1.48312 8.709C1.16628 8.97581 0.693143 8.93526 0.426333 8.61842C0.159524 8.30158 0.200078 7.82844 0.516915 7.56163L8.72864 0.646495C9.75226 -0.215497 11.2478 -0.215499 12.2714 0.646494L20.4831 7.56163C20.8 7.82844 20.8405 8.30158 20.5737 8.61842C20.3069 8.93526 19.8338 8.97581 19.5169 8.709L11.3052 1.79386Z" fill="#393939"/>
<path fill-rule="evenodd" clip-rule="evenodd" d="M10 11.0781C9.30964 11.0781 8.75 11.6378 8.75 12.3281V16.3281H7.25V12.3281C7.25 10.8093 8.48122 9.57812 10 9.57812H11C12.5188 9.57812 13.75 10.8093 13.75 12.3281V16.3281H12.25V12.3281C12.25 11.6378 11.6904 11.0781 11 11.0781H10Z" fill="#393939"/>
</svg>
