<svg width="24" height="24" viewBox="0 0 24 24" fill="none" xmlns="http://www.w3.org/2000/svg">
<path fill-rule="evenodd" clip-rule="evenodd" d="M2.49274 11.13L3.82087 10.0116V19.1171C3.82087 20.7093 5.1116 22 6.7038 22H11.9455C12.3797 22 12.7318 21.648 12.7318 21.2137C12.7318 20.7795 12.3797 20.4275 11.9455 20.4275H6.7038C5.98007 20.4275 5.39338 19.8408 5.39338 19.1171V9.59799C5.39338 9.21544 5.56054 8.85199 5.85099 8.60304L11.0927 4.11015C11.5834 3.68951 12.3076 3.68951 12.7983 4.11015L18.04 8.60304C18.3305 8.85199 18.4976 9.21544 18.4976 9.59799V19.1171C18.4976 19.8408 17.9109 20.4275 17.1872 20.4275H16.1389C15.7046 20.4275 15.3526 20.7795 15.3526 21.2137C15.3526 21.648 15.7046 22 16.1389 22H17.1872C18.7794 22 20.0702 20.7093 20.0702 19.1171V10.0116L21.3983 11.13C21.7305 11.4097 22.2265 11.3672 22.5062 11.035C22.7859 10.7029 22.7434 10.2069 22.4112 9.92717L13.8025 2.67775C12.7294 1.77408 11.1616 1.77409 10.0885 2.67775L1.47983 9.92717C1.14768 10.2069 1.10516 10.7029 1.38487 11.035C1.66458 11.3672 2.16059 11.4097 2.49274 11.13ZM10.1109 14.9241C10.1109 14.2004 10.6976 13.6137 11.4213 13.6137H12.4697C13.1934 13.6137 13.7801 14.2004 13.7801 14.9241V19.1174H15.3526V14.9241C15.3526 13.3319 14.0619 12.0411 12.4697 12.0411H11.4213C9.82914 12.0411 8.5384 13.3319 8.5384 14.9241V19.1174H10.1109V14.9241Z" fill="#93989D"/>
</svg>
