<svg width="25" height="24" viewBox="0 0 25 24" fill="none" xmlns="http://www.w3.org/2000/svg">
<path fill-rule="evenodd" clip-rule="evenodd" d="M3.36774 11.13L4.69587 10.0116V19.1171C4.69587 20.7093 5.9866 22 7.5788 22H12.8205C13.2547 22 13.6068 21.648 13.6068 21.2137C13.6068 20.7795 13.2547 20.4275 12.8205 20.4275H7.5788C6.85507 20.4275 6.26838 19.8408 6.26838 19.1171V9.59799C6.26838 9.21544 6.43554 8.85199 6.72599 8.60304L11.9677 4.11015C12.4584 3.68951 13.1826 3.68951 13.6733 4.11015L18.915 8.60304C19.2055 8.85199 19.3726 9.21544 19.3726 9.59799V19.1171C19.3726 19.8408 18.7859 20.4275 18.0622 20.4275H17.0139C16.5796 20.4275 16.2276 20.7795 16.2276 21.2137C16.2276 21.648 16.5796 22 17.0139 22H18.0622C19.6544 22 20.9452 20.7093 20.9452 19.1171V10.0116L22.2733 11.13C22.6055 11.4097 23.1015 11.3672 23.3812 11.035C23.6609 10.7029 23.6184 10.2069 23.2862 9.92717L14.6775 2.67775C13.6044 1.77408 12.0366 1.77409 10.9635 2.67775L2.35483 9.92717C2.02268 10.2069 1.98016 10.7029 2.25987 11.035C2.53958 11.3672 3.03559 11.4097 3.36774 11.13ZM10.9859 14.9241C10.9859 14.2004 11.5726 13.6137 12.2963 13.6137H13.3447C14.0684 13.6137 14.6551 14.2004 14.6551 14.9241V19.1174H16.2276V14.9241C16.2276 13.3319 14.9369 12.0411 13.3447 12.0411H12.2963C10.7041 12.0411 9.4134 13.3319 9.4134 14.9241V19.1174H10.9859V14.9241Z" fill="#0E1215"/>
</svg>
