<svg width="24" height="20" viewBox="0 0 24 20" fill="none" xmlns="http://www.w3.org/2000/svg">
<path fill-rule="evenodd" clip-rule="evenodd" d="M20 10C20 14.4184 16.4184 18 12 18C7.5816 18 4 14.4184 4 10C4 5.5816 7.5816 2 12 2C16.4184 2 20 5.5816 20 10ZM12 14.6C12.1591 14.6 12.3117 14.5368 12.4243 14.4243C12.5368 14.3117 12.6 14.1591 12.6 14V9.2C12.6 9.04087 12.5368 8.88826 12.4243 8.77574C12.3117 8.66321 12.1591 8.6 12 8.6C11.8409 8.6 11.6883 8.66321 11.5757 8.77574C11.4632 8.88826 11.4 9.04087 11.4 9.2V14C11.4 14.3312 11.6688 14.6 12 14.6ZM12 6C12.2122 6 12.4157 6.08429 12.5657 6.23431C12.7157 6.38434 12.8 6.58783 12.8 6.8C12.8 7.01217 12.7157 7.21566 12.5657 7.36569C12.4157 7.51571 12.2122 7.6 12 7.6C11.7878 7.6 11.5843 7.51571 11.4343 7.36569C11.2843 7.21566 11.2 7.01217 11.2 6.8C11.2 6.58783 11.2843 6.38434 11.4343 6.23431C11.5843 6.08429 11.7878 6 12 6Z" fill="#716F6A"/>
</svg>
