<svg width="46" height="46" viewBox="0 0 46 46" fill="none" xmlns="http://www.w3.org/2000/svg">
<rect x="2" y="2" width="42" height="42" rx="21" fill="#FFDD45"/>
<g clip-path="url(#clip0_835_42620)">
<path fill-rule="evenodd" clip-rule="evenodd" d="M12 16.6667C12 16.2985 12.3144 16 12.7021 16H33.2979C33.6856 16 34 16.2985 34 16.6667V31.3333C34 31.7015 33.6856 32 33.2979 32H28.5H26.4375H12.7021C12.3144 32 12 31.7015 12 31.3333V22C12 21.6318 12.3144 21.3333 12.7021 21.3333C13.0899 21.3333 13.4043 21.6318 13.4043 22V29.3333C13.4043 29.8243 13.8147 30.6667 14.3209 30.6667H30.7624C31.7749 30.6667 32.5957 29.8707 32.5957 28.8889L32.6226 18.2793C32.6239 17.7572 32.2011 17.3333 31.6791 17.3333H14.2931C13.8022 17.3333 13.4043 17.7313 13.4043 18.2222V18.4444C13.4043 18.8126 13.0899 19.1111 12.7021 19.1111C12.3144 19.1111 12 18.8126 12 18.4444V16.6667Z" fill="#343D45"/>
<path fill-rule="evenodd" clip-rule="evenodd" d="M34 16H12V32H34V16ZM15.5 17.5C14.3954 17.5 13.5 18.3954 13.5 19.5V28.5C13.5 29.6046 14.3954 30.5 15.5 30.5H30.5C31.6046 30.5 32.5 29.6046 32.5 28.5V19.5C32.5 18.3954 31.6046 17.5 30.5 17.5H15.5Z" fill="#343D45"/>
<path fill-rule="evenodd" clip-rule="evenodd" d="M21 27.75C21 28.1642 20.6642 28.5 20.25 28.5H15.75C15.3358 28.5 15 28.1642 15 27.75C15 27.3358 15.3358 27 15.75 27H20.25C20.6642 27 21 27.3358 21 27.75Z" fill="#343D45"/>
<path fill-rule="evenodd" clip-rule="evenodd" d="M30 23.75C30 24.1642 29.6642 24.5 29.25 24.5H15.75C15.3358 24.5 15 24.1642 15 23.75C15 23.3358 15.3358 23 15.75 23H29.25C29.6642 23 30 23.3358 30 23.75Z" fill="#343D45"/>
</g>
<rect x="17" y="12" width="12" height="10" fill="#FFDD45"/>
<path fill-rule="evenodd" clip-rule="evenodd" d="M23.25 10C23.6642 10 24 10.3053 24 10.6818L24 12.8409C24 13.2175 23.6642 13.5228 23.25 13.5228C22.8358 13.5228 22.5 13.2175 22.5 12.8409L22.5 10.6818C22.5 10.3053 22.8358 10 23.25 10ZM23.25 14.3182C23.6642 14.3182 24 14.6235 24 15.0001L24 19.3183C24 19.6949 23.6642 20.0001 23.25 20.0001C22.8358 20.0001 22.5 19.6949 22.5 19.3183L22.5 15.0001C22.5 14.6235 22.8358 14.3182 23.25 14.3182Z" fill="#343D45"/>
<path fill-rule="evenodd" clip-rule="evenodd" d="M27.2803 16.2197C27.5732 16.5126 27.5732 16.9875 27.2803 17.2803L23.7803 20.7804C23.4874 21.0733 23.0125 21.0733 22.7196 20.7804L19.2196 17.2803C18.9267 16.9874 18.9267 16.5126 19.2196 16.2197C19.5125 15.9268 19.9873 15.9268 20.2802 16.2197L23.2499 19.1894L26.2197 16.2197C26.5125 15.9268 26.9874 15.9268 27.2803 16.2197Z" fill="#343D45"/>
<rect x="2" y="2" width="42" height="42" rx="21" stroke="#FFF8DD" stroke-width="4"/>
<defs>
<clipPath id="clip0_835_42620">
<rect x="12" y="16" width="22" height="16" rx="3" fill="white"/>
</clipPath>
</defs>
</svg>
