<svg width="36" height="36" viewBox="0 0 36 36" fill="none" xmlns="http://www.w3.org/2000/svg">
<rect width="36" height="36" rx="18" fill="#FFEEA6"/>
<g clip-path="url(#clip0_1522_107592)">
<path fill-rule="evenodd" clip-rule="evenodd" d="M7 13.6667C7 13.2985 7.31435 13 7.70213 13H28.2979C28.6856 13 29 13.2985 29 13.6667V28.3333C29 28.7015 28.6856 29 28.2979 29H23.5H21.4375H7.70213C7.31435 29 7 28.7015 7 28.3333V19C7 18.6318 7.31435 18.3333 7.70213 18.3333C8.0899 18.3333 8.40426 18.6318 8.40426 19V26.3333C8.40426 26.8243 8.81466 27.6667 9.32092 27.6667H25.7624C26.7749 27.6667 27.5957 26.8707 27.5957 25.8889L27.6226 15.2793C27.6239 14.7572 27.2011 14.3333 26.6791 14.3333H9.29314C8.80222 14.3333 8.40426 14.7313 8.40426 15.2222V15.4444C8.40426 15.8126 8.0899 16.1111 7.70213 16.1111C7.31435 16.1111 7 15.8126 7 15.4444V13.6667Z" fill="#343D45"/>
<path fill-rule="evenodd" clip-rule="evenodd" d="M29 13H7V29H29V13ZM10.5 14.5C9.39543 14.5 8.5 15.3954 8.5 16.5V25.5C8.5 26.6046 9.39543 27.5 10.5 27.5H25.5C26.6046 27.5 27.5 26.6046 27.5 25.5V16.5C27.5 15.3954 26.6046 14.5 25.5 14.5H10.5Z" fill="#343D45"/>
<path fill-rule="evenodd" clip-rule="evenodd" d="M16 24.75C16 25.1642 15.6642 25.5 15.25 25.5H10.75C10.3358 25.5 10 25.1642 10 24.75C10 24.3358 10.3358 24 10.75 24H15.25C15.6642 24 16 24.3358 16 24.75Z" fill="#343D45"/>
<path fill-rule="evenodd" clip-rule="evenodd" d="M25 20.75C25 21.1642 24.6642 21.5 24.25 21.5H10.75C10.3358 21.5 10 21.1642 10 20.75C10 20.3358 10.3358 20 10.75 20H24.25C24.6642 20 25 20.3358 25 20.75Z" fill="#343D45"/>
</g>
<rect x="12" y="9" width="12" height="10" fill="#FFEEA6"/>
<path fill-rule="evenodd" clip-rule="evenodd" d="M18.25 6.99994C18.6642 6.99994 19 7.3052 19 7.68177L19 9.84089C19 10.2175 18.6642 10.5227 18.25 10.5227C17.8358 10.5227 17.5 10.2175 17.5 9.84089L17.5 7.68177C17.5 7.3052 17.8358 6.99994 18.25 6.99994ZM18.25 11.3182C18.6642 11.3182 19 11.6234 19 12L19 16.3183C19 16.6948 18.6642 17.0001 18.25 17.0001C17.8358 17.0001 17.5 16.6948 17.5 16.3183L17.5 12C17.5 11.6234 17.8358 11.3182 18.25 11.3182Z" fill="#343D45"/>
<path fill-rule="evenodd" clip-rule="evenodd" d="M22.2803 13.2196C22.5732 13.5125 22.5732 13.9874 22.2803 14.2803L18.7803 17.7803C18.4874 18.0732 18.0125 18.0732 17.7196 17.7803L14.2196 14.2803C13.9267 13.9874 13.9267 13.5125 14.2196 13.2196C14.5125 12.9267 14.9873 12.9267 15.2802 13.2196L18.2499 16.1893L21.2197 13.2196C21.5125 12.9267 21.9874 12.9267 22.2803 13.2196Z" fill="#343D45"/>
<defs>
<clipPath id="clip0_1522_107592">
<rect x="7" y="13" width="22" height="16" rx="3" fill="white"/>
</clipPath>
</defs>
</svg>
