<svg width="169" height="82" viewBox="0 0 169 82" fill="none" xmlns="http://www.w3.org/2000/svg">
<g opacity="0.08">
<path d="M51.8118 96.6882C51.813 103.828 53.9265 110.808 57.8851 116.744C61.8437 122.68 67.4696 127.306 74.0514 130.038C80.6332 132.769 87.8753 133.483 94.8618 132.089C101.848 130.695 108.265 127.255 113.302 122.206C118.338 117.156 121.768 110.723 123.156 103.72C124.545 96.7167 123.83 89.4581 121.103 82.8619C118.376 76.2658 113.759 70.6283 107.835 66.6624C101.911 62.6965 94.9474 60.5803 87.8238 60.5815C83.0937 60.5815 78.4099 61.5155 74.04 63.3301C69.6701 65.1448 65.6996 67.8046 62.3555 71.1576C59.0113 74.5105 56.3589 78.491 54.5498 82.8716C52.7407 87.2522 51.8103 91.9471 51.8118 96.6882Z" fill="#F8D03B"/>
<path d="M123.254 36.213L124.432 37.3965C124.054 36.9963 123.654 36.6018 123.254 36.213Z" fill="#393939"/>
<path d="M124.374 59.9068L123.305 61.0046C123.682 60.6586 124.038 60.2921 124.374 59.9068Z" fill="#393939"/>
<path d="M168.039 81.1248L138.816 51.8164L121.132 69.541L136.705 85.1329L148.228 96.6939C148.228 96.6939 92.6611 152.389 91.64 153.424C87.9607 157.1 87.8808 163.744 87.8808 163.744C87.8808 163.744 87.8124 157.1 84.1901 153.453L27.5396 96.6882L54.5557 69.6324L36.872 51.9078L5.36655 83.4862C2.31181 87.2685 0.666068 91.9988 0.711868 96.8649C0.757669 101.731 2.49216 106.429 5.61754 110.153L87.8694 192.613L167.811 112.486C167.811 112.486 174.799 106.414 174.953 96.7396C175.096 87.5 168.039 81.1248 168.039 81.1248Z" fill="#393939"/>
<path d="M57.733 66.442L60.146 68.872C59.6716 68.1397 59.4054 67.2917 59.3759 66.4191C59.3718 65.8809 59.4908 65.3489 59.7239 64.864C59.9436 64.39 60.234 63.9523 60.5852 63.5661L61.3553 62.7885L87.8694 36.2073L114.817 63.2173C115.662 64.0654 116.167 65.1943 116.237 66.3906C116.244 67.3486 115.913 68.2782 115.302 69.0149L123.288 61.0103L124.355 59.9125C127.177 56.842 128.739 52.8177 128.73 48.6431C128.731 44.489 127.192 40.4827 124.412 37.4023L123.237 36.2187L87.8694 0.769531L50.7965 37.9569C48.0697 40.6899 46.8034 44.8523 46.8034 48.6888C46.7934 52.5272 48.1096 56.2506 50.5284 59.2264L57.733 66.442Z" fill="#393939"/>
</g>
</svg>
