<svg width="25" height="24" viewBox="0 0 25 24" fill="none" xmlns="http://www.w3.org/2000/svg">
<path fill-rule="evenodd" clip-rule="evenodd" d="M13.0831 5.52753C15.0234 3.92398 17.9568 4.00863 19.793 5.77601C21.6193 7.53386 21.7034 10.3235 20.0509 12.176C20.029 12.2006 20.0092 12.2262 19.9914 12.2528L12.6257 19.3425L7.99517 14.873C7.71897 14.6064 7.27727 14.6125 7.00861 14.8866C6.73994 15.1606 6.74605 15.5989 7.02225 15.8655L12.1385 20.804C12.4091 21.0651 12.8398 21.0654 13.1107 20.8046L21.0707 13.143C21.1221 13.0935 21.165 13.0369 21.1985 12.9756C23.2364 10.5716 23.0899 7.02043 20.7645 4.78213C18.5443 2.64516 15.0929 2.43089 12.625 4.13472C10.1571 2.43089 6.70563 2.64516 4.48546 4.78213C2.16024 7.02023 2.01364 10.571 4.05095 12.9749C4.08074 13.0296 4.11851 13.0812 4.1643 13.1281C4.43258 13.4025 4.87428 13.4092 5.15084 13.143L5.16244 13.1318C5.43013 12.8741 5.44627 12.4531 5.19908 12.176C3.54659 10.3235 3.6307 7.53385 5.45698 5.77601C7.29316 4.00863 10.2266 3.92398 12.1669 5.52753C12.2999 5.63744 12.463 5.69046 12.625 5.68777C12.787 5.69046 12.9501 5.63744 13.0831 5.52753ZM16.3459 5.76924C15.9606 5.76924 15.6482 6.07919 15.6482 6.46155C15.6482 6.8439 15.9606 7.15385 16.3459 7.15385C17.5019 7.15385 18.4389 8.08373 18.4389 9.23078C18.4389 9.61313 18.7513 9.92309 19.1366 9.92309C19.5219 9.92309 19.8343 9.61313 19.8343 9.23078C19.8343 7.31902 18.2725 5.76924 16.3459 5.76924Z" fill="#0E1215"/>
</svg>
