<svg width="25" height="24" viewBox="0 0 25 24" fill="none" xmlns="http://www.w3.org/2000/svg">
<path fill-rule="evenodd" clip-rule="evenodd" d="M12.9581 5.52753C14.8984 3.92398 17.8318 4.00863 19.668 5.77601C21.4943 7.53386 21.5784 10.3235 19.9259 12.176C19.904 12.2006 19.8842 12.2262 19.8664 12.2528L12.5007 19.3425L7.87017 14.873C7.59397 14.6064 7.15227 14.6125 6.88361 14.8866C6.61494 15.1606 6.62105 15.5989 6.89725 15.8655L12.0135 20.804C12.2841 21.0651 12.7148 21.0654 12.9857 20.8046L20.9457 13.143C20.9971 13.0935 21.04 13.0369 21.0735 12.9756C23.1114 10.5716 22.9649 7.02043 20.6395 4.78213C18.4193 2.64516 14.9679 2.43089 12.5 4.13472C10.0321 2.43089 6.58063 2.64516 4.36046 4.78213C2.03524 7.02023 1.88864 10.571 3.92595 12.9749C3.95574 13.0296 3.99351 13.0812 4.0393 13.1281C4.30758 13.4025 4.74928 13.4092 5.02584 13.143L5.03744 13.1318C5.30513 12.8741 5.32127 12.4531 5.07408 12.176C3.42159 10.3235 3.5057 7.53385 5.33198 5.77601C7.16816 4.00863 10.1016 3.92398 12.0419 5.52753C12.1749 5.63744 12.338 5.69046 12.5 5.68777C12.662 5.69046 12.8251 5.63744 12.9581 5.52753ZM16.2209 5.76924C15.8356 5.76924 15.5232 6.07919 15.5232 6.46155C15.5232 6.8439 15.8356 7.15385 16.2209 7.15385C17.3769 7.15385 18.3139 8.08373 18.3139 9.23078C18.3139 9.61313 18.6263 9.92309 19.0116 9.92309C19.3969 9.92309 19.7093 9.61313 19.7093 9.23078C19.7093 7.31902 18.1475 5.76924 16.2209 5.76924Z" fill="#93989D"/>
</svg>
