<svg width="46" height="46" viewBox="0 0 46 46" fill="none" xmlns="http://www.w3.org/2000/svg">
<rect x="2" y="2" width="42" height="42" rx="21" fill="#FFDD45"/>
<mask id="path-2-inside-1_835_42657" fill="white">
<path fill-rule="evenodd" clip-rule="evenodd" d="M32.6793 20.2172C32.9653 19.9508 33.0772 19.5339 32.9446 19.16L32.9487 19.1557C32.7663 18.6443 32.5467 18.1543 32.2939 17.6816L32.0991 17.3335C31.8256 16.8607 31.5189 16.4138 31.1832 15.9926C30.9387 15.6874 30.5325 15.58 30.1678 15.7003L27.8593 16.461C27.304 16.0184 26.6906 15.6488 26.0358 15.3694L25.5177 12.9154C25.4349 12.5243 25.1447 12.2149 24.7635 12.1504C24.1915 12.0516 23.603 12 23.0021 12C22.4011 12 21.8126 12.0516 21.2407 12.1547C20.8594 12.2192 20.5693 12.5286 20.4864 12.9197L19.9683 15.3737C19.3135 15.6531 18.7002 16.0227 18.1448 16.4653L15.8364 15.7046C15.4716 15.5843 15.0655 15.6874 14.821 15.9969C14.4853 16.4181 14.1786 16.865 13.9051 17.3378L13.7103 17.6859C13.4575 18.1586 13.2378 18.6486 13.0554 19.16C12.9228 19.5339 13.0347 19.9508 13.3207 20.2172L15.1152 21.9105C15.0696 22.2672 15.0448 22.6325 15.0448 23.0021C15.0448 23.3718 15.0696 23.7371 15.1152 24.0981L13.3207 25.7914C13.0347 26.0578 12.9228 26.4747 13.0554 26.8486C13.2378 27.36 13.4575 27.85 13.7103 28.3227L13.9051 28.6708C14.1786 29.1436 14.4853 29.5905 14.821 30.0117C15.0655 30.3169 15.4716 30.4243 15.8364 30.304L18.1407 29.539C18.696 29.9816 19.3094 30.3512 19.9642 30.6306L20.4823 33.0846C20.5651 33.4757 20.8553 33.7851 21.2365 33.8496C21.8085 33.9484 22.397 34 22.9979 34C23.5989 34 24.1874 33.9484 24.7593 33.8496C25.1406 33.7851 25.4307 33.4757 25.5136 33.0846L26.0317 30.6306C26.6865 30.3512 27.2998 29.9816 27.8552 29.539L30.1636 30.2997C30.5284 30.42 30.9345 30.3169 31.179 30.0074C31.5147 29.5862 31.8214 29.1393 32.0949 28.6665L32.2897 28.3184C32.5425 27.8457 32.7622 27.3557 32.9446 26.8443C33.0772 26.4704 32.9653 26.0535 32.6793 25.7871L30.8848 24.0938C30.9304 23.7371 30.9552 23.3718 30.9552 23.0021C30.9552 22.6325 30.9304 22.2672 30.8848 21.9105L32.6793 20.2172ZM23 25C24.1046 25 25 24.1046 25 23C25 21.8954 24.1046 21 23 21C21.8954 21 21 21.8954 21 23C21 24.1046 21.8954 25 23 25Z"/>
</mask>
<path fill-rule="evenodd" clip-rule="evenodd" d="M32.6793 20.2172C32.9653 19.9508 33.0772 19.5339 32.9446 19.16L32.9487 19.1557C32.7663 18.6443 32.5467 18.1543 32.2939 17.6816L32.0991 17.3335C31.8256 16.8607 31.5189 16.4138 31.1832 15.9926C30.9387 15.6874 30.5325 15.58 30.1678 15.7003L27.8593 16.461C27.304 16.0184 26.6906 15.6488 26.0358 15.3694L25.5177 12.9154C25.4349 12.5243 25.1447 12.2149 24.7635 12.1504C24.1915 12.0516 23.603 12 23.0021 12C22.4011 12 21.8126 12.0516 21.2407 12.1547C20.8594 12.2192 20.5693 12.5286 20.4864 12.9197L19.9683 15.3737C19.3135 15.6531 18.7002 16.0227 18.1448 16.4653L15.8364 15.7046C15.4716 15.5843 15.0655 15.6874 14.821 15.9969C14.4853 16.4181 14.1786 16.865 13.9051 17.3378L13.7103 17.6859C13.4575 18.1586 13.2378 18.6486 13.0554 19.16C12.9228 19.5339 13.0347 19.9508 13.3207 20.2172L15.1152 21.9105C15.0696 22.2672 15.0448 22.6325 15.0448 23.0021C15.0448 23.3718 15.0696 23.7371 15.1152 24.0981L13.3207 25.7914C13.0347 26.0578 12.9228 26.4747 13.0554 26.8486C13.2378 27.36 13.4575 27.85 13.7103 28.3227L13.9051 28.6708C14.1786 29.1436 14.4853 29.5905 14.821 30.0117C15.0655 30.3169 15.4716 30.4243 15.8364 30.304L18.1407 29.539C18.696 29.9816 19.3094 30.3512 19.9642 30.6306L20.4823 33.0846C20.5651 33.4757 20.8553 33.7851 21.2365 33.8496C21.8085 33.9484 22.397 34 22.9979 34C23.5989 34 24.1874 33.9484 24.7593 33.8496C25.1406 33.7851 25.4307 33.4757 25.5136 33.0846L26.0317 30.6306C26.6865 30.3512 27.2998 29.9816 27.8552 29.539L30.1636 30.2997C30.5284 30.42 30.9345 30.3169 31.179 30.0074C31.5147 29.5862 31.8214 29.1393 32.0949 28.6665L32.2897 28.3184C32.5425 27.8457 32.7622 27.3557 32.9446 26.8443C33.0772 26.4704 32.9653 26.0535 32.6793 25.7871L30.8848 24.0938C30.9304 23.7371 30.9552 23.3718 30.9552 23.0021C30.9552 22.6325 30.9304 22.2672 30.8848 21.9105L32.6793 20.2172ZM23 25C24.1046 25 25 24.1046 25 23C25 21.8954 24.1046 21 23 21C21.8954 21 21 21.8954 21 23C21 24.1046 21.8954 25 23 25Z" fill="#FFDD45"/>
<path d="M32.9446 19.16L31.8648 18.1187L31.2206 18.7868L31.5309 19.6614L32.9446 19.16ZM32.6793 20.2172L31.6567 19.1198L31.6499 19.1262L32.6793 20.2172ZM32.9487 19.1557L34.0284 20.197L34.6738 19.5277L34.3616 18.6519L32.9487 19.1557ZM32.2939 17.6816L33.6166 16.9742L33.6099 16.9616L33.6029 16.9491L32.2939 17.6816ZM32.0991 17.3335L33.4081 16.601L33.4028 16.5916L33.3974 16.5822L32.0991 17.3335ZM31.1832 15.9926L32.3562 15.0576L32.3537 15.0546L31.1832 15.9926ZM30.1678 15.7003L30.6372 17.125L30.6378 17.1248L30.1678 15.7003ZM27.8593 16.461L26.9244 17.634L27.5586 18.1395L28.3288 17.8857L27.8593 16.461ZM26.0358 15.3694L24.5681 15.6792L24.7293 16.4429L25.4472 16.7491L26.0358 15.3694ZM25.5177 12.9154L26.9854 12.6056L26.9851 12.6044L25.5177 12.9154ZM24.7635 12.1504L24.508 13.6285L24.5134 13.6294L24.7635 12.1504ZM21.2407 12.1547L21.4908 13.6337L21.4988 13.6324L21.5069 13.6309L21.2407 12.1547ZM20.4864 12.9197L19.019 12.6087L19.0188 12.6099L20.4864 12.9197ZM19.9683 15.3737L20.5569 16.7534L21.2748 16.4472L21.436 15.6835L19.9683 15.3737ZM18.1448 16.4653L17.6753 17.89L18.4456 18.1438L19.0798 17.6383L18.1448 16.4653ZM15.8364 15.7046L15.3664 17.1291L15.3669 17.1293L15.8364 15.7046ZM14.821 15.9969L15.994 16.9318L15.9979 16.9269L14.821 15.9969ZM13.9051 17.3378L12.6067 16.5865L12.6013 16.5959L12.596 16.6053L13.9051 17.3378ZM13.7103 17.6859L12.4013 16.9534L12.3943 16.9659L12.3875 16.9785L13.7103 17.6859ZM13.0554 19.16L11.6426 18.6562L11.6417 18.6586L13.0554 19.16ZM13.3207 20.2172L14.3501 19.1262L14.3433 19.1198L13.3207 20.2172ZM15.1152 21.9105L16.6031 22.1007L16.6999 21.3435L16.1447 20.8195L15.1152 21.9105ZM15.1152 24.0981L16.1447 25.1891L16.6989 24.6661L16.6034 23.9101L15.1152 24.0981ZM13.3207 25.7914L14.3433 26.8888L14.3501 26.8824L13.3207 25.7914ZM13.0554 26.8486L11.6417 27.35L11.6426 27.3524L13.0554 26.8486ZM13.7103 28.3227L12.3875 29.0301L12.3943 29.0427L12.4013 29.0552L13.7103 28.3227ZM13.9051 28.6708L12.596 29.4033L12.6013 29.4127L12.6067 29.4221L13.9051 28.6708ZM14.821 30.0117L13.648 30.9467L13.6504 30.9497L14.821 30.0117ZM15.8364 30.304L16.3064 31.7284L16.309 31.7276L15.8364 30.304ZM18.1407 29.539L19.0756 28.366L18.4398 27.8592L17.668 28.1154L18.1407 29.539ZM19.9642 30.6306L21.4319 30.3208L21.2707 29.5571L20.5528 29.2509L19.9642 30.6306ZM20.4823 33.0846L19.0146 33.3944L19.0149 33.3956L20.4823 33.0846ZM21.2365 33.8496L21.492 32.3715L21.4866 32.3706L21.2365 33.8496ZM24.7593 33.8496L24.5092 32.3706L24.5038 32.3715L24.7593 33.8496ZM25.5136 33.0846L26.981 33.3956L26.9812 33.3944L25.5136 33.0846ZM26.0317 30.6306L25.4431 29.2509L24.7252 29.5571L24.564 30.3208L26.0317 30.6306ZM27.8552 29.539L28.3247 28.1143L27.5544 27.8605L26.9202 28.366L27.8552 29.539ZM30.1636 30.2997L30.6336 28.8752L30.6331 28.875L30.1636 30.2997ZM31.179 30.0074L30.006 29.0725L30.0021 29.0774L31.179 30.0074ZM32.0949 28.6665L33.3933 29.4178L33.3987 29.4084L33.404 29.399L32.0949 28.6665ZM32.2897 28.3184L33.5987 29.0509L33.6057 29.0384L33.6125 29.0258L32.2897 28.3184ZM32.9446 26.8443L34.3574 27.3481L34.3583 27.3457L32.9446 26.8443ZM32.6793 25.7871L31.6499 26.8781L31.6567 26.8845L32.6793 25.7871ZM30.8848 24.0938L29.3969 23.9036L29.3001 24.6608L29.8553 25.1848L30.8848 24.0938ZM30.8848 21.9105L29.8553 20.8195L29.3001 21.3435L29.3969 22.1007L30.8848 21.9105ZM31.5309 19.6614C31.4553 19.4484 31.5241 19.2434 31.6567 19.1198L33.7019 21.3147C34.4065 20.6581 34.699 19.6193 34.3583 18.6586L31.5309 19.6614ZM31.869 18.1144L31.8648 18.1187L34.0243 20.2013L34.0284 20.197L31.869 18.1144ZM30.9711 18.3889C31.1909 18.7999 31.3798 19.2219 31.5358 19.6595L34.3616 18.6519C34.1529 18.0666 33.9025 17.5087 33.6166 16.9742L30.9711 18.3889ZM30.7901 18.0659L30.9849 18.414L33.6029 16.9491L33.4081 16.601L30.7901 18.0659ZM30.0102 16.9275C30.301 17.2923 30.5655 17.678 30.8008 18.0847L33.3974 16.5822C33.0857 16.0434 32.7368 15.5352 32.3562 15.0576L30.0102 16.9275ZM30.6378 17.1248C30.4408 17.1898 30.1811 17.1409 30.0126 16.9306L32.3537 15.0546C31.6962 14.234 30.6242 13.9702 29.6978 14.2759L30.6378 17.1248ZM28.3288 17.8857L30.6372 17.125L29.6983 14.2757L27.3899 15.0364L28.3288 17.8857ZM25.4472 16.7491C25.974 16.9739 26.4714 17.2729 26.9244 17.634L28.7943 15.2881C28.1366 14.7638 27.4072 14.3237 26.6244 13.9897L25.4472 16.7491ZM24.0501 13.2252L24.5681 15.6792L27.5034 15.0596L26.9854 12.6056L24.0501 13.2252ZM24.5134 13.6294C24.2067 13.5776 24.0772 13.353 24.0503 13.2264L26.9851 12.6044C26.7925 11.6956 26.0828 10.8522 25.0135 10.6714L24.5134 13.6294ZM23.0021 13.5C23.517 13.5 24.0201 13.5442 24.508 13.6285L25.0189 10.6723C24.363 10.559 23.689 10.5 23.0021 10.5V13.5ZM21.5069 13.6309C21.9878 13.5442 22.4871 13.5 23.0021 13.5V10.5C22.3152 10.5 21.6375 10.559 20.9745 10.6785L21.5069 13.6309ZM21.9538 13.2307C21.927 13.3573 21.7975 13.5819 21.4908 13.6337L20.9906 10.6757C19.9213 10.8565 19.2116 11.6999 19.019 12.6087L21.9538 13.2307ZM21.436 15.6835L21.9541 13.2295L19.0188 12.6099L18.5007 15.0639L21.436 15.6835ZM19.0798 17.6383C19.5327 17.2772 20.0301 16.9781 20.5569 16.7534L19.3798 13.994C18.5969 14.328 17.8676 14.7681 17.2098 15.2924L19.0798 17.6383ZM15.3669 17.1293L17.6753 17.89L18.6143 15.0407L16.3058 14.28L15.3669 17.1293ZM15.9979 16.9269C15.8213 17.1503 15.552 17.1904 15.3664 17.1291L16.3064 14.2802C15.3913 13.9782 14.3096 14.2246 13.6441 15.0669L15.9979 16.9269ZM15.2034 18.089C15.4387 17.6823 15.7032 17.2966 15.994 16.9318L13.648 15.0619C13.2673 15.5395 12.9185 16.0477 12.6067 16.5865L15.2034 18.089ZM15.0193 18.4183L15.2141 18.0702L12.596 16.6053L12.4013 16.9534L15.0193 18.4183ZM14.4683 19.6638C14.6243 19.2262 14.8132 18.8042 15.033 18.3932L12.3875 16.9785C12.1017 17.513 11.8513 18.0709 11.6426 18.6562L14.4683 19.6638ZM14.3433 19.1198C14.4759 19.2434 14.5447 19.4485 14.4691 19.6614L11.6417 18.6586C11.301 19.6193 11.5935 20.6581 12.2981 21.3147L14.3433 19.1198ZM16.1447 20.8195L14.3501 19.1262L12.2912 21.3082L14.0858 23.0015L16.1447 20.8195ZM16.5448 23.0021C16.5448 22.6996 16.5651 22.3979 16.6031 22.1007L13.6273 21.7204C13.5741 22.1366 13.5448 22.5655 13.5448 23.0021H16.5448ZM16.6034 23.9101C16.5651 23.6067 16.5448 23.3043 16.5448 23.0021H13.5448C13.5448 23.4392 13.5742 23.8674 13.627 24.286L16.6034 23.9101ZM14.3501 26.8824L16.1447 25.1891L14.0858 23.0071L12.2912 24.7004L14.3501 26.8824ZM14.4691 26.3472C14.5447 26.5601 14.4759 26.7652 14.3433 26.8888L12.2981 24.6939C11.5935 25.3505 11.301 26.3893 11.6417 27.35L14.4691 26.3472ZM15.033 27.6154C14.8132 27.2044 14.6243 26.7823 14.4683 26.3448L11.6426 27.3524C11.8513 27.9377 12.1017 28.4956 12.3875 29.0301L15.033 27.6154ZM15.2141 27.9384L15.0193 27.5903L12.4013 29.0552L12.596 29.4033L15.2141 27.9384ZM15.994 29.0768C15.7032 28.712 15.4387 28.3263 15.2034 27.9196L12.6067 29.4221C12.9185 29.9609 13.2673 30.4691 13.648 30.9467L15.994 29.0768ZM15.3664 28.8795C15.5633 28.8145 15.823 28.8634 15.9915 29.0737L13.6504 30.9497C14.308 31.7703 15.38 32.0341 16.3064 31.7284L15.3664 28.8795ZM17.668 28.1154L15.3637 28.8804L16.309 31.7276L18.6133 30.9626L17.668 28.1154ZM20.5528 29.2509C20.026 29.0261 19.5286 28.7271 19.0756 28.366L17.2057 30.7119C17.8634 31.2362 18.5928 31.6763 19.3756 32.0103L20.5528 29.2509ZM21.9499 32.7748L21.4319 30.3208L18.4966 30.9404L19.0146 33.3944L21.9499 32.7748ZM21.4866 32.3706C21.7933 32.4224 21.9228 32.647 21.9497 32.7736L19.0149 33.3956C19.2075 34.3044 19.9172 35.1478 20.9865 35.3286L21.4866 32.3706ZM22.9979 32.5C22.483 32.5 21.9799 32.4558 21.492 32.3715L20.9811 35.3277C21.637 35.441 22.311 35.5 22.9979 35.5V32.5ZM24.5038 32.3715C24.0159 32.4558 23.5129 32.5 22.9979 32.5V35.5C23.6848 35.5 24.3588 35.441 25.0148 35.3277L24.5038 32.3715ZM24.0462 32.7736C24.073 32.647 24.2025 32.4224 24.5092 32.3706L25.0094 35.3286C26.0786 35.1478 26.7884 34.3044 26.981 33.3956L24.0462 32.7736ZM24.564 30.3208L24.0459 32.7748L26.9812 33.3944L27.4993 30.9404L24.564 30.3208ZM26.9202 28.366C26.4673 28.7271 25.9699 29.0261 25.4431 29.2509L26.6202 32.0103C27.4031 31.6763 28.1324 31.2362 28.7902 30.7119L26.9202 28.366ZM30.6331 28.875L28.3247 28.1143L27.3857 30.9636L29.6942 31.7243L30.6331 28.875ZM30.0021 29.0774C30.1787 28.854 30.448 28.8139 30.6336 28.8752L29.6936 31.7241C30.6087 32.0261 31.6904 31.7797 32.3559 30.9374L30.0021 29.0774ZM30.7966 27.9153C30.5613 28.322 30.2968 28.7077 30.006 29.0725L32.352 30.9424C32.7327 30.4648 33.0815 29.9566 33.3933 29.4178L30.7966 27.9153ZM30.9807 27.586L30.7859 27.9341L33.404 29.399L33.5987 29.0509L30.9807 27.586ZM31.5317 26.3405C31.3757 26.7781 31.1868 27.2001 30.967 27.6111L33.6125 29.0258C33.8983 28.4913 34.1487 27.9334 34.3574 27.3481L31.5317 26.3405ZM31.6567 26.8845C31.5241 26.7609 31.4553 26.5558 31.5309 26.3429L34.3583 27.3457C34.699 26.385 34.4065 25.3462 33.7019 24.6896L31.6567 26.8845ZM29.8553 25.1848L31.6499 26.8781L33.7088 24.6961L31.9142 23.0028L29.8553 25.1848ZM29.4552 23.0021C29.4552 23.3047 29.4349 23.6064 29.3969 23.9036L32.3727 24.2839C32.4259 23.8677 32.4552 23.4388 32.4552 23.0021H29.4552ZM29.3969 22.1007C29.4349 22.3979 29.4552 22.6996 29.4552 23.0021H32.4552C32.4552 22.5655 32.4259 22.1366 32.3727 21.7204L29.3969 22.1007ZM31.6499 19.1262L29.8553 20.8195L31.9142 23.0015L33.7088 21.3082L31.6499 19.1262ZM23.5 23C23.5 23.2761 23.2761 23.5 23 23.5V26.5C24.933 26.5 26.5 24.933 26.5 23H23.5ZM23 22.5C23.2761 22.5 23.5 22.7239 23.5 23H26.5C26.5 21.067 24.933 19.5 23 19.5V22.5ZM22.5 23C22.5 22.7239 22.7239 22.5 23 22.5V19.5C21.067 19.5 19.5 21.067 19.5 23H22.5ZM23 23.5C22.7239 23.5 22.5 23.2761 22.5 23H19.5C19.5 24.933 21.067 26.5 23 26.5V23.5Z" fill="#343D45" mask="url(#path-2-inside-1_835_42657)"/>
<rect x="2" y="2" width="42" height="42" rx="21" stroke="#FFF8DD" stroke-width="4"/>
</svg>
