<svg width="25" height="24" viewBox="0 0 25 24" fill="none" xmlns="http://www.w3.org/2000/svg">
<path fill-rule="evenodd" clip-rule="evenodd" d="M13.5203 2C13.135 2 12.8226 2.3276 12.8226 2.73171V10.5366C12.8226 10.9407 13.135 11.2683 13.5203 11.2683H21.4273C21.8126 11.2683 22.125 10.9407 22.125 10.5366V2.73171C22.125 2.3276 21.8126 2 21.4273 2H13.5203ZM14.218 9.80488V3.46341H20.7296V9.80488H14.218ZM13.5203 22C13.135 22 12.8226 21.6724 12.8226 21.2683V13.4634C12.8226 13.0593 13.135 12.7317 13.5203 12.7317H21.4273C21.8126 12.7317 22.125 13.0593 22.125 13.4634V21.2683C22.125 21.6724 21.8126 22 21.4273 22H19.5668C19.1815 22 18.8691 21.6724 18.8691 21.2683C18.8691 20.8642 19.1815 20.5366 19.5668 20.5366H20.7296V14.1951H14.218V20.5366H15.8459C16.2312 20.5366 16.5436 20.8642 16.5436 21.2683C16.5436 21.6724 16.2312 22 15.8459 22H13.5203ZM2.125 13.4634C2.125 13.0593 2.43736 12.7317 2.82267 12.7317H10.7297C11.115 12.7317 11.4273 13.0593 11.4273 13.4634V21.2683C11.4273 21.6724 11.115 22 10.7297 22H2.82267C2.43736 22 2.125 21.6724 2.125 21.2683V13.4634ZM3.52035 14.1951V20.5366H10.032V14.1951H3.52035ZM2.82267 2C2.43736 2 2.125 2.3276 2.125 2.73171V10.5366C2.125 10.9407 2.43736 11.2683 2.82267 11.2683H10.7297C11.115 11.2683 11.4273 10.9407 11.4273 10.5366V2.73171C11.4273 2.3276 11.115 2 10.7297 2H2.82267ZM3.52035 9.80488V3.46341H10.032V9.80488H3.52035Z" fill="#0E1215"/>
</svg>
