<svg width="24" height="24" viewBox="0 0 24 24" fill="none" xmlns="http://www.w3.org/2000/svg">
<path fill-rule="evenodd" clip-rule="evenodd" d="M13.3953 2C13.01 2 12.6976 2.3276 12.6976 2.73171V10.5366C12.6976 10.9407 13.01 11.2683 13.3953 11.2683H21.3023C21.6876 11.2683 22 10.9407 22 10.5366V2.73171C22 2.3276 21.6876 2 21.3023 2H13.3953ZM14.093 9.80488V3.46341H20.6046V9.80488H14.093ZM13.3953 22C13.01 22 12.6976 21.6724 12.6976 21.2683V13.4634C12.6976 13.0593 13.01 12.7317 13.3953 12.7317H21.3023C21.6876 12.7317 22 13.0593 22 13.4634V21.2683C22 21.6724 21.6876 22 21.3023 22H19.4418C19.0565 22 18.7441 21.6724 18.7441 21.2683C18.7441 20.8642 19.0565 20.5366 19.4418 20.5366H20.6046V14.1951H14.093V20.5366H15.7209C16.1062 20.5366 16.4186 20.8642 16.4186 21.2683C16.4186 21.6724 16.1062 22 15.7209 22H13.3953ZM2 13.4634C2 13.0593 2.31236 12.7317 2.69767 12.7317H10.6047C10.99 12.7317 11.3023 13.0593 11.3023 13.4634V21.2683C11.3023 21.6724 10.99 22 10.6047 22H2.69767C2.31236 22 2 21.6724 2 21.2683V13.4634ZM3.39535 14.1951V20.5366H9.90698V14.1951H3.39535ZM2.69767 2C2.31236 2 2 2.3276 2 2.73171V10.5366C2 10.9407 2.31236 11.2683 2.69767 11.2683H10.6047C10.99 11.2683 11.3023 10.9407 11.3023 10.5366V2.73171C11.3023 2.3276 10.99 2 10.6047 2H2.69767ZM3.39535 9.80488V3.46341H9.90698V9.80488H3.39535Z" fill="#93989D"/>
</svg>
