<svg width="24" height="24" viewBox="0 0 24 24" fill="none" xmlns="http://www.w3.org/2000/svg">
<path fill-rule="evenodd" clip-rule="evenodd" d="M1.25 2.5C1.25 2.08579 1.58579 1.75 2 1.75H10.5C10.9142 1.75 11.25 2.08579 11.25 2.5V10.5C11.25 10.9142 10.9142 11.25 10.5 11.25H2C1.58579 11.25 1.25 10.9142 1.25 10.5V2.5ZM2.75 3.25V9.75H9.75V3.25H2.75Z" fill="#646464"/>
<path fill-rule="evenodd" clip-rule="evenodd" d="M1.25 13.5C1.25 13.0858 1.58579 12.75 2 12.75H10.5C10.9142 12.75 11.25 13.0858 11.25 13.5V21.5C11.25 21.9142 10.9142 22.25 10.5 22.25H2C1.58579 22.25 1.25 21.9142 1.25 21.5V13.5ZM2.75 14.25V20.75H9.75V14.25H2.75Z" fill="#646464"/>
<path fill-rule="evenodd" clip-rule="evenodd" d="M12.75 2.5C12.75 2.08579 13.0858 1.75 13.5 1.75H22C22.4142 1.75 22.75 2.08579 22.75 2.5V10.5C22.75 10.9142 22.4142 11.25 22 11.25H13.5C13.0858 11.25 12.75 10.9142 12.75 10.5V2.5ZM14.25 3.25V9.75H21.25V3.25H14.25Z" fill="#646464"/>
<path fill-rule="evenodd" clip-rule="evenodd" d="M12.75 21.5C12.75 21.9142 13.0858 22.25 13.5 22.25H16C16.4142 22.25 16.75 21.9142 16.75 21.5C16.75 21.0858 16.4142 20.75 16 20.75H14.25V14.25H21.25V20.75H20C19.5858 20.75 19.25 21.0858 19.25 21.5C19.25 21.9142 19.5858 22.25 20 22.25H22C22.4142 22.25 22.75 21.9142 22.75 21.5V13.5C22.75 13.0858 22.4142 12.75 22 12.75H13.5C13.0858 12.75 12.75 13.0858 12.75 13.5V21.5Z" fill="#646464"/>
</svg>
