<svg width="20" height="20" viewBox="0 0 20 20" fill="none" xmlns="http://www.w3.org/2000/svg">
<path d="M0.690735 10.2944L0.690673 10.2945C-0.084104 10.7367 -0.0115805 11.9212 0.814427 12.2639L0.814667 12.264L6.29514 14.5492L6.38741 14.5877V14.6876V18.7228C6.38741 19.347 6.89056 19.8502 7.51475 19.8502C7.84919 19.8502 8.16608 19.7019 8.37961 19.4436L8.38005 19.4431L10.8019 16.5408L10.8727 16.4559L10.9748 16.4984L15.8146 18.514L15.8148 18.5141C16.4625 18.7848 17.2171 18.3583 17.3235 17.6649L17.3235 17.6648L19.8235 1.41484L19.8236 1.41438C19.8888 0.999141 19.7067 0.579749 19.3598 0.342756C19.0124 0.105385 18.5585 0.0848663 18.1907 0.294448L0.690735 10.2944ZM0.690735 10.2944L18.1906 0.294523L0.690735 10.2944ZM2.57706 11.0301L2.31215 11.1814L2.59377 11.2988L7.40236 13.3027L7.47592 13.1813L7.52497 13.2252L16.1031 3.63924L15.9169 3.40897L2.57706 11.0301ZM15.6836 16.7558L15.8604 16.8296L15.8896 16.6401L17.745 4.57764L17.8218 4.07832L17.485 4.45482L9.12171 13.8025L8.98104 13.9597L9.17575 14.0409L15.6836 16.7558Z" fill="black" stroke="white" stroke-width="0.3"/>
</svg>
