<svg width="38" height="38" viewBox="0 0 38 38" fill="none" xmlns="http://www.w3.org/2000/svg">
<circle cx="19" cy="19" r="18.75" fill="#FCFCFA" stroke="#D2D5D7" stroke-width="0.5"/>
<path fill-rule="evenodd" clip-rule="evenodd" d="M14.9636 14.9091C14.9636 12.4288 16.9743 10.4182 19.4545 10.4182C21.9348 10.4182 23.9454 12.4288 23.9454 14.9091C23.9454 17.3893 21.9348 19 19.4545 19C16.9743 19 14.9636 17.3893 14.9636 14.9091ZM19.4545 9C16.191 9 13.5454 11.6456 13.5454 14.9091C13.5454 16.8678 14.4985 18.4599 15.9661 19.4198C12.5501 20.3911 9.87914 22.9619 9.06897 26.2264C8.67354 27.8198 10.0477 29 11.4225 29H19C19.3923 29 19.7104 28.6802 19.7104 28.2857C19.7104 27.8912 19.3923 27.5714 19 27.5714H11.4225C10.7048 27.5714 10.3363 27.0203 10.4475 26.5723C11.3087 23.1021 14.7704 20.4286 19 20.4286C23.2296 20.4286 26.6913 23.1021 27.5525 26.5723C27.6637 27.0203 27.2952 27.5714 26.5775 27.5714H23.7359C23.3436 27.5714 23.0256 27.8912 23.0256 28.2857C23.0256 28.6802 23.3436 29 23.7359 29H26.5775C27.9523 29 29.3265 27.8198 28.931 26.2264C28.1688 23.1553 25.7597 20.698 22.6326 19.609C24.2749 18.6773 25.3636 17.0027 25.3636 14.9091C25.3636 11.6456 22.718 9 19.4545 9Z" fill="#6B7278"/>
</svg>
