<svg width="20" height="21" viewBox="0 0 20 21" fill="none" xmlns="http://www.w3.org/2000/svg">
<path d="M8.98045 20.437C7.7145 20.2776 6.53243 19.9169 5.43425 19.3549C4.33607 18.793 3.38425 18.0674 2.5788 17.1783C1.77337 16.2892 1.14221 15.2549 0.685325 14.0756C0.228442 12.8962 0 11.6105 0 10.2185C0 8.8272 0.315217 7.48608 0.94565 6.19515C1.57608 4.9042 2.42753 3.74206 3.49998 2.70872H0.5489V0.728275H6.98045V7.15983H5V4.062C4.06522 4.87432 3.32827 5.81145 2.78915 6.8734C2.25002 7.93535 1.98045 9.05038 1.98045 10.2185C1.98045 12.362 2.64712 14.1917 3.98045 15.7076C5.31378 17.2236 6.98045 18.1315 8.98045 18.4315V20.437ZM8.56523 14.6946L4.53478 10.6783L5.81088 9.38805L8.56523 12.1424L14.1555 6.5522L15.4457 7.82827L8.56523 14.6946ZM13 19.7087V13.2772H14.9805V16.375C15.9152 15.546 16.6522 14.6047 17.1913 13.5511C17.7304 12.4975 18 11.3866 18 10.2185C18 8.07502 17.3333 6.24531 16 4.72937C14.6667 3.21344 13 2.30547 11 2.00547V0C13.5652 0.309433 15.7033 1.41505 17.4142 3.31685C19.125 5.21867 19.9805 7.51922 19.9805 10.2185C19.9805 11.6098 19.6652 12.9509 19.0348 14.2418C18.4044 15.5328 17.5576 16.6949 16.4946 17.7283H19.4316V19.7087H13Z" fill="black"/>
</svg>
