<svg width="59" height="65" viewBox="0 0 118 129" fill="none" xmlns="http://www.w3.org/2000/svg">
<path d="M33.9794 64.9943C33.9802 69.7583 35.3856 74.415 38.0179 78.3757C40.6502 82.3364 44.3912 85.4231 48.7678 87.2455C53.1444 89.0679 57.9601 89.5441 62.6058 88.614C67.2516 87.6838 71.5187 85.3891 74.8677 82.0199C78.2167 78.6507 80.497 74.3585 81.4204 69.6859C82.3438 65.0133 81.8688 60.1703 80.0553 55.7693C78.2419 51.3682 75.1716 47.6068 71.2325 44.9607C67.2935 42.3146 62.6628 40.9027 57.9259 40.9034C54.7805 40.9034 51.666 41.5266 48.7602 42.7374C45.8544 43.9482 43.2142 45.7228 40.9905 47.96C38.7668 50.1971 37.003 52.8529 35.8001 55.7757C34.5971 58.6985 33.9784 61.831 33.9794 64.9943Z" fill="#F8D03B"/>
<path d="M81.4854 24.6445L82.2686 25.4342C82.0177 25.1672 81.7515 24.9039 81.4854 24.6445Z" fill="#1E1E1C"/>
<path d="M82.2305 40.4533L81.5195 41.1858C81.7698 40.9549 82.0071 40.7104 82.2305 40.4533Z" fill="#1E1E1C"/>
<path d="M111.266 54.6102L91.8332 35.0552L80.0743 46.8813L90.4297 57.2844L98.092 64.9981C98.092 64.9981 61.1425 102.159 60.4635 102.849C58.0169 105.302 57.9638 109.735 57.9638 109.735C57.9638 109.735 57.9183 105.302 55.5096 102.868L17.8394 64.9943L35.804 46.9423L24.045 35.1163L3.09524 56.1857C1.06397 58.7094 -0.0303857 61.8655 6.96069e-05 65.1122C0.0305249 68.3589 1.18389 71.4936 3.26214 73.9782L57.9562 128.996L111.114 75.5347C111.114 75.5347 115.761 71.4833 115.863 65.0286C115.958 58.8638 111.266 54.6102 111.266 54.6102Z" fill="#1E1E1C"/>
<path d="M34.7571 41.6397L37.9168 44.8136L39.5213 46.435C39.2059 45.9464 39.0288 45.3806 39.0092 44.7984C39.0065 44.4393 39.0857 44.0843 39.2406 43.7607C39.3867 43.4445 39.5798 43.1525 39.8134 42.8948L40.3255 42.3759L57.9562 24.6407L75.8753 42.6621C76.437 43.2279 76.773 43.9811 76.8198 44.7793C76.8244 45.4185 76.604 46.0388 76.1977 46.5303L81.5082 41.1895L82.2175 40.4571C84.0939 38.4084 85.1328 35.7233 85.1269 32.938C85.1278 30.1663 84.1044 27.4933 82.2554 25.438L81.474 24.6483L57.9562 0.996155L34.996 24.1028L33.3043 25.808C31.4911 27.6315 30.649 30.4087 30.649 32.9685C30.6424 35.5295 31.5176 38.0138 33.126 39.9993L34.7571 41.6397Z" fill="#1E1E1C"/>
</svg>
