
<svg width="16" height="16" viewBox="0 0 16 16" fill="none" xmlns="http://www.w3.org/2000/svg">
<path fill-rule="evenodd" clip-rule="evenodd" d="M6.00003 1.33322C8.57271 1.33322 10.6667 3.42656 10.6667 5.99991C10.6667 8.57259 8.57271 10.6666 6.00003 10.6666C3.42668 10.6666 1.33334 8.57259 1.33334 5.99991C1.33334 3.42656 3.42668 1.33322 6.00003 1.33322ZM6.00003 11.9999C7.4207 11.9999 8.72604 11.5006 9.75538 10.6719L14.8607 15.804C15.1201 16.0646 15.5414 16.066 15.8034 15.8053C16.0647 15.546 16.0654 15.124 15.8061 14.8626L10.6941 9.72526C11.5094 8.70126 12.0001 7.40725 12.0001 5.99991C12.0001 2.69123 9.30871 -0.00012207 6.00003 -0.00012207C2.69135 -0.00012207 0 2.69123 0 5.99991C0 9.30793 2.69135 11.9999 6.00003 11.9999Z" fill="#9F9FA7"/>
</svg>