<svg width="24" height="22" viewBox="0 0 24 22" fill="none" xmlns="http://www.w3.org/2000/svg">
<path fill-rule="evenodd" clip-rule="evenodd" d="M14.5263 3.49998C14.5263 4.87998 13.4063 5.99997 12.0264 5.99997C10.6464 5.99997 9.52637 4.87998 9.52637 3.49998C9.52637 2.11999 10.6464 1 12.0264 1C13.4063 1 14.5263 2.11999 14.5263 3.49998Z" stroke="#9F9FA7" stroke-linecap="round" stroke-linejoin="round"/>
<path d="M14.5242 3.50023H22.5535" stroke="#9F9FA7" stroke-linecap="round" stroke-linejoin="round"/>
<path d="M1.44653 3.50023H9.52293" stroke="#9F9FA7" stroke-linecap="round" stroke-linejoin="round"/>
<path fill-rule="evenodd" clip-rule="evenodd" d="M8.52731 10.9995C8.52731 12.3795 7.40732 13.4995 6.02733 13.4995C4.64734 13.4995 3.52734 12.3795 3.52734 10.9995C3.52734 9.6195 4.64734 8.49951 6.02733 8.49951C7.40732 8.49951 8.52731 9.6195 8.52731 10.9995Z" stroke="#9F9FA7" stroke-linecap="round" stroke-linejoin="round"/>
<path d="M8.52222 11.0002H22.5535" stroke="#9F9FA7" stroke-linecap="round" stroke-linejoin="round"/>
<path d="M1.44629 11H2.9374" stroke="#9F9FA7" stroke-linecap="round" stroke-linejoin="round"/>
<path fill-rule="evenodd" clip-rule="evenodd" d="M12.0273 18.5C12.0273 19.88 10.9073 21 9.52733 21C8.14734 21 7.02734 19.88 7.02734 18.5C7.02734 17.12 8.14734 16 9.52733 16C10.9073 16 12.0273 17.12 12.0273 18.5Z" stroke="#9F9FA7" stroke-linecap="round" stroke-linejoin="round"/>
<path d="M12.0225 18.5003H22.5527" stroke="#9F9FA7" stroke-linecap="round" stroke-linejoin="round"/>
<path d="M1.44629 18.5005H6.93856" stroke="#9F9FA7" stroke-linecap="round" stroke-linejoin="round"/>
</svg>