<svg width="33" height="33" viewBox="0 0 33 33" fill="none" xmlns="http://www.w3.org/2000/svg">
<circle cx="16.1503" cy="16.3044" r="15.6268" fill="#FFFCEE" stroke="#FFF5CB" stroke-width="0.480826"/>
<g clip-path="url(#clip0_835_37857)">
<path d="M17.2779 8.31226C16.8583 7.89722 16.1768 7.89722 15.7572 8.31226L11.4605 12.5623C11.0409 12.9773 11.0409 13.6513 11.4605 14.0664C11.8801 14.4814 12.5616 14.4814 12.9812 14.0664L15.4451 11.6292V18.6251C15.4451 19.2128 15.9251 19.6876 16.5192 19.6876C17.1134 19.6876 17.5934 19.2128 17.5934 18.6251V11.6292L20.0573 14.0664C20.4769 14.4814 21.1583 14.4814 21.5779 14.0664C21.9975 13.6513 21.9975 12.9773 21.5779 12.5623L17.2812 8.31226H17.2779ZM11.1484 19.6876C11.1484 19.1 10.6683 18.6251 10.0742 18.6251C9.48002 18.6251 9 19.1 9 19.6876V21.8126C9 23.5724 10.4434 25.0001 12.2225 25.0001H20.8159C22.595 25.0001 24.0385 23.5724 24.0385 21.8126V19.6876C24.0385 19.1 23.5584 18.6251 22.9643 18.6251C22.3701 18.6251 21.8901 19.1 21.8901 19.6876V21.8126C21.8901 22.4003 21.4101 22.8751 20.8159 22.8751H12.2225C11.6284 22.8751 11.1484 22.4003 11.1484 21.8126V19.6876Z" fill="black"/>
</g>
<defs>
<clipPath id="clip0_835_37857">
<rect width="15.0385" height="17" fill="white" transform="translate(9 8)"/>
</clipPath>
</defs>
</svg>
