<svg width="18" height="22" viewBox="0 0 18 22" fill="none" xmlns="http://www.w3.org/2000/svg">
<path d="M4.97406 16.7621H13.0241V15.1964H4.97406V16.7621ZM4.97406 12.5121H13.0241V10.9464H4.97406V12.5121ZM2.55286 21.1496C2.09288 21.1496 1.694 20.9808 1.35623 20.643C1.01848 20.3052 0.849609 19.9064 0.849609 19.4464V2.55398C0.849609 2.09236 1.01848 1.69209 1.35623 1.35315C1.694 1.0142 2.09288 0.844727 2.55286 0.844727H11.5898L17.1545 6.40943V19.4464C17.1545 19.9064 16.985 20.3052 16.6461 20.643C16.3072 20.9808 15.9069 21.1496 15.4453 21.1496H2.55286ZM10.7203 7.20398V2.55398H2.55286V19.4464H15.4453V7.20398H10.7203Z" fill="black"/>
</svg>
