<svg width="21" height="21" viewBox="0 0 21 21" fill="none" xmlns="http://www.w3.org/2000/svg">
<path d="M9.24998 20.3109V15.6761L5.68043 19.2316L4.37933 17.9555L9.24998 13.0848V11.0609H7.22608L2.45543 15.8316L1.12933 14.5805L4.63475 11.0609H0V9.25H4.63475L1.05433 5.65545L2.35543 4.35435L7.22608 9.25H9.24998V7.18698L4.47933 2.43045L5.75543 1.10435L9.24998 4.60978V0H11.0609V4.60978L14.6554 1.02935L15.9315 2.33045L11.0609 7.18698V9.25H13.1239L17.9054 4.45435L19.2065 5.73045L15.7011 9.25H20.3109V11.0609H15.7011L19.2315 14.6305L17.9804 15.9316L13.1239 11.0609H11.0609V13.0848L15.9315 17.9805L14.6804 19.2816L11.0609 15.6761V20.3109H9.24998V20.3109Z" fill="#343D45"/>
</svg>
