<svg width="46" height="46" viewBox="0 0 46 46" fill="none" xmlns="http://www.w3.org/2000/svg">
<rect x="2" y="2" width="42" height="42" rx="21" fill="#FFDD45"/>
<g clip-path="url(#clip0_835_42634)">
<path fill-rule="evenodd" clip-rule="evenodd" d="M12 16.6667C12 16.2985 12.3144 16 12.7021 16H33.2979C33.6856 16 34 16.2985 34 16.6667V31.3333C34 31.7015 33.6856 32 33.2979 32H28.5H26.4375H12.7021C12.3144 32 12 31.7015 12 31.3333V22C12 21.6318 12.3144 21.3333 12.7021 21.3333C13.0899 21.3333 13.4043 21.6318 13.4043 22V29.3333C13.4043 29.8243 13.8147 30.6667 14.3209 30.6667H30.7624C31.7749 30.6667 32.5957 29.8707 32.5957 28.8889L32.6226 18.2793C32.6239 17.7572 32.2011 17.3333 31.6791 17.3333H14.2931C13.8022 17.3333 13.4043 17.7313 13.4043 18.2222V18.4444C13.4043 18.8126 13.0899 19.1111 12.7021 19.1111C12.3144 19.1111 12 18.8126 12 18.4444V16.6667Z" fill="#343D45"/>
<path fill-rule="evenodd" clip-rule="evenodd" d="M34 16H12V32H34V16ZM15.5 17.5C14.3954 17.5 13.5 18.3954 13.5 19.5V28.5C13.5 29.6046 14.3954 30.5 15.5 30.5H30.5C31.6046 30.5 32.5 29.6046 32.5 28.5V19.5C32.5 18.3954 31.6046 17.5 30.5 17.5H15.5Z" fill="#343D45"/>
<path fill-rule="evenodd" clip-rule="evenodd" d="M21 27.75C21 28.1642 20.6642 28.5 20.25 28.5H15.75C15.3358 28.5 15 28.1642 15 27.75C15 27.3358 15.3358 27 15.75 27H20.25C20.6642 27 21 27.3358 21 27.75Z" fill="#343D45"/>
<path fill-rule="evenodd" clip-rule="evenodd" d="M30 23.75C30 24.1642 29.6642 24.5 29.25 24.5H15.75C15.3358 24.5 15 24.1642 15 23.75C15 23.3358 15.3358 23 15.75 23H29.25C29.6642 23 30 23.3358 30 23.75Z" fill="#343D45"/>
</g>
<rect x="18" y="12" width="10" height="10" fill="#FFDD45"/>
<path fill-rule="evenodd" clip-rule="evenodd" d="M23.25 20C22.8358 20 22.5 19.6947 22.5 19.3182V17.1591C22.5 16.7825 22.8358 16.4772 23.25 16.4772C23.6642 16.4772 24 16.7825 24 17.1591V19.3182C24 19.6947 23.6642 20 23.25 20ZM23.25 15.6818C22.8358 15.6818 22.5 15.3765 22.5 14.9999V10.6817C22.5 10.3051 22.8358 9.99986 23.25 9.99986C23.6642 9.99986 24 10.3051 24 10.6817V14.9999C24 15.3765 23.6642 15.6818 23.25 15.6818Z" fill="#343D45"/>
<path fill-rule="evenodd" clip-rule="evenodd" d="M19.2197 13.7803C18.9268 13.4874 18.9268 13.0125 19.2197 12.7197L22.7197 9.2196C23.0126 8.92671 23.4875 8.92671 23.7804 9.2196L27.2804 12.7197C27.5733 13.0125 27.5733 13.4874 27.2804 13.7803C26.9875 14.0732 26.5127 14.0732 26.2198 13.7803L23.2501 10.8106L20.2803 13.7803C19.9875 14.0732 19.5126 14.0732 19.2197 13.7803Z" fill="#343D45"/>
<rect x="2" y="2" width="42" height="42" rx="21" stroke="#FFF8DD" stroke-width="4"/>
<defs>
<clipPath id="clip0_835_42634">
<rect x="12" y="16" width="22" height="16" rx="3" fill="white"/>
</clipPath>
</defs>
</svg>
