<svg width="17" height="22" viewBox="0 0 17 22" fill="none" xmlns="http://www.w3.org/2000/svg">
<path d="M1.98045 7.03695H11.2783V4.9511C11.2783 4.11837 10.9966 3.41743 10.4334 2.8483C9.87023 2.27917 9.17893 1.9946 8.35955 1.9946C7.54015 1.9946 6.84676 2.27917 6.27938 2.8483C5.71199 3.41743 5.4283 4.11728 5.4283 4.94785H3.44783C3.44783 3.57145 3.92421 2.40271 4.87698 1.44162C5.82974 0.480541 6.98826 0 8.35253 0C9.71679 0 10.8756 0.481167 11.8288 1.4435C12.7821 2.40583 13.2587 3.57395 13.2587 4.94785V7.03695H14.7261C15.2746 7.03695 15.7442 7.23226 16.1348 7.62288C16.5254 8.01348 16.7207 8.48303 16.7207 9.03155V19.6272C16.7207 20.1718 16.5254 20.638 16.1348 21.0259C15.7442 21.4137 15.2746 21.6076 14.7261 21.6076H1.98045C1.43583 21.6076 0.9696 21.4137 0.58175 21.0259C0.193917 20.638 0 20.1718 0 19.6272V9.03155C0 8.48303 0.193917 8.01348 0.58175 7.62288C0.9696 7.23226 1.43583 7.03695 1.98045 7.03695ZM1.98045 19.6272H14.7261V9.03155H1.98045V19.6272ZM8.35748 16.2544C8.88801 16.2544 9.34077 16.0708 9.71577 15.7036C10.0908 15.3364 10.2783 14.895 10.2783 14.3794C10.2783 13.8794 10.0894 13.4252 9.71157 13.0169C9.33377 12.6085 8.87961 12.4044 8.34908 12.4044C7.81854 12.4044 7.36577 12.6085 6.99077 13.0169C6.61577 13.4252 6.42827 13.8835 6.42827 14.3919C6.42827 14.9002 6.61718 15.3377 6.99498 15.7044C7.37278 16.071 7.82694 16.2544 8.35748 16.2544Z" fill="black"/>
</svg>
