<svg width="164" height="164" viewBox="0 0 164 164" fill="none" xmlns="http://www.w3.org/2000/svg">
<g filter="url(#filter0_d_168_22425)">
<circle cx="82" cy="78" r="70" fill="white"/>
</g>
<circle cx="82" cy="78" r="70" fill="white"/>
<circle cx="81.9997" cy="78.0001" r="59.195" stroke="#F1C40F" stroke-width="4"/>
<path d="M75.2605 86.3642L75.9618 87.0541L76.6631 86.3642L101.87 61.5675C103.105 60.3525 105.114 60.3525 106.349 61.5675C107.575 62.7737 107.575 64.7227 106.349 65.9289L75.9618 95.8216L58.5319 78.6754C57.3058 77.4691 57.3058 75.5202 58.5319 74.3139C59.767 73.099 61.7759 73.099 63.0109 74.3139L75.2605 86.3642Z" fill="#F1C40F" stroke="white" stroke-width="2"/>
<circle cx="82.195" cy="78.195" r="59.195" fill="white"/>
<circle cx="82.195" cy="78.195" r="59.195" fill="#F1C40F" fill-opacity="0.04"/>
<circle cx="82.195" cy="78.195" r="59.195" stroke="#F1C40F" stroke-width="4"/>
<path d="M79.6963 86.9457V55.0059H85.3028V86.9457H79.6963ZM79.6963 101.994V96.3879H85.3028V101.994H79.6963Z" fill="#F1C40F"/>
<defs>
<filter id="filter0_d_168_22425" x="0" y="0" width="164" height="164" filterUnits="userSpaceOnUse" color-interpolation-filters="sRGB">
<feFlood flood-opacity="0" result="BackgroundImageFix"/>
<feColorMatrix in="SourceAlpha" type="matrix" values="0 0 0 0 0 0 0 0 0 0 0 0 0 0 0 0 0 0 127 0" result="hardAlpha"/>
<feOffset dy="4"/>
<feGaussianBlur stdDeviation="6"/>
<feComposite in2="hardAlpha" operator="out"/>
<feColorMatrix type="matrix" values="0 0 0 0 0.203922 0 0 0 0 0.239216 0 0 0 0 0.270588 0 0 0 0.12 0"/>
<feBlend mode="normal" in2="BackgroundImageFix" result="effect1_dropShadow_168_22425"/>
<feBlend mode="normal" in="SourceGraphic" in2="effect1_dropShadow_168_22425" result="shape"/>
</filter>
</defs>
</svg>
